<?xml version="1.0" encoding="utf-8"?>
<!-- Generator: Adobe Illustrator 16.0.3, SVG Export Plug-In . SVG Version: 6.00 Build 0)  -->
<!DOCTYPE svg PUBLIC "-//W3C//DTD SVG 1.1//EN" "http://www.w3.org/Graphics/SVG/1.1/DTD/svg11.dtd">
<svg version="1.1"
	 id="Layer_1" xmlns:dc="http://purl.org/dc/elements/1.1/" xmlns:cc="http://creativecommons.org/ns#" xmlns:rdf="http://www.w3.org/1999/02/22-rdf-syntax-ns#" xmlns:svg="http://www.w3.org/2000/svg" xmlns:sodipodi="http://sodipodi.sourceforge.net/DTD/sodipodi-0.dtd" xmlns:inkscape="http://www.inkscape.org/namespaces/inkscape" inkscape:version="0.92.3 (2405546, 2018-03-11)" sodipodi:docname="AWSPartner.svg"
	 xmlns="http://www.w3.org/2000/svg" xmlns:xlink="http://www.w3.org/1999/xlink" x="0px" y="0px" width="1579.176px"
	 height="475.165px" viewBox="0 0 1579.176 475.165" enable-background="new 0 0 1579.176 475.165" xml:space="preserve">
<sodipodi:namedview  inkscape:cy="237.64509" inkscape:cx="859.52" inkscape:zoom="0.221875" fit-margin-left="0" fit-margin-top="0" showgrid="false" guidetolerance="10" gridtolerance="10" objecttolerance="10" borderopacity="1" pagecolor="#ffffff" bordercolor="#666666" id="namedview125" inkscape:current-layer="Layer_1" inkscape:window-maximized="0" inkscape:window-y="0" inkscape:window-x="0" fit-margin-bottom="0" fit-margin-right="0" inkscape:window-height="480" inkscape:window-width="640" inkscape:pageshadow="2" inkscape:pageopacity="0">
	</sodipodi:namedview>
<g>
	<path id="path2" inkscape:connector-curvature="0" fill="#B8B8B8" d="M0,151.693c7.3,1.714,14.396,4.128,21.585,6.229
		c11.868,3.469,23.701,7.058,35.574,10.508c1.669,0.485,2.263,1.213,2.231,2.972c-0.49,27.813-0.229,55.628-0.231,83.442
		c0,2.232-0.767,2.05-2.368,1.51c-17.924-6.038-35.862-12.031-53.807-18.018c-0.966-0.321-1.89-0.902-2.984-0.717
		C0,208.978,0,180.336,0,151.693L0,151.693z"/>
	<path id="path4" inkscape:connector-curvature="0" fill="#B8B8B8" d="M440.198,0c5.672,2.354,11.636,3.822,17.472,5.67
		c11.642,3.688,23.333,7.219,35.002,10.821c0.376,0.116,0.729,0.305,1.563,0.659c-5.456,1.457-10.493,2.808-15.533,4.147
		c-12.574,3.341-25.153,6.667-37.723,10.031c-1.114,0.298-2.134,0.396-3.278,0.087c-17.186-4.634-34.381-9.229-51.571-13.84
		c-0.305-0.082-0.583-0.245-1.331-0.564c3.409-1.093,6.437-2.083,9.476-3.034c14.473-4.531,28.95-9.051,43.422-13.585
		c0.215-0.067,0.393-0.258,0.585-0.392C438.919,0,439.558,0,440.198,0z"/>
	<path id="path6" inkscape:connector-curvature="0" fill="#B8B8B8" d="M290.905,0c8.046,2.555,16.082,5.138,24.139,7.659
		c9.893,3.096,19.801,6.143,30.357,9.414c-3.831,1.031-7.058,1.91-10.29,2.771c-14.495,3.854-28.991,7.695-43.481,11.563
		c-0.871,0.232-1.688,0.359-2.582,0.118c-17.255-4.643-34.514-9.27-51.77-13.909c-0.45-0.121-0.876-0.335-1.591-0.615
		c11.061-3.478,21.857-6.877,32.659-10.268c6.316-1.984,12.643-3.943,18.95-5.954c0.575-0.183,1.303-0.141,1.688-0.777
		C289.625,0,290.265,0,290.905,0z"/>
	<path id="path8" inkscape:connector-curvature="0" d="M462.523,167.434c5.29-11.96,13.708-19.219,27.003-19.981
		c15.065-0.863,24.444,6.839,30.145,20.513c2.335-5.539,5.353-10.072,9.711-13.65c13.241-10.872,34.853-8.634,45.163,4.708
		c3.971,5.139,5.348,11.153,5.817,17.452c0.426,5.666,0.13,11.339,0.114,17.011c-0.063,23.516-0.025,47.033-0.027,70.549
		c0,4.191-1.217,5.479-5.376,5.502c-6.396,0.037-12.798,0.032-19.193,0c-4.014-0.021-5.269-1.334-5.271-5.354
		c-0.026-24.557-0.039-49.11-0.102-73.665c-0.009-2.713-0.354-5.42-1.367-7.982c-2.37-5.988-9.618-8.717-16.386-6.103
		c-6.628,2.56-9.2,7.961-9.962,14.558c-0.378,3.256-0.523,6.524-0.521,9.807c0.026,21.037,0.014,42.075,0.012,63.11
		c0,4.225-1.339,5.606-5.564,5.631c-6.319,0.026-12.64,0.024-18.957,0c-4.12-0.021-5.479-1.395-5.479-5.472
		c-0.005-20.313-0.065-40.634,0.038-60.95c0.031-5.918,0.313-11.831-1.147-17.625c-1.708-6.764-5.521-10-11.795-10.2
		c-6.449-0.206-11.056,3.013-13.287,9.252c-2.004,5.601-2.075,11.454-2.098,17.271c-0.074,20.716-0.026,41.437-0.028,62.149
		c0,4.234-1.293,5.55-5.597,5.566c-6.317,0.026-12.638,0.024-18.957,0.002c-4.119-0.019-5.374-1.328-5.374-5.508
		c0-36.232-0.001-72.468,0-108.702c0-4.264,1.298-5.556,5.582-5.559c5.999-0.003,11.999-0.012,17.997,0.003
		c3.499,0.009,4.893,1.424,4.904,4.965C462.534,158.973,462.523,163.204,462.523,167.434L462.523,167.434z"/>
	<path id="path10" inkscape:connector-curvature="0" d="M694.062,204.735c0,8.83,0.083,16.028-0.024,23.225
		c-0.097,6.481,1.735,12.259,5.663,17.404c1.065,1.395,2.148,2.795,3.03,4.305c1.219,2.086,0.83,3.934-1.001,5.525
		c-5.179,4.518-10.354,9.03-15.566,13.51c-2.592,2.229-4.616,2.164-7.228-0.047c-3.935-3.339-7.261-7.209-9.882-11.638
		c-1.011-1.708-1.59-1.513-2.854-0.233c-5.727,5.813-12.068,10.738-20.205,12.697c-7.861,1.895-15.81,2.311-23.722,0.344
		c-10.613-2.636-17.896-9.193-20.934-19.67c-4.045-13.967-2.631-27.25,7.121-38.75c6.597-7.778,15.549-11.446,25.232-13.638
		c9.063-2.05,18.3-2.843,27.519-3.728c1.939-0.187,2.344-0.839,2.229-2.571c-0.21-3.265,0.093-6.536-0.338-9.813
		c-1.289-9.793-9.266-12.615-16.139-11.993c-8.354,0.754-13.96,4.889-15.867,13.431c-0.646,2.891-2.386,3.792-5.355,3.443
		c-6.267-0.735-12.544-1.373-18.808-2.132c-3.349-0.406-4.5-2.188-3.785-5.512c2.843-13.227,10.42-22.677,22.958-27.73
		c15.563-6.273,31.442-6.752,47.216-0.844c12.693,4.754,19.357,14.222,20.415,27.76C694.478,187.51,693.774,196.941,694.062,204.735
		z"/>
	<path id="path12" inkscape:connector-curvature="0" d="M408.995,204.25c0,9.154,0.098,16.594-0.027,24.029
		c-0.107,6.33,1.771,11.929,5.521,16.962c1.002,1.346,2.063,2.652,2.957,4.066c1.469,2.324,1.185,4.113-0.875,5.91
		c-5.174,4.521-10.35,9.043-15.563,13.521c-2.527,2.171-4.497,2.113-7.031,0.009c-3.91-3.244-7.199-7.045-9.818-11.384
		c-1.065-1.767-1.675-2.11-3.298-0.411c-4.781,5.004-10.155,9.317-16.825,11.545c-9.391,3.135-18.979,3.644-28.52,0.854
		c-9.65-2.815-16.229-9.188-19.159-18.797c-3.896-12.769-2.996-25.13,4.804-36.378c6.153-8.873,15.224-13.337,25.394-15.909
		c9.717-2.457,19.682-3.26,29.608-4.236c1.825-0.18,2.191-0.719,2.158-2.412c-0.063-3.353,0.229-6.721-0.354-10.045
		c-1.411-8.041-7.081-12.493-15.234-12.035c-8.948,0.502-14.157,4.694-16.654,13.402c-0.854,2.976-2.419,3.94-5.49,3.578
		c-6.188-0.73-12.388-1.362-18.574-2.092c-3.499-0.412-4.667-2.149-3.938-5.596c2.664-12.576,9.688-21.913,21.469-27.01
		c16.797-7.267,33.967-7.783,50.924-0.514c11.199,4.802,16.956,13.818,18.083,25.892C409.44,186.78,408.73,196.38,408.995,204.25
		L408.995,204.25z"/>
	<path id="path14" inkscape:connector-curvature="0" d="M956.44,169.209c1.058-2.115,2.039-4.272,3.188-6.339
		c6.889-12.432,16.77-16.557,29.951-15.207c14.769,1.513,23.872,10.708,26.204,25.507c0.962,6.101,1.295,12.244,1.314,18.391
		c0.079,24.081,0.033,48.162,0.032,72.243c0,4.428-1.261,5.717-5.703,5.733c-6.32,0.024-12.645,0.03-18.961-0.002
		c-4.123-0.021-5.423-1.379-5.423-5.516c0-22.645,0.004-45.281-0.005-67.922c-0.001-4.41-0.316-8.778-1.899-12.956
		c-2.937-7.737-11.604-10.5-18.471-5.879c-5.049,3.395-6.783,8.685-8.015,14.22c-0.888,3.997-1.056,8.073-1.055,12.158
		c0.005,20.081,0.003,40.16,0.002,60.24c-0.001,4.193-1.379,5.631-5.568,5.648c-6.316,0.033-12.641,0.033-18.96,0
		c-4.14-0.021-5.396-1.339-5.396-5.516c-0.002-17.041,0.02-34.082-0.006-51.123c-0.029-19.117-0.104-38.233-0.15-57.351
		c-0.011-4.448,1.301-5.771,5.662-5.774c6-0.004,12-0.015,18.001,0.004c3.364,0.011,4.801,1.446,4.813,4.808
		c0.021,4.871,0.009,9.742,0.009,14.612C956.151,169.202,956.296,169.206,956.44,169.209L956.44,169.209z"/>
	<path id="path16" inkscape:connector-curvature="0" d="M812.67,209.47c0.079-12.963,2.256-25.407,8.208-37.057
		c15.973-31.269,54.756-30.752,72.803-12.515c7.937,8.02,12.748,17.703,15.248,28.542c4.151,18.017,3.91,35.86-3.563,53.07
		c-6.521,15.029-17.17,25.645-33.66,29.259c-21.22,4.651-40.944-4.854-50.846-24.271C814.922,234.847,812.764,222.379,812.67,209.47
		L812.67,209.47z"/>
	<path id="path18" inkscape:connector-curvature="0" d="M757.949,230.372c9.817-0.291,19.067,0.661,28.103,3.382
		c4.06,1.224,7.906,2.931,11.689,4.829c3.04,1.521,4.58,3.938,4.626,7.246c0.074,5.357,0.109,10.723-0.007,16.078
		c-0.087,4.034-2.688,5.448-6.322,3.736c-24.646-11.614-49.263-11.734-73.817,0.289c-2.852,1.395-5.772,0.008-5.838-3.189
		c-0.141-6.632-0.314-13.271,0.104-19.904c0.219-3.445,1.649-6.418,3.612-9.229c13.439-19.249,26.848-38.525,40.245-57.806
		c0.387-0.557,1.009-1.021,1.021-2.104c-0.781,0-1.539,0-2.296,0c-11.04,0-22.079,0.002-33.118-0.001
		c-4.335-0.001-5.484-1.176-5.486-5.574c-0.004-4.719-0.023-9.439,0.009-14.159c0.021-3.009,1.386-4.418,4.396-4.42
		c23.602-0.021,47.197-0.02,70.796-0.002c3.075,0.002,4.522,1.476,4.558,4.583c0.042,4.24,0.026,8.48,0.003,12.719
		c-0.021,3.16-1.903,5.538-3.572,7.945c-6.961,10.042-13.992,20.035-20.994,30.048c-5.583,7.985-11.164,15.972-16.74,23.961
		C758.65,229.178,758.428,229.589,757.949,230.372L757.949,230.372z"/>
	<path id="path20" inkscape:connector-curvature="0" fill="#B8B8B8" d="M282.745,87.871c0,13.912-0.033,27.824,0.039,41.736
		c0.01,1.878-0.275,2.273-2.185,1.627c-18.36-6.215-36.747-12.35-55.144-18.455c-1.506-0.5-2.112-1.167-2.109-2.854
		c0.06-27.104,0.063-54.209-0.001-81.313c-0.006-2.155,0.605-2.286,2.446-1.732c18.339,5.509,36.695,10.959,55.064,16.37
		c1.478,0.435,1.936,1.094,1.928,2.646C282.716,59.887,282.745,73.878,282.745,87.871z"/>
	<path id="path22" inkscape:connector-curvature="0" fill="#B8B8B8" d="M208.271,212.847c0,13.92-0.028,27.84,0.033,41.76
		c0.009,1.946-0.3,2.504-2.38,1.8c-18.366-6.229-36.762-12.373-55.169-18.48c-1.41-0.469-1.803-1.17-1.801-2.583
		c0.036-27.2,0.047-54.398-0.014-81.599c-0.005-2.095,0.625-2.137,2.354-1.618c18.353,5.502,36.72,10.955,55.104,16.342
		c1.519,0.445,1.976,1.084,1.969,2.623c-0.057,13.919-0.033,27.838-0.033,41.757C208.316,212.847,208.293,212.847,208.271,212.847
		L208.271,212.847z"/>
	<path id="path24" inkscape:connector-curvature="0" fill="#B8B8B8" d="M133.763,338.077c0,13.92-0.026,27.84,0.03,41.758
		c0.009,1.896-0.229,2.522-2.349,1.809c-18.147-6.15-36.321-12.229-54.522-18.225c-1.952-0.645-2.5-1.558-2.495-3.551
		c0.067-26.719,0.045-53.437,0.046-80.152c0-3.034,0.001-3.028,3.014-2.135c18.055,5.379,36.101,10.783,54.178,16.078
		c1.695,0.496,2.252,1.137,2.241,2.906c-0.075,13.836-0.042,27.674-0.042,41.512C133.831,338.077,133.797,338.077,133.763,338.077
		L133.763,338.077z"/>
	<path id="path26" inkscape:connector-curvature="0" fill="#B8B8B8" d="M431.868,87.883c0,13.754,0.002,27.508-0.002,41.261
		c-0.001,2.757-0.016,2.772-2.604,1.909c-18.248-6.086-36.487-12.202-54.754-18.23c-1.574-0.521-2.038-1.218-2.035-2.854
		c0.056-27.106,0.058-54.215,0.002-81.323c-0.004-1.994,0.369-2.361,2.354-1.762c18.335,5.524,36.697,10.962,55.072,16.354
		c1.652,0.484,2.005,1.328,1.999,2.906C431.846,60.056,431.868,73.97,431.868,87.883L431.868,87.883z"/>
	<path id="path28" inkscape:connector-curvature="0" fill="#B8B8B8" d="M223.388,212.958c0-13.755,0.037-27.51-0.043-41.265
		c-0.012-1.914,0.502-2.754,2.424-3.315c18.309-5.344,36.586-10.787,54.854-16.273c1.683-0.505,2.163-0.359,2.157,1.529
		c-0.074,27.19-0.093,54.38-0.068,81.57c0.001,1.544-0.486,2.216-1.954,2.705c-18.323,6.103-36.637,12.242-54.919,18.47
		c-2.228,0.763-2.495,0.104-2.484-1.916C223.419,240.627,223.388,226.793,223.388,212.958L223.388,212.958z"/>
	<path id="path30" inkscape:connector-curvature="0" fill="#B8B8B8" d="M446.986,87.836c0-13.916,0.029-27.831-0.04-41.746
		c-0.008-1.629,0.421-2.379,2.036-2.853c18.3-5.372,36.589-10.782,54.847-16.294c2.242-0.677,2.603-0.201,2.594,2
		c-0.104,26.87-0.122,53.74-0.123,80.61c0,1.581-0.199,2.58-1.998,3.175c-18.335,6.071-36.647,12.209-54.929,18.442
		c-2.188,0.747-2.439,0.231-2.429-1.827C447.023,115.507,446.986,101.671,446.986,87.836L446.986,87.836z"/>
	<path id="path32" inkscape:connector-curvature="0" fill="#B8B8B8" d="M148.982,338.097c0-13.832,0.027-27.664-0.037-41.496
		c-0.008-1.72,0.458-2.449,2.197-2.957c18.226-5.329,36.428-10.737,54.604-16.231c2.189-0.66,2.649-0.318,2.639,1.967
		c-0.129,26.939-0.18,53.887-0.17,80.826c0,1.799-0.648,2.475-2.242,3.004c-18.321,6.104-36.63,12.242-54.911,18.461
		c-1.89,0.644-2.109,0.094-2.104-1.598C149.001,366.083,148.982,352.088,148.982,338.097L148.982,338.097z"/>
	<path id="path34" inkscape:connector-curvature="0" fill="#B8B8B8" d="M74.473,213.036c0-13.92,0.029-27.84-0.04-41.761
		c-0.01-1.642,0.445-2.352,2.052-2.823c18.462-5.416,36.906-10.892,55.335-16.417c1.629-0.489,2.081-0.258,2.073,1.49
		c-0.081,18.559,0.061,37.12-0.201,55.676c-0.122,8.636-0.094,17.27-0.124,25.905c-0.006,1.675-0.557,2.359-2.082,2.867
		c-18.178,6.063-36.334,12.191-54.498,18.296c-2.503,0.842-2.514,0.825-2.514-1.952C74.472,240.557,74.473,226.796,74.473,213.036z"
		/>
	<path id="path36" inkscape:connector-curvature="0" fill="#B8B8B8" d="M298.038,131.562c0-0.782,0-1.568,0-2.354
		c0-27.589,0.027-55.178-0.057-82.766c-0.006-2.099,0.709-2.804,2.606-3.361c18.069-5.303,36.107-10.714,54.156-16.088
		c2.701-0.805,2.694-0.792,2.494,1.98c-0.052,0.716-0.02,1.438-0.021,2.158c-0.023,26.149-0.071,52.298-0.018,78.446
		c0.004,1.965-0.604,2.694-2.423,3.297c-17.877,5.932-35.716,11.98-53.573,17.971C300.249,131.168,299.323,131.723,298.038,131.562z
		"/>
	<path id="path38" inkscape:connector-curvature="0" d="M336.241,354.911c3.994-15.104,7.869-29.752,11.739-44.397
		c0.896-3.396,1.67-4.003,5.171-4.007c6.779-0.012,6.783-0.014,8.613,6.51c3.729,13.277,7.453,26.563,11.183,39.84
		c0.21,0.749,0.457,1.486,0.813,2.635c2.853-10.056,5.595-19.712,8.332-29.369c1.457-5.142,2.896-10.285,4.355-15.427
		c0.935-3.286,1.776-3.973,5.178-4.187c1.273-0.079,2.564-0.227,3.826-0.108c3.03,0.272,4.059,1.81,3.269,4.724
		c-2.003,7.39-4.028,14.771-6.034,22.152c-4.012,14.773-8.014,29.553-12.024,44.326c-0.943,3.479-1.692,4.031-5.384,4.033
		c-7.416,0.005-7.178,0.896-9.468-7.266c-3.683-13.125-7.39-26.244-11.095-39.361c-0.104-0.364-0.311-0.702-0.646-1.451
		c-2.385,9.115-4.665,17.838-6.946,26.559c-1.574,6.018-3.203,12.02-4.705,18.051c-0.625,2.518-2.061,3.637-4.619,3.484
		c-1.355-0.076-2.721-0.013-4.079-0.014c-3.347-0.006-4.202-0.604-5.105-3.797c-3.932-13.883-7.845-27.77-11.758-41.657
		c-2.313-8.211-4.605-16.431-6.924-24.642c-0.966-3.426,0.082-5.023,3.627-5.166c2.149-0.084,4.321-0.014,6.463,0.188
		c2.262,0.21,3.423,1.659,4.008,3.836c3.805,14.167,7.672,28.317,11.525,42.474C335.695,353.397,335.901,353.909,336.241,354.911
		L336.241,354.911z"/>
	<path id="path40" inkscape:connector-curvature="0" d="M486.684,314.206c1.318-1.406,2.25-2.563,3.34-3.541
		c8.985-8.074,24.13-7.02,33.185,2.299c5.149,5.302,7.665,11.885,8.898,18.984c2.063,11.856,1.13,23.395-4.477,34.25
		c-6.774,13.116-19.427,16.842-31.261,13.467c-5.07-1.443-8.984-4.729-12.325-9.229c-0.709,2.158-1.303,4.074-1.969,5.966
		c-1.069,3.037-2.506,3.146-5.961,2.904c-2.209-0.154-3.036-1.505-3.037-4.315c-0.003-29.35-0.003-58.699,0-88.05
		c0-3.286,0.982-4.257,4.29-4.274c1.761-0.01,3.521-0.02,5.278,0.004c2.883,0.033,4.026,1.183,4.031,4.104
		c0.015,8.558,0.005,17.113,0.005,25.671C486.684,312.887,486.684,313.333,486.684,314.206L486.684,314.206z"/>
	<path id="path42" inkscape:connector-curvature="0" fill="#232323" d="M1026.725,273.564c0-66.079-0.002-132.158,0.007-198.237
		c0-3.495-0.469-3.048,3.026-3.09c0.641-0.007,1.286,0.056,1.919-0.013c1.308-0.141,1.988,0.283,1.8,1.709
		c-0.063,0.472-0.01,0.958-0.01,1.438c0,132.158,0,264.317,0,396.475c0,3.318,0,3.318-3.273,3.318
		c-3.469,0.002-3.469,0.002-3.469-3.363C1026.725,405.723,1026.725,339.643,1026.725,273.564z"/>
	<path id="path44" inkscape:connector-curvature="0" d="M925.634,346.032c-6.88,0-13.766,0.084-20.643-0.055
		c-1.918-0.039-2.229,0.602-2.146,2.289c0.188,3.777,0.658,7.492,2.185,10.973c2.925,6.668,8.104,10.53,15.344,10.848
		c7.029,0.307,11.875-3.555,15.106-9.564c1.805-3.357,2.723-3.832,6.472-3.08c1.409,0.282,2.847,0.456,4.242,0.775
		c2.725,0.623,3.629,2.384,2.531,4.998c-4.856,11.568-13.82,17.473-26.104,18.318c-18.003,1.246-31.311-9.908-34.057-28.227
		c-1.667-11.12-0.687-21.854,4.919-31.813c8.775-15.593,29.652-20.533,43.961-10.396c7.427,5.264,10.796,13.016,12.521,21.634
		c0.58,2.899,0.873,5.845,0.962,8.81c0.096,3.209-1.12,4.479-4.417,4.483C939.553,346.042,932.594,346.032,925.634,346.032
		L925.634,346.032z"/>
	<path id="path46" inkscape:connector-curvature="0" d="M656.458,346.032c-6.96,0-13.922,0.065-20.88-0.047
		c-1.761-0.025-2.108,0.541-2.027,2.152c0.337,6.699,1.487,13.089,6.954,17.712c8.61,7.289,19.973,5.095,25.344-4.806
		c2.246-4.142,2.722-4.36,7.353-3.484c1.256,0.238,2.532,0.393,3.772,0.691c2.634,0.638,3.471,2.307,2.499,4.836
		c-4.229,11.019-14.55,18.113-26.968,18.543c-17.687,0.607-30.476-10.215-33.232-28.159c-1.655-10.767-0.729-21.173,4.345-31.007
		c10.736-20.801,36.446-19.629,47.022-9.391c6.54,6.332,9.356,14.301,10.515,23.043c0.25,1.896,0.377,3.817,0.409,5.73
		c0.049,2.957-1.188,4.16-4.224,4.173C670.378,346.047,663.415,346.032,656.458,346.032z"/>
	<path id="path48" inkscape:connector-curvature="0" d="M438.481,346.032c-6.877,0-13.755,0.061-20.63-0.041
		c-1.706-0.023-2.193,0.457-2.083,2.133c0.459,6.938,1.697,13.537,7.582,18.164c8.381,6.592,19.35,4.369,24.556-4.916
		c2.647-4.72,2.647-4.72,8.113-3.771c6.939,1.204,7.588,2.364,4.281,8.517c-5.463,10.162-14.357,14.973-25.59,15.391
		c-18.18,0.678-30.99-10.762-33.363-29.34c-1.304-10.213-0.346-20.063,4.35-29.379c10.286-20.41,34.788-20.266,46.128-10.691
		c6.914,5.835,9.948,13.677,11.395,22.311c0.396,2.364,0.604,4.754,0.587,7.158c-0.022,3.299-1.104,4.444-4.454,4.46
		C452.395,346.053,445.438,346.032,438.481,346.032L438.481,346.032z"/>
	<path id="path50" inkscape:connector-curvature="0" d="M984.37,306.194c5.893-0.143,11.261,0.754,16.292,3.327
		c5.149,2.634,8.641,6.726,10.729,12.058c1.015,2.592,0.123,4.271-2.639,5.002c-1.772,0.475-3.563,0.896-5.365,1.232
		c-2.021,0.383-3.577-0.251-4.528-2.221c-3.84-7.949-13.593-10.211-21.253-7.121c-3.876,1.563-5.697,4.414-5.518,8.354
		c0.165,3.621,2.113,6.239,6.219,7.227c6.354,1.521,12.825,2.559,19.204,3.98c7.786,1.738,13.799,5.771,16.523,13.672
		c3.694,10.699-0.61,21.727-10.913,26.328c-11.793,5.273-23.78,4.965-35.396-0.783c-5.732-2.84-9.644-7.521-11.555-13.729
		c-0.76-2.455,0.046-4.128,2.464-4.746c2.086-0.533,4.211-0.936,6.339-1.268c1.727-0.271,3.284,0.242,3.906,2.014
		c2.574,7.336,8.612,9.615,15.469,10.541c4.019,0.543,7.987,0.012,11.643-1.93c3.519-1.866,5.194-4.791,4.983-8.813
		c-0.194-3.698-2.438-5.769-5.567-7.081c-5.131-2.148-10.688-2.525-16.056-3.688c-3.203-0.693-6.36-1.475-9.362-2.817
		c-8.058-3.614-12.148-9.707-11.925-18.655c0.223-8.768,4.443-14.793,12.347-18.281C974.93,306.797,979.719,305.98,984.37,306.194
		L984.37,306.194z"/>
	<path id="path52" inkscape:connector-curvature="0" d="M579.979,306.148c9.245,0.011,16.597,1.563,22.564,7.2
		c2.48,2.346,4.222,5.188,5.391,8.378c0.912,2.487,0.164,4.044-2.356,4.765c-1.916,0.545-3.867,0.971-5.824,1.348
		c-1.958,0.377-3.52-0.348-4.345-2.178c-3.4-7.556-13.111-10.281-20.766-7.377c-4.021,1.525-6.158,4.447-6.029,8.268
		c0.138,3.98,1.972,6.477,6.4,7.546c6.271,1.513,12.667,2.53,18.972,3.928c7.79,1.726,13.954,5.724,16.536,13.628
		c3.244,9.936,0.517,21.486-11.024,26.465c-12.328,5.314-24.729,4.973-36.606-1.676c-4.984-2.789-8.301-7.156-10.144-12.585
		c-0.979-2.89,0.041-4.618,3.032-5.235c1.875-0.39,3.754-0.75,5.64-1.1c1.785-0.329,3.389,0.277,3.965,1.934
		c2.454,7.031,8.192,9.391,14.734,10.526c3.582,0.623,7.178,0.251,10.624-1.021c4.373-1.613,6.788-4.758,6.829-8.854
		c0.039-3.968-2.001-6.603-6.677-8.278c-4.906-1.764-10.111-2.246-15.183-3.299c-3.212-0.668-6.361-1.492-9.354-2.853
		c-7.548-3.423-11.726-9.163-11.813-17.563c-0.094-8.727,3.668-15.193,11.667-18.973C570.993,306.879,576.069,306,579.979,306.148
		L579.979,306.148z"/>
	<path id="path54" inkscape:connector-curvature="0" fill="#202020" d="M1131.865,382.943c0-0.948,0-1.896,0-2.845
		c0-29.833,0.027-59.667-0.053-89.5c-0.007-2.328,0.411-3.201,2.952-3.043c4.056,0.252,4.063,0.064,4.063,4.217
		c0,32.633-0.023,65.266,0.063,97.898c0.006,2.291-0.75,2.481-2.757,2.697c-4.113,0.438-6.524-1.148-8.954-4.479
		c-22.412-30.722-45.031-61.291-67.699-92.052c-0.556,0.871-0.324,1.736-0.324,2.529c-0.016,30.395-0.027,60.784,0.028,91.18
		c0.004,2.027-0.282,2.908-2.628,2.791c-4.371-0.223-4.379-0.063-4.379-4.414c0-32.475,0.021-64.944-0.049-97.418
		c-0.006-2.193,0.408-2.785,2.781-3.014c4.408-0.42,6.955,1.237,9.54,4.782c21.802,29.886,43.823,59.604,65.782,89.375
		c0.363,0.491,0.744,0.97,1.116,1.454C1131.524,383.051,1131.695,382.999,1131.865,382.943L1131.865,382.943z"/>
	<path id="path56" inkscape:connector-curvature="0" d="M824.679,342.127c0.035-7.525,1.845-16.524,7.297-24.434
		c6.541-9.48,15.952-12.73,26.988-11.225c11.082,1.52,17.938,8.322,21.438,18.728c0.532,1.58,0.878,3.231,1.202,4.871
		c0.493,2.492-0.827,4.336-3.318,4.479c-2.065,0.115-4.161,0.086-6.229-0.082c-2.002-0.162-3.12-1.498-3.481-3.408
		c-0.4-2.139-1.085-4.17-2.109-6.077c-4.922-9.135-16.445-9.918-22.475-1.472c-3.554,4.98-4.72,10.759-5.012,16.736
		c-0.361,7.406,0.188,14.697,3.523,21.496c2.431,4.95,6.189,8.166,11.967,8.094c5.808-0.076,9.654-3.235,12.099-8.332
		c0.829-1.73,1.408-3.537,1.896-5.396c0.548-2.092,1.888-3.246,4.15-3.212c1.837,0.025,3.686-0.132,5.517-0.021
		c2.571,0.146,4.088,1.77,3.627,4c-1.687,8.144-5.13,15.303-12.194,20.158c-13.383,9.198-32.301,4.273-39.822-10.305
		C826.071,359.62,824.684,351.993,824.679,342.127L824.679,342.127z"/>
	<path id="path58" inkscape:connector-curvature="0" d="M765.986,360.62c2.048-6.438,3.979-12.502,5.9-18.563
		c3.447-10.855,6.885-21.715,10.34-32.566c0.936-2.939,2.182-3.884,5.198-3.939c1.678-0.028,3.369-0.104,5.03,0.064
		c2.728,0.274,3.765,1.897,2.928,4.465c-7.359,22.566-14.745,45.125-22.092,67.696c-0.802,2.451-2.178,3.729-4.915,3.496
		c-2.227-0.188-4.478-0.035-6.712-0.039c-3.063-0.006-3.93-0.625-4.977-3.729c-2.622-7.782-5.202-15.58-7.814-23.366
		c-4.871-14.489-9.754-28.979-14.645-43.462c-1.141-3.385-0.063-5.008,3.524-5.115c2.077-0.063,4.155-0.031,6.232-0.01
		c3.231,0.035,4.397,0.934,5.394,3.99C754.865,326.422,760.356,343.303,765.986,360.62L765.986,360.62z"/>
	<path id="path60" inkscape:connector-curvature="0" fill="#202020" d="M1349.831,385.284c1.817-5.507,3.662-11.057,5.483-16.611
		c5.366-16.368,10.765-32.729,16.032-49.129c0.678-2.112,1.612-3.01,3.821-2.666c1.151,0.179,2.356,0.029,3.852,0.029
		c-1.687,4.896-3.292,9.553-4.891,14.205c-6.761,19.682-13.536,39.354-20.233,59.053c-0.552,1.625-1.26,2.192-3.001,2.156
		c-5.301-0.105-5.294-0.025-6.896-4.988c-6.53-20.182-13.065-40.354-19.604-60.533c-0.243-0.75-0.538-1.481-1.007-2.766
		c-1.274,3.819-2.406,7.154-3.5,10.5c-6.073,18.569-12.159,37.137-18.161,55.729c-0.505,1.563-1.134,2.091-2.8,2.063
		c-5.557-0.099-5.568-0.018-7.315-5.164c-7.659-22.568-15.293-45.148-23.008-67.701c-0.674-1.973-0.745-2.738,1.756-2.606
		c4.016,0.212,4.021,0.054,5.295,3.92c6.876,20.819,13.751,41.64,20.632,62.457c0.234,0.711,0.521,1.403,0.994,2.662
		c2.521-7.901,4.854-15.235,7.193-22.565c4.734-14.812,9.5-29.61,14.17-44.44c0.459-1.459,0.99-2.022,2.585-2.017
		c6.104,0.039,6.116-0.024,7.974,5.744c6.64,20.646,13.268,41.295,19.896,61.941
		C1349.188,384.833,1349.156,385.208,1349.831,385.284L1349.831,385.284z"/>
	<path id="path62" inkscape:connector-curvature="0" fill="#202020" d="M1052.981,202.639c0-16.477,0.013-32.953-0.021-49.43
		c-0.007-1.394,0.113-2.128,1.868-2.118c16.076,0.098,32.152,0.04,48.229,0.156c4.822,0.035,9.517,1.093,13.949,3.052
		c9.218,4.073,13.682,11.448,14.938,21.219c1.708,13.234-3.76,24.083-15.119,29.229c-5.92,2.682-12.234,3.558-18.679,3.579
		c-11.997,0.039-23.995,0.057-35.992-0.037c-1.897-0.014-2.344,0.515-2.333,2.361c0.079,13.677,0.007,27.354,0.086,41.031
		c0.016,1.925-0.397,2.623-2.461,2.556c-4.467-0.146-4.471-0.031-4.471-4.568C1052.981,233.992,1052.981,218.315,1052.981,202.639
		L1052.981,202.639z"/>
	<path id="path64" inkscape:connector-curvature="0" fill="#B8B8B8" d="M11.966,142.275c8.381-2.642,16.281-5.141,24.188-7.623
		c9.514-2.986,19.033-5.947,28.541-8.95c1.097-0.346,2.08-0.487,3.244-0.125c17.362,5.406,34.743,10.757,52.117,16.128
		c0.373,0.115,0.724,0.301,1.583,0.664c-5.621,1.499-10.781,2.879-15.944,4.251c-12.487,3.316-24.979,6.624-37.463,9.951
		c-0.935,0.249-1.796,0.445-2.8,0.173c-17.323-4.689-34.656-9.34-51.987-14.001C13.138,142.663,12.84,142.554,11.966,142.275z"/>
	<path id="path66" inkscape:connector-curvature="0" fill="#B8B8B8" d="M160.871,142.315c7.533-2.379,14.365-4.549,21.207-6.695
		c10.581-3.318,21.17-6.608,31.743-9.946c1.024-0.323,1.956-0.497,3.022-0.165c17.517,5.46,35.042,10.894,52.563,16.339
		c0.299,0.093,0.579,0.247,1.225,0.527c-6.88,1.847-13.438,3.624-20.004,5.368c-11.104,2.948-22.214,5.87-33.317,8.82
		c-0.853,0.227-1.645,0.491-2.565,0.242C197.031,152.027,179.312,147.27,160.871,142.315z"/>
	<path id="path68" inkscape:connector-curvature="0" fill="#B8B8B8" d="M195.927,267.651c-12.47,3.316-24.644,6.561-36.818,9.795
		c-5.475,1.456-10.948,2.903-16.424,4.354c-0.837,0.224-1.611,0.451-2.558,0.193c-17.63-4.771-35.272-9.496-52.929-14.232
		c0.089-0.809,0.737-0.74,1.208-0.893c16.972-5.318,33.949-10.623,50.912-15.976c1.216-0.384,2.286-0.362,3.486,0.011
		c17.368,5.395,34.748,10.752,52.122,16.129C195.143,267.098,195.325,267.273,195.927,267.651L195.927,267.651z"/>
	<path id="path70" inkscape:connector-curvature="0" fill="#202020" d="M1189.979,355.476c-10.157,0-20.313-0.009-30.472,0.019
		c-0.82,0.002-1.979-0.52-1.979,1.19c0.03,10.735,4.624,24.13,16.901,29.79c17,7.838,35.893-0.549,41.119-18.415
		c0.452-1.55,1.305-1.291,2.284-1.304c4.396-0.063,4.396-0.057,3.17,4.188c-3.729,12.873-13.404,21.04-26.786,22.677
		c-8.32,1.019-16.439,0.563-24.075-3.267c-11.026-5.528-16.509-14.998-18.195-26.776c-1.502-10.479-0.438-20.746,4.604-30.281
		c5.938-11.23,15.314-17.241,28.012-17.981c9.195-0.534,17.845,1.123,25.252,6.97c7.879,6.221,11.391,14.769,12.522,24.469
		c0.25,2.139,0.283,4.3,0.418,6.449c0.103,1.644-0.437,2.344-2.312,2.321C1210.294,355.422,1200.136,355.476,1189.979,355.476
		L1189.979,355.476z"/>
	<path id="path72" inkscape:connector-curvature="0" fill="#202020" d="M1196.033,239.81c-8.249,13.644-20.604,16.914-34.879,15.834
		c-2.706-0.205-5.37-0.718-7.964-1.593c-8.232-2.779-12.938-8.666-13.388-16.833c-0.552-10.02,3.146-16.548,11.511-20.371
		c6.909-3.159,14.32-3.671,21.737-4.194c5.18-0.364,10.364-0.735,15.43-1.969c5.188-1.265,7.092-3.525,7.568-8.756
		c0.761-8.344-3.021-14.333-11.073-17.08c-7.424-2.53-14.953-2.479-22.313,0.221c-7.009,2.571-11.19,7.66-12.476,15.095
		c-0.147,0.866,0.226,2.32-0.797,2.514c-1.61,0.306-3.347,0.188-4.989-0.035c-0.758-0.103-0.379-1.117-0.326-1.687
		c0.856-9.364,5.149-16.502,14.123-19.926c10.681-4.075,21.613-3.997,32.338-0.135c7.87,2.834,11.559,8.559,11.572,16.932
		c0.03,14.318,0.01,28.637,0.01,42.957c0,0.641-0.015,1.279,0.004,1.92c0.146,5.297,1.801,6.748,7.104,6.496
		c0.804-0.039,2.458-1.301,2.466,0.905c0.006,1.663,0.826,3.916-2.266,3.845c-0.952-0.021-1.91,0.227-2.864,0.225
		c-7.364-0.014-10.481-3.145-10.529-10.525C1196.028,242.534,1196.033,241.418,1196.033,239.81z"/>
	<path id="path74" inkscape:connector-curvature="0" fill="#202020" d="M1454.535,228.98c-2.812,16.125-13.81,25.731-30.553,26.797
		c-11.063,0.703-21.173-1.608-29.136-9.944c-6.184-6.473-8.932-14.458-9.551-23.225c-0.69-9.738,0.551-19.172,5.525-27.766
		c7.053-12.17,17.996-17.199,31.724-16.58c10.563,0.478,19.636,4.229,25.952,13.138c5.301,7.471,6.902,15.995,6.779,24.98
		c-0.021,1.616-0.945,1.492-2.029,1.49c-11.84-0.015-23.677-0.009-35.514-0.009c-7.918,0-15.837,0.088-23.752-0.057
		c-2.231-0.041-2.96,0.348-2.796,2.79c0.638,9.456,3.567,17.778,10.885,24.202c12.228,10.729,40.262,8.619,45.979-13.821
		c0.416-1.635,1.063-2.228,2.713-2.021C1451.94,229.099,1453.15,228.98,1454.535,228.98L1454.535,228.98z"/>
	<path id="path76" inkscape:connector-curvature="0" fill="#202020" d="M1518.309,356.788c6.572-5.271,12.604-10.106,18.631-14.953
		c9.472-7.61,18.979-15.184,28.375-22.89c1.858-1.522,3.681-2.313,6.066-2.067c1.556,0.158,3.141,0.029,5.396,0.029
		c-3.701,2.973-6.894,5.549-10.102,8.107c-7.813,6.229-15.583,12.516-23.491,18.619c-1.704,1.313-1.46,2.021-0.299,3.461
		c11.801,14.619,23.532,29.295,35.286,43.953c0.229,0.289,0.47,0.57,1.003,1.222c-2.858,0-5.297,0.004-7.734-0.002
		c-1.086-0.003-1.396-0.983-1.919-1.632c-10.513-13.092-21.038-26.174-31.449-39.346c-1.271-1.609-1.985-1.562-3.444-0.361
		c-4.759,3.904-9.581,7.73-14.481,11.453c-1.449,1.103-1.896,2.272-1.876,4.031c0.09,7.84-0.02,15.682,0.082,23.52
		c0.023,1.854-0.435,2.68-2.354,2.354c-0.47-0.076-0.972-0.07-1.438,0c-1.818,0.281-2.387-0.344-2.383-2.281
		c0.063-33.357,0.063-66.719,0-100.074c0-1.922,0.528-2.612,2.388-2.313c0.468,0.073,0.97,0.079,1.438-0.003
		c1.962-0.341,2.35,0.554,2.346,2.38c-0.063,21.197-0.039,42.396-0.039,63.6C1518.309,354.444,1518.309,355.301,1518.309,356.788
		L1518.309,356.788z"/>
	<path id="path78" inkscape:connector-curvature="0" d="M703.374,318.01c1.322-1.771,2.257-3.146,3.315-4.413
		c4.254-5.073,9.714-7.329,16.313-6.837c2.682,0.199,3.827,1.422,3.854,4.126c0.021,1.839,0.046,3.679-0.012,5.516
		c-0.063,1.979-1.188,3.068-3.116,3.294c-11.077,1.299-18.421,8.961-19.02,20.293c-0.639,12.057-0.132,24.131-0.241,36.195
		c-0.039,4.234-0.963,5.193-5.229,5.21c-1.679,0.006-3.361,0.076-5.032-0.048c-2.376-0.178-3.421-1.333-3.421-3.729
		c-0.016-21.744-0.016-43.488,0-65.234c0.002-2.411,1.267-3.646,3.688-3.707c1.678-0.043,3.357-0.036,5.036-0.002
		c2.752,0.057,3.913,1.285,3.867,3.979C703.351,314.243,703.374,315.829,703.374,318.01L703.374,318.01z"/>
	<path id="path80" inkscape:connector-curvature="0" fill="#202020" d="M1417.978,315.145c19.838-0.068,34.953,13.9,36.776,33.727
		c0.839,9.127-0.155,17.875-4.317,26.084c-7.428,14.646-21.72,20.271-36.489,18.942c-19.774-1.774-31.188-16.883-32.771-34.469
		c-0.922-10.25,0.747-19.935,6.438-28.632c6.233-9.53,15.28-14.438,26.544-15.414
		C1415.427,315.273,1416.703,315.223,1417.978,315.145L1417.978,315.145z"/>
	<path id="path82" inkscape:connector-curvature="0" fill="#202020" d="M1314.29,194.77c4.817-9.19,12.469-14.125,22.229-15.951
		c7.373-1.379,14.688-0.84,21.59,2.303c7.789,3.546,11.318,10.154,12.601,18.281c0.514,3.259,0.521,6.534,0.526,9.806
		c0.034,14.16-0.021,28.319,0.063,42.478c0.011,1.918-0.371,2.856-2.439,2.515c-0.545-0.09-1.127-0.078-1.676-0.002
		c-1.479,0.207-1.897-0.371-1.884-1.855c0.071-7.52,0.096-15.039,0.019-22.557c-0.094-9.033,0.418-18.077-0.313-27.099
		c-1.022-12.561-8.32-19.317-20.979-19.543c-16.876-0.301-28.8,10.418-29.465,27.327c-0.54,13.735-0.202,27.504-0.29,41.258
		c-0.01,0.797,0.536,2.104-0.539,2.313c-1.688,0.33-3.525,0.473-5.188-0.123c-0.602-0.213-0.244-1.317-0.245-2.014
		c-0.017-18.88-0.011-37.758-0.011-56.638c0-4.479,0.043-8.96-0.027-13.438c-0.021-1.342,0.141-1.961,1.765-1.944
		c4.271,0.046,4.271-0.052,4.271,4.273c-0.011,3.537-0.011,7.074-0.011,10.611L1314.29,194.77L1314.29,194.77z"/>
	<path id="path84" inkscape:connector-curvature="0" d="M801.59,343.458c0-11.192-0.003-22.391,0.001-33.584
		c0.001-3.561,1.097-4.705,4.682-4.799c1.997-0.053,4.004-0.09,5.993,0.055c2.742,0.195,3.8,1.418,3.801,4.166
		c0.007,22.945,0.008,45.896-0.001,68.846c0,2.666-1.259,3.922-3.946,3.966c-2.154,0.035-4.314,0.033-6.477,0.001
		c-2.862-0.044-4.045-1.23-4.048-4.104C801.583,366.487,801.59,354.973,801.59,343.458L801.59,343.458z"/>
	<path id="path86" inkscape:connector-curvature="0" fill="#202020" d="M1241.792,350.442c0-8.637-0.092-17.273,0.063-25.908
		c0.04-2.299-0.701-2.805-2.813-2.703c-3.432,0.162-6.883-0.084-10.313,0.09c-2.384,0.117-1.748-1.433-1.813-2.668
		c-0.07-1.313-0.243-2.498,1.847-2.396c3.51,0.177,7.04-0.063,10.551,0.095c1.931,0.086,2.59-0.353,2.537-2.435
		c-0.154-6.233,0.01-12.478-0.095-18.711c-0.028-1.733,0.337-2.374,2.216-2.315c3.906,0.121,3.91,0.008,3.91,3.908
		c0,5.838,0.049,11.676-0.032,17.514c-0.021,1.523,0.33,2.076,1.965,2.032c4.396-0.116,8.799,0.063,13.192-0.086
		c1.963-0.065,2.59,0.445,2.553,2.474c-0.034,1.863-0.302,2.688-2.441,2.599c-4.229-0.185-8.478,0.04-12.711-0.099
		c-1.907-0.063-2.588,0.354-2.576,2.445c0.091,16.953,0.035,33.907,0.062,50.86c0.011,8.131,3.363,11.657,11.501,12.188
		c1.036,0.065,2.098,0.188,3.108,0.035c2.271-0.336,3.021,0.413,2.916,2.795c-0.076,1.838-0.66,2.313-2.336,2.307
		c-3.521-0.021-7.039,0-10.479-0.873c-7.08-1.795-10.742-6.92-10.796-15.238C1241.749,367.715,1241.792,359.079,1241.792,350.442
		L1241.792,350.442z"/>
	<path id="path88" inkscape:connector-curvature="0" fill="#202020" d="M1274.124,213.54c0-8.875-0.043-17.75,0.037-26.623
		c0.02-1.644-0.349-2.211-2.081-2.143c-3.593,0.141-7.207-0.142-10.786,0.105c-2.493,0.172-1.858-1.345-1.987-2.671
		c-0.157-1.612,0.103-2.441,2.099-2.328c3.507,0.199,7.038-0.06,10.549,0.102c1.878,0.086,2.241-0.565,2.213-2.301
		c-0.104-6.234,0.021-12.473-0.081-18.708c-0.023-1.659,0.37-2.174,2.089-2.125c3.791,0.109,3.796,0.008,3.796,3.715
		c0,5.757,0.06,11.515-0.038,17.27c-0.028,1.632,0.343,2.196,2.077,2.146c4.474-0.129,8.959,0.078,13.429-0.097
		c2.09-0.082,1.904,1.064,1.805,2.351c-0.09,1.172,0.713,2.737-1.747,2.638c-4.63-0.187-9.271-0.018-13.905-0.079
		c-1.19-0.016-1.652,0.215-1.647,1.548c0.073,17.268,0.069,34.538,0.132,51.806c0.012,1.913,0.401,3.806,1.172,5.59
		c1.647,3.813,4.991,4.949,8.7,5.351c1.899,0.205,3.833,0.16,5.749,0.113c1.158-0.029,1.778,0.436,1.441,1.51
		c-0.363,1.164,1.271,3.203-1.164,3.442c-4.896,0.481-9.762,0.231-14.318-1.849c-5.061-2.311-7.312-6.655-7.438-11.922
		c-0.223-8.941-0.063-17.896-0.063-26.841C1274.137,213.54,1274.13,213.54,1274.124,213.54L1274.124,213.54z"/>
	<path id="path90" inkscape:connector-curvature="0" fill="#202020" d="M1474.302,333.083c4.559-9.203,12.336-13.533,21.654-15.746
		c2.565-0.607,5.202-0.791,7.845-0.93c1.269-0.063,1.812,0.202,1.821,1.656c0.024,3.871,0.104,3.91-3.662,3.965
		c-12.855,0.188-27.847,10.105-27.684,28.93c0.112,12.961-0.022,25.922,0.071,38.881c0.016,2.013-0.521,2.764-2.5,2.453
		c-0.625-0.1-1.29-0.098-1.915,0c-1.521,0.233-1.833-0.401-1.83-1.854c0.046-23.84,0.054-47.682-0.011-71.521
		c0-1.771,0.574-2.084,2.174-2.051c4.03,0.086,4.032,0.008,4.032,4.031c0,4.063,0,8.124,0,12.186H1474.302L1474.302,333.083z"/>
	<path id="path92" inkscape:connector-curvature="0" fill="#202020" d="M1226.925,195.674c4.993-9.476,13.15-13.701,22.896-15.635
		c1.962-0.389,3.96-0.446,5.959-0.553c1.771-0.095,2.275,0.56,2.031,2.171c-0.071,0.469-0.063,0.965,0,1.438
		c0.207,1.571-0.295,1.96-1.979,1.87c-12.049-0.646-24.168,7.742-27.427,18.823c-1.063,3.629-1.47,7.356-1.477,11.121
		c-0.024,12.238-0.069,24.478,0.048,36.714c0.021,2.158-0.563,2.916-2.655,2.584c-0.7-0.109-1.438-0.058-2.154-0.013
		c-0.9,0.06-1.356-0.254-1.262-1.223c0.05-0.478,0.012-0.959,0.012-1.438c0-23.039,0.035-46.075-0.063-69.109
		c-0.01-2.21,0.635-2.632,2.646-2.535c3.418,0.165,3.426,0.043,3.426,3.434c0,4.113,0,8.231,0,12.348h-0.002V195.674z"/>
	<path id="path94" inkscape:connector-curvature="0" fill="#202020" d="M1475.106,196.323c6.525-12.179,16.797-16.371,29.207-16.813
		c1.424-0.051,1.842,0.456,1.688,1.775c-0.084,0.71-0.063,1.442,0,2.157c0.101,1.218-0.235,1.592-1.608,1.55
		c-9.277-0.283-16.915,3.18-23.042,10.18c-5.03,5.748-6.146,12.68-6.208,19.889c-0.111,12.159-0.101,24.32,0.03,36.479
		c0.021,2.313-0.728,2.965-2.816,2.66c-0.549-0.08-1.126-0.07-1.677-0.002c-1.283,0.161-1.638-0.386-1.604-1.625
		c0.084-2.798,0.026-5.6,0.026-8.396c0-20.561,0.032-41.119-0.05-61.677c-0.012-2.05,0.395-2.983,2.563-2.576
		c0.541,0.102,1.127,0.084,1.677,0.002c1.53-0.229,1.875,0.457,1.852,1.89c-0.085,4.63-0.032,9.264-0.032,14.509L1475.106,196.323
		L1475.106,196.323z"/>
	<path id="path96" inkscape:connector-curvature="0" d="M808.702,296.266c-4.84-0.037-8.526-3.838-8.494-8.752
		c0.03-4.805,3.942-8.648,8.729-8.581c4.735,0.065,8.655,4.101,8.571,8.815C817.42,292.568,813.558,296.303,808.702,296.266z"/>
	<path id="path98" inkscape:connector-curvature="0" fill="#D8D0BC" d="M663.415,219.516c0.166,6.713-0.513,13.819-4.438,20.208
		c-3.021,4.918-7.108,8.36-13.052,9.153c-5.796,0.771-10.979-2.203-13.244-7.658c-4.653-11.189,0.469-22.937,11.809-27.172
		c5.629-2.102,11.523-2.422,17.428-2.764c1.113-0.063,1.573,0.234,1.522,1.434C663.355,214.793,663.415,216.875,663.415,219.516z"/>
	<path id="path100" inkscape:connector-curvature="0" fill="#D8D0BC" d="M378.273,219.565c0.128,5.275-0.208,10.835-2.378,16.125
		c-1.316,3.207-3.052,6.145-5.602,8.538c-4.542,4.267-9.82,6.085-15.819,3.86c-5.953-2.209-7.916-7.369-8.307-13.155
		c-0.801-11.836,5.24-19.368,17.561-22.203c4.222-0.972,8.535-1.148,12.835-1.451c1.359-0.096,1.81,0.339,1.738,1.709
		C378.193,215.06,378.273,217.141,378.273,219.565z"/>
	<path id="path102" inkscape:connector-curvature="0" fill="#D8D0BC" d="M878.913,210.195c0.261,8.62,0.273,17.263-2.367,25.61
		c-0.896,2.83-2.146,5.49-4.019,7.824c-5.502,6.863-15.867,6.701-21.063-0.375c-3.567-4.857-4.835-10.583-5.528-16.375
		c-1.479-12.335-1.65-24.709-0.061-37.055c0.552-4.284,1.674-8.448,3.875-12.235c3.089-5.313,7.733-7.636,13.814-7.146
		c5.867,0.474,9.781,3.62,11.854,9.021c2.251,5.873,3.083,12.063,3.444,18.288C879.11,201.888,878.913,206.047,878.913,210.195
		L878.913,210.195z"/>
	<path id="path104" inkscape:connector-curvature="0" fill="#D8D0BC" d="M518.496,347.959c-0.097,3.119-0.927,8.063-3.061,12.689
		c-2.347,5.092-5.929,8.891-11.898,8.994c-6.21,0.107-10.747-3.104-13.837-8.354c-1.598-2.713-2.4-5.762-2.648-8.875
		c-0.54-6.767-0.993-13.582,0.257-20.287c1.058-5.678,3.989-10.414,8.956-13.609c5.771-3.715,12.086-2.598,16.376,2.832
		c3.006,3.804,4.3,8.322,5.144,12.982C518.481,338.191,518.767,342.086,518.496,347.959L518.496,347.959z"/>
	<path id="path106" inkscape:connector-curvature="0" fill="#D8D0BC" d="M919.999,335.627c-4.961,0-9.921,0.006-14.881-0.01
		c-0.797-0.002-1.869,0.365-1.59-1.205c1.076-6.006,3.318-11.377,8.489-15.018c6.954-4.896,16.046-2.996,20.696,4.23
		c1.98,3.082,2.926,6.52,3.36,10.129c0.166,1.369-0.062,1.955-1.681,1.912C929.602,335.547,924.8,335.627,919.999,335.627
		L919.999,335.627z"/>
	<path id="path108" inkscape:connector-curvature="0" fill="#D8D0BC" d="M650.404,335.627c-4.878,0-9.757,0.002-14.636-0.002
		c-0.844-0.002-1.839,0.272-1.571-1.254c0.921-5.242,2.829-10.002,6.849-13.652c7.675-6.981,18.723-4.682,23.414,4.82
		c1.321,2.685,1.978,5.545,2.326,8.496c0.146,1.197-0.187,1.646-1.504,1.623C660.323,335.579,655.363,335.627,650.404,335.627z"/>
	<path id="path110" inkscape:connector-curvature="0" fill="#D8D0BC" d="M432.788,335.627c-4.878,0-9.756,0.02-14.633-0.023
		c-0.634-0.006-1.603,0.532-1.662-0.956c-0.293-7.428,7.209-16.737,14.57-17.827c5.722-0.847,10.369,1.191,13.868,5.725
		c2.557,3.313,3.648,7.197,4.087,11.324c0.146,1.396-0.182,1.813-1.596,1.787C442.546,335.583,437.665,335.627,432.788,335.627z"/>
	<path id="path112" inkscape:connector-curvature="0" fill="#D8D0BC" d="M1059.869,179.662c0-6.954,0.017-13.908-0.012-20.862
		c-0.004-1.207-0.055-2.116,1.681-2.092c14.146,0.195,28.306-0.495,42.428,0.349c8.786,0.525,15.847,4.572,19.275,13.121
		c3.417,8.506,2.827,16.787-3.112,24.123c-4.571,5.646-10.986,8.029-17.962,8.191c-13.58,0.316-27.176,0.111-40.763,0.197
		c-1.612,0.011-1.549-0.812-1.546-1.925C1059.882,193.73,1059.869,186.696,1059.869,179.662L1059.869,179.662z"/>
	<path id="path114" inkscape:connector-curvature="0" fill="#D8D0BC" d="M1187.083,350.43c-9.19,0-18.386-0.051-27.572,0.043
		c-1.814,0.02-2.057-0.465-1.758-2.146c1.774-10.115,6.137-18.678,15.065-24.228c13.896-8.634,37.283-3.909,42.778,19.123
		c1.714,7.188,1.635,7.206-5.737,7.206C1202.27,350.43,1194.677,350.43,1187.083,350.43L1187.083,350.43z"/>
	<path id="path116" inkscape:connector-curvature="0" fill="#D8D0BC" d="M1196.077,212.351c-0.313,6.489,0.7,12.575-0.749,18.533
		c-2.625,10.796-11.224,18.216-22.476,19.682c-5.359,0.699-10.676,0.733-15.872-0.981c-8.993-2.969-13.338-11.314-10.454-20.103
		c1.771-5.383,5.965-8.072,11.043-9.696c6.146-1.965,12.546-2.226,18.897-2.8c3.894-0.352,7.793-0.589,11.646-1.347
		C1190.854,215.098,1193.458,214.272,1196.077,212.351L1196.077,212.351z"/>
	<path id="path118" inkscape:connector-curvature="0" fill="#D8D0BC" d="M1420.132,212.893c-8.959,0-17.917,0.003-26.876-0.005
		c-0.977-0.001-2.166,0.37-1.938-1.44c1.344-10.604,7.955-23.063,20.626-27.091c16.293-5.179,32.938,4.858,36.495,21.997
		c1.357,6.54,1.357,6.54-5.271,6.54C1435.489,212.893,1427.81,212.893,1420.132,212.893z"/>
	<path id="path120" inkscape:connector-curvature="0" fill="#D8D0BC" d="M1448.937,357.524c-0.268,8.241-3.336,18.098-12.171,25.277
		c-13.89,11.287-35.71,7.365-44.5-8.201c-7.339-12.999-7.338-26.514-0.219-39.572c5.98-10.977,15.963-15.554,28.243-14.779
		c11.483,0.727,19.767,6.576,24.828,16.899C1447.845,342.698,1449.001,348.611,1448.937,357.524z"/>
</g>
</svg>
