<?xml version="1.0" encoding="utf-8"?>
<!-- Generator: Adobe Illustrator 16.0.3, SVG Export Plug-In . SVG Version: 6.00 Build 0)  -->
<!DOCTYPE svg PUBLIC "-//W3C//DTD SVG 1.1//EN" "http://www.w3.org/Graphics/SVG/1.1/DTD/svg11.dtd">
<svg version="1.1"
	 id="Layer_1" xmlns:dc="http://purl.org/dc/elements/1.1/" xmlns:cc="http://creativecommons.org/ns#" xmlns:rdf="http://www.w3.org/1999/02/22-rdf-syntax-ns#" xmlns:svg="http://www.w3.org/2000/svg" xmlns:sodipodi="http://sodipodi.sourceforge.net/DTD/sodipodi-0.dtd" xmlns:inkscape="http://www.inkscape.org/namespaces/inkscape" inkscape:version="0.92.3 (2405546, 2018-03-11)" sodipodi:docname="MDI.svg"
	 xmlns="http://www.w3.org/2000/svg" xmlns:xlink="http://www.w3.org/1999/xlink" x="0px" y="0px" width="1006.27px"
	 height="274.164px" viewBox="0 0 1006.27 274.164" enable-background="new 0 0 1006.27 274.164" xml:space="preserve">
<sodipodi:namedview  inkscape:cy="-23.979967" inkscape:cx="542.927" inkscape:zoom="0.221875" fit-margin-left="0" fit-margin-top="0" showgrid="false" guidetolerance="10" gridtolerance="10" objecttolerance="10" borderopacity="1" pagecolor="#ffffff" bordercolor="#666666" id="namedview93" inkscape:current-layer="Layer_1" inkscape:window-maximized="0" inkscape:window-y="0" inkscape:window-x="0" fit-margin-bottom="0" fit-margin-right="0" inkscape:window-height="480" inkscape:window-width="640" inkscape:pageshadow="2" inkscape:pageopacity="0">
	</sodipodi:namedview>
<path id="path2" inkscape:connector-curvature="0" fill="#4E4E4E" d="M206.823,213.914c0.705,0.62,2.146,1.254-0.026,1.83
	c-1.646,0.436-3.298,0.858-4.946,1.287c-0.969,1.249-2.409,1.583-3.826,1.828c-3.916,0.678-7.618,2.646-11.758,1.975
	c-4.977,0.854-9.963,1.644-14.921,2.592c-2.56,0.488-5.136,0.445-8.36,0.652c5.211,8.243,10.24,16.198,15.681,24.803
	c-3.539-1.264-6.461-2.297-9.376-3.353c-2.329-0.843-4.646-1.713-6.969-2.573c-4.427-1.64-4.34-1.623-5.32,3.16
	c-0.791,3.862-0.264,7.51,2.051,11.824c-14.035-6.405-27.098-12.366-40.49-18.479c0,6.033-0.068,11.611,0.038,17.187
	c0.036,1.903-0.32,2.745-2.498,2.678c-5.375-0.162-10.763-0.147-16.139-0.004c-2.03,0.055-2.393-0.702-2.351-2.509
	c0.11-4.86-0.116-9.732,0.099-14.585c0.116-2.631-0.688-2.766-2.925-2.147c-17.509,4.833-35.063,9.5-52.561,14.369
	c-2.558,0.712-3.195,0.286-2.5-2.208c0.108-0.392,0.091-0.822,0.114-1.235c0.137-2.422,1.146-4.777,0.562-7.256
	c-2.359,0.692-4.729,1.354-7.075,2.083c-5.722,1.778-11.445,3.575-17.455,4.068c-1.479,0.121-3.097,0.405-4.759-0.809
	c9.412-4.815,18.788-9.222,28.265-15.363c-13.671,0-26.414,0-39.155,0C0.147,233.47,0.074,233.21,0,232.952
	c10.17-3.984,20.341-7.969,30.513-11.954c-0.088-0.277-0.175-0.555-0.263-0.833c-6.559-0.592-12.959,0.979-20.082,1.898
	c2.99-3.303,5.583-6.169,8.494-9.386c-5.703-0.743-11.077,0.146-17.244-0.198c7.771-6.651,14.979-12.822,22.62-19.363
	c-2.818-0.434-4.999-0.768-7.702-1.184c4.139-3.636,7.975-7.004,12.247-10.757c-4.958-0.704-9.474-1.346-14.581-2.07
	c15.226-14.4,30.267-28.327,45.317-43.604c-14.62,0.683-28.438,1.326-43.04,2.008c15.26-10.261,29.901-20.104,45.124-30.34
	c-5.06,0-9.304,0-13.874,0c7.684-7.459,14.365-15.395,21.083-23.476c-8.993,2.707-18.024,5.067-27.894,7.073
	C52.453,79.474,63.17,68.311,74.863,58.174c1.841-1.597,0.869-2.136-0.724-2.551c-3.601-0.938-7.314-1.044-11.54-1.41
	c10.37-10.133,20.445-19.98,30.761-30.062c-3.007-1.305-5.773-2.505-8.952-3.884c5.951-4.729,11.586-9.207,17.224-13.682
	c2.35-1.863,4.787-3.626,7.032-5.606c1.667-1.471,2.442-1.322,3.558,0.697c6.515,11.794,15.354,21.496,26.736,28.771
	c3.017,1.928,6.236,3.536,9.671,5.463c-4.566,2.241-9.006,4.062-13.806,4.581c-1.979,0.215-2.243,1.078-1.916,2.553
	c0.445,2.008,0.9,4.035,1.612,5.958c4.1,11.071,8.952,21.734,17.513,30.778c-2.974-0.364-5.565-0.682-8.711-1.067
	c2.698,5.118,5.214,9.892,7.731,14.665c1.745,0.969,2.459,2.759,3.45,4.327c1.124,2.634,2.823,4.922,4.391,7.29
	c1.237,1.996,2.677,3.832,4.178,5.64c0.836,1.005,1.625,2.345-0.664,2.767c-0.285-0.067-0.562-0.163-0.833-0.273
	c-2.333-0.758-4.736-1.316-6.967-2.38c-2.259-1.266-4.847-1.707-7.214-2.938c1.216,1.754,2.521,3.269,4.285,4.326
	c0.675,0.51,1.426,0.895,2.168,1.296c1.399,0.836,2.405,2.092,3.486,3.27c8.642,7.72,15.917,16.78,24.31,24.745
	c0.729,0.692,1.564,1.521,1.076,2.687c-0.371,0.883-1.316,0.919-2.138,0.972c-7.305,0.47-14.596,1.104-21.881,1.808
	c-0.394,0.038-0.816,0.002-1.183-0.173c6.553,2.648,12.027,6.791,16.583,12.16c1.67,1.968,3.134,4.107,4.469,6.322
	c2.111,3.503,1.743,4.376-2.154,5.24c-2.018,0.447-4.082,0.66-6.094,1.116c-2.271,0.516-2.447,1.075-0.945,2.827
	c4.572,5.329,9.411,10.418,14.27,15.479c6.796,7.076,13.846,13.91,20.78,20.854C205.369,211.684,206.427,212.552,206.823,213.914
	L206.823,213.914z"/>
<path id="path4" inkscape:connector-curvature="0" fill="#9B9B9B" d="M154.108,97.833c-1.438-1.198-2.04-2.969-3.055-4.457
	c3.723-2.724,5.947-6.793,9.033-10.096c3.031-3.243,5.859-6.676,8.764-10.037c0.45-0.521,1.378-0.928,1.061-1.729
	c-0.331-0.835-1.324-0.928-2.126-0.943c-2.544-0.052-5.09-0.02-8.332-0.02c4.396-5.337,8.371-10.164,12.347-14.992
	c2.692-3.271,5.374-6.548,8.082-9.805c0.863-1.037,1.072-1.677-0.61-2.042c-1.69-0.365-3.318-1.02-4.604-1.43
	c5.949-6.308,11.913-12.633,18.051-19.142c8.339,12.162,18.96,20.817,33.102,25.721c-3.538,2.233-6.684,4.016-10.198,4.728
	c-2.225,0.451-2.142,1.366-1.532,2.974c2.732,7.216,6.735,13.701,11.366,19.826c1.776,2.352,3.729,4.553,6.413,6.621
	c-2.388,0.776-4.34-0.641-6.457,0.388c5.375,8.368,10.771,16.507,17.422,23.745c0.055,1.174-0.595,0.95-1.282,0.643
	c-3.761-0.87-7.522-1.739-11.283-2.608c-0.146,0.256-0.29,0.512-0.435,0.769c11.25,7.301,21.022,16.4,32.049,25.185
	c-7.464,1.461-14.23,2.785-21.653,4.238c2.083,0.794,3.614,1.313,5.095,1.954c5.929,2.571,10.645,6.639,14.56,11.736
	c1.315,1.714,0.979,2.421-1.068,2.833c-1.813,0.366-3.559,1.07-5.363,1.492c-2.118,0.495-2.267,1.445-0.882,2.938
	c5.909,6.361,11.858,12.682,18.272,18.546c3.727,3.406,7.42,6.849,12.104,10.096c-9.919,4.545-19.47,8.676-29.873,11.205
	c4.337,5.556,8.579,10.99,12.821,16.427c0.034,1.17-0.606,1.095-1.393,0.755c-3.8-0.9-7.632-1.686-11.386-2.746
	c-1.94-0.549-2.646-0.361-3.014,1.858c-0.586,3.559,0.107,6.699,2.372,10.426c-4.464-0.925-8.293-1.692-12.113-2.512
	c-10.558-2.265-21.11-4.55-31.667-6.826c-0.674-0.146-1.404-0.573-1.867,0.364c-9.466-8.617-18.337-17.83-27.154-27.096
	c-3.697-3.886-7.269-7.892-10.896-11.845c-0.828-0.902-1.996-1.738-1.534-3.151c0.425-1.299,1.796-0.703,2.715-0.915
	c3.089-0.713,6.22-1.25,9.711-1.927c-5.244-10.611-13.185-17.911-24.639-22.57c9.688-0.815,18.511-1.56,28.137-2.371
	c-9.163-9.314-17.864-18.163-26.567-27.011c1.539-1.789,3.248-3.359,5.479-4.257c2.678,0.492,1.069-0.911,0.581-1.488
	c-1.595-1.886-3.185-3.76-4.261-6.009c-0.272-1.795,1.172-2.783,2.011-3.987c1.667-2.393,3.176-4.936,5.081-6.989
	c-2.503,0.907-4.98,2.686-7.866,3.439C156.466,98.039,155.305,98.819,154.108,97.833L154.108,97.833z"/>
<path id="path6" inkscape:connector-curvature="0" fill="#4E4E4E" d="M353.394,65.496c-9.759,23.216-19.52,46.433-29.667,70.569
	c-10.579-23.498-20.741-46.07-30.952-68.752c-0.914,0.734-0.693,1.391-0.69,1.955c0.081,17.893,0.179,35.786,0.276,53.679
	c0.004,0.62,0.031,1.242,0.091,1.859c0.627,6.564,0.911,6.821,7.483,6.828c0.621,0,1.246,0.049,1.86-0.008
	c1.356-0.125,1.771,0.467,1.774,1.798c0.007,1.341-0.408,1.786-1.766,1.775c-6.725-0.056-13.449-0.05-20.174-0.004
	c-1.287,0.008-1.813-0.325-1.838-1.725c-0.028-1.621,0.74-1.804,2.081-1.864c5.804-0.265,5.801-0.303,5.801-6.153
	c0-19.346,0.003-38.691-0.004-58.039c0-1.03-0.01-2.068-0.107-3.094c-0.582-6.04-2.165-7.417-8.246-7.518
	c-1.253-0.021-3.344,1.021-3.147-1.872c0.093-1.365,0.538-1.751,1.843-1.738c5.068,0.055,10.141,0.115,15.207-0.023
	c2.039-0.056,2.297,1.366,2.878,2.634c9.331,20.349,18.654,40.701,27.985,61.05c0.505,1.098,1.072,2.166,1.902,3.831
	c3.021-7.338,5.823-14.135,8.617-20.937c5.999-14.601,12.036-29.186,17.938-43.825c0.817-2.028,1.765-2.886,4.028-2.766
	c3.921,0.207,7.859,0.095,11.791,0.038c1.412-0.02,2.309,0.078,2.291,1.93c-0.014,1.725-0.855,1.701-2.112,1.738
	c-6.021,0.179-6.027,0.206-6.02,6.199c0.03,19.552,0.042,39.104,0.132,58.655c0.012,2.258,0.411,4.521,0.746,6.768
	c0.319,2.136,1.55,3.268,3.83,3.161c1.652-0.078,3.313,0.041,4.964-0.027c1.313-0.053,1.849,0.423,1.865,1.781
	c0.016,1.347-0.461,1.802-1.802,1.795c-8.174-0.042-16.346-0.034-24.521-0.007c-1.132,0.004-1.741-0.291-1.71-1.559
	c0.028-1.146,0.113-1.963,1.619-2.029c2.012-0.09,4.613,0.951,5.877-0.824c1.206-1.691,0.379-4.217,0.383-6.37
	c0.034-18.518,0.021-37.037,0.021-55.556c0-1.085,0-2.169,0-3.254C353.747,65.563,353.572,65.53,353.394,65.496L353.394,65.496z"/>
<path id="path8" inkscape:connector-curvature="0" fill="#4E4E4E" d="M643.592,195.584c6.725,0,13.449-0.062,20.174,0.038
	c2.021,0.03,2.96-0.337,2.893-2.674c-0.229-7.852,0.234-15.718-0.487-23.563c-0.423-4.582-0.986-5.128-5.442-5.132
	c-1.138,0-2.276-0.04-3.413,0.011c-1.167,0.052-1.977-0.062-1.92-1.607c0.05-1.347,0.262-2.071,1.869-2.058
	c8.069,0.064,16.141,0.056,24.21,0.006c1.449-0.009,1.686,0.688,1.736,1.897c0.059,1.362-0.468,1.702-1.789,1.787
	c-6.309,0.406-6.306,0.452-6.306,6.797c0,17.692-0.026,35.384,0.021,53.075c0.011,3.71,0.082,7.426,0.724,11.116
	c0.441,2.544,1.527,3.919,4.31,3.609c1.43-0.16,2.9,0.068,4.34-0.054c1.643-0.139,2.103,0.483,2.122,2.099
	c0.022,1.813-1.021,1.663-2.19,1.662c-7.862-0.012-15.728-0.025-23.591,0.014c-1.396,0.006-2.287-0.051-2.273-1.911
	c0.012-1.927,1.041-1.853,2.364-1.848c6.315,0.022,5.648,0.732,5.661-5.931c0.021-9.932-0.095-19.864,0.071-29.794
	c0.045-2.685-0.843-3.221-3.33-3.198c-13.242,0.115-26.486,0.101-39.729,0.009c-2.178-0.016-3.104,0.335-3.008,2.824
	c0.405,10.532-0.609,21.103,0.659,31.613c0.521,4.314,0.899,4.485,5.341,4.487c1.14,0,2.28,0.063,3.413-0.015
	c1.388-0.096,2.061,0.281,2.064,1.859c0.007,1.522-0.532,1.919-1.979,1.909c-7.966-0.054-15.933-0.035-23.897-0.015
	c-1.244,0.003-2.151-0.023-2.164-1.75c-0.015-1.771,0.774-1.979,2.253-2.02c5.773-0.164,5.78-0.209,5.771-6.071
	c-0.028-19.76-0.065-39.519-0.101-59.278c-0.001-0.104,0-0.207-0.001-0.311c-0.089-8.468-0.373-8.778-8.754-8.894
	c-1.449-0.02-2.685,0.093-2.457-2.011c0.122-1.143,0.408-1.655,1.638-1.649c8.277,0.036,16.555,0.039,24.831,0.003
	c1.604-0.007,1.461,1,1.526,2.065c0.075,1.249-0.495,1.538-1.641,1.603c-2.026,0.115-4.646-0.966-5.937,0.602
	c-1.396,1.695-0.465,4.376-0.486,6.619c-0.069,7.139,0.063,14.279-0.077,21.415c-0.045,2.234,0.694,2.75,2.807,2.712
	C630.14,195.505,636.865,195.584,643.592,195.584L643.592,195.584z"/>
<path id="path10" inkscape:connector-curvature="0" fill="#4E4E4E" d="M659.323,53.214c7.521,0.389,16.543-0.804,25.464,1.009
	c16.104,3.271,27.435,15.085,29.605,31.718c1.9,14.549-1.399,27.784-12.074,38.445c-7.566,7.559-17.12,10.577-27.588,10.748
	c-10.96,0.178-21.926,0.044-32.889,0.033c-1.162-0.001-2.474,0.43-2.473-1.683c0.002-1.934,1.03-1.836,2.354-1.868
	c5.678-0.138,5.677-0.16,5.677-5.694c0-18.927,0.021-37.854-0.021-56.781c-0.008-2.783-0.296-5.568-0.503-8.35
	c-0.199-2.686-1.472-4.211-4.386-3.968c-1.131,0.095-2.277,0.076-3.411,0c-1.259-0.085-2.991,0.735-2.902-1.851
	c0.088-2.577,1.862-1.715,3.08-1.729C645.464,53.177,651.67,53.214,659.323,53.214z"/>
<path id="path12" inkscape:connector-curvature="0" fill="#4E4E4E" d="M549.361,235.253c-3.953,2.736-7.266,5.208-10.983,7.027
	c-11.067,5.411-22.728,1.845-28.14-9.209c-5.678-11.599-5.521-23.472,0.949-34.755c6.89-12.009,22.211-16.295,34.955-10.242
	c0.923,0.438,1.821,0.924,3.219,1.637c0-2.688,0.005-5.09-0.001-7.489c-0.015-6.104,0.099-12.211-0.087-18.311
	c-0.169-5.642-0.841-6.147-6.378-6.152c-0.828,0-1.654-0.018-2.481-0.009c-0.984,0.012-1.543-0.344-1.52-1.446
	c0.023-1.002,0.041-1.832,1.396-1.899c5.181-0.26,10.251-1.234,15.271-2.497c0.983-0.248,1.615,0.009,1.582,1.179
	c-0.023,0.827,0.002,1.655,0.002,2.483c0,23.795-0.014,47.592,0.021,71.388c0.004,2.787,0.17,5.583,0.434,8.357
	c0.282,2.964,1.936,4.418,5.027,4.087c1.125-0.12,2.272-0.006,3.412-0.022c0.881-0.012,1.697,0.008,1.652,1.236
	c-0.032,0.911,0.198,1.846-1.239,2.01c-5.234,0.597-10.465,1.257-15.688,1.958c-1.538,0.208-1.403-0.741-1.403-1.689
	C549.361,240.542,549.361,238.195,549.361,235.253L549.361,235.253z"/>
<path id="path14" inkscape:connector-curvature="0" fill="#4E4E4E" d="M813.34,194.947c4.224-2.831,7.753-5.529,11.811-7.388
	c10.229-4.686,20.788-1.545,26.663,7.977c6.788,11.004,6.005,28.46-1.739,38.75c-7.436,9.877-21.181,13.221-32.932,7.998
	c-1.116-0.496-2.196-1.07-3.722-1.818c0,6.754-0.034,13.188,0.021,19.623c0.018,2.063,0.233,4.125,0.419,6.184
	c0.36,4.002,1.271,4.839,5.187,4.874c1.137,0.01,2.274,0.039,3.411-0.002c1.077-0.039,1.438,0.474,1.45,1.491
	c0.015,0.975-0.188,1.534-1.34,1.529c-7.551-0.029-15.102-0.022-22.651-0.005c-1.002,0.002-1.495-0.279-1.501-1.401
	c-0.006-1.222,0.511-1.521,1.656-1.639c5.721-0.582,5.717-0.618,5.717-6.442c0-20.895,0.003-41.786-0.006-62.68
	c0-1.757,0.002-3.521-0.133-5.271c-0.425-5.517-0.832-5.871-6.261-5.873c-0.827,0-1.655-0.023-2.48,0.002
	c-0.957,0.029-1.599-0.213-1.582-1.357c0.015-0.971-0.039-1.886,1.271-2.051c5.123-0.645,10.244-1.317,15.367-1.959
	c1.454-0.182,1.372,0.877,1.375,1.82C813.344,189.657,813.34,192.008,813.34,194.947L813.34,194.947z"/>
<path id="path16" inkscape:connector-curvature="0" fill="#4E4E4E" d="M521.177,88.198c4.018-3.106,7.427-5.778,11.38-7.585
	c4.001-1.829,8.158-2.942,12.612-2.363c8.669,1.126,13.137,5.745,13.398,14.555c0.278,9.3,0.077,18.612,0.177,27.92
	c0.025,2.573,0.329,5.147,0.591,7.714c0.249,2.45,1.578,3.699,4.144,3.545c1.443-0.086,2.897,0.028,4.344-0.027
	c1.033-0.039,1.524,0.285,1.467,1.401c-0.052,0.962,0.07,1.836-1.366,1.829c-7.551-0.037-15.102-0.041-22.65,0.006
	c-1.352,0.008-1.438-0.669-1.48-1.733c-0.056-1.316,0.601-1.438,1.686-1.518c5.461-0.397,5.459-0.43,5.459-6.021
	c0-9.617,0.002-19.236-0.002-28.854c-0.001-2.07-0.114-4.119-0.771-6.12c-1.435-4.361-4.396-6.602-8.919-6.792
	c-7.521-0.316-13.519,3.114-19.106,7.623c-0.948,0.765-0.965,1.74-0.956,2.786c0.089,10.131,0.078,20.265,0.287,30.394
	c0.136,6.574,0.71,6.99,7.192,7.013c0.414,0.001,0.83,0.035,1.239-0.006c1.262-0.126,1.905,0.256,1.863,1.69
	c-0.037,1.287-0.645,1.536-1.746,1.533c-7.344-0.023-14.688-0.036-22.029,0.009c-1.359,0.008-1.795-0.492-1.776-1.818
	c0.016-1.391,0.819-1.357,1.819-1.426c5.468-0.371,5.477-0.389,5.464-6.016c-0.025-11.894-0.063-23.786-0.102-35.68
	c-0.003-0.723-0.025-1.449-0.114-2.167c-0.514-4.138-1.087-4.635-5.268-4.648c-1.138-0.003-2.276-0.044-3.412,0.006
	c-1.102,0.048-1.471-0.517-1.462-1.503c0.008-0.836-0.064-1.689,1.123-1.833c5.229-0.635,10.452-1.308,15.683-1.924
	c1.582-0.188,1.201,1.097,1.22,1.919C521.211,82.576,521.177,85.052,521.177,88.198L521.177,88.198z"/>
<path id="path18" inkscape:connector-curvature="0" fill="#4E4E4E" d="M454.886,195.493c5.979-4.662,11.447-8.655,18.49-9.772
	c11.453-1.82,18.758,4.285,18.882,15.795c0.118,10.85-0.543,21.715,0.493,32.547c0.461,4.818,1.11,5.311,6.019,5.318
	c0.518,0.002,1.038-0.037,1.55,0.009c1.095,0.099,2.54-0.583,2.521,1.601c-0.021,2.167-1.462,1.574-2.553,1.58
	c-6.825,0.036-13.652,0.016-20.479,0.02c-1.248,0-2.498,0.233-2.409-1.787c0.086-1.981,1.443-1.371,2.43-1.402
	c4.854-0.153,4.855-0.131,4.855-4.93c0-9.826,0.02-19.652-0.005-29.479c-0.027-11.271-5.737-15.662-16.604-12.751
	c-4.578,1.229-8.444,3.78-12.109,6.698c-0.934,0.742-1.102,1.613-1.096,2.7c0.06,10.237,0.07,20.477,0.142,30.715
	c0.008,1.125,0.313,2.247,0.436,3.375c0.29,2.642,1.762,3.805,4.394,3.665c1.341-0.071,2.688,0.037,4.031-0.024
	c1.217-0.055,1.637,0.45,1.587,1.643c-0.039,0.968-0.237,1.575-1.358,1.573c-7.654-0.013-15.309-0.011-22.962-0.003
	c-1.279,0.001-1.111-0.896-1.162-1.719c-0.063-1.012,0.284-1.435,1.379-1.513c1.808-0.129,4.292,0.954,5.248-0.689
	c0.869-1.494,0.394-3.808,0.396-5.761c0.021-11.17,0.014-22.341,0.008-33.512c0-0.931-0.024-1.861-0.073-2.79
	c-0.28-5.363-0.688-5.635-5.992-5.819c-1.43-0.049-3.957,1.436-4.208-1.396c-0.279-3.182,2.585-1.866,4.095-2.145
	c3.652-0.671,7.385-0.915,11.04-1.578c2.258-0.409,3.285-0.048,3.058,2.511C454.728,190.396,454.886,192.653,454.886,195.493
	L454.886,195.493z"/>
<path id="path20" inkscape:connector-curvature="0" fill="#4E4E4E" d="M500.709,131.604c-0.563,0.811-1.027,1.489-1.502,2.16
	c-2.807,3.972-4.284,4.18-8.44,1.407c-3.151-2.102-4.84-5.215-6.126-8.62c-2.704,2.118-5.23,4.253-7.915,6.167
	c-4.222,3.01-8.882,4.781-14.188,4.56c-6.75-0.282-11.006-3.417-13.113-9.833c-1.503-4.572-1.813-9.314-1.837-14.08
	c-0.036-6.62,0.022-13.241-0.028-19.86c-0.016-2.059-0.291-4.114-0.394-6.175c-0.148-2.982-1.656-4.242-4.633-3.913
	c-1.228,0.137-2.481-0.012-3.722,0.031c-1.118,0.039-1.729-0.284-1.713-1.561c0.014-1.102,0.266-1.684,1.5-1.822
	c4.928-0.561,9.854-1.148,14.76-1.867c1.812-0.265,1.784,0.685,1.78,1.93c-0.021,6.518-0.06,13.034,0.005,19.551
	c0.065,6.614-0.176,13.229,0.229,19.847c0.604,9.903,6.166,12.605,15.562,10.914c1.892-0.341,3.718-1.233,5.479-2.073
	c5.157-2.458,8.466-5.662,7.856-12.345c-0.821-9.037,0.231-18.189-0.497-27.275c-0.405-5.064-0.75-5.183-5.824-5.381
	c-1.419-0.056-3.875,1.45-4.219-1.321c-0.409-3.308,2.523-1.886,3.97-2.157c3.647-0.688,7.408-0.803,11.037-1.56
	c2.75-0.574,2.981,0.506,2.965,2.782c-0.092,11.688-0.042,23.377-0.042,35.065c0,0.726-0.009,1.448,0.001,2.173
	C491.769,126.311,493.201,128.464,500.709,131.604L500.709,131.604z"/>
<path id="path22" inkscape:connector-curvature="0" fill="#4E4E4E" d="M959.83,233.085c-2.002,1.725-3.822,3.355-5.712,4.903
	c-2.813,2.305-5.905,4.173-9.297,5.493c-5.979,2.33-11.558,1.209-14.696-2.875c-3.363-4.378-3.13-11.733,0.552-16.5
	c2.584-3.346,6.041-5.613,9.675-7.616c5.429-2.992,11.146-5.371,16.924-7.584c1.818-0.697,2.598-1.626,2.431-3.619
	c-0.216-2.566,0.06-5.181-0.239-7.731c-0.549-4.7-3.063-6.92-7.771-7.212c-2.811-0.175-5.539,0.247-8.257,1.014
	c-3.567,1.007-6.086,2.633-6.096,6.908c0,2.272-1.138,4.402-2.856,6.021c-1.209,1.14-2.72,1.646-4.265,0.804
	c-1.468-0.802-1.646-2.264-1.39-3.798c0.496-2.963,1.845-5.54,4.06-7.496c7.455-6.58,16.09-9.507,26.027-7.779
	c4.456,0.773,6.854,3.349,7.758,7.73c0.44,2.143,0.549,4.297,0.546,6.473c-0.01,8.789-0.068,17.579,0.021,26.366
	c0.058,5.396,1.405,10.104,7.508,11.704c0.459,0.12,1.043,0.237,1.106,0.879c0.198,1.996-4.563,5.792-6.459,5.051
	c-3.931-1.54-6.761-4.284-8.425-8.186C960.585,235.115,960.251,234.171,959.83,233.085L959.83,233.085z"/>
<path id="path24" inkscape:connector-curvature="0" fill="#4E4E4E" d="M419.649,233.093c-2.827,2.469-5.472,5.056-8.603,7.037
	c-2.274,1.439-4.586,2.777-7.157,3.62c-5.712,1.874-10.924,0.717-13.859-3.083c-3.116-4.035-3.219-10.866-0.23-15.481
	c2.074-3.207,5.021-5.459,8.227-7.395c6.03-3.639,12.517-6.332,19.062-8.862c1.812-0.701,2.611-1.604,2.45-3.605
	c-0.184-2.26,0.025-4.549-0.058-6.821c-0.188-5.176-2.976-7.921-8.17-8.171c-2.711-0.131-5.348,0.233-7.949,1.009
	c-3.465,1.035-6.161,2.545-6.136,6.861c0.012,2.159-1.034,4.196-2.604,5.818c-1.257,1.298-2.798,1.936-4.479,1.097
	c-1.661-0.829-1.674-2.479-1.386-4.073c0.596-3.296,2.319-5.987,4.872-8.054c7.242-5.868,15.445-8.602,24.798-7.038
	c4.813,0.805,7.186,3.292,8.171,8.049c0.381,1.84,0.45,3.686,0.455,5.548c0.021,9.203-0.008,18.405,0.109,27.606
	c0.066,5.229,1.664,9.6,7.419,11.103c1.288,0.337,1.253,0.887,0.604,1.964c-3.011,5.002-5.193,5.415-9.889,1.714
	C422.891,240.042,421.49,237.87,419.649,233.093L419.649,233.093z"/>
<path id="path26" inkscape:connector-curvature="0" fill="#4E4E4E" d="M746.086,212.091c-0.035,16.667-8.609,28.22-22.483,31.735
	c-12.691,3.217-24.537-2.889-29.255-15.08c-4.717-12.188-1.634-26.929,7.425-35.502c11.048-10.456,27.922-10.394,37.479,0.241
	C744.345,199.157,745.935,206.122,746.086,212.091L746.086,212.091z"/>
<path id="path28" inkscape:connector-curvature="0" fill="#4E4E4E" d="M433.407,103.42c-0.038,16.717-6.884,27.307-18.905,31.996
	c-15.27,5.955-30.782-2.24-33.953-18.305c-2.252-11.41-0.556-22.121,8.103-30.726c8.025-7.978,20.156-10.514,29.75-6.202
	C429.572,85.203,433.105,94.796,433.407,103.42z"/>
<path id="path30" inkscape:connector-curvature="0" fill="#4E4E4E" d="M846.591,131.448c5.468,0.065,10.353-1.563,14.644-4.98
	c0.864-0.689,1.623-2.112,2.984-0.474c1.445,1.741-0.42,2.177-1.133,2.836c-6.548,6.057-14.339,8.813-23.231,8.43
	c-10.857-0.468-18.882-7.78-21.382-19.832c-2.003-9.65-0.672-18.938,4.208-27.563c5.783-10.221,17.185-14.486,26.939-10.115
	c6.738,3.021,10.425,8.88,13.535,15.164c0.814,1.646-0.853,1.426-1.668,1.693c-10.795,3.526-21.688,6.736-32.778,9.165
	c-2.921,0.639-3.631,1.769-3.114,4.554c0.526,2.852,1.014,5.696,2.047,8.405C830.841,127.117,837.306,131.432,846.591,131.448
	L846.591,131.448z"/>
<path id="path32" inkscape:connector-curvature="0" fill="#4E4E4E" d="M751.941,131.48c4.018,0.087,8.973-1.642,13.339-5.123
	c0.8-0.637,1.462-1.919,2.748-0.463c1.273,1.439,0.003,1.974-0.771,2.694c-7.514,6.996-16.411,9.831-26.517,8.297
	c-7.897-1.2-13.318-5.951-16.306-13.227c-4.825-11.758-3.912-23.348,2.479-34.223c8.539-14.532,25.854-15.274,35.858-1.802
	c5.949,8.01,5.946,8.002-3.521,10.913c-9.072,2.791-18.191,5.417-27.476,7.419c-2.015,0.434-2.649,1.236-2.396,3.321
	c0.468,3.826,1.201,7.565,2.84,11.048C735.819,127.985,742.062,131.425,751.941,131.48L751.941,131.48z"/>
<path id="path34" inkscape:connector-curvature="0" fill="#4E4E4E" d="M293.543,242.587c-3.929,0-7.856-0.045-11.785,0.024
	c-1.403,0.024-2.026-0.311-2.011-1.874c0.017-1.536,0.612-1.852,2.024-1.914c5.674-0.249,5.68-0.299,5.67-6.063
	c-0.029-20.571-0.061-41.144-0.111-61.715c-0.002-1.128-0.188-2.26-0.333-3.384c-0.315-2.431-1.554-3.688-4.167-3.435
	c-1.536,0.147-3.101-0.003-4.648,0.036c-1.146,0.027-1.986-0.058-1.949-1.604c0.033-1.365,0.282-2.072,1.876-2.06
	c8.063,0.062,16.127,0.061,24.19,0c1.515-0.011,1.942,0.521,1.953,1.974c0.011,1.421-0.572,1.645-1.834,1.712
	c-6.381,0.354-6.388,0.394-6.378,6.736c0.029,18.71,0.038,37.421,0.132,56.132c0.016,2.777,0.361,5.563,0.723,8.323
	c0.308,2.348,1.54,3.725,4.193,3.412c1.428-0.168,2.895,0.022,4.339-0.045c1.319-0.063,2.106,0.168,2.164,1.792
	c0.063,1.802-0.807,1.999-2.264,1.974C301.401,242.545,297.471,242.588,293.543,242.587L293.543,242.587z"/>
<path id="path36" inkscape:connector-curvature="0" fill="#4E4E4E" d="M995.781,193.324c0,11.989,0,23.978,0,35.965
	c0,0.93,0.042,1.859,0.099,2.787c0.399,6.788,0.86,7.193,7.687,7.335c1.021,0.021,2.604-0.792,2.694,1.423
	c0.099,2.359-1.549,1.729-2.739,1.735c-6.821,0.039-13.645,0.018-20.466,0.02c-1.126,0-2.224,0.238-2.233-1.608
	c-0.011-1.864,1.102-1.605,2.221-1.602c0.725,0.002,1.453-0.06,2.171,0.011c2.206,0.217,2.836-0.825,2.813-2.925
	c-0.087-7.958-0.014-15.917-0.038-23.876c-0.054-16.43-0.05-32.86-0.244-49.29c-0.063-5.233-0.64-5.528-5.896-5.54
	c-0.312,0-0.643,0.075-0.926-0.013c-1.152-0.354-3.107,1.049-3.259-1.537c-0.146-2.537,1.775-1.729,3.002-1.873
	c4.208-0.488,8.413-1.048,12.48-2.205c2.271-0.645,2.581,0.095,2.569,2.122c-0.066,13.023-0.034,26.046-0.034,39.069
	c0.028,0.002,0.062,0.002,0.096,0.002H995.781z"/>
<path id="path38" inkscape:connector-curvature="0" fill="#4E4E4E" d="M787.812,137.308c-0.856-0.063-2.197-0.141-3.533-0.268
	c-9.995-0.952-11.275-2.308-11.643-12.334c-0.03-0.797-0.227-1.751,0.846-2.067c0.771-0.229,1.473,0.028,1.798,0.813
	c3.763,9.063,11.652,9.482,19.671,9.112c4.025-0.187,7.555-2.12,9.995-5.513c3.521-4.891,2.194-10.499-3.087-13.349
	c-3.31-1.784-6.979-2.492-10.555-3.473c-2.887-0.792-5.775-1.563-8.502-2.836c-8.854-4.132-11.06-14.479-4.682-21.938
	c3.07-3.591,6.975-5.822,11.544-6.771c6.01-1.248,11.919-0.49,17.716,1.354c1.091,0.349,2.103,0.721,2.155,2.227
	c0.07,2.06,0.393,4.109,0.521,6.17c0.048,0.759,0.379,1.813-0.74,2.094c-0.981,0.248-1.474-0.559-1.851-1.319
	c-3.466-6.979-16.255-8.557-22.688-4.161c-0.426,0.291-0.839,0.605-1.232,0.937c-4.672,3.915-4.172,10.072,1.104,13.11
	c3.805,2.189,8.111,2.993,12.248,4.25c2.864,0.868,5.688,1.808,8.389,3.118c11.233,5.457,9.569,19.43,2.215,25.033
	C801.789,135.846,795.263,137.232,787.812,137.308z"/>
<path id="path40" inkscape:connector-curvature="0" fill="#4E4E4E" d="M328.283,244.7c-4.229-0.135-8.204-0.66-12.118-1.71
	c-1.584-0.425-2.435-1.19-2.625-2.896c-0.311-2.767-0.85-5.507-1.238-8.265c-0.12-0.844-0.029-1.694,1.056-1.929
	c0.87-0.188,1.473,0.284,1.685,1.012c1.892,6.52,7.529,7.73,12.969,8.925c4.438,0.976,8.849,0.393,12.848-2.021
	c3.854-2.326,5.954-5.64,5.563-10.272c-0.352-4.131-3.275-6.069-6.674-7.313c-3.383-1.239-6.908-2.077-10.36-3.13
	c-1.971-0.601-3.944-1.207-5.872-1.932c-11.917-4.472-11.692-17.637-3.65-24.449c6.776-5.74,14.681-6.033,22.865-4.509
	c6.257,1.165,8.084,4,7.029,10.36c-0.086,0.518-0.114,1.09-0.703,1.245c-1.022,0.267-1.514-0.444-1.873-1.219
	c-2.994-6.433-14.896-8.723-21.838-4.738c-2.002,1.148-3.693,2.624-4.616,4.834c-1.502,3.6-0.51,6.996,2.773,9.212
	c3.139,2.119,6.789,2.947,10.343,3.999c3.262,0.965,6.546,1.835,9.672,3.226c5.265,2.342,8.987,5.939,9.485,11.948
	c0.513,6.169-1.918,11.103-6.987,14.639C340.639,243.465,334.486,244.54,328.283,244.7L328.283,244.7z"/>
<path id="path42" inkscape:connector-curvature="0" fill="#4E4E4E" d="M775.511,185.435c0.977,0.104,2.826,0.292,4.672,0.503
	c7.609,0.874,8.791,2.167,8.81,9.746c0.002,0.73,0.488,1.772-0.654,2.106c-0.985,0.288-1.497-0.431-1.896-1.208
	c-3.383-6.576-14.776-8.459-21.318-4.966c-0.99,0.53-1.956,1.179-2.779,1.939c-4.65,4.293-3.983,9.944,1.527,13.021
	c3.187,1.778,6.729,2.604,10.194,3.602c3.275,0.941,6.495,1.994,9.627,3.373c11.768,5.177,10.347,19.771,2.483,25.517
	c-6.259,4.572-13.328,5.799-20.829,5.533c-0.825-0.029-1.646-0.158-2.472-0.221c-9.232-0.694-11.686-3.478-11.229-12.707
	c0.037-0.754-0.028-1.52,0.896-1.708c0.764-0.154,1.468,0.047,1.714,0.917c1.81,6.388,7.335,7.706,12.664,8.898
	c5.217,1.168,10.321,0.411,14.696-3c6.445-5.023,5.438-13.065-1.997-16.327c-3.517-1.544-7.301-2.211-10.938-3.351
	c-2.26-0.708-4.572-1.336-6.714-2.321c-9.287-4.27-11.411-14.651-4.576-22.315C761.965,187.335,767.921,185.435,775.511,185.435
	L775.511,185.435z"/>
<path id="path44" inkscape:connector-curvature="0" fill="#4E4E4E" d="M373.753,194.162c0.245,11.051-0.462,24.709,0.318,38.35
	c0.379,6.632,0.739,6.825,7.401,6.869c0.414,0.003,0.832,0.038,1.241-0.005c1.193-0.123,1.633,0.365,1.622,1.583
	c-0.013,1.174-0.367,1.649-1.598,1.644c-7.446-0.038-14.896-0.033-22.345-0.005c-1.231,0.004-1.558-0.534-1.575-1.689
	c-0.02-1.292,0.601-1.461,1.695-1.553c5.688-0.477,5.69-0.507,5.684-6.236c-0.031-22.345-0.065-44.688-0.102-67.033
	c0-0.414,0.014-0.828-0.007-1.24c-0.333-6.724-0.681-7.053-7.418-7.086c-0.313-0.002-0.621,0.011-0.932-0.003
	c-0.984-0.046-2.088,0.275-2.135-1.417c-0.042-1.521,0.534-1.934,1.962-1.984c4.458-0.161,8.852-0.968,13.143-2.087
	c2.479-0.646,3.127-0.281,3.1,2.366C373.68,166.944,373.753,179.254,373.753,194.162L373.753,194.162z"/>
<path id="path46" inkscape:connector-curvature="0" fill="#4E4E4E" d="M585.132,104.409c0,5.686-0.039,11.371,0.009,17.055
	c0.076,8.97,4.46,12.262,13.262,10.008c1.097-0.281,2.225-0.529,3.242-0.995c1.158-0.528,1.432,0.159,1.8,0.957
	c0.389,0.836,0.548,1.455-0.544,1.964c-5.194,2.422-10.496,4.436-16.365,3.705c-5.699-0.711-9.008-4.702-9.112-11.376
	c-0.167-10.541-0.064-21.085-0.075-31.628c-0.002-1.964,0-3.929-0.001-5.893c0-4.246,0.006-4.301-4.294-4.746
	c-2.003-0.208-2.058-1.133-1.017-2.392c3.355-4.06,6.795-8.051,10.184-12.085c0.573-0.683,1.2-1.145,2.122-0.93
	c1.229,0.284,0.753,1.313,0.769,2.032c0.061,2.688,0.081,5.376,0.006,8.063c-0.042,1.477,0.529,1.999,1.986,1.968
	c3.203-0.067,6.41-0.077,9.611,0.022c0.807,0.024,2.367-0.776,2.239,1.081c-0.092,1.333-0.778,2.276-2.4,2.238
	c-2.895-0.069-5.796,0.111-8.681-0.061c-2.135-0.127-2.848,0.497-2.791,2.718C585.231,92.21,585.132,98.312,585.132,104.409z"/>
<path id="path48" inkscape:connector-curvature="0" fill="#4E4E4E" d="M898.586,214.685c0-7.905-0.099-14.423,0.053-20.935
	c0.053-2.27-0.486-3.229-2.886-2.945c-1.01,0.12-2.467,0.604-2.997-0.816c-0.433-1.152,0.715-1.82,1.36-2.589
	c2.987-3.563,5.994-7.111,8.977-10.679c0.678-0.812,1.346-1.743,2.541-1.271c1.175,0.465,0.581,1.622,0.61,2.458
	c0.083,2.272,0.213,4.568-0.021,6.819c-0.256,2.486,0.802,2.959,2.996,2.828c2.885-0.173,5.789-0.085,8.685-0.017
	c0.869,0.021,2.313-0.57,2.17,1.257c-0.104,1.314-0.797,2.066-2.206,2.06c-3.104-0.017-6.208,0.079-9.307-0.033
	c-1.678-0.06-2.345,0.337-2.328,2.192c0.108,12.2-0.016,24.405,0.173,36.604c0.123,8.088,4.551,11.277,12.504,9.396
	c1.203-0.285,2.428-0.565,3.563-1.037c1.021-0.425,1.646-0.533,2.166,0.69c0.455,1.07,0.412,1.682-0.721,2.192
	c-5.021,2.267-10.128,4.26-15.772,3.641c-5.376-0.589-8.696-3.827-9.256-9.2C898.128,227.987,898.796,220.629,898.586,214.685
	L898.586,214.685z"/>
<path id="path50" inkscape:connector-curvature="0" fill="#4E4E4E" d="M886.547,89.02c3.879-3.204,7.035-6.333,10.791-8.716
	c3.114-1.977,6.307-3.02,9.922-1.305c1.807,0.857,2.796,2.006,2.234,4.124c-0.447,1.692-0.729,3.432-1.194,5.118
	c-0.444,1.605-1.188,2.066-2.556,0.625c-3.089-3.251-6.688-3.863-10.887-1.943c-2.97,1.358-5.268,3.598-7.544,5.865
	c-0.654,0.653-0.789,1.382-0.773,2.242c0.187,10.539-0.44,21.093,0.526,31.618c0.447,4.85,1.026,5.181,5.953,5.409
	c1.335,0.061,3.946-1.664,4.017,1.466c0.071,3.256-2.633,1.52-3.938,1.561c-6.303,0.2-12.615,0.097-18.925,0.085
	c-1.193-0.002-2.527,0.348-2.467-1.727c0.057-1.95,1.354-1.403,2.378-1.464c0.928-0.056,1.861-0.042,2.792-0.007
	c1.381,0.052,2.146-0.461,2.12-1.961c-0.23-14.059,0.528-28.127-0.426-42.172c-0.28-4.141-0.786-4.388-5.041-4.399
	c-1.138-0.003-2.278-0.061-3.411,0.012c-1.233,0.08-1.607-0.454-1.604-1.632c0.005-1.11,0.266-1.639,1.508-1.774
	c4.93-0.536,9.854-1.146,14.762-1.843c1.426-0.202,1.813,0.229,1.781,1.58C886.502,82.669,886.547,85.56,886.547,89.02
	L886.547,89.02z"/>
<path id="path52" inkscape:connector-curvature="0" fill="#4E4E4E" d="M917.491,106.303c0-6.621-0.121-13.245,0.06-19.861
	c0.068-2.485-0.682-3.321-3.103-3.047c-0.938,0.105-2.252,0.56-2.85-0.534c-0.708-1.297,0.602-2.044,1.285-2.867
	c2.912-3.496,5.895-6.932,8.799-10.433c0.749-0.904,1.438-1.977,2.742-1.445c1.285,0.522,0.538,1.812,0.581,2.731
	c0.107,2.271,0.148,4.558,0,6.823c-0.123,1.858,0.396,2.576,2.374,2.473c3.095-0.163,6.206-0.082,9.308-0.017
	c0.784,0.018,2.104-0.542,2.14,0.925c0.03,1.297-0.44,2.426-2.151,2.399c-3.104-0.048-6.215,0.119-9.309-0.058
	c-2.003-0.115-2.378,0.618-2.365,2.46c0.078,12.103-0.011,24.208,0.06,36.312c0.045,7.857,4.386,11.244,12.179,9.637
	c1.411-0.291,2.813-0.715,4.148-1.249c0.943-0.379,1.473-0.385,1.906,0.658c0.399,0.962,0.662,1.681-0.563,2.246
	c-5.209,2.405-10.525,4.405-16.4,3.627c-5.325-0.705-8.726-4.664-8.813-10.297C917.412,119.959,917.493,113.13,917.491,106.303
	L917.491,106.303z"/>
<path id="path54" inkscape:connector-curvature="0" fill="#4E4E4E" d="M878.954,211.741c0.179,6.62-0.406,14.805,0.559,22.94
	c0.493,4.164,1.22,4.673,5.341,4.697c1.034,0.007,2.071,0.052,3.104-0.009c1.23-0.072,1.578,0.478,1.582,1.653
	c0.004,1.264-0.564,1.579-1.689,1.575c-7.345-0.021-14.688-0.024-22.033,0.004c-1.105,0.003-1.673-0.227-1.703-1.521
	c-0.031-1.404,0.505-1.671,1.8-1.735c5.357-0.271,5.373-0.322,5.354-5.87c-0.047-12.308,0.014-24.616-0.229-36.919
	c-0.109-5.613-0.487-5.7-5.963-5.701c-0.207,0-0.438,0.061-0.616-0.01c-1.19-0.475-3.382,1.241-3.503-1.58
	c-0.111-2.664,2.013-1.798,3.321-1.996c3.882-0.585,7.821-0.841,11.664-1.601c2.697-0.531,3.108,0.416,3.065,2.809
	C878.871,195.717,878.954,202.958,878.954,211.741L878.954,211.741z"/>
<path id="path56" inkscape:connector-curvature="0" fill="#9C9C9C" d="M186.266,220.833c5.193-1.268,10.389-2.536,15.583-3.803
	c-0.05,5.659-0.172,11.318-0.109,16.976c0.023,2.109-0.607,2.965-2.817,2.865c-3.391-0.151-6.796-0.125-10.189-0.007
	c-1.86,0.066-2.548-0.52-2.5-2.441C186.346,229.896,186.267,225.364,186.266,220.833z"/>
<path id="path58" inkscape:connector-curvature="0" fill="#4F4F4F" d="M879.151,166.831c-0.018,2.797-2.145,4.918-4.883,4.872
	c-2.742-0.047-4.703-2.194-4.63-5.071c0.067-2.683,2.07-4.719,4.68-4.759C876.955,161.832,879.168,164.103,879.151,166.831z"/>
<path id="path60" inkscape:connector-curvature="0" fill="#B1B1B1" d="M241.548,107.785c0.499-0.072,1.007-0.126,1.282-0.643
	c0.459,0.206,1.17,0.669,0.836,0.98C243.026,108.722,242.188,108.378,241.548,107.785z"/>
<path id="path62" inkscape:connector-curvature="0" fill="#AEAEAE" d="M264.497,213.35c0.56-0.077,1.104-0.18,1.393-0.755
	c0.419,0.271,1.046,0.794,0.71,1.09C265.948,214.257,265.13,213.937,264.497,213.35z"/>
<path id="path64" inkscape:connector-curvature="0" fill="#FDFDFD" d="M154.108,97.833c4.295-0.516,7.881-3.077,12.341-3.905
	c-2.685,3.781-5.37,7.563-8.055,11.347C156.566,103.025,154.856,100.705,154.108,97.833L154.108,97.833z"/>
<path id="path66" inkscape:connector-curvature="0" fill="#F7F7F7" d="M151.508,112.855c-2.386-1.353-3.979-3.43-5.663-6.219
	c3.344,1.129,6.243,2.017,8.913,3.539C154.718,112.333,153.535,113.107,151.508,112.855z"/>
<path id="path68" inkscape:connector-curvature="0" fill="#FBFBFB" d="M162.074,112.772c-1.615,1.69-3.165,3.467-5.479,4.257
	c-1.027-1.044-2.055-2.09-3.081-3.135c0.825-2.167,2.845-1.585,4.401-1.721c1.359-0.117,2.829,0.003,4.157,0.601L162.074,112.772z"
	/>
<path id="path70" inkscape:connector-curvature="0" fill="#9E9E9E" d="M162.073,112.774c-2.943-0.316-5.775,0.22-8.559,1.121
	c-0.669-0.347-1.339-0.693-2.008-1.039c1.688-0.159,2.324-1.596,3.25-2.68C157.196,111.041,159.635,111.907,162.073,112.774z"/>
<path id="path72" inkscape:connector-curvature="0" fill="#D8D0BC" d="M655.911,92.403c0-10.554,0.005-21.108-0.004-31.663
	c-0.002-1.374-0.146-2.799,1.841-2.903c9.932-0.514,19.85-1.128,29.126,3.698c11.925,6.201,17.687,16.359,18.889,29.362
	c0.671,7.26,0.21,14.481-2.386,21.4c-4.72,12.579-14.733,17.48-27.274,18.369c-5.047,0.357-10.137,0.048-15.203,0.187
	c-2.705,0.074-4.108-1.163-4.333-3.728c-0.295-3.393-0.588-6.797-0.626-10.199C655.851,108.752,655.911,100.577,655.911,92.403z"/>
<path id="path74" inkscape:connector-curvature="0" fill="#D8D0BC" d="M549.361,212.619c-0.001,5.474-0.043,10.947,0.029,16.419
	c0.019,1.366-0.393,2.268-1.459,3.139c-3.646,2.977-7.467,5.56-12.316,5.979c-9.487,0.821-16.264-3.369-19.299-12.449
	c-3.103-9.281-2.838-18.53,2.104-27.219c5.836-10.265,19.543-12.262,29.808-5.245c1.167,0.798,1.145,1.813,1.142,2.957
	C549.353,201.672,549.361,207.146,549.361,212.619L549.361,212.619z"/>
<path id="path76" inkscape:connector-curvature="0" fill="#D8D0BC" d="M813.341,217.498c0-5.375-0.011-10.75,0.012-16.125
	c0.003-0.891-0.221-1.813,0.611-2.585c5.872-5.444,12.524-8.36,20.643-6.266c5.759,1.486,9.452,5.417,11.509,10.793
	c3.311,8.653,3.219,17.367-0.438,25.92c-5.55,12.988-20.832,14.752-31.145,7.625c-1.146-0.792-1.205-1.765-1.199-2.929
	C813.352,228.455,813.341,222.978,813.341,217.498L813.341,217.498z"/>
<path id="path78" inkscape:connector-curvature="0" fill="#D8D0BC" d="M959.664,220.657c-0.608,2.648,1.116,6.037-1.411,9.016
	c-3.145,3.703-6.643,6.796-11.406,8.081c-3.172,0.856-6.52,1.197-8.974-1.5c-2.534-2.785-2.388-6.243-1.241-9.629
	c1.146-3.386,3.652-5.683,6.521-7.608c4.484-3.011,9.515-4.868,14.523-6.76c1.429-0.538,2.089-0.282,2.011,1.41
	C959.588,215.828,959.664,217.998,959.664,220.657L959.664,220.657z"/>
<path id="path80" inkscape:connector-curvature="0" fill="#D8D0BC" d="M419.492,220.636c-0.597,2.666,1.111,6.075-1.392,9.054
	c-3.132,3.727-6.664,6.812-11.443,8.086c-3.18,0.848-6.522,1.158-8.959-1.596c-2.608-2.951-2.301-6.535-1.03-9.96
	c1.232-3.332,3.86-5.557,6.758-7.454c4.352-2.854,9.211-4.605,14.022-6.474c1.837-0.713,2.122,0.057,2.063,1.648
	C419.433,216.007,419.492,218.078,419.492,220.636z"/>
<path id="path82" inkscape:connector-curvature="0" fill="#D8D0BC" d="M737.769,215.653c-0.177,5.336-0.563,9.643-2.074,13.775
	c-2.185,5.978-6.064,10.12-12.573,11.018c-6.732,0.928-12.502-1.116-16.732-6.606c-4.354-5.648-5.742-12.271-5.796-19.229
	c-0.037-4.767,0.511-9.451,2.06-14.025c4.777-14.108,21.621-13.407,28.414-5.342C736.302,201.462,737.681,208.838,737.769,215.653
	L737.769,215.653z"/>
<path id="path84" inkscape:connector-curvature="0" fill="#D8D0BC" d="M425.253,108.49c-0.187,4.511-0.537,8.729-1.883,12.794
	c-2.018,6.1-5.652,10.639-12.319,11.712c-6.943,1.118-12.97-0.792-17.293-6.591c-5.523-7.408-6.349-15.953-5.528-24.805
	c0.257-2.781,0.758-5.543,1.739-8.168c2.164-5.791,5.876-10.053,12.27-11.003c6.814-1.015,12.724,0.881,17.069,6.501
	C423.819,94.765,425.002,101.625,425.253,108.49L425.253,108.49z"/>
<path id="path86" inkscape:connector-curvature="0" fill="#D8D0BC" d="M825.365,101.197c0.832-6.495,2.604-11.92,7.007-16.141
	c4.401-4.223,9.845-4.381,14.523-0.48c2.923,2.437,4.836,5.594,6.44,8.993c0.674,1.427,0.305,2.001-1.16,2.383
	c-8.283,2.165-16.563,4.341-24.813,6.634C825.087,103.218,825.188,102.104,825.365,101.197L825.365,101.197z"/>
<path id="path88" inkscape:connector-curvature="0" fill="#D8D0BC" d="M729.177,101.801c0.877-7.006,2.683-12.621,7.313-16.953
	c4.105-3.842,9.365-4.084,13.814-0.657c3.28,2.527,5.354,5.956,7.076,9.649c0.645,1.382-0.01,1.781-1.179,2.09
	c-8.28,2.18-16.563,4.363-24.827,6.603C729.782,102.963,728.856,102.895,729.177,101.801z"/>
</svg>
