<?xml version="1.0" encoding="utf-8"?>
<!-- Generator: Adobe Illustrator 16.0.3, SVG Export Plug-In . SVG Version: 6.00 Build 0)  -->
<!DOCTYPE svg PUBLIC "-//W3C//DTD SVG 1.1//EN" "http://www.w3.org/Graphics/SVG/1.1/DTD/svg11.dtd">
<svg version="1.1"
	 id="Layer_1" xmlns:dc="http://purl.org/dc/elements/1.1/" xmlns:cc="http://creativecommons.org/ns#" xmlns:rdf="http://www.w3.org/1999/02/22-rdf-syntax-ns#" xmlns:svg="http://www.w3.org/2000/svg" xmlns:sodipodi="http://sodipodi.sourceforge.net/DTD/sodipodi-0.dtd" xmlns:inkscape="http://www.inkscape.org/namespaces/inkscape" inkscape:version="0.92.3 (2405546, 2018-03-11)" sodipodi:docname="UKH.svg"
	 xmlns="http://www.w3.org/2000/svg" xmlns:xlink="http://www.w3.org/1999/xlink" x="0px" y="0px" width="550.262px"
	 height="325.793px" viewBox="0 0 550.262 325.793" enable-background="new 0 0 550.262 325.793" xml:space="preserve">
<sodipodi:namedview  inkscape:cy="87.833877" inkscape:cx="417.72" inkscape:zoom="0.221875" fit-margin-left="0" fit-margin-top="0" showgrid="false" guidetolerance="10" gridtolerance="10" objecttolerance="10" borderopacity="1" pagecolor="#ffffff" bordercolor="#666666" id="namedview85" inkscape:current-layer="Layer_1" inkscape:window-maximized="0" inkscape:window-y="0" inkscape:window-x="0" fit-margin-bottom="0" fit-margin-right="0" inkscape:window-height="480" inkscape:window-width="640" inkscape:pageshadow="2" inkscape:pageopacity="0">
	</sodipodi:namedview>
<g>
	<path id="path2" inkscape:connector-curvature="0" fill="#424242" d="M0.343,5.074c0.971-2.554,2.573-3.586,4.875-3.14
		c2.097,0.406,3.16,2.037,3.16,4.917C8.381,47.868,8.364,88.884,8.388,129.9c0.01,16.531,2.396,32.648,9.021,47.922
		c11.234,25.902,30.887,40.919,58.842,44.836c16.411,2.299,32.72,1.77,48.568-3.561c14.774-4.969,26.805-13.773,35.863-26.564
		C204.963,130.019,249.268,67.522,293.566,5.02c0.415-0.585,0.804-1.196,1.271-1.738c1.397-1.623,3.789-1.918,5.473-0.712
		c1.751,1.253,2.216,3.442,1.122,5.385c-0.255,0.453-0.572,0.873-0.873,1.298C256.295,71.7,212.016,134.136,167.778,196.6
		c-13.652,19.28-32.356,30.27-55.501,33.869c-17.899,2.785-35.71,2.262-53.049-3.359c-23.685-7.678-39.746-23.711-49.442-46.4
		c-5.253-12.293-7.981-25.182-9.075-38.466c-0.161-1.95,0.157-3.982-0.708-5.854c0-0.392,0-0.784,0-1.176
		c0.415-1.031,0.104-2.109,0.202-3.163c0-41.551-0.001-83.101,0.007-124.649C0.21,6.626,0.072,5.836,0.343,5.074L0.343,5.074z"/>
	<path id="path4" inkscape:connector-curvature="0" fill="#808080" d="M417.397,0.001c2.109,1.259,2.785,3.076,2.778,5.549
		c-0.073,26.835-0.027,53.672-0.088,80.508c-0.006,1.739,0.432,2.146,2.15,2.141c23.049-0.063,46.1-0.066,69.146,0.004
		c1.869,0.006,2.229-0.573,2.226-2.3c-0.05-26.706-0.021-53.411-0.055-80.117c-0.002-2.521,0.44-4.668,3.008-5.785
		c0.784,0,1.568,0,2.354,0c2.218,1.146,2.853,2.954,2.847,5.425c-0.071,28.465-0.045,56.931-0.046,85.396
		c0,4.208-1.265,5.47-5.498,5.47c-26.246,0.002-52.491,0.002-78.737,0c-4.129,0-5.531-1.395-5.531-5.502
		c-0.002-28.4,0.021-56.8-0.041-85.2c-0.005-2.446,0.677-4.292,2.744-5.59C415.568,0.001,416.483,0.001,417.397,0.001z"/>
	<path id="path6" inkscape:connector-curvature="0" fill="#808080" d="M369.191,0.001c2.13,1.376,2.686,3.362,2.683,5.829
		c-0.042,73.718-0.033,147.436-0.034,221.154c0,0.977,0.055,1.955-0.242,2.914c-0.604,1.951-2.317,3.111-4.325,2.898
		c-1.882-0.199-3.362-1.669-3.56-3.59c-0.067-0.646-0.032-1.305-0.032-1.958c-0.001-73.914,0.008-147.828-0.04-221.741
		c-0.001-2.455,0.595-4.32,2.808-5.507C367.362,0.001,368.276,0.001,369.191,0.001z"/>
	<path id="path8" inkscape:connector-curvature="0" fill="#808080" d="M385.26,0.001c2.054,1.309,2.729,3.145,2.727,5.594
		c-0.05,73.915-0.04,147.829-0.046,221.744c0,0.778,0.008,1.58-0.166,2.33c-0.478,2.067-2.283,3.325-4.345,3.13
		c-1.918-0.182-3.458-1.753-3.635-3.749c-0.053-0.583-0.021-1.175-0.021-1.762c0-73.915,0.009-147.829-0.043-221.744
		c-0.001-2.468,0.666-4.292,2.786-5.543C383.43,0.001,384.345,0.001,385.26,0.001L385.26,0.001z"/>
	<path id="path10" inkscape:connector-curvature="0" fill="#808080" d="M401.327,0.001c2.1,1.268,2.775,3.089,2.773,5.557
		c-0.053,73.916-0.042,147.831-0.043,221.747c0,0.588,0.033,1.18-0.024,1.762c-0.202,2.078-1.84,3.65-3.853,3.742
		c-2.051,0.092-3.815-1.27-4.207-3.336c-0.132-0.697-0.092-1.43-0.092-2.146c-0.004-73.916,0.006-147.831-0.046-221.747
		c-0.001-2.459,0.68-4.284,2.746-5.58C399.498,0.001,400.413,0.001,401.327,0.001L401.327,0.001z"/>
	<path id="path12" inkscape:connector-curvature="0" fill="#808080" d="M531.054,0.001c2.147,0.994,2.898,2.652,2.897,5.023
		c-0.041,74.257-0.032,148.514-0.036,222.771c0,3.875-2.576,6.014-5.614,4.673c-1.432-0.631-2.282-1.706-2.386-3.299
		c-0.036-0.585-0.03-1.174-0.03-1.762c-0.002-73.996,0.009-147.992-0.044-221.988c-0.002-2.47,0.634-4.282,2.86-5.418
		C529.487,0.001,530.271,0.001,531.054,0.001z"/>
	<path id="path14" inkscape:connector-curvature="0" fill="#808080" d="M514.986,0.001c2.146,1.085,2.86,2.794,2.859,5.211
		c-0.05,74.132-0.041,148.265-0.035,222.397c0,1.451,0.064,2.912-1.123,4.007c-1.252,1.155-2.701,1.548-4.337,0.922
		c-1.548-0.593-2.422-1.722-2.538-3.388c-0.045-0.651-0.041-1.307-0.041-1.959c-0.001-73.871,0.007-147.741-0.036-221.613
		c-0.002-2.494,0.484-4.468,2.899-5.577C513.418,0.001,514.2,0.001,514.986,0.001z"/>
	<path id="path16" inkscape:connector-curvature="0" fill="#808080" d="M550.258,230.059c-0.112,0.059-0.264,0.088-0.331,0.18
		c-1.832,2.433-3.207,3.063-5.191,2.367c-1.966-0.688-2.73-2.103-2.73-5.061c-0.001-74.079,0.008-148.159-0.041-222.238
		c-0.001-2.415,0.677-4.168,2.81-5.306c0.783,0,1.567,0,2.354,0c2.467,0.664,2.81,1.105,2.933,3.772
		c0.001,74.465,0,148.927,0.012,223.389c0,0.833-0.211,1.697,0.19,2.505C550.258,229.797,550.258,229.928,550.258,230.059z"/>
	<path id="path18" inkscape:connector-curvature="0" fill="#424242" d="M0.001,272.777c0.484-0.297,0.791-0.881,1.466-0.879
		c3.065,0.011,6.134-0.084,9.193,0.054c1.492,0.065,1.462,1.413,1.462,2.548c0.001,9.006,0.001,18.012,0.001,27.018
		c0,2.09-0.036,4.18,0.015,6.267c0.08,3.329,1.636,5.127,4.9,5.868c1.229,0.279,2.461,0.313,3.696,0.229
		c4.39-0.299,6.375-2.357,6.387-6.738c0.027-10.701,0.008-21.403,0.011-32.106c0.001-2.91,0.263-3.177,3.084-3.187
		c2.022-0.007,4.046-0.008,6.069,0c2.708,0.012,2.949,0.238,2.95,2.867c0.004,11.094,0.02,22.188-0.004,33.282
		c-0.018,8.908-4.761,14.896-13.464,16.97c-5.345,1.273-10.623,1.02-15.722-1.129c-4.785-2.014-8.005-5.473-9.438-10.531
		c-0.127-0.449,0.022-1.093-0.608-1.336C0.001,298.906,0.001,285.842,0.001,272.777z"/>
	<path id="path20" inkscape:connector-curvature="0" fill="#AEAEAE" d="M550.258,229.667c-0.618-0.421-0.383-1.065-0.383-1.618
		c-0.009-74.853-0.008-149.706-0.005-224.558c0-0.13,0.019-0.261,0.026-0.391c0.134-0.128,0.255-0.123,0.359,0.036
		C550.258,78.647,550.258,154.156,550.258,229.667z"/>
	<path id="path22" inkscape:connector-curvature="0" fill="#C3C3C3" d="M0.343,5.074C0.36,5.92,0.391,6.767,0.391,7.614
		c0.002,40.84,0.002,81.68,0,122.52c0,0.781-0.04,1.563-0.062,2.344c-0.113,0.162-0.224,0.159-0.328-0.008
		c0-42.458,0-84.917,0-127.375C0.114,5.079,0.228,5.072,0.343,5.074z"/>
	<path id="path24" inkscape:connector-curvature="0" fill="#FBFBFB" d="M550.258,3.136c-0.12-0.002-0.241-0.014-0.359-0.036
		c-0.222-1.663-1.497-2.382-2.773-3.099C550.258,0.001,550.258,0.001,550.258,3.136z"/>
	<path id="path26" inkscape:connector-curvature="0" fill="#D3D3D3" d="M0.001,132.47c0.108,0.01,0.218,0.013,0.328,0.008
		c-0.073,0.916,0.472,1.906-0.328,2.735C0.001,134.299,0.001,133.385,0.001,132.47z"/>
	<path id="path28" inkscape:connector-curvature="0" fill="#424242" d="M24.51,73.554c0,20.575-0.134,41.151,0.048,61.725
		c0.118,13.245,2.646,26.069,8.41,38.101c9.845,20.547,26.449,31.476,48.849,33.974c12.521,1.396,24.938,0.877,36.958-3.196
		c11.813-4.003,21.503-10.976,28.784-21.257C189.611,123.515,231.709,64.163,273.792,4.8c2.144-3.024,4.471-3.788,6.644-2.181
		c2.182,1.614,2.191,3.803,0.026,6.857C238,69.37,195.586,129.298,153.036,189.129c-8.302,11.671-19.813,19.244-33.456,23.281
		c-17.501,5.179-35.24,5.273-52.733,0.199c-21.977-6.371-36.12-21.321-44.08-42.424c-4.517-11.976-6.394-24.44-6.393-37.211
		c0.002-42.066,0-84.132,0.002-126.198c0-3.252,1.515-5.02,4.187-4.924c2.019,0.072,3.583,1.496,3.806,3.51
		c0.07,0.646,0.046,1.304,0.046,1.957c0.002,22.078,0.002,44.156,0.002,66.234C24.447,73.554,24.478,73.554,24.51,73.554
		L24.51,73.554z"/>
	<path id="path30" inkscape:connector-curvature="0" fill="#424242" d="M145.316,73.814c0-22.338-0.002-44.676,0.002-67.014
		c0-3.265,1.504-5.029,4.173-4.949c2.022,0.061,3.586,1.455,3.831,3.48c0.088,0.709,0.066,1.434,0.066,2.151
		c0.002,41.933,0.005,83.866,0,125.798c-0.001,12.453-1.559,24.635-7.106,35.96c-8.813,17.986-23.5,27.771-43.188,30.261
		c-11.275,1.426-22.458,0.885-33.254-2.901c-16.783-5.89-27.243-17.986-33.002-34.483c-3.217-9.214-4.463-18.746-4.461-28.478
		c0.012-42.194,0.004-84.388,0.006-126.582c0-3.468,1.426-5.252,4.128-5.208c2.106,0.033,3.718,1.503,3.908,3.61
		c0.064,0.713,0.035,1.436,0.035,2.154c0.001,41.802-0.015,83.604,0.011,125.406c0.007,12.081,1.898,23.764,7.627,34.604
		c7.332,13.875,19,21.46,34.34,23.645c10.609,1.512,21.164,1.193,31.3-2.539c15.568-5.731,24.685-17.321,28.898-33.061
		c1.971-7.357,2.675-14.886,2.68-22.484C145.324,113.396,145.316,93.605,145.316,73.814L145.316,73.814z"/>
	<path id="path32" inkscape:connector-curvature="0" fill="#424242" d="M137.419,74.076c0,20.375,0.024,40.75-0.015,61.125
		c-0.016,8.413-1.041,16.686-4.489,24.458c-6.567,14.792-18.229,22.526-34.119,24.122c-7.938,0.796-15.805,0.285-23.354-2.514
		c-13.486-5.002-21.069-15.211-24.864-28.653c-1.553-5.498-2.213-11.132-2.217-16.831c-0.019-42.905-0.011-85.81-0.009-128.715
		c0-3.487,1.574-5.361,4.351-5.211c2.002,0.109,3.553,1.572,3.742,3.584c0.067,0.713,0.035,1.436,0.035,2.154
		c0.001,42.448-0.004,84.896,0.005,127.344c0.001,7.912,1.186,15.598,4.646,22.804c5.235,10.897,14.076,16.582,25.943,17.868
		c7.165,0.775,14.25,0.458,21.009-2.211c11-4.342,17.063-12.843,19.677-24.09c1.097-4.724,1.53-9.526,1.529-14.372
		c-0.002-42.644-0.002-85.288,0-127.932c0-3.3,1.263-5.01,3.778-5.146c2.122-0.115,3.826,1.173,4.21,3.269
		c0.142,0.762,0.135,1.558,0.135,2.338C137.42,29.668,137.419,51.872,137.419,74.076L137.419,74.076z"/>
	<path id="path34" inkscape:connector-curvature="0" fill="#424242" d="M345.213,228.105c-0.11,1.353-0.737,2.598-2.112,3.352
		c-1.438,0.788-2.894,0.743-4.248-0.207c-0.527-0.37-0.981-0.855-1.435-1.323c-29.783-30.801-59.563-61.604-89.34-92.41
		c-2.875-2.974-2.956-4.174-0.564-7.639c28.99-41.991,57.979-83.981,86.97-125.971c0.334-0.483,0.65-0.983,1.024-1.433
		c1.507-1.818,3.755-2.159,5.583-0.87c1.765,1.245,2.2,3.574,1.019,5.568c-0.298,0.504-0.656,0.973-0.989,1.456
		c-28.247,40.917-56.486,81.839-84.775,122.729c-0.95,1.373-0.922,2.102,0.256,3.318c28.906,29.831,57.765,59.708,86.642,89.567
		C344.263,225.298,345.198,226.355,345.213,228.105z"/>
	<path id="path36" inkscape:connector-curvature="0" fill="#424242" d="M322.134,228.209c-0.071,1.316-0.796,2.578-2.249,3.324
		c-1.462,0.75-2.921,0.609-4.242-0.373c-0.52-0.387-0.957-0.885-1.408-1.355c-29.688-30.895-59.375-61.791-89.059-92.688
		c-2.302-2.397-2.416-3.992-0.468-6.74c29.854-42.11,59.715-84.218,89.576-126.324c1.688-2.379,3.778-3.004,5.836-1.792
		c2.226,1.311,2.641,3.839,0.94,6.256c-4.127,5.874-8.289,11.722-12.439,17.579c-24.908,35.138-49.812,70.281-74.758,105.392
		c-0.908,1.28-0.987,1.961,0.186,3.178c28.729,29.821,57.408,59.694,86.101,89.553C321.161,225.271,322.14,226.309,322.134,228.209z
		"/>
	<path id="path38" inkscape:connector-curvature="0" fill="#808080" d="M501.717,184.598c0,14.563,0.006,29.125-0.005,43.688
		c-0.002,2.904-1.631,4.619-4.205,4.523c-1.933-0.072-3.489-1.429-3.748-3.343c-0.104-0.772-0.081-1.563-0.081-2.346
		c-0.004-26.774-0.003-53.548-0.004-80.322c0-2.542-0.002-2.543-2.511-2.543c-22.985,0-45.974,0.024-68.959-0.047
		c-1.792-0.005-2.116,0.513-2.112,2.18c0.052,26.97,0.037,53.94,0.036,80.91c0,0.587,0.032,1.179-0.021,1.763
		c-0.18,1.991-1.728,3.563-3.646,3.739c-2.064,0.191-3.861-1.065-4.341-3.139c-0.175-0.75-0.168-1.552-0.168-2.331
		c-0.009-28.537-0.009-57.074-0.007-85.612c0-4.24,1.381-5.624,5.625-5.624c26.188-0.002,52.373-0.002,78.561,0
		c4.353,0,5.583,1.241,5.583,5.599C501.718,155.994,501.718,170.295,501.717,184.598L501.717,184.598z"/>
	<path id="path40" inkscape:connector-curvature="0" fill="#808080" d="M146.044,298.17c0.028-15.441,12.034-27.393,27.502-27.377
		c15.37,0.014,27.476,12.141,27.453,27.496c-0.023,15.393-12.247,27.452-27.771,27.396
		C158.007,325.635,146.013,313.495,146.044,298.17L146.044,298.17z"/>
	<path id="path42" inkscape:connector-curvature="0" fill="#808080" d="M137.294,298.252c0,7.835,0.005,15.668-0.003,23.502
		c-0.002,2.618-0.21,2.822-2.764,2.832c-2.283,0.008-4.57-0.066-6.854,0.021c-1.807,0.069-2.416-0.725-2.399-2.455
		c0.056-5.612-0.047-11.229,0.062-16.842c0.032-1.677-0.507-2.069-2.091-2.023c-3.783,0.109-7.573,0.092-11.358,0.006
		c-1.351-0.031-1.782,0.333-1.762,1.729c0.078,5.612,0.04,11.229,0.026,16.844c-0.005,2.421-0.3,2.707-2.714,2.72
		c-2.285,0.013-4.571-0.069-6.854,0.024c-1.876,0.076-2.594-0.748-2.577-2.551c0.039-4.179,0.012-8.355,0.012-12.533
		c0-11.489-0.002-22.979,0.001-34.471c0-2.927,0.244-3.175,3.083-3.182c2.154-0.006,4.311-0.018,6.463,0.003
		c2.25,0.021,2.579,0.354,2.585,2.661c0.015,5.092,0.063,10.186-0.029,15.275c-0.026,1.47,0.377,1.893,1.851,1.851
		c3.718-0.106,7.444-0.118,11.161,0.002c1.661,0.056,2.261-0.303,2.21-2.116c-0.139-5.021-0.058-10.052-0.043-15.078
		c0.007-2.32,0.274-2.578,2.606-2.596c2.219-0.018,4.438-0.013,6.656,0c2.471,0.014,2.724,0.247,2.728,2.678
		C137.301,282.454,137.294,290.354,137.294,298.252L137.294,298.252z"/>
	<path id="path44" inkscape:connector-curvature="0" fill="#808080" d="M378.005,271.874c1.631-0.001,3.27,0.097,4.892-0.024
		c2.018-0.15,3.028,0.62,3.663,2.605c4.203,13.15,8.527,26.264,12.812,39.389c0.89,2.725,1.813,5.438,2.65,8.178
		c0.587,1.924,0.119,2.537-1.867,2.56c-2.806,0.028-5.611-0.052-8.417,0.03c-1.6,0.048-2.387-0.651-2.753-2.144
		c-0.388-1.577-0.947-3.114-1.352-4.69c-0.258-1.004-0.658-1.502-1.841-1.484c-5.22,0.072-10.44,0.063-15.661,0.006
		c-1.133-0.012-1.616,0.378-1.871,1.457c-0.389,1.646-0.979,3.24-1.412,4.876c-0.349,1.315-1.067,1.991-2.491,1.97
		c-2.936-0.045-5.873,0.019-8.809-0.022c-1.889-0.026-2.291-0.608-1.686-2.479c5.229-16.104,10.48-32.201,15.698-48.311
		c0.458-1.416,1.336-1.958,2.766-1.922C374.22,271.91,376.113,271.875,378.005,271.874L378.005,271.874z"/>
	<path id="path46" inkscape:connector-curvature="0" fill="#424242" d="M61.532,300.868c0,6.77,0,13.54,0,20.31
		c0,3.359-0.062,3.42-3.394,3.422c-2.025,0.002-4.05,0.012-6.075-0.002c-2.255-0.017-2.64-0.384-2.649-2.603
		c-0.019-3.593-0.005-7.187-0.005-10.777c0-12.147-0.003-24.298,0.002-36.444c0.001-2.637,0.282-2.912,2.938-2.926
		c2.221-0.01,4.443,0.055,6.662-0.019c1.848-0.06,2.561,0.723,2.542,2.567c-0.061,6.205-0.023,12.41-0.023,18.615
		c0,0.368,0,0.736,0,1.635c0.698-0.942,1.109-1.479,1.497-2.026c4.438-6.294,8.897-12.57,13.28-18.901
		c0.911-1.314,1.944-1.947,3.563-1.896c2.738,0.087,5.484,0.013,8.229,0.03c0.7,0.006,1.53-0.139,1.943,0.615
		c0.451,0.822-0.111,1.479-0.562,2.126c-4.909,7.078-9.78,14.183-14.749,21.218c-0.871,1.232-0.992,2.037-0.063,3.357
		c5.17,7.371,10.217,14.829,15.293,22.266c0.502,0.736,1.326,1.485,0.878,2.455c-0.48,1.038-1.591,0.688-2.464,0.696
		c-2.612,0.032-5.229-0.052-7.837,0.036c-1.54,0.051-2.526-0.518-3.397-1.79c-5.043-7.38-10.16-14.709-15.252-22.058
		C61.771,300.809,61.651,300.838,61.532,300.868L61.532,300.868z"/>
	<path id="path48" inkscape:connector-curvature="0" fill="#808080" d="M236.745,288.441c-0.72,0.002-1.442-0.063-2.153,0.014
		c-2.267,0.234-3.814-0.229-4.402-2.887c-0.455-2.055-2.422-2.799-4.423-2.953c-2.255-0.174-4.506-0.104-6.037,1.945
		c-1.104,1.479-0.828,3.504,0.605,4.996c1.397,1.457,3.242,2.15,5.066,2.857c3.765,1.457,7.668,2.535,11.229,4.527
		c5.854,3.274,8.262,8.261,7.594,14.84c-0.625,6.16-4.053,10.215-9.706,12.343c-6.242,2.351-12.556,2.219-18.695-0.401
		c-5.896-2.519-8.86-7.246-9.511-13.516c-0.138-1.338,0.511-2.141,1.9-2.154c2.742-0.025,5.482-0.002,8.226-0.014
		c1.193-0.005,1.746,0.673,2.016,1.74c0.58,2.308,2.188,3.404,4.434,3.85c2.158,0.428,4.292,0.43,6.39-0.184
		c1.524-0.445,2.674-1.377,2.933-3.074c0.247-1.619-0.56-2.764-1.78-3.659c-1.708-1.251-3.708-1.888-5.675-2.58
		c-3.011-1.062-6.054-2.038-8.897-3.524c-6.541-3.422-9.655-8.99-8.821-15.797c0.843-6.865,5.063-11.681,12.195-13.353
		c6.895-1.615,13.397-0.737,18.81,4.299c2.945,2.743,4.327,6.286,4.659,10.272c0.138,1.66-0.541,2.459-2.229,2.417
		C239.227,288.418,237.986,288.441,236.745,288.441L236.745,288.441z"/>
	<path id="path50" inkscape:connector-curvature="0" fill="#808080" d="M252.324,298.063c0-7.838-0.007-15.674,0.002-23.511
		c0.003-2.428,0.25-2.672,2.718-2.677c5.747-0.011,11.494-0.035,17.239,0.004c10.569,0.071,18.563,7.95,18.512,18.201
		c-0.051,10.043-8.194,17.906-18.611,17.967c-2.024,0.012-4.054,0.09-6.072-0.027c-1.429-0.084-1.735,0.47-1.711,1.787
		c0.077,3.916,0.042,7.836,0.022,11.754c-0.015,2.689-0.366,3.021-3.059,3.024c-2.221,0.004-4.442-0.063-6.659,0.021
		c-1.795,0.068-2.416-0.697-2.404-2.446C252.351,314.128,252.324,306.096,252.324,298.063L252.324,298.063z"/>
	<path id="path52" inkscape:connector-curvature="0" fill="#424242" d="M169.338,71.873c0,21.811,0.015,43.621-0.017,65.431
		c-0.005,3.541-3.053,5.594-5.911,4.089c-1.613-0.849-2.248-2.292-2.214-4.062c0.047-2.219,0.151-4.438,0.151-6.657
		c0.009-41.075,0.007-82.149,0.01-123.225c0-0.783-0.027-1.576,0.085-2.345c0.279-1.882,1.885-3.208,3.828-3.253
		c2.033-0.048,3.753,1.281,4.053,3.224c0.129,0.833,0.098,1.693,0.098,2.541c0.004,21.419,0.003,42.838,0.003,64.257
		C169.397,71.873,169.367,71.873,169.338,71.873L169.338,71.873z"/>
	<path id="path54" inkscape:connector-curvature="0" fill="#808080" d="M527.809,289.48c2.175-4.14,4.231-8.121,6.353-12.069
		c3.582-6.675,1.609-5.396,9.064-5.532c1.502-0.027,3.005-0.027,4.507,0.002c2.208,0.046,2.61,0.694,1.52,2.631
		c-2.979,5.286-6.017,10.541-9.019,15.813c-2.131,3.741-5.052,7.274-6.137,11.301c-1.068,3.961-0.271,8.427-0.286,12.671
		c-0.009,2.678-0.038,5.355,0.01,8.033c0.03,1.71-0.795,2.313-2.414,2.271c-2.35-0.059-4.701-0.004-7.054-0.019
		c-2.305-0.015-2.659-0.381-2.662-2.79c-0.009-6.141-0.027-12.279,0.019-18.419c0.01-1.286-0.271-2.392-0.92-3.511
		c-4.705-8.135-9.362-16.293-14.028-24.448c-1.818-3.179-1.594-3.541,2.146-3.542c2.354-0.001,4.707,0.087,7.055-0.029
		c1.791-0.089,2.881,0.523,3.701,2.174c2.385,4.787,4.921,9.5,7.4,14.238C527.24,288.598,527.462,288.916,527.809,289.48
		L527.809,289.48z"/>
	<path id="path56" inkscape:connector-curvature="0" fill="#424242" d="M299.543,227.73c0.006,1.768-0.687,2.971-2.047,3.728
		c-1.355,0.753-2.767,0.762-4.08-0.104c-0.591-0.389-1.11-0.903-1.606-1.416c-25.414-26.277-50.817-52.563-76.239-78.834
		c-0.984-1.019-1.84-2.084-1.799-3.554c0.048-1.692,0.822-3.002,2.427-3.706c1.689-0.741,3.229-0.399,4.498,0.863
		c2.313,2.303,4.563,4.667,6.833,7.014c23.368,24.169,46.734,48.341,70.106,72.507C298.648,225.275,299.639,226.313,299.543,227.73
		L299.543,227.73z"/>
	<path id="path58" inkscape:connector-curvature="0" fill="#808080" d="M329.997,303.589c0-6.004-0.085-12.01,0.052-18.01
		c0.043-1.89-0.59-2.289-2.302-2.196c-2.473,0.135-4.958-0.014-7.438,0.051c-1.646,0.043-2.435-0.646-2.424-2.293
		c0.015-2.35,0.016-4.697-0.001-7.049c-0.011-1.553,0.722-2.229,2.28-2.229c10.569,0.021,21.143,0.025,31.714-0.004
		c1.688-0.006,2.36,0.767,2.346,2.369c-0.021,2.284-0.018,4.568-0.001,6.854c0.011,1.605-0.677,2.395-2.367,2.352
		c-2.607-0.063-5.225,0.08-7.829-0.053c-1.572-0.08-1.946,0.441-1.938,1.963c0.061,12.072,0.035,24.146,0.031,36.217
		c0,2.787-0.236,3.021-3.013,3.026c-2.088,0.004-4.176,0.007-6.264-0.001c-2.552-0.01-2.841-0.286-2.844-2.791
		C329.992,315.727,329.998,309.656,329.997,303.589L329.997,303.589z"/>
	<path id="path60" inkscape:connector-curvature="0" fill="#808080" d="M477.871,303.548c0-6.137-0.038-12.272,0.028-18.409
		c0.018-1.387-0.428-1.797-1.78-1.748c-2.606,0.094-5.224-0.018-7.832,0.043c-1.631,0.036-2.435-0.586-2.399-2.281
		c0.049-2.414,0.03-4.832,0.009-7.246c-0.013-1.385,0.623-2.033,2.013-2.032c10.706,0.01,21.412,0.008,32.118,0.001
		c1.36,0,2.064,0.592,2.054,2c-0.02,2.479-0.024,4.962,0.005,7.441c0.018,1.498-0.705,2.119-2.16,2.105
		c-2.678-0.025-5.358,0.089-8.028-0.04c-1.574-0.077-1.959,0.438-1.951,1.97c0.063,12.075,0.035,24.152,0.032,36.23
		c-0.001,2.879-0.124,2.999-2.971,3.005c-2.221,0.004-4.443-0.084-6.658,0.024c-1.992,0.099-2.479-0.983-2.478-2.654
		c0.01-3.982,0.002-7.964,0.001-11.946C477.871,307.855,477.871,305.702,477.871,303.548L477.871,303.548z"/>
	<path id="path62" inkscape:connector-curvature="0" fill="#424242" d="M185.467,58.788c0,17.433,0.004,34.866-0.004,52.3
		c-0.001,2.813-1.333,4.472-3.663,4.658c-2.271,0.182-4.086-1.282-4.342-3.55c-0.081-0.71-0.063-1.434-0.063-2.151
		c-0.002-34.148-0.002-68.297,0-102.445c0-0.717-0.02-1.44,0.06-2.152c0.237-2.207,1.92-3.654,4.117-3.595
		c2.104,0.057,3.688,1.539,3.866,3.658c0.057,0.648,0.028,1.305,0.028,1.958C185.468,24.574,185.467,41.681,185.467,58.788
		L185.467,58.788z"/>
	<path id="path64" inkscape:connector-curvature="0" fill="#808080" d="M409.205,298.105c0-7.771-0.005-15.545,0.003-23.314
		c0.002-2.598,0.321-2.903,2.958-2.914c2.154-0.009,4.311-0.013,6.466,0.002c2.392,0.018,2.705,0.324,2.706,2.739
		c0.008,12.017,0.061,24.034-0.052,36.05c-0.02,2.048,0.566,2.494,2.497,2.43c4.37-0.146,8.751,0.004,13.125-0.068
		c1.846-0.031,2.617,0.646,2.534,2.527c-0.103,2.28-0.059,4.57-0.014,6.855c0.028,1.449-0.53,2.199-2.05,2.197
		c-8.688-0.017-17.372-0.015-26.06-0.006c-1.967,0.004-2.123-1.301-2.121-2.791C409.211,313.909,409.206,306.007,409.205,298.105
		L409.205,298.105z"/>
	<path id="path66" inkscape:connector-curvature="0" fill="#424242" d="M276.768,227.807c0.005,1.756-0.742,2.936-2.094,3.676
		c-1.438,0.789-2.906,0.696-4.248-0.254c-0.579-0.41-1.071-0.951-1.568-1.466c-21.006-21.729-42.009-43.462-63.011-65.194
		c-0.362-0.375-0.75-0.735-1.058-1.153c-1.212-1.647-1.005-3.964,0.449-5.354c1.469-1.401,3.783-1.541,5.352-0.188
		c1.132,0.978,2.133,2.109,3.177,3.188c20.331,21.021,40.658,42.044,60.989,63.064C275.808,225.214,276.896,226.271,276.768,227.807
		L276.768,227.807z"/>
	<path id="path68" inkscape:connector-curvature="0" fill="#808080" d="M456.994,128.2c-13.513,0-27.023,0.012-40.536-0.009
		c-3.416-0.005-5.444-2.955-4.047-5.794c0.549-1.113,1.405-1.906,2.651-2.109c0.959-0.156,1.943-0.229,2.917-0.23
		c25.979-0.012,51.959-0.011,77.938,0c0.907,0,1.839,0.027,2.718,0.225c2.083,0.468,3.257,2.211,3.059,4.36
		c-0.182,1.974-1.695,3.407-3.771,3.541c-0.585,0.038-1.174,0.017-1.763,0.017C483.106,128.2,470.05,128.2,456.994,128.2z"/>
	<path id="path70" inkscape:connector-curvature="0" fill="#808080" d="M456.758,104.131c13.379,0,26.758-0.007,40.137,0.005
		c3.151,0.003,4.858,1.488,4.817,4.098c-0.033,2.124-1.489,3.714-3.604,3.902c-0.584,0.052-1.174,0.028-1.762,0.028
		c-26.301,0.001-52.603,0.001-78.902,0.001c-0.326,0-0.651,0.005-0.979-0.001c-2.636-0.048-4.416-1.593-4.494-3.896
		c-0.082-2.38,1.716-4.117,4.454-4.123c12.986-0.027,25.974-0.014,38.961-0.015C455.844,104.131,456.301,104.131,456.758,104.131z"
		/>
	<path id="path72" inkscape:connector-curvature="0" fill="#808080" d="M298.658,298.047c0-7.765-0.006-15.529,0.002-23.295
		c0.002-2.563,0.296-2.859,2.78-2.875c2.284-0.014,4.569,0.044,6.853-0.018c1.703-0.049,2.511,0.586,2.508,2.389
		c-0.03,15.986-0.03,31.975,0,47.96c0.003,1.787-0.767,2.448-2.492,2.396c-2.347-0.068-4.698-0.004-7.047-0.021
		c-2.226-0.017-2.596-0.381-2.6-2.653C298.649,313.969,298.658,306.008,298.658,298.047z"/>
	<path id="path74" inkscape:connector-curvature="0" fill="#808080" d="M446.67,298.04c0-7.827-0.007-15.653,0.004-23.479
		c0.003-2.438,0.247-2.67,2.709-2.684c2.218-0.014,4.436-0.018,6.652,0c2.336,0.018,2.617,0.279,2.627,2.58
		c0.02,5.088,0.007,10.175,0.007,15.263c0,10.632,0.004,21.265-0.002,31.896c-0.001,2.812-0.173,2.969-3.019,2.974
		c-2.087,0.003-4.174,0.008-6.262-0.002c-2.462-0.011-2.712-0.241-2.715-2.672C446.662,313.955,446.67,305.998,446.67,298.04
		L446.67,298.04z"/>
	<path id="path76" inkscape:connector-curvature="0" fill="#D8D0BC" d="M173.454,282.564c8.935-0.006,15.431,6.602,15.427,15.686
		c-0.005,9.059-6.553,15.688-15.467,15.667c-8.785-0.022-15.284-6.628-15.358-15.608
		C157.981,289.302,164.565,282.57,173.454,282.564z"/>
	<path id="path78" inkscape:connector-curvature="0" fill="#D8D0BC" d="M377.949,285.1c1.938,6.563,3.704,12.608,5.531,18.64
		c0.309,1.018,0.025,1.255-0.939,1.245c-3.125-0.03-6.251-0.028-9.376,0.002c-0.798,0.007-1.058-0.242-0.823-1.023
		C374.16,297.866,375.969,291.768,377.949,285.1z"/>
	<path id="path80" inkscape:connector-curvature="0" fill="#D8D0BC" d="M264.428,289.936c0-1.822,0.021-3.646-0.009-5.47
		c-0.016-0.835,0.147-1.386,1.156-1.354c2.534,0.078,5.088-0.047,7.603,0.205c3.463,0.349,5.675,3.365,5.475,7.102
		c-0.185,3.471-2.689,6.121-6.033,6.251c-2.275,0.088-4.56-0.035-6.833,0.052c-1.201,0.047-1.405-0.494-1.372-1.514
		C264.469,293.451,264.428,291.691,264.428,289.936z"/>
</g>
</svg>
