<?xml version="1.0" encoding="UTF-8" standalone="no"?>
<!-- Generator: Adobe Illustrator 16.0.0, SVG Export Plug-In . SVG Version: 6.00 Build 0)  -->

<svg
   xmlns:dc="http://purl.org/dc/elements/1.1/"
   xmlns:cc="http://creativecommons.org/ns#"
   xmlns:rdf="http://www.w3.org/1999/02/22-rdf-syntax-ns#"
   xmlns:svg="http://www.w3.org/2000/svg"
   xmlns="http://www.w3.org/2000/svg"
   xmlns:sodipodi="http://sodipodi.sourceforge.net/DTD/sodipodi-0.dtd"
   xmlns:inkscape="http://www.inkscape.org/namespaces/inkscape"
   version="1.1"
   id="Layer_1"
   x="0px"
   y="0px"
   width="1500.1282"
   height="534.73505"
   viewBox="0 0 1500.1282 534.73505"
   xml:space="preserve"
   sodipodi:docname="Fairfield.svg"
   inkscape:version="0.92.3 (2405546, 2018-03-11)"><metadata
   id="metadata53"><rdf:RDF><cc:Work
       rdf:about=""><dc:format>image/svg+xml</dc:format><dc:type
         rdf:resource="http://purl.org/dc/dcmitype/StillImage" /><dc:title></dc:title></cc:Work></rdf:RDF></metadata><defs
   id="defs51" /><sodipodi:namedview
   pagecolor="#ffffff"
   bordercolor="#666666"
   borderopacity="1"
   objecttolerance="10"
   gridtolerance="10"
   guidetolerance="10"
   inkscape:pageopacity="0"
   inkscape:pageshadow="2"
   inkscape:window-width="640"
   inkscape:window-height="480"
   id="namedview49"
   showgrid="false"
   fit-margin-top="0"
   fit-margin-left="0"
   fit-margin-right="0"
   fit-margin-bottom="0"
   inkscape:zoom="0.221875"
   inkscape:cx="749"
   inkscape:cy="268.81368"
   inkscape:window-x="0"
   inkscape:window-y="0"
   inkscape:window-maximized="0"
   inkscape:current-layer="Layer_1" />
<g
   id="g46"
   transform="translate(109,-134.07866)">
	<path
   d="m -109,136.977 c 2.869,-2.193 6.038,-2.996 9.703,-2.889 30.958,0.906 61.916,2.11 92.894,1.696 29.468,-0.394 58.931,-1.115 88.397,-1.622 7.485,-0.129 8.872,1.111 9.24,8.381 0.766,15.124 2.004,30.236 1.766,45.393 -0.056,3.561 0.011,7.688 -5.191,8.175 -5.35,0.502 -6.002,-3.697 -6.374,-7.194 -2.642,-24.839 -16.255,-34.281 -38.934,-37.405 -19.539,-2.691 -39.211,-2.381 -58.752,0.345 -9.322,1.301 -12.891,5.482 -13.966,14.811 -1.303,11.295 -0.534,22.639 -0.591,33.959 -0.072,14.159 -0.13,28.331 0.387,42.476 0.344,9.422 2.684,11.645 12.108,12.385 8.286,0.651 16.657,0.951 24.932,-0.271 15.602,-2.306 25.222,-11.69 30.366,-26.204 0.83,-2.339 1.652,-4.697 2.715,-6.935 0.964,-2.032 2.874,-2.643 5.037,-2.492 2.329,0.162 3.546,1.619 4.19,3.686 0.854,2.74 1.025,5.561 0.887,8.406 -1.027,21.148 0.271,42.286 0.294,63.429 0.003,3.139 0.44,6.324 -0.751,9.395 -0.994,2.564 -2.608,4.25 -5.506,4.261 -2.798,0.01 -4.176,-1.764 -4.891,-4.186 -0.706,-2.389 -1.35,-4.799 -1.944,-7.22 -3.06,-12.47 -10.938,-20.051 -23.524,-22.142 -11.048,-1.835 -22.245,-1.692 -33.362,-0.376 -6.954,0.823 -9.458,3.56 -10.461,10.566 -0.329,2.3 -0.495,4.642 -0.499,6.966 -0.036,22.663 -0.07,45.328 0.023,67.991 0.017,3.979 0.322,8.011 1.021,11.923 1.934,10.815 8.033,18.391 18.278,22.606 6.662,2.741 13.704,4.02 20.646,5.708 2.9,0.707 6.281,1.195 5.893,5.373 -0.362,3.895 -3.699,4.725 -6.602,4.809 -8.651,0.248 -17.344,0.477 -25.968,-0.092 -21.817,-1.438 -43.597,-0.823 -65.388,0.299 -3.157,0.162 -6.329,0.104 -9.493,0.07 -2.397,-0.026 -4.279,-0.938 -4.648,-3.566 -0.343,-2.441 -0.002,-4.691 2.557,-5.932 0.149,-0.072 0.275,-0.211 0.43,-0.252 15.556,-4.159 17.802,-16.724 18.894,-29.98 0.205,-2.486 0.18,-4.995 0.18,-7.492 0.009,-61.325 0.009,-122.65 0.006,-183.976 0,-18.062 -5.348,-25.488 -22.556,-31.236 -4.082,-1.364 -8.121,-2.766 -11.442,-5.648 -0.001,-2 -0.001,-3.999 -0.001,-5.999 z"
   id="path2"
   inkscape:connector-curvature="0"
   style="fill:#58595b" />
	<path
   d="m 378.151,579.011 c -4.104,8.587 -7.798,16.349 -11.524,24.094 -0.886,1.841 0.366,3.179 1,4.63 5.987,13.709 12.035,27.392 17.998,41.111 0.643,1.479 1.779,2.851 1.48,5.06 -14.576,0 -29.184,-0.053 -43.788,0.048 -2.605,0.019 -2.809,-1.884 -3.542,-3.442 -10.275,-21.8 -20.529,-43.609 -30.797,-65.413 -0.553,-1.172 -1.188,-2.303 -2.117,-4.09 -5.455,11.572 -10.458,22.665 -15.872,33.555 -7.704,15.492 -15.578,30.871 -27.782,43.566 -14.585,15.173 -34.159,11.972 -48.69,4.013 -2.217,-1.214 -2.502,-2.487 -1.102,-4.73 6.254,-10.02 12.341,-20.145 18.462,-30.245 0.82,-1.354 1.507,-2.366 3.488,-1.83 17.798,4.813 29.946,-4.45 40.945,-16.557 9.917,-10.916 15.036,-24.593 21.852,-37.321 2.766,-5.165 2.447,-9.152 -0.029,-14.249 -8.857,-18.237 -17.111,-36.77 -25.836,-55.072 -1.605,-3.366 -1.155,-4.774 2.161,-6.393 10.161,-4.954 20.234,-10.104 30.167,-15.5 3.23,-1.755 4.095,-0.558 5.339,2.147 15.351,33.371 30.786,66.701 46.253,100.019 0.88,1.896 1.358,4.104 3.246,5.634 0.846,-1.646 1.663,-3.093 2.353,-4.6 2.963,-6.479 8.835,-12.602 8.615,-19.282 -0.218,-6.653 -4.998,-13.179 -7.866,-19.72 -5.809,-13.241 -11.62,-26.482 -17.566,-39.662 -1.213,-2.691 -1.463,-4.256 1.771,-5.76 9.796,-4.559 19.475,-9.38 29.075,-14.336 2.803,-1.445 3.893,-0.931 5.152,1.863 24.602,54.545 49.28,109.056 74.02,163.538 1.385,3.047 1.108,3.94 -2.462,3.891 -12.16,-0.175 -24.326,-0.191 -36.483,0.02 -3.201,0.055 -4.626,-1.087 -5.873,-3.898 -9.702,-21.881 -19.564,-43.689 -29.387,-65.519 -0.684,-1.518 -1.431,-3.001 -2.661,-5.57 z"
   id="path4"
   inkscape:connector-curvature="0"
   style="fill:#58595b" />
	<path
   d="m 493.645,314.842 c 17.293,8.554 26.144,22.619 33.468,38.063 6.852,14.449 11.452,29.783 17.784,44.431 2.318,5.363 5.116,10.456 8.681,15.105 9.157,11.948 20.9,18.847 36.309,18.479 2.686,-0.063 5.136,0.141 5.852,3.283 0.692,3.045 -0.16,5.665 -2.904,7.359 -4.266,2.636 -9.09,3.069 -13.938,3.202 -28.946,0.794 -50.43,-12.09 -65.908,-35.99 -9.293,-14.351 -15.567,-30.071 -21.101,-46.14 -2.976,-8.642 -6.051,-17.238 -10.182,-25.425 -5.933,-11.758 -15.459,-17.448 -28.569,-17.258 -3.497,0.052 -6.994,0.115 -10.49,0.2 -4.287,0.105 -6.464,2.516 -6.477,6.613 -0.057,18.159 -0.422,36.332 0.193,54.471 0.385,11.333 5.883,16.215 17.173,17.72 0.985,0.132 1.985,0.254 2.938,0.526 3.428,0.98 7.875,1.113 7.468,6.281 -0.418,5.277 -4.635,5.354 -8.584,5.321 -6.495,-0.055 -13.006,0.062 -19.479,-0.364 -13.166,-0.867 -26.289,-0.031 -39.422,0.527 -3.339,0.143 -6.657,0.216 -9.964,-0.293 -2.342,-0.359 -4.073,-1.493 -4.47,-4 -0.4,-2.525 0.315,-4.628 2.654,-5.943 0.867,-0.488 1.777,-0.905 2.69,-1.304 8.418,-3.676 12.418,-10.361 12.533,-19.288 0.211,-16.491 0.181,-32.985 0.195,-49.479 0.026,-26.492 0.013,-52.982 0.002,-79.474 -0.002,-3.995 -0.104,-7.968 -1.081,-11.899 -1.609,-6.472 -5.175,-11.043 -11.734,-13.028 -1.583,-0.479 -3.154,-1.09 -4.613,-1.862 -1.961,-1.036 -2.762,-2.837 -2.524,-5.023 0.255,-2.349 1.843,-3.448 3.99,-3.805 1.307,-0.218 2.655,-0.373 3.971,-0.3 27.957,1.564 55.896,0.016 83.844,-0.32 11.652,-0.141 23.154,1.546 34.377,5.204 37.309,12.16 39.921,55.881 18.599,77.954 -8.237,8.524 -18.152,13.818 -31.281,16.456 z"
   id="path6"
   inkscape:connector-curvature="0"
   style="fill:#58595b" />
	<path
   d="m 1279.094,411.779 c -21.017,-1.853 -40.477,-1.035 -59.934,-0.674 -3.104,0.058 -6.323,0.129 -7.047,-3.826 -0.741,-4.051 1.958,-5.6 5.341,-6.456 6.964,-1.764 10.515,-6.427 11.585,-13.384 0.508,-3.306 0.807,-6.594 0.805,-9.932 -0.014,-43.134 -0.074,-86.269 0.043,-129.403 0.026,-9.524 -2.586,-16.979 -12.409,-20.399 -3.708,-1.291 -5.715,-4.072 -4.922,-8.156 0.825,-4.249 4.343,-4.274 7.486,-3.964 21.782,2.141 43.55,-0.147 65.321,-0.027 17.199,0.096 34.195,1.842 50.609,7.416 29.546,10.035 47.622,30.161 52.896,61.07 4.502,26.38 2.83,52.344 -10.059,76.248 -17.948,33.292 -46.801,49.769 -84.321,51.453 -5.641,0.252 -11.305,0.034 -15.394,0.034 z"
   id="path8"
   inkscape:connector-curvature="0"
   style="fill:#58595b" />
	<path
   d="m 931.708,352.89 c 0,8.497 -0.044,16.995 0.01,25.491 0.085,13.45 4.314,17.572 17.628,17.752 14.756,0.2 29.264,-1.107 43.19,-6.375 11.835,-4.477 20.656,-12.482 27.22,-23.191 1.867,-3.045 3.663,-7.26 8.077,-6.077 4.896,1.31 3.196,6.053 3.034,9.418 -0.945,19.611 -17.95,42.525 -43.369,41.393 -21.604,-0.964 -43.275,-0.471 -64.918,-1.072 -12.629,-0.354 -25.292,0.541 -37.938,0.873 -3.143,0.082 -6.229,-0.021 -6.727,-4.137 -0.473,-3.894 2.169,-5.24 5.278,-6.049 7.393,-1.921 10.935,-6.905 11.896,-14.277 0.478,-3.647 0.785,-7.274 0.785,-10.94 0,-41.986 -0.095,-83.973 0.067,-125.959 0.04,-10.381 -2.393,-18.737 -13.313,-22.474 -3.365,-1.151 -5.086,-3.943 -4.395,-7.494 0.779,-4.006 4.101,-4.305 7.428,-4.243 19.638,0.371 39.256,1.633 58.907,1.271 20.471,-0.379 40.938,-0.899 61.41,-1.244 8.709,-0.147 9.773,0.871 10.342,9.443 0.561,8.466 0.932,16.945 1.361,25.419 0.06,1.162 0.14,2.361 -0.067,3.492 -0.61,3.339 -0.341,7.608 -5.235,7.762 -4.504,0.142 -5.888,-3.525 -6.323,-7.063 -1.868,-15.178 -8.584,-22.076 -28.885,-24.556 -10.938,-1.335 -21.954,-0.75 -32.919,0.013 -9.904,0.688 -12.531,3.649 -12.543,13.47 -0.019,15.828 -0.043,31.656 0.014,47.484 0.025,7.271 1.601,8.84 8.78,8.922 6.664,0.075 13.33,-0.058 19.993,0.034 10,0.138 17.677,-3.957 23.025,-12.383 2.051,-3.23 3.964,-6.546 5.991,-9.791 1.46,-2.333 3.535,-3.684 6.315,-2.767 2.68,0.883 3.002,3.319 3.016,5.729 0.071,13.161 0.096,26.322 0.182,39.482 0.039,6.16 0.188,12.318 0.265,18.478 0.036,2.807 -0.29,5.536 -3.72,6.129 -3.189,0.553 -5.047,-1.412 -6.06,-4.092 -1.29,-3.416 -2.284,-6.941 -3.442,-10.407 -3.121,-9.329 -9.794,-14.059 -19.446,-14.36 -8.653,-0.27 -17.323,-0.233 -25.979,-0.046 -7.308,0.158 -8.895,1.989 -8.928,9.449 -0.039,9.166 -0.007,18.33 -0.007,27.493 z"
   id="path10"
   inkscape:connector-curvature="0"
   style="fill:#58595b" />
	<path
   d="m 146.127,343.789 c -8.996,0 -17.996,0.152 -26.987,-0.056 -5.75,-0.133 -9.55,2.197 -11.587,7.525 -3.552,9.293 -8.983,17.851 -10.959,27.756 -1.909,9.573 1.121,15.371 10.299,18.855 4.796,1.82 9.897,2.82 14.797,4.39 2.364,0.757 5.135,1.794 4.831,4.897 -0.333,3.398 -3.31,3.806 -6.048,3.894 -3.652,0.116 -7.325,0.267 -10.962,0.011 -16.631,-1.166 -33.252,-0.545 -49.879,0.004 -2.21,0.071 -4.981,0.668 -5.716,-2.549 -0.666,-2.914 1.026,-4.971 3.382,-6.046 9.665,-4.411 14.323,-12.738 18.504,-21.897 24.015,-52.616 48.265,-105.125 72.429,-157.673 0.902,-1.96 1.761,-3.942 2.608,-5.927 1.131,-2.651 2.315,-5.445 5.604,-5.739 3.661,-0.327 4.527,2.878 5.671,5.386 10.001,21.924 19.955,43.87 29.909,65.815 15.791,34.813 31.636,69.603 47.298,104.473 2.856,6.357 6.651,11.437 13.271,14.105 2.869,1.156 4.003,3.425 3.335,6.444 -0.676,3.059 -3.013,3.717 -5.719,3.631 -6.819,-0.218 -13.655,-0.247 -20.453,-0.756 -13.675,-1.023 -27.271,1.07 -40.917,0.749 -2.737,-0.063 -6.065,0.651 -7.003,-3.127 -0.904,-3.646 1.568,-5.699 4.43,-6.894 10.576,-4.408 12.932,-12.549 9.108,-24.515 -2.837,-8.882 -6.824,-17.313 -10.834,-25.717 -2.381,-4.989 -6.103,-7.382 -11.926,-7.14 -8.816,0.371 -17.656,0.1 -26.486,0.101 z"
   id="path12"
   inkscape:connector-curvature="0"
   style="fill:#58595b" />
	<path
   d="m 713.028,311.167 c 0.055,8.824 -0.116,17.65 0.644,26.46 0.125,1.468 -0.197,2.981 -0.361,4.467 -0.235,2.147 -0.992,3.865 -3.476,4.196 -2.409,0.322 -4.404,-0.431 -5.439,-2.609 -1.062,-2.235 -1.853,-4.621 -2.549,-7.002 -4.264,-14.574 -10.429,-19.286 -25.566,-19.272 -7.66,0.006 -15.334,-0.095 -22.975,0.34 -5.766,0.327 -7.396,2.195 -7.424,7.852 -0.081,17.494 -0.262,34.996 0.144,52.481 0.294,12.729 6.728,19.071 20.539,21.639 2.125,0.395 4.265,0.718 6.398,1.064 3.337,0.542 6.445,1.483 6.005,5.767 -0.44,4.294 -3.857,4.525 -7.105,4.52 -6.661,-0.016 -13.348,0.136 -19.98,-0.351 -17.657,-1.293 -35.275,-0.1 -52.907,0.375 -1.332,0.035 -2.667,0.005 -3.999,-0.039 -1.852,-0.061 -3.259,-0.958 -3.81,-2.698 -0.573,-1.81 -0.404,-3.608 1.056,-5.101 1.321,-1.349 2.93,-2.231 4.677,-2.781 9.854,-3.097 13.069,-10.393 13.041,-19.996 -0.073,-23.829 -0.024,-47.659 -0.024,-71.488 0,-20.331 -0.141,-40.662 0.062,-60.989 0.097,-9.595 -2.692,-16.912 -12.509,-20.316 -3.594,-1.247 -5.895,-3.941 -5.008,-8.091 0.88,-4.121 4.3,-4.111 7.529,-4.053 19.307,0.343 38.597,1.602 57.918,1.257 20.976,-0.376 41.948,-0.896 62.926,-1.243 8.027,-0.133 9.684,1.66 9.919,9.524 0.265,8.819 0.677,17.632 0.959,26.451 0.053,1.648 -0.145,3.314 -0.336,4.958 -0.313,2.697 -1.386,4.922 -4.438,5.175 -3.063,0.254 -5.099,-1.332 -5.987,-4.213 -0.638,-2.058 -1.194,-4.168 -1.51,-6.296 -1.56,-10.515 -7.965,-16.452 -17.861,-19.146 -10.917,-2.972 -22.079,-2.9 -33.23,-2.39 -4.797,0.22 -9.629,0.031 -14.405,1.162 -5.104,1.209 -7.975,4.118 -7.997,9.328 -0.082,18.161 -0.027,36.323 -0.024,54.484 0,4.183 1.965,6.5 6.25,6.821 8.486,0.635 16.979,0.628 25.457,0.097 9.206,-0.576 15.877,-5.376 20.602,-13.109 1.819,-2.981 3.563,-6.011 5.434,-8.962 1.307,-2.063 3.043,-3.724 5.727,-3.075 2.972,0.718 3.632,3.148 3.637,5.82 0.007,9.66 -0.004,19.321 -0.004,28.982 z"
   id="path14"
   inkscape:connector-curvature="0"
   style="fill:#58595b" />
	<path
   d="m 1123.3,410.882 c -19.298,-1.707 -38.577,-0.153 -57.864,0.196 -2.748,0.05 -6.052,0.708 -6.809,-3.254 -0.696,-3.646 1.643,-5.789 4.643,-6.717 12.351,-3.814 15.592,-12.803 15.521,-24.688 -0.247,-42.634 -0.097,-85.272 -0.098,-127.909 0,-13.029 -3.055,-17.495 -15.077,-22.081 -1.242,-0.474 -2.478,-0.967 -3.697,-1.493 -2.46,-1.06 -3.462,-2.97 -3.195,-5.598 0.288,-2.833 2.426,-3.284 4.644,-3.556 6.156,-0.759 12.329,-0.218 18.433,0.367 13.998,1.343 27.931,0.187 41.884,-0.471 4.656,-0.22 9.313,-0.399 13.956,0.237 2.466,0.339 3.91,1.666 4.146,4.204 0.222,2.369 -1.04,3.911 -3.075,4.581 -2.834,0.932 -5.777,1.534 -8.685,2.245 -7.286,1.78 -11.53,6.29 -12.349,13.818 -0.231,2.144 -0.375,4.31 -0.376,6.467 -0.021,43.136 -0.017,86.272 -0.017,129.408 0,0.833 -0.02,1.667 0,2.499 0.373,12.944 4.446,16.953 17.343,16.957 5.321,0.002 10.623,-0.082 15.936,-0.82 13.293,-1.85 23.703,-8.145 31.303,-19.223 2.913,-4.249 5.951,-8.436 9.247,-12.389 1.587,-1.905 3.951,-3.208 6.699,-2.273 2.053,0.699 2.587,2.657 2.67,4.456 0.946,20.49 -10.871,43.346 -36.234,45.073 -10.105,0.688 -20.305,0.01 -30.462,-0.04 -2.832,-0.014 -5.662,-0.002 -8.492,0.004 z"
   id="path16"
   inkscape:connector-curvature="0"
   style="fill:#58595b" />
	<path
   d="m 773.918,215.843 c 18.804,2.543 37.586,-0.096 56.378,-0.295 2.156,-0.022 4.332,0.11 6.474,0.378 2.398,0.301 3.944,1.604 4.104,4.219 0.158,2.588 -1.179,4.124 -3.491,4.787 -2.716,0.779 -5.509,1.281 -8.236,2.018 -7.864,2.125 -11.433,6.199 -12.476,14.286 -0.254,1.973 -0.334,3.98 -0.335,5.971 -0.018,42.824 -0.023,85.647 0.009,128.471 0.003,2.822 0.183,5.664 0.534,8.463 1.2,9.534 5.524,14.21 14.878,16.258 1.462,0.32 2.978,0.419 4.42,0.798 2.7,0.708 5.147,1.73 4.835,5.268 -0.304,3.438 -2.725,4.364 -5.57,4.512 -7.83,0.401 -15.648,-0.043 -23.457,-0.603 -15.166,-1.084 -30.281,0.759 -45.428,0.703 -2.707,-0.011 -6.039,0.813 -6.776,-3.241 -0.671,-3.675 1.601,-5.771 4.643,-6.716 12.31,-3.822 15.647,-12.749 15.573,-24.683 -0.266,-42.655 -0.103,-85.313 -0.104,-127.97 0,-12.861 -3.276,-17.59 -15.204,-22.059 -1.552,-0.581 -3.097,-1.217 -4.555,-1.995 -2.248,-1.198 -2.715,-3.299 -2.27,-5.579 0.42,-2.15 2.173,-2.907 4.098,-2.958 3.981,-0.108 7.97,-0.033 11.956,-0.033 z"
   id="path18"
   inkscape:connector-curvature="0"
   style="fill:#58595b" />
	<path
   d="m 291.953,314.508 c 0,-22.156 0.008,-44.311 -0.003,-66.466 -0.006,-12.472 -3.289,-17.145 -15.082,-21.572 -0.933,-0.35 -1.859,-0.717 -2.781,-1.094 -2.685,-1.099 -4.655,-2.808 -4.187,-5.997 0.474,-3.225 3.152,-3.689 5.681,-3.696 5.654,-0.018 11.342,-0.12 16.955,0.433 14.165,1.396 28.267,0.203 42.394,-0.423 4.479,-0.198 8.98,-0.016 13.464,0.183 2.552,0.113 4.445,1.26 4.647,4.204 0.198,2.884 -1.426,4.274 -3.915,4.953 -1.762,0.481 -3.56,0.828 -5.338,1.248 -11.252,2.659 -15.302,7.663 -15.388,19.272 -0.075,10.161 -0.017,20.323 -0.017,30.483 0,33.15 -0.01,66.3 0.021,99.449 0.002,2.657 0.157,5.327 0.459,7.966 1.177,10.336 5.553,15.07 15.719,17.14 1.464,0.299 2.974,0.408 4.412,0.793 2.43,0.65 4.215,1.891 4.102,4.829 -0.122,3.154 -2.076,4.526 -4.806,4.675 -4.149,0.226 -8.342,0.362 -12.478,0.033 -17.137,-1.361 -34.253,-0.622 -51.376,0.157 -2.963,0.135 -6.402,0.604 -7.111,-3.56 -0.617,-3.625 1.741,-5.438 4.802,-6.58 8.455,-3.155 9.594,-10.453 9.739,-17.968 0.237,-12.322 0.082,-24.652 0.086,-36.979 0.004,-10.494 10e-4,-20.989 10e-4,-31.483 z"
   id="path20"
   inkscape:connector-curvature="0"
   style="fill:#58595b" />
	<path
   d="m 510.43,620.834 c -2.548,1.975 -4.975,3.975 -7.521,5.807 -10.1,7.268 -21.106,11.461 -33.134,5.884 -12.602,-5.846 -18.385,-17.089 -19.732,-30.386 -2.148,-21.178 5.41,-34.016 24.572,-43.358 7.183,-3.502 14.721,-6.106 22.157,-8.974 3.41,-1.313 6.862,-2.604 9.73,-4.974 2.157,-1.781 3.727,-4.039 3.053,-6.927 -0.665,-2.854 -2.955,-4.293 -5.71,-4.983 -6.222,-1.561 -12.235,-0.521 -18.107,1.607 -9.52,3.451 -17.462,9.455 -26,16.783 1.792,-10.779 3.192,-20.466 9.444,-28.601 1.329,-1.729 3.269,-2.824 5.286,-3.66 13.356,-5.537 27.257,-7.563 41.533,-5.412 16.865,2.542 26.412,13.03 26.808,30.115 0.502,21.64 0.348,43.296 0.203,64.944 -0.056,8.428 0.162,16.631 6.292,24.582 -11.062,0 -21.09,0.094 -31.114,-0.066 -2.483,-0.041 -3.381,-2.537 -4.336,-4.412 -1.273,-2.493 -2.231,-5.147 -3.424,-7.969 z"
   id="path22"
   inkscape:connector-curvature="0"
   style="fill:#58595b" />
	<path
   d="m 884.703,576.225 c 0,4.493 0.252,9.007 -0.054,13.479 -0.599,8.752 -3.943,16.438 -9.958,22.862 -9.646,10.299 -19.972,19.598 -34.324,22.861 -2.813,0.641 -5.65,0.727 -8.437,0.319 -18.282,-2.671 -37.626,-20.269 -40.278,-38.35 -2.514,-17.122 -2.17,-34.475 0.678,-51.657 1.23,-7.432 6.029,-12.452 11.63,-16.824 9.294,-7.258 19.927,-11.937 31.076,-15.459 5.425,-1.714 10.805,-1.232 15.973,1.402 10.728,5.465 19.622,13.028 26.706,22.764 5.693,7.822 6.269,17.01 6.968,26.121 0.318,4.138 0.055,8.317 0.055,12.479 -0.012,0.003 -0.024,0.003 -0.035,0.003 z"
   id="path24"
   inkscape:connector-curvature="0"
   style="fill:#58595b" />
	<path
   d="m 1028.936,513.491 c -1.298,3.483 -2.426,6.373 -3.443,9.3 -1.04,2.988 -3.535,1.9 -5.499,1.934 -7.294,0.124 -7.295,0.063 -7.296,7.439 0,23.325 0.033,46.65 -0.016,69.977 -0.021,10.633 -0.564,21.333 6.81,31.181 -10.892,0 -20.836,0.002 -30.781,0 -2.104,-0.002 -3.304,-1.508 -4.434,-2.91 -4.257,-5.281 -5.882,-11.414 -5.87,-18.137 0.049,-27.323 -0.11,-54.649 0.144,-81.972 0.044,-4.781 -1.454,-5.995 -5.869,-5.612 -4.11,0.354 -8.277,0.074 -12.646,0.074 0.287,-3.541 2.033,-6.26 2.881,-9.243 0.707,-2.492 2.732,-1.979 4.501,-2.023 11.011,-0.273 11.011,-0.269 11.011,-11.345 0,-13.496 0,-13.495 12.568,-18.127 5.613,-2.069 11.363,-3.844 16.802,-6.304 4.591,-2.075 5.101,-0.479 4.981,3.709 -0.261,9.156 0.127,18.332 -0.18,27.484 -0.13,3.896 1.169,4.932 4.809,4.639 3.612,-0.292 7.271,-0.064 11.527,-0.064 z"
   id="path26"
   inkscape:connector-curvature="0"
   style="fill:#58595b" />
	<path
   d="m 947.586,633.346 c -10.857,0 -20.51,-0.049 -30.16,0.031 -2.535,0.021 -3.987,-1.49 -5.328,-3.188 -4.203,-5.327 -5.707,-11.48 -5.69,-18.197 0.066,-27.323 -0.054,-54.648 0.118,-81.972 0.024,-4 -0.749,-5.918 -5.118,-5.313 -2.288,0.317 -4.72,0.387 -6.972,-0.04 -2.1,-0.397 -5.6,1.943 -6.129,-1.5 -0.68,-4.423 3.897,-9.617 7.488,-9.678 10.641,-0.182 10.557,-0.182 10.678,-10.71 0.055,-4.629 -1.898,-10.36 0.822,-13.589 2.629,-3.12 8.217,-3.78 12.539,-5.434 5.432,-2.076 10.98,-3.875 16.323,-6.154 3.614,-1.542 4.245,-0.309 4.196,3.058 -0.136,9.328 0.174,18.667 -0.148,27.985 -0.143,4.136 1.313,5.208 5.121,4.904 3.606,-0.287 7.257,-0.062 11.493,-0.062 -0.997,2.788 -1.979,4.89 -2.488,7.102 -0.769,3.321 -2.5,4.382 -5.97,4.271 -8.047,-0.258 -8.056,-0.048 -8.056,8.115 0,23.824 -0.106,47.65 0.054,71.476 0.067,9.789 0.252,19.674 7.227,28.895 z"
   id="path28"
   inkscape:connector-curvature="0"
   style="fill:#58595b" />
	<path
   d="m 692.068,633.33 c -10.771,0 -20.561,-0.004 -30.349,0.002 -2.094,0 -3.285,-1.404 -4.458,-2.828 -4.56,-5.538 -6.181,-12.053 -6.187,-19.056 -0.021,-26.654 -0.024,-53.311 0.006,-79.964 0.006,-4.854 0.115,-9.688 -2.624,-14.012 -1.085,-1.711 -0.475,-2.384 1.412,-2.38 9.495,0.019 18.991,-0.013 28.486,0.031 2.857,0.013 3.264,2.646 4.043,4.473 1.22,2.858 2.231,2.738 4.599,0.98 10.649,-7.909 23.237,-8.125 32.351,-1.133 2.87,2.204 3.226,3.973 1.071,6.958 -3.599,4.986 -6.846,10.232 -10.089,15.465 -1.266,2.041 -2.217,2.579 -4.55,1.155 -5.558,-3.392 -11.457,-4.245 -17.563,-1.111 -2.273,1.168 -3.411,2.564 -3.393,5.387 0.133,21.323 -0.023,42.647 0.125,63.971 0.056,7.698 1.431,15.181 7.12,22.062 z"
   id="path30"
   inkscape:connector-curvature="0"
   style="fill:#58595b" />
	<path
   d="m 564.028,515.094 c 11.062,0 20.72,0.06 30.376,-0.046 2.129,-0.021 3.637,0.607 4.259,2.588 1.665,5.303 3.96,4.116 7.638,1.539 9.007,-6.311 18.654,-6.507 28.199,-1.039 5.648,3.236 5.725,4.153 2.277,9.478 -2.985,4.607 -6.091,9.146 -8.9,13.856 -1.477,2.475 -2.604,3.014 -5.313,1.339 -5.396,-3.332 -11.199,-3.868 -17.121,-0.938 -2.319,1.146 -3.451,2.572 -3.437,5.367 0.113,21.487 -0.093,42.979 0.147,64.465 0.084,7.487 1.555,14.845 7.205,21.631 -10.803,0 -20.571,0.018 -30.342,-0.016 -2.027,-0.009 -3.246,-1.424 -4.449,-2.853 -4.653,-5.521 -6.111,-12.028 -6.104,-19.053 0.027,-25.154 0.023,-50.308 0.002,-75.461 -0.002,-6.929 0.813,-14.007 -4.437,-20.857 z"
   id="path32"
   inkscape:connector-curvature="0"
   style="fill:#58595b" />
	<path
   d="m 730.351,515.094 c 10.796,0 20.432,0.117 30.061,-0.066 3.063,-0.06 4.035,1.827 4.996,3.96 2.669,5.916 2.887,12.256 2.899,18.579 0.056,22.639 -0.008,45.276 0.037,67.916 0.019,9.508 0.514,18.94 7.061,27.816 -10.762,0 -20.648,0.025 -30.534,-0.022 -1.864,-0.009 -2.92,-1.559 -3.947,-2.801 -4.192,-5.064 -6.052,-10.948 -6.041,-17.523 0.041,-26.467 -0.009,-52.936 0.036,-79.402 0.009,-6.186 0.107,-12.339 -4.568,-18.457 z"
   id="path34"
   inkscape:connector-curvature="0"
   style="fill:#58595b" />
	<path
   d="m 436.094,269.564 c 0.001,-8.831 -0.123,-17.665 0.033,-26.493 0.188,-10.711 2.258,-12.984 12.826,-14.472 9.517,-1.34 18.966,-0.742 28.205,1.835 16.563,4.62 25.228,17.941 24.094,36.656 -1.355,22.362 -16.17,37.057 -39.247,38.817 -5.81,0.443 -11.656,0.615 -17.448,-0.131 -7.064,-0.909 -8.406,-2.534 -8.449,-9.721 -0.055,-8.828 -0.014,-17.659 -0.014,-26.491 z"
   id="path36"
   inkscape:connector-curvature="0"
   style="fill:#fefefe" />
	<path
   d="m 1265.828,311.507 c 0,-22.315 0,-44.63 0,-66.945 0,-10.497 3.495,-13.97 14.071,-14.04 36.481,-0.24 61.909,20.457 70.481,58.646 5.424,24.161 4.484,48.348 -5.062,71.556 -11.861,28.83 -38.062,38.893 -64.725,35.056 -10.439,-1.502 -14.77,-7.127 -14.771,-17.828 0,-22.148 0,-44.297 0,-66.445 z"
   id="path38"
   inkscape:connector-curvature="0"
   style="fill:#fefefe" />
	<path
   d="m 145.856,327.789 c -6.824,-0.002 -13.65,0.103 -20.472,-0.033 -5.787,-0.115 -6.88,-1.81 -4.631,-7.093 7.481,-17.569 15.017,-35.114 22.608,-52.635 0.611,-1.411 0.924,-3.727 2.942,-3.529 1.51,0.148 1.764,2.256 2.345,3.579 7.47,17.031 14.948,34.06 22.283,51.148 3.02,7.037 1.952,8.518 -5.6,8.559 -6.491,0.034 -12.982,0.006 -19.475,0.004 z"
   id="path40"
   inkscape:connector-curvature="0"
   style="fill:#fefefe" />
	<path
   d="m 509.037,583.619 c 0,4.649 0.26,9.319 -0.055,13.949 -0.627,9.222 -9.313,16.265 -18.57,15.319 -4.73,-0.482 -7.294,-3.554 -8.902,-7.671 -5.151,-13.188 1.737,-32.8 14.032,-39.783 1.566,-0.89 3.312,-1.575 5.062,-2.009 4.943,-1.223 7.867,0.666 8.245,5.757 0.354,4.788 0.076,9.622 0.076,14.438 0.037,0 0.075,0 0.112,0 z"
   id="path42"
   inkscape:connector-curvature="0"
   style="fill:#fefefe" />
	<path
   d="m 852.841,575.36 c -0.439,9.432 -0.635,18.256 -3.002,26.835 -1.161,4.205 -2.772,8.213 -5.852,11.425 -4.259,4.441 -8.813,4.365 -12.866,-0.277 -3.388,-3.881 -5.187,-8.627 -5.785,-13.598 -2.221,-18.407 -2.576,-36.831 0.591,-55.192 0.514,-2.971 1.64,-5.774 3.251,-8.319 4.771,-7.533 12.506,-7.431 17.068,0.254 3.75,6.317 4.685,13.472 5.46,20.565 0.686,6.275 0.803,12.613 1.135,18.307 z"
   id="path44"
   inkscape:connector-curvature="0"
   style="fill:#fefefe" />
</g>
</svg>