<?xml version="1.0" encoding="UTF-8" standalone="no"?>
<!-- Generator: Adobe Illustrator 16.0.0, SVG Export Plug-In . SVG Version: 6.00 Build 0)  -->

<svg
   xmlns:dc="http://purl.org/dc/elements/1.1/"
   xmlns:cc="http://creativecommons.org/ns#"
   xmlns:rdf="http://www.w3.org/1999/02/22-rdf-syntax-ns#"
   xmlns:svg="http://www.w3.org/2000/svg"
   xmlns="http://www.w3.org/2000/svg"
   xmlns:sodipodi="http://sodipodi.sourceforge.net/DTD/sodipodi-0.dtd"
   xmlns:inkscape="http://www.inkscape.org/namespaces/inkscape"
   version="1.1"
   id="Layer_1"
   x="0px"
   y="0px"
   width="1006.2693"
   height="274.16455"
   viewBox="0 0 1006.2693 274.16455"
   xml:space="preserve"
   sodipodi:docname="MDI.svg"
   inkscape:version="0.92.3 (2405546, 2018-03-11)"><metadata
   id="metadata97"><rdf:RDF><cc:Work
       rdf:about=""><dc:format>image/svg+xml</dc:format><dc:type
         rdf:resource="http://purl.org/dc/dcmitype/StillImage" /><dc:title></dc:title></cc:Work></rdf:RDF></metadata><defs
   id="defs95" /><sodipodi:namedview
   pagecolor="#ffffff"
   bordercolor="#666666"
   borderopacity="1"
   objecttolerance="10"
   gridtolerance="10"
   guidetolerance="10"
   inkscape:pageopacity="0"
   inkscape:pageshadow="2"
   inkscape:window-width="640"
   inkscape:window-height="480"
   id="namedview93"
   showgrid="false"
   fit-margin-top="0"
   fit-margin-left="0"
   fit-margin-right="0"
   fit-margin-bottom="0"
   inkscape:zoom="0.221875"
   inkscape:cx="542.927"
   inkscape:cy="-23.979967"
   inkscape:window-x="0"
   inkscape:window-y="0"
   inkscape:window-maximized="0"
   inkscape:current-layer="Layer_1" />
<g
   id="g90"
   transform="translate(-97.073,-101.85547)">
	<path
   d="m 303.896,315.77 c 0.705,0.62 2.146,1.254 -0.026,1.83 -1.647,0.435 -3.298,0.858 -4.947,1.287 -0.968,1.249 -2.409,1.583 -3.826,1.828 -3.916,0.678 -7.618,2.646 -11.758,1.975 -4.976,0.854 -9.963,1.643 -14.921,2.591 -2.559,0.489 -5.135,0.446 -8.36,0.653 5.211,8.243 10.24,16.198 15.681,24.803 -3.539,-1.264 -6.461,-2.297 -9.376,-3.353 -2.329,-0.843 -4.647,-1.713 -6.969,-2.573 -4.427,-1.64 -4.34,-1.623 -5.32,3.16 -0.791,3.862 -0.264,7.51 2.05,11.824 -14.035,-6.405 -27.097,-12.366 -40.49,-18.479 0,6.033 -0.068,11.611 0.038,17.186 0.036,1.903 -0.32,2.745 -2.498,2.678 -5.375,-0.162 -10.762,-0.148 -16.138,-0.004 -2.031,0.055 -2.393,-0.702 -2.351,-2.509 0.11,-4.86 -0.116,-9.732 0.099,-14.585 0.116,-2.631 -0.688,-2.765 -2.925,-2.147 -17.509,4.833 -35.063,9.5 -52.561,14.369 -2.557,0.712 -3.195,0.286 -2.5,-2.208 0.109,-0.392 0.091,-0.822 0.115,-1.235 0.136,-2.422 1.145,-4.778 0.561,-7.256 -2.359,0.692 -4.728,1.354 -7.075,2.083 -5.722,1.778 -11.445,3.575 -17.455,4.068 -1.48,0.121 -3.097,0.405 -4.759,-0.809 9.412,-4.815 18.788,-9.221 28.265,-15.363 -13.671,0 -26.414,0 -39.156,0 -0.074,-0.259 -0.147,-0.518 -0.221,-0.776 10.17,-3.985 20.341,-7.969 30.512,-11.954 -0.087,-0.278 -0.174,-0.555 -0.262,-0.833 -6.559,-0.592 -12.959,0.978 -20.082,1.898 2.99,-3.303 5.583,-6.169 8.494,-9.386 -5.703,-0.743 -11.077,0.146 -17.244,-0.198 7.77,-6.651 14.979,-12.822 22.62,-19.363 -2.819,-0.434 -4.999,-0.768 -7.702,-1.184 4.138,-3.635 7.974,-7.004 12.247,-10.757 -4.958,-0.704 -9.474,-1.345 -14.581,-2.07 15.225,-14.4 30.266,-28.327 45.317,-43.604 -14.62,0.682 -28.437,1.326 -43.04,2.007 15.26,-10.26 29.901,-20.104 45.124,-30.339 -5.06,0 -9.304,0 -13.874,0 7.684,-7.459 14.365,-15.395 21.083,-23.476 -8.993,2.707 -18.024,5.067 -27.894,7.073 11.735,-11.293 22.452,-22.456 34.145,-32.593 1.841,-1.596 0.869,-2.135 -0.724,-2.55 -3.6,-0.939 -7.314,-1.044 -11.54,-1.41 10.37,-10.133 20.446,-19.981 30.761,-30.062 -3.007,-1.305 -5.773,-2.505 -8.952,-3.884 5.951,-4.728 11.586,-9.207 17.224,-13.681 2.349,-1.864 4.787,-3.626 7.032,-5.607 1.667,-1.471 2.442,-1.322 3.557,0.697 6.515,11.794 15.354,21.497 26.737,28.772 3.016,1.928 6.236,3.536 9.671,5.463 -4.567,2.241 -9.006,4.061 -13.806,4.581 -1.979,0.215 -2.243,1.078 -1.916,2.553 0.445,2.007 0.9,4.035 1.612,5.958 4.1,11.071 8.952,21.734 17.513,30.778 -2.974,-0.364 -5.566,-0.682 -8.711,-1.067 2.698,5.118 5.214,9.891 7.731,14.665 1.746,0.968 2.459,2.758 3.451,4.327 1.124,2.634 2.823,4.922 4.39,7.29 1.238,1.996 2.677,3.832 4.178,5.639 0.836,1.005 1.625,2.345 -0.664,2.767 -0.285,-0.067 -0.562,-0.163 -0.833,-0.273 -2.333,-0.758 -4.736,-1.317 -6.967,-2.38 -2.259,-1.266 -4.847,-1.707 -7.214,-2.938 1.216,1.754 2.522,3.269 4.285,4.326 0.675,0.51 1.426,0.895 2.168,1.296 1.4,0.836 2.406,2.092 3.487,3.27 8.641,7.72 15.917,16.78 24.309,24.745 0.73,0.692 1.565,1.521 1.076,2.686 -0.371,0.883 -1.316,0.919 -2.137,0.972 -7.305,0.47 -14.596,1.104 -21.881,1.808 -0.394,0.038 -0.817,0.002 -1.183,-0.173 6.553,2.648 12.028,6.791 16.583,12.16 1.67,1.968 3.134,4.107 4.469,6.322 2.111,3.503 1.743,4.376 -2.154,5.241 -2.018,0.447 -4.082,0.66 -6.094,1.116 -2.271,0.515 -2.447,1.075 -0.945,2.827 4.572,5.329 9.411,10.418 14.269,15.478 6.796,7.077 13.846,13.911 20.78,20.855 0.944,0.943 2.001,1.811 2.398,3.174 z"
   id="path2"
   inkscape:connector-curvature="0"
   style="fill:#4e4e4e" />
	<path
   d="m 251.181,199.689 c -1.437,-1.199 -2.04,-2.969 -3.055,-4.457 3.723,-2.724 5.948,-6.793 9.034,-10.096 3.031,-3.243 5.859,-6.676 8.763,-10.037 0.451,-0.521 1.378,-0.928 1.061,-1.73 -0.331,-0.835 -1.324,-0.927 -2.126,-0.943 -2.544,-0.052 -5.09,-0.02 -8.332,-0.02 4.395,-5.336 8.371,-10.164 12.347,-14.992 2.692,-3.27 5.374,-6.548 8.082,-9.804 0.863,-1.038 1.072,-1.677 -0.611,-2.042 -1.69,-0.366 -3.318,-1.02 -4.604,-1.43 5.949,-6.308 11.913,-12.633 18.051,-19.142 8.338,12.162 18.959,20.818 33.101,25.721 -3.538,2.233 -6.684,4.016 -10.198,4.728 -2.225,0.451 -2.142,1.366 -1.532,2.973 2.732,7.216 6.735,13.701 11.366,19.826 1.776,2.352 3.728,4.553 6.413,6.621 -2.388,0.777 -4.34,-0.64 -6.457,0.388 5.375,8.368 10.771,16.507 17.422,23.745 0.054,1.174 -0.595,0.95 -1.282,0.643 -3.761,-0.87 -7.523,-1.739 -11.284,-2.609 -0.145,0.256 -0.29,0.512 -0.434,0.769 11.25,7.301 21.022,16.4 32.049,25.185 -7.464,1.46 -14.231,2.785 -21.654,4.238 2.083,0.794 3.615,1.313 5.095,1.954 5.929,2.571 10.645,6.639 14.56,11.736 1.315,1.714 0.979,2.421 -1.069,2.833 -1.813,0.366 -3.558,1.071 -5.363,1.492 -2.118,0.496 -2.267,1.446 -0.882,2.938 5.909,6.361 11.858,12.682 18.273,18.546 3.726,3.406 7.419,6.848 12.104,10.096 -9.919,4.544 -19.47,8.675 -29.873,11.205 4.337,5.555 8.579,10.99 12.821,16.426 0.034,1.17 -0.606,1.095 -1.392,0.755 -3.8,-0.9 -7.632,-1.685 -11.386,-2.746 -1.941,-0.549 -2.647,-0.361 -3.014,1.859 -0.586,3.558 0.108,6.699 2.372,10.425 -4.464,-0.924 -8.293,-1.692 -12.113,-2.511 -10.558,-2.265 -21.11,-4.55 -31.667,-6.827 -0.674,-0.146 -1.404,-0.573 -1.867,0.365 -9.466,-8.617 -18.337,-17.83 -27.154,-27.096 -3.698,-3.886 -7.269,-7.892 -10.896,-11.845 -0.828,-0.902 -1.996,-1.738 -1.534,-3.151 0.425,-1.299 1.796,-0.703 2.715,-0.915 3.089,-0.713 6.219,-1.25 9.711,-1.927 -5.245,-10.611 -13.185,-17.911 -24.639,-22.57 9.688,-0.816 18.511,-1.56 28.137,-2.371 -9.163,-9.315 -17.865,-18.163 -26.568,-27.011 1.539,-1.789 3.248,-3.359 5.479,-4.257 2.678,0.492 1.069,-0.911 0.581,-1.488 -1.595,-1.886 -3.185,-3.76 -4.261,-6.009 -0.272,-1.795 1.172,-2.783 2.011,-3.987 1.667,-2.393 3.176,-4.936 5.081,-6.989 -2.503,0.907 -4.981,2.685 -7.866,3.439 -1.158,0.302 -2.319,1.081 -3.516,0.096 z"
   id="path4"
   inkscape:connector-curvature="0"
   style="fill:#9b9b9b" />
	<path
   d="m 450.467,167.352 c -9.759,23.216 -19.52,46.432 -29.667,70.569 -10.579,-23.498 -20.741,-46.07 -30.952,-68.752 -0.914,0.735 -0.693,1.391 -0.69,1.955 0.081,17.893 0.178,35.786 0.276,53.679 0.004,0.62 0.031,1.242 0.091,1.859 0.627,6.565 0.911,6.822 7.483,6.828 0.621,0 1.246,0.049 1.861,-0.007 1.356,-0.125 1.77,0.466 1.774,1.797 0.007,1.341 -0.408,1.787 -1.766,1.776 -6.724,-0.056 -13.449,-0.05 -20.173,-0.004 -1.288,0.008 -1.813,-0.325 -1.838,-1.725 -0.029,-1.621 0.74,-1.803 2.081,-1.864 5.803,-0.265 5.801,-0.303 5.801,-6.153 0,-19.346 0.002,-38.692 -0.004,-58.039 0,-1.031 -0.01,-2.069 -0.108,-3.094 -0.582,-6.04 -2.165,-7.417 -8.246,-7.518 -1.253,-0.021 -3.344,1.021 -3.147,-1.872 0.092,-1.365 0.538,-1.751 1.842,-1.738 5.069,0.055 10.141,0.115 15.207,-0.023 2.04,-0.056 2.297,1.366 2.878,2.633 9.331,20.349 18.654,40.702 27.986,61.05 0.504,1.098 1.072,2.166 1.902,3.831 3.021,-7.338 5.823,-14.135 8.617,-20.936 5.999,-14.601 12.036,-29.186 17.939,-43.825 0.817,-2.029 1.764,-2.886 4.028,-2.766 3.921,0.207 7.859,0.095 11.791,0.038 1.412,-0.02 2.308,0.078 2.291,1.93 -0.014,1.724 -0.856,1.701 -2.112,1.738 -6.021,0.179 -6.028,0.206 -6.02,6.199 0.03,19.552 0.042,39.104 0.132,58.655 0.012,2.258 0.411,4.522 0.746,6.768 0.319,2.136 1.55,3.268 3.83,3.161 1.652,-0.078 3.313,0.041 4.964,-0.027 1.313,-0.053 1.849,0.423 1.865,1.781 0.016,1.347 -0.461,1.802 -1.802,1.795 -8.173,-0.042 -16.345,-0.034 -24.52,-0.007 -1.132,0.004 -1.741,-0.291 -1.71,-1.558 0.028,-1.146 0.113,-1.963 1.619,-2.03 2.012,-0.09 4.613,0.951 5.877,-0.824 1.206,-1.691 0.379,-4.217 0.383,-6.37 0.034,-18.518 0.021,-37.037 0.021,-55.556 0,-1.085 0,-2.169 0,-3.254 -0.177,-0.034 -0.352,-0.067 -0.53,-0.1 z"
   id="path6"
   inkscape:connector-curvature="0"
   style="fill:#4e4e4e" />
	<path
   d="m 740.664,297.44 c 6.725,0 13.45,-0.062 20.174,0.038 2.021,0.03 2.96,-0.337 2.893,-2.674 -0.23,-7.852 0.234,-15.718 -0.488,-23.563 -0.423,-4.582 -0.986,-5.128 -5.442,-5.131 -1.138,0 -2.276,-0.04 -3.413,0.01 -1.167,0.052 -1.977,-0.061 -1.92,-1.607 0.05,-1.347 0.262,-2.071 1.869,-2.058 8.069,0.065 16.141,0.056 24.21,0.006 1.449,-0.009 1.686,0.688 1.736,1.898 0.059,1.362 -0.467,1.702 -1.789,1.787 -6.308,0.406 -6.305,0.452 -6.305,6.797 0,17.692 -0.027,35.383 0.021,53.075 0.011,3.71 0.082,7.426 0.724,11.116 0.441,2.544 1.527,3.919 4.309,3.609 1.43,-0.16 2.901,0.069 4.34,-0.053 1.643,-0.139 2.103,0.483 2.122,2.098 0.023,1.813 -1.02,1.663 -2.19,1.662 -7.863,-0.011 -15.728,-0.025 -23.591,0.014 -1.396,0.006 -2.287,-0.051 -2.274,-1.911 0.012,-1.927 1.041,-1.853 2.365,-1.848 6.315,0.023 5.648,0.733 5.661,-5.93 0.021,-9.932 -0.095,-19.865 0.071,-29.794 0.045,-2.685 -0.843,-3.221 -3.33,-3.199 -13.242,0.116 -26.486,0.101 -39.728,0.009 -2.178,-0.015 -3.104,0.335 -3.008,2.824 0.405,10.533 -0.61,21.103 0.659,31.614 0.522,4.314 0.899,4.485 5.341,4.487 1.139,0 2.28,0.063 3.413,-0.015 1.388,-0.095 2.06,0.282 2.064,1.86 0.007,1.522 -0.532,1.919 -1.979,1.909 -7.966,-0.054 -15.933,-0.035 -23.898,-0.015 -1.244,0.003 -2.151,-0.023 -2.164,-1.75 -0.014,-1.77 0.775,-1.978 2.253,-2.019 5.774,-0.164 5.781,-0.209 5.771,-6.071 -0.029,-19.76 -0.066,-39.519 -0.101,-59.279 -10e-4,-0.104 0,-0.207 -10e-4,-0.31 -0.089,-8.468 -0.373,-8.779 -8.754,-8.894 -1.449,-0.019 -2.684,0.093 -2.457,-2.011 0.122,-1.142 0.408,-1.655 1.638,-1.649 8.277,0.036 16.555,0.039 24.831,0.003 1.604,-0.007 1.461,1 1.526,2.065 0.076,1.249 -0.495,1.538 -1.64,1.603 -2.027,0.115 -4.647,-0.966 -5.937,0.601 -1.396,1.696 -0.465,4.376 -0.486,6.62 -0.069,7.138 0.063,14.279 -0.077,21.415 -0.045,2.234 0.694,2.75 2.806,2.711 6.724,-0.129 13.449,-0.05 20.175,-0.05 z"
   id="path8"
   inkscape:connector-curvature="0"
   style="fill:#4e4e4e" />
	<path
   d="m 756.396,155.07 c 7.52,0.388 16.543,-0.804 25.464,1.008 16.104,3.272 27.434,15.085 29.605,31.718 1.901,14.549 -1.399,27.784 -12.074,38.445 -7.567,7.559 -17.12,10.578 -27.588,10.748 -10.96,0.178 -21.926,0.044 -32.889,0.034 -1.162,-0.001 -2.473,0.429 -2.472,-1.683 0.002,-1.934 1.03,-1.836 2.354,-1.868 5.678,-0.138 5.677,-0.16 5.677,-5.694 0,-18.927 0.021,-37.854 -0.021,-56.782 -0.007,-2.783 -0.296,-5.568 -0.503,-8.349 -0.199,-2.686 -1.471,-4.211 -4.385,-3.968 -1.131,0.095 -2.278,0.076 -3.411,0 -1.259,-0.085 -2.992,0.735 -2.903,-1.851 0.088,-2.577 1.863,-1.715 3.08,-1.728 6.206,-0.068 12.412,-0.03 20.066,-0.03 z"
   id="path10"
   inkscape:connector-curvature="0"
   style="fill:#4e4e4e" />
	<path
   d="m 646.434,337.109 c -3.953,2.736 -7.266,5.208 -10.984,7.027 -11.067,5.411 -22.727,1.845 -28.139,-9.209 -5.678,-11.599 -5.522,-23.472 0.949,-34.755 6.89,-12.009 22.211,-16.295 34.955,-10.242 0.923,0.438 1.821,0.924 3.219,1.637 0,-2.689 0.005,-5.09 -10e-4,-7.49 -0.015,-6.104 0.098,-12.211 -0.087,-18.31 -0.169,-5.642 -0.841,-6.148 -6.378,-6.153 -0.828,0 -1.654,-0.017 -2.482,-0.008 -0.984,0.011 -1.542,-0.344 -1.519,-1.447 0.023,-1.002 0.041,-1.832 1.396,-1.899 5.181,-0.26 10.251,-1.234 15.271,-2.497 0.983,-0.248 1.615,0.009 1.582,1.179 -0.023,0.827 0.002,1.655 0.002,2.483 0,23.795 -0.014,47.592 0.02,71.388 0.004,2.787 0.17,5.583 0.434,8.357 0.282,2.964 1.936,4.418 5.027,4.087 1.125,-0.12 2.273,-0.006 3.412,-0.022 0.881,-0.012 1.698,0.007 1.653,1.236 -0.032,0.911 0.198,1.846 -1.239,2.01 -5.235,0.596 -10.465,1.256 -15.688,1.958 -1.538,0.208 -1.403,-0.742 -1.403,-1.69 0,-2.351 0,-4.699 0,-7.64 z"
   id="path12"
   inkscape:connector-curvature="0"
   style="fill:#4e4e4e" />
	<path
   d="m 910.412,296.802 c 4.224,-2.831 7.753,-5.529 11.811,-7.388 10.229,-4.685 20.788,-1.545 26.663,7.977 6.788,11.004 6.005,28.46 -1.739,38.75 -7.436,9.877 -21.181,13.221 -32.932,7.998 -1.116,-0.496 -2.196,-1.07 -3.722,-1.818 0,6.753 -0.034,13.188 0.021,19.623 0.018,2.062 0.233,4.125 0.419,6.183 0.36,4.002 1.27,4.839 5.186,4.874 1.137,0.01 2.275,0.039 3.412,-0.002 1.077,-0.039 1.437,0.474 1.45,1.491 0.014,0.975 -0.188,1.535 -1.34,1.53 -7.551,-0.03 -15.102,-0.023 -22.651,-0.005 -1.002,0.002 -1.496,-0.279 -1.501,-1.401 -0.006,-1.222 0.51,-1.522 1.656,-1.639 5.721,-0.582 5.717,-0.618 5.717,-6.443 0,-20.894 0.003,-41.786 -0.006,-62.679 0,-1.757 0.002,-3.521 -0.133,-5.271 -0.425,-5.516 -0.832,-5.871 -6.261,-5.873 -0.827,0 -1.655,-0.023 -2.48,0.002 -0.957,0.029 -1.599,-0.213 -1.582,-1.357 0.014,-0.971 -0.039,-1.886 1.27,-2.051 5.123,-0.645 10.244,-1.317 15.367,-1.959 1.454,-0.182 1.372,0.877 1.375,1.82 0.004,2.349 0,4.699 0,7.638 z"
   id="path14"
   inkscape:connector-curvature="0"
   style="fill:#4e4e4e" />
	<path
   d="m 618.25,190.054 c 4.018,-3.107 7.427,-5.778 11.38,-7.585 4.001,-1.829 8.158,-2.942 12.612,-2.363 8.669,1.126 13.137,5.745 13.399,14.554 0.278,9.3 0.077,18.613 0.177,27.92 0.025,2.574 0.329,5.148 0.59,7.714 0.249,2.45 1.579,3.699 4.144,3.545 1.443,-0.086 2.897,0.028 4.344,-0.027 1.033,-0.039 1.524,0.285 1.467,1.401 -0.052,0.962 0.07,1.836 -1.367,1.829 -7.55,-0.037 -15.101,-0.041 -22.65,0.006 -1.352,0.008 -1.437,-0.669 -1.48,-1.733 -0.056,-1.317 0.6,-1.439 1.685,-1.518 5.461,-0.397 5.459,-0.43 5.459,-6.021 0,-9.618 0.002,-19.237 -0.002,-28.855 -0.001,-2.07 -0.114,-4.119 -0.771,-6.12 -1.435,-4.361 -4.396,-6.602 -8.919,-6.792 -7.521,-0.316 -13.519,3.114 -19.107,7.623 -0.948,0.765 -0.965,1.74 -0.956,2.786 0.089,10.131 0.078,20.265 0.287,30.394 0.136,6.574 0.71,6.99 7.193,7.012 0.414,10e-4 0.83,0.036 1.239,-0.005 1.262,-0.126 1.905,0.255 1.863,1.69 -0.037,1.287 -0.644,1.536 -1.746,1.533 -7.344,-0.023 -14.687,-0.036 -22.029,0.009 -1.36,0.008 -1.795,-0.492 -1.777,-1.818 0.016,-1.391 0.82,-1.358 1.82,-1.426 5.468,-0.371 5.476,-0.389 5.464,-6.016 -0.026,-11.893 -0.063,-23.786 -0.102,-35.679 -0.003,-0.723 -0.025,-1.45 -0.114,-2.167 -0.514,-4.138 -1.087,-4.635 -5.268,-4.649 -1.137,-0.003 -2.276,-0.044 -3.412,0.006 -1.101,0.048 -1.471,-0.517 -1.462,-1.503 0.008,-0.836 -0.064,-1.689 1.123,-1.833 5.229,-0.635 10.452,-1.308 15.683,-1.924 1.582,-0.187 1.201,1.097 1.22,1.919 0.047,2.471 0.013,4.946 0.013,8.093 z"
   id="path16"
   inkscape:connector-curvature="0"
   style="fill:#4e4e4e" />
	<path
   d="m 551.959,297.349 c 5.979,-4.662 11.448,-8.655 18.49,-9.773 11.454,-1.82 18.758,4.286 18.882,15.795 0.118,10.85 -0.543,21.715 0.493,32.547 0.461,4.819 1.111,5.311 6.019,5.319 0.518,10e-4 1.038,-0.038 1.55,0.008 1.095,0.099 2.54,-0.583 2.521,1.601 -0.02,2.167 -1.462,1.574 -2.552,1.58 -6.826,0.036 -13.653,0.016 -20.48,0.02 -1.248,0 -2.498,0.233 -2.409,-1.788 0.086,-1.981 1.443,-1.371 2.43,-1.402 4.854,-0.153 4.855,-0.131 4.855,-4.93 0,-9.826 0.02,-19.652 -0.005,-29.478 -0.027,-11.272 -5.737,-15.662 -16.603,-12.751 -4.578,1.228 -8.445,3.78 -12.11,6.698 -0.933,0.742 -1.101,1.613 -1.095,2.7 0.059,10.238 0.07,20.477 0.141,30.715 0.008,1.125 0.313,2.247 0.436,3.375 0.29,2.642 1.762,3.805 4.393,3.665 1.341,-0.071 2.689,0.037 4.032,-0.024 1.216,-0.055 1.636,0.45 1.587,1.642 -0.04,0.968 -0.238,1.576 -1.359,1.574 -7.654,-0.013 -15.308,-0.011 -22.962,-0.003 -1.279,10e-4 -1.111,-0.896 -1.162,-1.719 -0.063,-1.012 0.284,-1.435 1.379,-1.513 1.808,-0.129 4.292,0.954 5.248,-0.689 0.869,-1.494 0.394,-3.808 0.396,-5.761 0.021,-11.17 0.013,-22.341 0.007,-33.512 0,-0.93 -0.024,-1.861 -0.073,-2.79 -0.28,-5.363 -0.688,-5.635 -5.992,-5.819 -1.43,-0.049 -3.957,1.435 -4.208,-1.397 -0.279,-3.181 2.585,-1.866 4.095,-2.144 3.652,-0.671 7.384,-0.915 11.04,-1.578 2.258,-0.409 3.285,-0.048 3.057,2.511 -0.199,2.223 -0.041,4.48 -0.041,7.321 z"
   id="path18"
   inkscape:connector-curvature="0"
   style="fill:#4e4e4e" />
	<path
   d="m 597.782,233.459 c -0.563,0.811 -1.028,1.489 -1.502,2.16 -2.807,3.972 -4.285,4.18 -8.441,1.408 -3.151,-2.102 -4.84,-5.215 -6.126,-8.621 -2.704,2.119 -5.23,4.253 -7.915,6.167 -4.222,3.01 -8.882,4.782 -14.187,4.56 -6.75,-0.282 -11.006,-3.417 -13.114,-9.833 -1.503,-4.572 -1.813,-9.314 -1.837,-14.08 -0.036,-6.62 0.023,-13.241 -0.028,-19.86 -0.016,-2.059 -0.291,-4.115 -0.394,-6.175 -0.148,-2.983 -1.656,-4.242 -4.632,-3.913 -1.228,0.136 -2.482,-0.012 -3.722,0.031 -1.118,0.039 -1.729,-0.284 -1.713,-1.561 0.014,-1.101 0.266,-1.683 1.5,-1.822 4.928,-0.56 9.854,-1.148 14.76,-1.867 1.811,-0.265 1.784,0.685 1.78,1.93 -0.02,6.517 -0.059,13.034 0.005,19.55 0.065,6.615 -0.176,13.229 0.229,19.847 0.604,9.903 6.167,12.606 15.562,10.914 1.892,-0.341 3.718,-1.233 5.479,-2.073 5.158,-2.458 8.466,-5.662 7.857,-12.345 -0.821,-9.037 0.231,-18.189 -0.497,-27.275 -0.405,-5.065 -0.75,-5.183 -5.824,-5.381 -1.419,-0.056 -3.875,1.45 -4.219,-1.321 -0.409,-3.308 2.523,-1.886 3.97,-2.158 3.647,-0.688 7.408,-0.802 11.037,-1.559 2.75,-0.574 2.981,0.506 2.965,2.782 -0.092,11.688 -0.042,23.377 -0.042,35.066 0,0.725 -0.009,1.448 0.001,2.172 0.108,7.964 1.54,10.118 9.048,13.257 z"
   id="path20"
   inkscape:connector-curvature="0"
   style="fill:#4e4e4e" />
	<path
   d="m 1056.903,334.941 c -2.002,1.724 -3.823,3.355 -5.712,4.903 -2.813,2.305 -5.905,4.173 -9.297,5.493 -5.979,2.33 -11.558,1.209 -14.696,-2.875 -3.364,-4.378 -3.13,-11.733 0.551,-16.5 2.584,-3.346 6.041,-5.613 9.675,-7.616 5.429,-2.992 11.147,-5.371 16.924,-7.584 1.818,-0.697 2.598,-1.626 2.431,-3.619 -0.216,-2.567 0.059,-5.181 -0.24,-7.732 -0.549,-4.7 -3.063,-6.92 -7.771,-7.212 -2.811,-0.174 -5.539,0.247 -8.257,1.014 -3.567,1.007 -6.086,2.633 -6.096,6.908 0,2.273 -1.138,4.403 -2.856,6.022 -1.209,1.139 -2.72,1.646 -4.265,0.803 -1.468,-0.801 -1.646,-2.263 -1.39,-3.797 0.497,-2.963 1.845,-5.54 4.06,-7.496 7.455,-6.581 16.09,-9.507 26.027,-7.78 4.456,0.774 6.855,3.349 7.758,7.731 0.441,2.142 0.549,4.297 0.546,6.472 -0.01,8.789 -0.068,17.579 0.022,26.367 0.057,5.395 1.405,10.104 7.507,11.704 0.459,0.12 1.043,0.237 1.107,0.879 0.198,1.996 -4.563,5.792 -6.459,5.05 -3.931,-1.54 -6.761,-4.284 -8.425,-8.185 -0.39,-0.921 -0.724,-1.864 -1.144,-2.95 z"
   id="path22"
   inkscape:connector-curvature="0"
   style="fill:#4e4e4e" />
	<path
   d="m 516.722,334.948 c -2.827,2.469 -5.472,5.056 -8.603,7.038 -2.274,1.439 -4.586,2.777 -7.157,3.62 -5.712,1.874 -10.924,0.716 -13.859,-3.083 -3.116,-4.035 -3.219,-10.867 -0.231,-15.482 2.075,-3.207 5.022,-5.459 8.227,-7.394 6.03,-3.639 12.517,-6.332 19.061,-8.863 1.812,-0.701 2.612,-1.604 2.451,-3.605 -0.184,-2.26 0.025,-4.549 -0.058,-6.821 -0.188,-5.176 -2.976,-7.921 -8.17,-8.171 -2.711,-0.131 -5.348,0.233 -7.949,1.009 -3.465,1.035 -6.161,2.544 -6.136,6.861 0.012,2.159 -1.034,4.196 -2.604,5.818 -1.257,1.298 -2.798,1.936 -4.479,1.097 -1.661,-0.829 -1.674,-2.479 -1.386,-4.073 0.596,-3.296 2.32,-5.988 4.872,-8.054 7.243,-5.868 15.446,-8.602 24.798,-7.038 4.814,0.805 7.186,3.292 8.171,8.049 0.381,1.84 0.45,3.685 0.455,5.548 0.021,9.203 -0.008,18.405 0.11,27.606 0.066,5.229 1.664,9.6 7.419,11.103 1.288,0.336 1.252,0.886 0.603,1.963 -3.011,5.002 -5.193,5.415 -9.889,1.714 -2.404,-1.892 -3.805,-4.064 -5.646,-8.842 z"
   id="path24"
   inkscape:connector-curvature="0"
   style="fill:#4e4e4e" />
	<path
   d="m 843.158,313.946 c -0.035,16.667 -8.609,28.22 -22.483,31.736 -12.691,3.217 -24.537,-2.889 -29.255,-15.08 -4.717,-12.188 -1.634,-26.929 7.425,-35.502 11.048,-10.456 27.922,-10.394 37.478,0.241 5.095,5.672 6.685,12.637 6.835,18.605 z"
   id="path26"
   inkscape:connector-curvature="0"
   style="fill:#4e4e4e" />
	<path
   d="m 530.48,205.276 c -0.038,16.716 -6.884,27.306 -18.906,31.996 -15.269,5.955 -30.782,-2.241 -33.953,-18.305 -2.252,-11.41 -0.555,-22.121 8.103,-30.726 8.025,-7.977 20.156,-10.513 29.75,-6.202 11.171,5.02 14.704,14.613 15.006,23.237 z"
   id="path28"
   inkscape:connector-curvature="0"
   style="fill:#4e4e4e" />
	<path
   d="m 943.663,233.304 c 5.468,0.065 10.353,-1.564 14.644,-4.981 0.864,-0.689 1.623,-2.112 2.984,-0.473 1.446,1.741 -0.42,2.177 -1.133,2.836 -6.547,6.056 -14.338,8.812 -23.231,8.429 -10.857,-0.467 -18.882,-7.78 -21.382,-19.832 -2.003,-9.65 -0.672,-18.937 4.208,-27.563 5.783,-10.221 17.185,-14.486 26.94,-10.115 6.738,3.02 10.424,8.88 13.535,15.164 0.814,1.645 -0.853,1.426 -1.668,1.693 -10.795,3.527 -21.688,6.736 -32.778,9.165 -2.921,0.639 -3.631,1.769 -3.115,4.554 0.527,2.851 1.014,5.696 2.047,8.405 3.199,8.387 9.665,12.701 18.949,12.718 z"
   id="path30"
   inkscape:connector-curvature="0"
   style="fill:#4e4e4e" />
	<path
   d="m 849.014,233.335 c 4.017,0.087 8.973,-1.641 13.339,-5.123 0.8,-0.637 1.462,-1.919 2.748,-0.463 1.273,1.44 0.003,1.974 -0.771,2.695 -7.513,6.996 -16.411,9.831 -26.516,8.296 -7.898,-1.2 -13.319,-5.951 -16.306,-13.226 -4.825,-11.758 -3.912,-23.348 2.479,-34.223 8.539,-14.532 25.854,-15.274 35.858,-1.802 5.949,8.01 5.946,8.002 -3.521,10.914 -9.072,2.791 -18.191,5.417 -27.475,7.418 -2.015,0.434 -2.65,1.237 -2.396,3.322 0.468,3.826 1.202,7.565 2.84,11.048 3.599,7.649 9.842,11.089 19.721,11.144 z"
   id="path32"
   inkscape:connector-curvature="0"
   style="fill:#4e4e4e" />
	<path
   d="m 390.616,344.443 c -3.929,0 -7.857,-0.045 -11.785,0.024 -1.404,0.024 -2.027,-0.311 -2.011,-1.874 0.016,-1.536 0.612,-1.852 2.024,-1.914 5.674,-0.249 5.68,-0.299 5.67,-6.063 -0.029,-20.571 -0.06,-41.143 -0.111,-61.714 -0.002,-1.128 -0.188,-2.26 -0.333,-3.384 -0.316,-2.431 -1.554,-3.688 -4.167,-3.435 -1.536,0.148 -3.101,-0.003 -4.649,0.036 -1.145,0.028 -1.986,-0.057 -1.949,-1.603 0.033,-1.365 0.282,-2.072 1.876,-2.06 8.063,0.062 16.127,0.061 24.191,0 1.514,-0.011 1.942,0.522 1.953,1.974 0.01,1.421 -0.573,1.644 -1.834,1.712 -6.381,0.353 -6.388,0.393 -6.378,6.736 0.029,18.71 0.038,37.421 0.132,56.132 0.015,2.777 0.361,5.563 0.722,8.323 0.308,2.348 1.54,3.725 4.194,3.412 1.427,-0.168 2.894,0.023 4.338,-0.045 1.32,-0.063 2.107,0.168 2.164,1.792 0.063,1.802 -0.806,1.999 -2.263,1.974 -3.926,-0.065 -7.856,-0.022 -11.784,-0.023 z"
   id="path34"
   inkscape:connector-curvature="0"
   style="fill:#4e4e4e" />
	<path
   d="m 1092.854,295.18 c 0,11.989 0,23.977 0,35.965 0,0.929 0.042,1.859 0.098,2.787 0.4,6.788 0.861,7.193 7.687,7.335 1.021,0.021 2.604,-0.792 2.694,1.423 0.099,2.359 -1.549,1.729 -2.739,1.735 -6.821,0.039 -13.644,0.018 -20.466,0.02 -1.126,0 -2.224,0.238 -2.233,-1.609 -0.011,-1.864 1.101,-1.605 2.221,-1.601 0.724,0.002 1.453,-0.06 2.17,0.01 2.206,0.217 2.836,-0.825 2.813,-2.924 -0.087,-7.958 -0.014,-15.917 -0.038,-23.876 -0.054,-16.43 -0.05,-32.861 -0.244,-49.29 -0.063,-5.234 -0.64,-5.529 -5.897,-5.54 -0.311,0 -0.643,0.075 -0.926,-0.013 -1.152,-0.355 -3.107,1.049 -3.258,-1.537 -0.147,-2.537 1.775,-1.73 3.002,-1.873 4.208,-0.489 8.413,-1.048 12.48,-2.205 2.271,-0.645 2.581,0.094 2.57,2.122 -0.067,13.023 -0.035,26.046 -0.035,39.069 0.029,0.002 0.062,0.002 0.096,0.002 z"
   id="path36"
   inkscape:connector-curvature="0"
   style="fill:#4e4e4e" />
	<path
   d="m 884.885,239.163 c -0.856,-0.063 -2.197,-0.14 -3.533,-0.267 -9.995,-0.952 -11.276,-2.308 -11.643,-12.334 -0.03,-0.797 -0.226,-1.751 0.846,-2.068 0.771,-0.228 1.473,0.029 1.798,0.814 3.762,9.063 11.652,9.482 19.671,9.112 4.025,-0.186 7.554,-2.12 9.995,-5.513 3.521,-4.89 2.194,-10.499 -3.087,-13.348 -3.31,-1.784 -6.979,-2.492 -10.555,-3.473 -2.887,-0.792 -5.775,-1.563 -8.502,-2.836 -8.854,-4.132 -11.059,-14.479 -4.681,-21.938 3.07,-3.591 6.974,-5.823 11.544,-6.772 6.009,-1.248 11.919,-0.49 17.715,1.355 1.091,0.348 2.103,0.72 2.156,2.226 0.07,2.06 0.392,4.11 0.52,6.17 0.048,0.759 0.379,1.813 -0.74,2.094 -0.982,0.248 -1.474,-0.559 -1.851,-1.319 -3.465,-6.98 -16.255,-8.557 -22.688,-4.161 -0.426,0.291 -0.839,0.605 -1.233,0.936 -4.672,3.915 -4.172,10.072 1.104,13.11 3.805,2.19 8.111,2.994 12.248,4.25 2.864,0.869 5.688,1.808 8.389,3.119 11.233,5.457 9.569,19.429 2.214,25.033 -5.71,4.348 -12.236,5.734 -19.687,5.81 z"
   id="path38"
   inkscape:connector-curvature="0"
   style="fill:#4e4e4e" />
	<path
   d="m 425.356,346.556 c -4.23,-0.135 -8.204,-0.66 -12.118,-1.71 -1.584,-0.425 -2.435,-1.191 -2.625,-2.896 -0.311,-2.766 -0.85,-5.506 -1.239,-8.264 -0.12,-0.844 -0.029,-1.695 1.056,-1.929 0.87,-0.188 1.473,0.284 1.685,1.012 1.891,6.519 7.529,7.73 12.968,8.925 4.438,0.975 8.849,0.392 12.848,-2.022 3.854,-2.326 5.954,-5.64 5.562,-10.272 -0.351,-4.131 -3.275,-6.07 -6.673,-7.314 -3.383,-1.239 -6.909,-2.077 -10.361,-3.13 -1.97,-0.6 -3.944,-1.207 -5.872,-1.931 -11.917,-4.472 -11.692,-17.637 -3.65,-24.45 6.776,-5.74 14.68,-6.033 22.865,-4.508 6.257,1.165 8.084,4 7.029,10.36 -0.086,0.518 -0.114,1.09 -0.703,1.245 -1.022,0.267 -1.513,-0.444 -1.873,-1.219 -2.994,-6.432 -14.896,-8.722 -21.838,-4.738 -2.002,1.149 -3.693,2.624 -4.616,4.834 -1.502,3.6 -0.51,6.996 2.774,9.212 3.138,2.119 6.789,2.947 10.342,3.999 3.262,0.965 6.546,1.835 9.672,3.226 5.265,2.341 8.987,5.939 9.486,11.948 0.512,6.169 -1.918,11.102 -6.988,14.638 -5.375,3.749 -11.528,4.824 -17.731,4.984 z"
   id="path40"
   inkscape:connector-curvature="0"
   style="fill:#4e4e4e" />
	<path
   d="m 872.584,287.29 c 0.977,0.105 2.826,0.292 4.672,0.503 7.609,0.874 8.791,2.167 8.81,9.746 0.002,0.731 0.488,1.773 -0.655,2.107 -0.985,0.288 -1.497,-0.431 -1.896,-1.208 -3.383,-6.576 -14.776,-8.459 -21.318,-4.966 -0.991,0.53 -1.956,1.179 -2.78,1.939 -4.65,4.293 -3.983,9.945 1.528,13.021 3.186,1.778 6.728,2.604 10.194,3.601 3.275,0.942 6.495,1.995 9.627,3.373 11.767,5.177 10.347,19.771 2.483,25.517 -6.258,4.572 -13.328,5.799 -20.829,5.533 -0.825,-0.029 -1.646,-0.158 -2.471,-0.22 -9.233,-0.695 -11.686,-3.478 -11.23,-12.707 0.037,-0.754 -0.028,-1.52 0.896,-1.708 0.763,-0.155 1.467,0.046 1.713,0.917 1.81,6.387 7.335,7.706 12.664,8.898 5.217,1.168 10.322,0.411 14.697,-3 6.445,-5.023 5.437,-13.065 -1.997,-16.327 -3.517,-1.544 -7.301,-2.211 -10.938,-3.351 -2.26,-0.708 -4.572,-1.336 -6.714,-2.321 -9.287,-4.27 -11.411,-14.651 -4.576,-22.315 4.573,-5.131 10.529,-7.032 18.12,-7.032 z"
   id="path42"
   inkscape:connector-curvature="0"
   style="fill:#4e4e4e" />
	<path
   d="m 470.825,296.018 c 0.246,11.051 -0.461,24.709 0.319,38.349 0.379,6.632 0.739,6.826 7.401,6.87 0.414,0.002 0.832,0.038 1.241,-0.005 1.194,-0.123 1.633,0.365 1.622,1.583 -0.012,1.173 -0.367,1.649 -1.597,1.643 -7.447,-0.038 -14.896,-0.033 -22.345,-0.005 -1.231,0.004 -1.558,-0.534 -1.575,-1.689 -0.02,-1.292 0.6,-1.461 1.695,-1.553 5.688,-0.476 5.691,-0.507 5.684,-6.236 -0.031,-22.345 -0.066,-44.689 -0.102,-67.033 0,-0.414 0.014,-0.829 -0.007,-1.241 -0.333,-6.723 -0.68,-7.052 -7.418,-7.086 -0.312,-0.002 -0.621,0.011 -0.931,-0.003 -0.985,-0.045 -2.088,0.276 -2.135,-1.417 -0.042,-1.521 0.534,-1.933 1.962,-1.984 4.458,-0.161 8.851,-0.968 13.142,-2.087 2.479,-0.646 3.127,-0.281 3.1,2.366 -0.128,12.309 -0.056,24.62 -0.056,39.528 z"
   id="path44"
   inkscape:connector-curvature="0"
   style="fill:#4e4e4e" />
	<path
   d="m 682.204,206.265 c 0,5.685 -0.039,11.371 0.009,17.055 0.076,8.969 4.46,12.261 13.262,10.007 1.097,-0.281 2.224,-0.529 3.242,-0.995 1.158,-0.528 1.432,0.159 1.8,0.957 0.389,0.836 0.548,1.455 -0.544,1.964 -5.194,2.422 -10.496,4.436 -16.365,3.705 -5.7,-0.711 -9.008,-4.702 -9.113,-11.376 -0.167,-10.541 -0.064,-21.085 -0.075,-31.628 -0.002,-1.964 0,-3.928 -10e-4,-5.892 0,-4.246 0.006,-4.301 -4.294,-4.746 -2.003,-0.208 -2.057,-1.133 -1.016,-2.392 3.355,-4.06 6.795,-8.051 10.183,-12.085 0.573,-0.683 1.2,-1.144 2.122,-0.93 1.229,0.285 0.753,1.313 0.769,2.033 0.06,2.687 0.081,5.376 0.006,8.062 -0.042,1.477 0.529,1.999 1.986,1.968 3.203,-0.068 6.41,-0.077 9.611,0.022 0.807,0.025 2.368,-0.776 2.24,1.081 -0.092,1.333 -0.779,2.277 -2.401,2.239 -2.894,-0.07 -5.796,0.111 -8.68,-0.061 -2.135,-0.127 -2.848,0.497 -2.791,2.718 0.15,6.095 0.05,12.196 0.05,18.294 z"
   id="path46"
   inkscape:connector-curvature="0"
   style="fill:#4e4e4e" />
	<path
   d="m 995.658,316.54 c 0,-7.905 -0.098,-14.423 0.053,-20.934 0.053,-2.27 -0.486,-3.23 -2.886,-2.946 -1.009,0.12 -2.466,0.604 -2.997,-0.816 -0.432,-1.152 0.715,-1.82 1.361,-2.589 2.987,-3.562 5.994,-7.111 8.976,-10.679 0.678,-0.811 1.346,-1.743 2.541,-1.271 1.175,0.465 0.581,1.622 0.611,2.458 0.083,2.272 0.212,4.568 -0.021,6.819 -0.256,2.487 0.802,2.959 2.996,2.828 2.885,-0.173 5.789,-0.085 8.685,-0.016 0.869,0.021 2.313,-0.571 2.17,1.257 -0.104,1.314 -0.797,2.066 -2.206,2.059 -3.104,-0.016 -6.208,0.079 -9.307,-0.033 -1.678,-0.06 -2.345,0.337 -2.328,2.192 0.108,12.201 -0.016,24.406 0.173,36.605 0.123,8.088 4.551,11.277 12.504,9.396 1.203,-0.285 2.427,-0.565 3.563,-1.037 1.021,-0.425 1.646,-0.533 2.166,0.691 0.455,1.07 0.412,1.681 -0.721,2.192 -5.021,2.267 -10.128,4.26 -15.772,3.641 -5.376,-0.589 -8.696,-3.828 -9.256,-9.201 -0.763,-7.314 -0.095,-14.671 -0.305,-20.616 z"
   id="path48"
   inkscape:connector-curvature="0"
   style="fill:#4e4e4e" />
	<path
   d="m 983.619,190.875 c 3.879,-3.204 7.036,-6.333 10.791,-8.716 3.115,-1.976 6.307,-3.019 9.922,-1.304 1.807,0.857 2.796,2.006 2.235,4.124 -0.448,1.692 -0.729,3.431 -1.195,5.118 -0.444,1.605 -1.187,2.066 -2.555,0.625 -3.089,-3.251 -6.688,-3.863 -10.887,-1.943 -2.97,1.358 -5.268,3.597 -7.544,5.865 -0.654,0.653 -0.789,1.382 -0.773,2.242 0.186,10.539 -0.441,21.093 0.526,31.618 0.447,4.85 1.026,5.181 5.953,5.409 1.335,0.061 3.946,-1.664 4.017,1.466 0.071,3.256 -2.633,1.52 -3.938,1.561 -6.303,0.2 -12.615,0.096 -18.925,0.085 -1.193,-0.002 -2.527,0.347 -2.467,-1.727 0.057,-1.95 1.355,-1.403 2.378,-1.464 0.928,-0.055 1.862,-0.042 2.792,-0.007 1.381,0.052 2.146,-0.461 2.121,-1.961 -0.231,-14.058 0.528,-28.127 -0.426,-42.171 -0.28,-4.141 -0.786,-4.388 -5.041,-4.4 -1.138,-0.003 -2.278,-0.06 -3.411,0.012 -1.234,0.08 -1.608,-0.454 -1.604,-1.632 0.005,-1.11 0.266,-1.639 1.508,-1.774 4.93,-0.537 9.853,-1.147 14.762,-1.843 1.425,-0.202 1.813,0.229 1.781,1.58 -0.065,2.887 -0.02,5.777 -0.02,9.237 z"
   id="path50"
   inkscape:connector-curvature="0"
   style="fill:#4e4e4e" />
	<path
   d="m 1014.564,208.158 c 0,-6.621 -0.121,-13.245 0.059,-19.861 0.069,-2.485 -0.681,-3.321 -3.102,-3.047 -0.938,0.106 -2.252,0.56 -2.85,-0.534 -0.708,-1.297 0.602,-2.044 1.285,-2.867 2.912,-3.496 5.895,-6.932 8.799,-10.433 0.749,-0.904 1.438,-1.976 2.742,-1.445 1.285,0.522 0.538,1.811 0.581,2.731 0.108,2.271 0.149,4.558 0,6.824 -0.123,1.858 0.396,2.576 2.374,2.472 3.095,-0.163 6.206,-0.082 9.308,-0.016 0.784,0.017 2.104,-0.542 2.14,0.924 0.03,1.297 -0.441,2.426 -2.152,2.4 -3.104,-0.048 -6.215,0.119 -9.308,-0.058 -2.003,-0.115 -2.378,0.618 -2.366,2.46 0.079,12.103 -0.01,24.208 0.06,36.312 0.045,7.857 4.386,11.244 12.179,9.636 1.411,-0.291 2.813,-0.714 4.148,-1.249 0.944,-0.378 1.473,-0.384 1.907,0.659 0.399,0.962 0.662,1.68 -0.564,2.246 -5.209,2.405 -10.525,4.405 -16.4,3.627 -5.326,-0.705 -8.726,-4.664 -8.813,-10.297 -0.106,-6.827 -0.025,-13.656 -0.027,-20.484 z"
   id="path52"
   inkscape:connector-curvature="0"
   style="fill:#4e4e4e" />
	<path
   d="m 976.027,313.597 c 0.178,6.62 -0.407,14.805 0.558,22.94 0.493,4.164 1.22,4.673 5.341,4.698 1.034,0.006 2.071,0.051 3.104,-0.009 1.23,-0.072 1.578,0.477 1.582,1.653 0.004,1.264 -0.565,1.579 -1.69,1.575 -7.345,-0.021 -14.688,-0.024 -22.033,0.004 -1.105,0.003 -1.673,-0.226 -1.703,-1.521 -0.031,-1.405 0.505,-1.671 1.8,-1.736 5.357,-0.271 5.373,-0.322 5.353,-5.87 -0.047,-12.307 0.014,-24.616 -0.229,-36.919 -0.11,-5.613 -0.488,-5.7 -5.963,-5.701 -0.207,0 -0.438,0.061 -0.616,-0.01 -1.191,-0.474 -3.382,1.242 -3.503,-1.58 -0.112,-2.664 2.012,-1.798 3.321,-1.996 3.882,-0.585 7.821,-0.841 11.664,-1.6 2.697,-0.532 3.108,0.416 3.065,2.808 -0.134,7.239 -0.051,14.481 -0.051,23.264 z"
   id="path54"
   inkscape:connector-curvature="0"
   style="fill:#4e4e4e" />
	<path
   d="m 283.339,322.689 c 5.194,-1.268 10.389,-2.536 15.583,-3.803 -0.049,5.659 -0.172,11.318 -0.109,16.976 0.023,2.109 -0.607,2.964 -2.817,2.865 -3.391,-0.152 -6.796,-0.125 -10.19,-0.007 -1.86,0.066 -2.548,-0.52 -2.5,-2.441 0.113,-4.528 0.034,-9.06 0.033,-13.59 z"
   id="path56"
   inkscape:connector-curvature="0"
   style="fill:#9c9c9c" />
	<path
   d="m 976.224,268.687 c -0.018,2.797 -2.145,4.918 -4.883,4.872 -2.742,-0.047 -4.703,-2.195 -4.63,-5.072 0.068,-2.682 2.071,-4.718 4.68,-4.758 2.637,-0.041 4.85,2.229 4.833,4.958 z"
   id="path58"
   inkscape:connector-curvature="0"
   style="fill:#4f4f4f" />
	<path
   d="m 338.621,209.641 c 0.499,-0.072 1.006,-0.126 1.282,-0.643 0.459,0.206 1.17,0.669 0.836,0.981 -0.64,0.598 -1.478,0.255 -2.118,-0.338 z"
   id="path60"
   inkscape:connector-curvature="0"
   style="fill:#b1b1b1" />
	<path
   d="m 361.57,315.205 c 0.559,-0.077 1.104,-0.179 1.392,-0.755 0.419,0.271 1.046,0.794 0.71,1.09 -0.651,0.573 -1.469,0.252 -2.102,-0.335 z"
   id="path62"
   inkscape:connector-curvature="0"
   style="fill:#aeaeae" />
	<path
   d="m 251.181,199.689 c 4.295,-0.516 7.881,-3.077 12.341,-3.906 -2.685,3.782 -5.37,7.564 -8.055,11.347 -1.828,-2.25 -3.538,-4.569 -4.286,-7.441 z"
   id="path64"
   inkscape:connector-curvature="0"
   style="fill:#fdfdfd" />
	<path
   d="m 248.581,214.71 c -2.386,-1.352 -3.98,-3.43 -5.664,-6.219 3.344,1.129 6.244,2.017 8.914,3.539 -0.04,2.159 -1.223,2.932 -3.25,2.68 z"
   id="path66"
   inkscape:connector-curvature="0"
   style="fill:#f7f7f7" />
	<path
   d="m 259.147,214.627 c -1.615,1.691 -3.165,3.467 -5.479,4.257 -1.027,-1.044 -2.054,-2.09 -3.081,-3.135 0.826,-2.167 2.845,-1.585 4.402,-1.72 1.359,-0.118 2.829,0.002 4.157,0.6 z"
   id="path68"
   inkscape:connector-curvature="0"
   style="fill:#fbfbfb" />
	<path
   d="m 259.146,214.629 c -2.943,-0.316 -5.775,0.22 -8.559,1.121 -0.669,-0.346 -1.338,-0.693 -2.007,-1.039 1.688,-0.159 2.324,-1.596 3.25,-2.68 2.439,0.866 4.878,1.732 7.316,2.598 z"
   id="path70"
   inkscape:connector-curvature="0"
   style="fill:#9e9e9e" />
	<path
   d="m 752.984,194.258 c 0,-10.554 0.004,-21.108 -0.004,-31.663 -0.002,-1.374 -0.147,-2.799 1.841,-2.903 9.931,-0.514 19.849,-1.128 29.126,3.698 11.924,6.201 17.686,16.359 18.888,29.362 0.671,7.26 0.21,14.482 -2.386,21.401 -4.719,12.579 -14.733,17.48 -27.274,18.369 -5.047,0.357 -10.137,0.048 -15.203,0.186 -2.705,0.074 -4.108,-1.163 -4.333,-3.727 -0.295,-3.393 -0.588,-6.797 -0.626,-10.2 -0.089,-8.173 -0.029,-16.348 -0.029,-24.523 z"
   id="path72"
   inkscape:connector-curvature="0"
   style="fill:#fefefe" />
	<path
   d="m 646.434,314.475 c -10e-4,5.473 -0.043,10.947 0.029,16.419 0.019,1.366 -0.392,2.267 -1.459,3.138 -3.645,2.977 -7.467,5.56 -12.316,5.979 -9.488,0.821 -16.264,-3.369 -19.299,-12.449 -3.103,-9.282 -2.838,-18.531 2.104,-27.219 5.836,-10.265 19.543,-12.262 29.808,-5.245 1.167,0.798 1.145,1.812 1.142,2.957 -0.017,5.473 -0.009,10.946 -0.009,16.42 z"
   id="path74"
   inkscape:connector-curvature="0"
   style="fill:#fefefe" />
	<path
   d="m 910.413,319.354 c 0,-5.375 -0.01,-10.75 0.012,-16.125 0.003,-0.891 -0.221,-1.813 0.611,-2.585 5.872,-5.445 12.525,-8.361 20.643,-6.266 5.759,1.486 9.452,5.417 11.509,10.793 3.31,8.653 3.218,17.367 -0.438,25.92 -5.55,12.988 -20.832,14.752 -31.144,7.625 -1.146,-0.792 -1.205,-1.765 -1.2,-2.929 0.019,-5.476 0.007,-10.954 0.007,-16.433 z"
   id="path76"
   inkscape:connector-curvature="0"
   style="fill:#fefefe" />
	<path
   d="m 1056.737,322.513 c -0.609,2.648 1.116,6.037 -1.412,9.016 -3.144,3.703 -6.642,6.795 -11.406,8.081 -3.172,0.856 -6.519,1.197 -8.973,-1.5 -2.535,-2.786 -2.388,-6.244 -1.242,-9.629 1.146,-3.386 3.653,-5.683 6.522,-7.609 4.484,-3.01 9.514,-4.868 14.523,-6.759 1.429,-0.539 2.089,-0.283 2.011,1.41 -0.1,2.161 -0.023,4.331 -0.023,6.99 z"
   id="path78"
   inkscape:connector-curvature="0"
   style="fill:#fefefe" />
	<path
   d="m 516.565,322.491 c -0.597,2.666 1.111,6.076 -1.392,9.054 -3.132,3.727 -6.664,6.812 -11.443,8.086 -3.18,0.848 -6.523,1.158 -8.959,-1.596 -2.609,-2.951 -2.301,-6.535 -1.031,-9.96 1.233,-3.332 3.861,-5.556 6.758,-7.454 4.352,-2.853 9.211,-4.605 14.023,-6.473 1.837,-0.713 2.122,0.056 2.063,1.648 -0.078,2.067 -0.019,4.138 -0.019,6.695 z"
   id="path80"
   inkscape:connector-curvature="0"
   style="fill:#fefefe" />
	<path
   d="m 834.842,317.508 c -0.177,5.336 -0.563,9.643 -2.074,13.775 -2.185,5.978 -6.065,10.121 -12.573,11.018 -6.733,0.928 -12.502,-1.116 -16.733,-6.606 -4.354,-5.649 -5.742,-12.272 -5.796,-19.229 -0.037,-4.767 0.511,-9.451 2.06,-14.025 4.777,-14.109 21.621,-13.408 28.414,-5.342 5.235,6.219 6.614,13.595 6.702,20.409 z"
   id="path82"
   inkscape:connector-curvature="0"
   style="fill:#fefefe" />
	<path
   d="m 522.325,210.345 c -0.186,4.511 -0.537,8.729 -1.882,12.794 -2.018,6.099 -5.653,10.639 -12.32,11.712 -6.943,1.118 -12.969,-0.792 -17.293,-6.591 -5.523,-7.408 -6.348,-15.953 -5.528,-24.805 0.257,-2.781 0.758,-5.543 1.739,-8.168 2.164,-5.791 5.876,-10.052 12.27,-11.003 6.814,-1.014 12.723,0.881 17.069,6.501 4.512,5.835 5.694,12.696 5.945,19.56 z"
   id="path84"
   inkscape:connector-curvature="0"
   style="fill:#fefefe" />
	<path
   d="m 922.438,203.052 c 0.832,-6.495 2.604,-11.92 7.007,-16.141 4.401,-4.222 9.844,-4.381 14.523,-0.48 2.923,2.436 4.836,5.594 6.44,8.993 0.674,1.427 0.305,2.001 -1.16,2.383 -8.283,2.165 -16.563,4.341 -24.813,6.634 -2.276,0.632 -2.174,-0.482 -1.997,-1.389 z"
   id="path86"
   inkscape:connector-curvature="0"
   style="fill:#fefefe" />
	<path
   d="m 826.25,203.656 c 0.877,-7.005 2.683,-12.621 7.313,-16.953 4.105,-3.841 9.365,-4.084 13.814,-0.657 3.28,2.527 5.354,5.956 7.076,9.65 0.645,1.381 -0.009,1.781 -1.178,2.089 -8.281,2.18 -16.563,4.364 -24.827,6.603 -1.593,0.431 -2.519,0.362 -2.198,-0.732 z"
   id="path88"
   inkscape:connector-curvature="0"
   style="fill:#fefefe" />
</g>
</svg>