<?xml version="1.0" encoding="UTF-8" standalone="no"?>
<!-- Created with Inkscape (http://www.inkscape.org/) -->

<svg
   xmlns:dc="http://purl.org/dc/elements/1.1/"
   xmlns:cc="http://creativecommons.org/ns#"
   xmlns:rdf="http://www.w3.org/1999/02/22-rdf-syntax-ns#"
   xmlns:svg="http://www.w3.org/2000/svg"
   xmlns="http://www.w3.org/2000/svg"
   xmlns:sodipodi="http://sodipodi.sourceforge.net/DTD/sodipodi-0.dtd"
   xmlns:inkscape="http://www.inkscape.org/namespaces/inkscape"
   width="99.894753mm"
   height="41.13768mm"
   viewBox="0 0 99.894753 41.13768"
   version="1.1"
   id="svg8"
   inkscape:version="0.92.3 (unknown)"
   sodipodi:docname="logo.svg">
  <defs
     id="defs2" />
  <sodipodi:namedview
     id="base"
     pagecolor="#ffffff"
     bordercolor="#666666"
     borderopacity="1.0"
     inkscape:pageopacity="0.0"
     inkscape:pageshadow="2"
     inkscape:zoom="0.35"
     inkscape:cx="-178.36537"
     inkscape:cy="-10.83093"
     inkscape:document-units="mm"
     inkscape:current-layer="layer1"
     showgrid="false"
     fit-margin-top="0"
     fit-margin-left="0"
     fit-margin-right="0"
     fit-margin-bottom="0"
     inkscape:window-width="1305"
     inkscape:window-height="744"
     inkscape:window-x="61"
     inkscape:window-y="24"
     inkscape:window-maximized="1" />
  <metadata
     id="metadata5">
    <rdf:RDF>
      <cc:Work
         rdf:about="">
        <dc:format>image/svg+xml</dc:format>
        <dc:type
           rdf:resource="http://purl.org/dc/dcmitype/StillImage" />
        <dc:title></dc:title>
      </cc:Work>
    </rdf:RDF>
  </metadata>
  <g
     inkscape:label="Layer 1"
     inkscape:groupmode="layer"
     id="layer1"
     transform="translate(-39.255004,-104.82997)">
    <g
       id="g912"
       transform="matrix(0.26458333,0,0,0.26458333,18.615105,101.50204)">
      <polyline
         id="polyline815"
         points="453.348,21.055 421.348,82.335   439.16,119.416 "
         stroke-miterlimit="10"
         style="fill:none;stroke:#fc3c1d;stroke-width:5;stroke-miterlimit:10" />
      <line
         id="line817"
         y2="115.075"
         x2="112.16"
         y1="61.055"
         x1="80.160004"
         stroke-miterlimit="10"
         style="fill:none;stroke:#fc3c1d;stroke-width:5;stroke-miterlimit:10" />
      <path
         id="path819"
         d="M 395.457,42.067"
         inkscape:connector-curvature="0" />
      <g
         id="g873">
	<polyline
   id="polyline821"
   points="193.472,31.945 173.389,48.179 185.369,51.013  "
   style="fill:#282828" />

	<g
   id="g829">
		<polygon
   id="polygon823"
   points="116.826,83.696 93.16,31.888 84.826,58.287 116.493,112.075 143.493,60.928 "
   style="fill:#282828" />

		<polygon
   id="polygon825"
   points="169.828,83.696 193.494,31.888 201.828,58.287 170.161,112.075 143.161,60.928 "
   style="fill:#282828" />

		<polyline
   id="polyline827"
   points="93.16,31.888 94.113,32.168 113.222,48.054 101.566,50.961   "
   style="fill:#282828" />

	</g>

	<g
   id="g835">
		<polygon
   id="polygon831"
   points="243.07,96.336 209.028,96.336 209.028,45.915 254.667,31.752 193.493,31.752 193.493,110.499 254.667,110.499 "
   style="fill:#282828" />

		<polygon
   id="polygon833"
   points="210.34,66.15 215.27,76.693 238.174,76.693 243.393,66.15 "
   style="fill:#282828" />

	</g>

	<g
   id="g841">
		<polygon
   id="polygon837"
   points="325.066,109.803 325.595,50.585 304.698,31.777 "
   style="fill:#282828" />

		<path
   id="path839"
   d="m 304.333,31.752 42.934,0.1 c 0,0 39.293,-0.684 44.721,41.75 0,0 6.078,49.965 -44.285,53.615 l -22.578,-17.568 h 18.887 c 0,0 30.611,-0.91 26.92,-33.992 0,0 -1.086,-23.272 -25.4,-25.555 l -20.441,0.207 z"
   inkscape:connector-curvature="0"
   style="fill:#282828" />

	</g>

	<g
   id="g853">
		<path
   id="path843"
   d="M 281.642,50"
   inkscape:connector-curvature="0"
   style="fill:#282828" />

		<polygon
   id="polygon845"
   points="249.281,31.752 305.175,31.752 305.175,62.973 "
   style="fill:#282828" />

		<polygon
   id="polygon847"
   points="305.175,134.658 305.175,104.794 249.281,134.658 "
   style="fill:#282828" />

		<polyline
   id="polyline849"
   points="249.281,134.658 249.249,104.299 268.852,124.472   "
   style="fill:#282828" />

		<polygon
   id="polygon851"
   points="282.018,81.754 305.175,62.973 281.735,49.854 249.302,81.373 282.254,117.234 305.175,104.794 "
   style="fill:#282828" />

	</g>

	<g
   id="g871">
		<g
   id="g857">
			<polyline
   id="polyline855"
   points="344.349,168.059 371.496,168.059 452.16,12.578 421.348,12.578    "
   style="fill:#282828" />

		</g>

		<g
   id="g869">
			<g
   id="g865">
				<g
   id="g861">
					<polygon
   id="polygon859"
   points="370.66,31.777 422.66,131.982 440.16,131.982 390.66,32.418 "
   style="fill:#282828" />

				</g>

				<g
   id="g863">
				</g>

			</g>

			<polyline
   id="polyline867"
   points="370.66,31.777 390.41,31.752 398.578,48.345    "
   style="fill:#282828" />

		</g>

	</g>

</g>
    </g>
  </g>
</svg>
