<?xml version="1.0" encoding="utf-8"?>
<!-- Generator: Adobe Illustrator 16.0.0, SVG Export Plug-In . SVG Version: 6.00 Build 0)  -->
<!DOCTYPE svg PUBLIC "-//W3C//DTD SVG 1.1 Tiny//EN" "http://www.w3.org/Graphics/SVG/1.1/DTD/svg11-tiny.dtd">
<svg version="1.1" baseProfile="tiny" id="Layer_1" xmlns="http://www.w3.org/2000/svg" xmlns:xlink="http://www.w3.org/1999/xlink"
	 x="0px" y="0px" width="800px" height="500px" viewBox="0 0 800 500" xml:space="preserve">
<g>
	<polyline fill="none" stroke="#FC3C1D" stroke-width="5" stroke-miterlimit="10" points="453.348,21.055 421.348,82.335 
		439.16,119.416 	"/>
	<line fill="none" stroke="#FC3C1D" stroke-width="5" stroke-miterlimit="10" x1="80.16" y1="61.055" x2="112.16" y2="115.075"/>
	<path d="M395.457,42.067"/>
	<g>
		<polyline fill="#282828" points="193.472,31.945 173.389,48.179 185.369,51.013 		"/>
		<g>
			<polygon fill="#282828" points="93.16,31.888 84.826,58.287 116.493,112.075 143.493,60.928 116.826,83.696 			"/>
			<polygon fill="#282828" points="193.494,31.888 201.828,58.287 170.161,112.075 143.161,60.928 169.828,83.696 			"/>
			<polyline fill="#282828" points="93.16,31.888 94.113,32.168 113.222,48.054 101.566,50.961 			"/>
		</g>
		<g>
			<polygon fill="#282828" points="254.667,31.752 193.493,31.752 193.493,110.499 254.667,110.499 243.07,96.336 209.028,96.336 
				209.028,45.915 			"/>
			<polygon fill="#282828" points="210.34,66.15 215.27,76.693 238.174,76.693 243.393,66.15 			"/>
		</g>
		<g>
			<polygon fill="#282828" points="304.698,31.777 325.066,109.803 325.595,50.585 			"/>
			<path fill="#282828" d="M304.333,31.752l42.934,0.1c0,0,39.293-0.684,44.721,41.75c0,0,6.078,49.965-44.285,53.615
				l-22.578-17.568h18.887c0,0,30.611-0.91,26.92-33.992c0,0-1.086-23.272-25.4-25.555l-20.441,0.207L304.333,31.752z"/>
		</g>
		<g>
			<path fill="#282828" d="M281.642,50"/>
			<polygon fill="#282828" points="249.281,31.752 305.175,31.752 305.175,62.973 305.175,62.973 			"/>
			<polygon fill="#282828" points="249.281,134.658 305.175,134.658 305.175,104.794 			"/>
			<polyline fill="#282828" points="249.281,134.658 249.249,104.299 268.852,124.472 			"/>
			<polygon fill="#282828" points="281.735,49.854 249.302,81.373 282.254,117.234 305.175,104.794 282.018,81.754 305.175,62.973 
							"/>
		</g>
		<g>
			<g>
				<polyline fill="#282828" points="344.349,168.059 371.496,168.059 452.16,12.578 421.348,12.578 				"/>
			</g>
			<g>
				<g>
					<g>
						<polygon fill="#282828" points="370.66,31.777 422.66,131.982 440.16,131.982 390.66,32.418 						"/>
					</g>
					<g>
					</g>
				</g>
				<polyline fill="#282828" points="370.66,31.777 390.41,31.752 398.578,48.345 				"/>
			</g>
		</g>
	</g>
	<polyline fill="none" stroke="#FC3C1D" stroke-width="5" stroke-miterlimit="10" points="111.167,114.234 172.448,146.234 
		209.529,128.422 	"/>
	
		<line fill="none" stroke="#FC3C1D" stroke-width="5" stroke-miterlimit="10" x1="151.167" y1="487.422" x2="205.188" y2="455.422"/>
	<g>
		<polyline fill="#282828" points="122.058,374.109 138.292,394.193 141.125,382.213 		"/>
		<g>
			<polygon fill="#282828" points="122,474.422 148.4,482.756 202.188,451.088 151.041,424.088 173.809,450.756 			"/>
			<polygon fill="#282828" points="122,374.088 148.4,365.754 202.188,397.422 151.041,424.422 173.809,397.754 			"/>
			<polyline fill="#282828" points="122,474.422 122.281,473.469 138.167,454.359 141.074,466.016 			"/>
		</g>
		<g>
			<polygon fill="#282828" points="121.865,312.914 121.865,374.088 200.612,374.088 200.612,312.914 186.449,324.512 
				186.449,358.555 136.028,358.555 			"/>
			<polygon fill="#282828" points="156.263,357.242 166.806,352.313 166.806,329.408 156.263,324.189 			"/>
		</g>
		<g>
			<polygon fill="#282828" points="121.89,262.885 199.916,242.515 140.698,241.986 			"/>
			<path fill="#282828" d="M121.865,263.248l0.1-42.934c0,0-0.684-39.293,41.75-44.721c0,0,49.965-6.078,53.615,44.285
				l-17.568,22.578V223.57c0,0-0.91-30.611-33.992-26.92c0,0-23.272,1.086-25.555,25.4l0.207,20.441L121.865,263.248z"/>
		</g>
		<g>
			<path fill="#282828" d="M140.112,285.939"/>
			<polygon fill="#282828" points="121.865,318.301 121.865,262.406 153.086,262.406 153.086,262.406 			"/>
			<polygon fill="#282828" points="224.771,318.301 224.771,262.406 194.907,262.406 			"/>
			<polyline fill="#282828" points="224.771,318.301 194.412,318.332 214.584,298.73 			"/>
			<polygon fill="#282828" points="139.967,285.848 171.486,318.279 207.347,285.328 194.907,262.406 171.867,285.564 
				153.086,262.406 			"/>
		</g>
		<g>
			<polyline fill="#282828" points="258.171,223.232 258.171,196.086 102.69,115.422 102.69,146.234 			"/>
		</g>
		<path fill="#282828" d="M132.18,172.125"/>
		<g>
			<g>
				<g>
					<polygon fill="#282828" points="121.89,196.922 222.095,144.922 222.095,127.422 122.531,176.922 					"/>
				</g>
				<g>
				</g>
			</g>
			<polyline fill="#282828" points="121.89,196.922 121.865,177.172 138.458,169.004 			"/>
		</g>
	</g>
</g>
</svg>
