<?xml version="1.0" encoding="UTF-8" standalone="no"?>
<!-- Generator: Adobe Illustrator 16.0.0, SVG Export Plug-In . SVG Version: 6.00 Build 0)  -->

<svg
   xmlns:dc="http://purl.org/dc/elements/1.1/"
   xmlns:cc="http://creativecommons.org/ns#"
   xmlns:rdf="http://www.w3.org/1999/02/22-rdf-syntax-ns#"
   xmlns:svg="http://www.w3.org/2000/svg"
   xmlns="http://www.w3.org/2000/svg"
   xmlns:sodipodi="http://sodipodi.sourceforge.net/DTD/sodipodi-0.dtd"
   xmlns:inkscape="http://www.inkscape.org/namespaces/inkscape"
   version="1.1"
   id="Layer_1"
   x="0px"
   y="0px"
   width="377.55499"
   height="476.99493"
   viewBox="0 0 377.55499 476.99493"
   xml:space="preserve"
   sodipodi:docname="we3dxlogo.svg"
   inkscape:version="0.92.3 (2405546, 2018-03-11)"><metadata
   id="metadata127"><rdf:RDF><cc:Work
       rdf:about=""><dc:format>image/svg+xml</dc:format><dc:type
         rdf:resource="http://purl.org/dc/dcmitype/StillImage" /><dc:title></dc:title></cc:Work></rdf:RDF></metadata><defs
   id="defs125" /><sodipodi:namedview
   pagecolor="#ffffff"
   bordercolor="#666666"
   borderopacity="1"
   objecttolerance="10"
   gridtolerance="10"
   guidetolerance="10"
   inkscape:pageopacity="0"
   inkscape:pageshadow="2"
   inkscape:window-width="1366"
   inkscape:window-height="745"
   id="namedview123"
   showgrid="false"
   fit-margin-top="0"
   fit-margin-left="0"
   fit-margin-right="0"
   fit-margin-bottom="0"
   inkscape:zoom="0.355"
   inkscape:cx="321.99093"
   inkscape:cy="239.57294"
   inkscape:window-x="-8"
   inkscape:window-y="-8"
   inkscape:window-maximized="1"
   inkscape:current-layer="Layer_1" />
<g
   id="g120"
   transform="translate(-78.009068,-12.578)">
	<polyline
   stroke-miterlimit="10"
   points="453.348,21.055 421.348,82.335    439.16,119.416  "
   id="polyline2"
   style="fill:none;stroke:#fc3c1d;stroke-width:5;stroke-miterlimit:10" />
	<line
   stroke-miterlimit="10"
   x1="80.160004"
   y1="61.055"
   x2="112.16"
   y2="115.075"
   id="line4"
   style="fill:none;stroke:#fc3c1d;stroke-width:5;stroke-miterlimit:10" />
	<path
   d="M 395.457,42.067"
   id="path6"
   inkscape:connector-curvature="0" />
	<g
   id="g60">
		<polyline
   points="193.472,31.945 173.389,48.179 185.369,51.013   "
   id="polyline8"
   style="fill:#282828" />
		<g
   id="g16">
			<polygon
   points="116.493,112.075 143.493,60.928 116.826,83.696 93.16,31.888 84.826,58.287 "
   id="polygon10"
   style="fill:#282828" />
			<polygon
   points="170.161,112.075 143.161,60.928 169.828,83.696 193.494,31.888 201.828,58.287 "
   id="polygon12"
   style="fill:#282828" />
			<polyline
   points="93.16,31.888 94.113,32.168 113.222,48.054 101.566,50.961    "
   id="polyline14"
   style="fill:#282828" />
		</g>
		<g
   id="g22">
			<polygon
   points="193.493,110.499 254.667,110.499 243.07,96.336 209.028,96.336 209.028,45.915 254.667,31.752 193.493,31.752 "
   id="polygon18"
   style="fill:#282828" />
			<polygon
   points="238.174,76.693 243.393,66.15 210.34,66.15 215.27,76.693 "
   id="polygon20"
   style="fill:#282828" />
		</g>
		<g
   id="g28">
			<polygon
   points="325.595,50.585 304.698,31.777 325.066,109.803 "
   id="polygon24"
   style="fill:#282828" />
			<path
   d="m 304.333,31.752 42.934,0.1 c 0,0 39.293,-0.684 44.721,41.75 0,0 6.078,49.965 -44.285,53.615 l -22.578,-17.568 h 18.887 c 0,0 30.611,-0.91 26.92,-33.992 0,0 -1.086,-23.272 -25.4,-25.555 l -20.441,0.207 z"
   id="path26"
   inkscape:connector-curvature="0"
   style="fill:#282828" />
		</g>
		<g
   id="g40">
			<path
   d="M 281.642,50"
   id="path30"
   inkscape:connector-curvature="0"
   style="fill:#282828" />
			<polygon
   points="305.175,62.973 305.175,62.973 249.281,31.752 305.175,31.752 "
   id="polygon32"
   style="fill:#282828" />
			<polygon
   points="305.175,104.794 249.281,134.658 305.175,134.658 "
   id="polygon34"
   style="fill:#282828" />
			<polyline
   points="249.281,134.658 249.249,104.299 268.852,124.472    "
   id="polyline36"
   style="fill:#282828" />
			<polygon
   points="282.254,117.234 305.175,104.794 282.018,81.754 305.175,62.973 281.735,49.854 249.302,81.373 "
   id="polygon38"
   style="fill:#282828" />
		</g>
		<g
   id="g58">
			<g
   id="g44">
				<polyline
   points="344.349,168.059 371.496,168.059 452.16,12.578 421.348,12.578     "
   id="polyline42"
   style="fill:#282828" />
			</g>
			<g
   id="g56">
				<g
   id="g52">
					<g
   id="g48">
						<polygon
   points="440.16,131.982 390.66,32.418 370.66,31.777 422.66,131.982 "
   id="polygon46"
   style="fill:#282828" />
					</g>
					<g
   id="g50">
					</g>
				</g>
				<polyline
   points="370.66,31.777 390.41,31.752 398.578,48.345     "
   id="polyline54"
   style="fill:#282828" />
			</g>
		</g>
	</g>
	<polyline
   stroke-miterlimit="10"
   points="111.167,114.234 172.448,146.234    209.529,128.422  "
   id="polyline62"
   style="fill:none;stroke:#fc3c1d;stroke-width:5;stroke-miterlimit:10" />
	
		<line
   stroke-miterlimit="10"
   x1="151.16701"
   y1="487.422"
   x2="205.188"
   y2="455.422"
   id="line64"
   style="fill:none;stroke:#fc3c1d;stroke-width:5;stroke-miterlimit:10" />
	<g
   id="g118">
		<polyline
   points="122.058,374.109 138.292,394.193 141.125,382.213   "
   id="polyline66"
   style="fill:#282828" />
		<g
   id="g74">
			<polygon
   points="202.188,451.088 151.041,424.088 173.809,450.756 122,474.422 148.4,482.756 "
   id="polygon68"
   style="fill:#282828" />
			<polygon
   points="202.188,397.422 151.041,424.422 173.809,397.754 122,374.088 148.4,365.754 "
   id="polygon70"
   style="fill:#282828" />
			<polyline
   points="122,474.422 122.281,473.469 138.167,454.359 141.074,466.016    "
   id="polyline72"
   style="fill:#282828" />
		</g>
		<g
   id="g80">
			<polygon
   points="200.612,374.088 200.612,312.914 186.449,324.512 186.449,358.555 136.028,358.555 121.865,312.914 121.865,374.088 "
   id="polygon76"
   style="fill:#282828" />
			<polygon
   points="166.806,329.408 156.263,324.189 156.263,357.242 166.806,352.313 "
   id="polygon78"
   style="fill:#282828" />
		</g>
		<g
   id="g86">
			<polygon
   points="140.698,241.986 121.89,262.885 199.916,242.515 "
   id="polygon82"
   style="fill:#282828" />
			<path
   d="m 121.865,263.248 0.1,-42.934 c 0,0 -0.684,-39.293 41.75,-44.721 0,0 49.965,-6.078 53.615,44.285 l -17.568,22.578 V 223.57 c 0,0 -0.91,-30.611 -33.992,-26.92 0,0 -23.272,1.086 -25.555,25.4 l 0.207,20.441 z"
   id="path84"
   inkscape:connector-curvature="0"
   style="fill:#282828" />
		</g>
		<g
   id="g98">
			<path
   d="M 140.112,285.939"
   id="path88"
   inkscape:connector-curvature="0"
   style="fill:#282828" />
			<polygon
   points="153.086,262.406 153.086,262.406 121.865,318.301 121.865,262.406 "
   id="polygon90"
   style="fill:#282828" />
			<polygon
   points="194.907,262.406 224.771,318.301 224.771,262.406 "
   id="polygon92"
   style="fill:#282828" />
			<polyline
   points="224.771,318.301 194.412,318.332 214.584,298.73    "
   id="polyline94"
   style="fill:#282828" />
			<polygon
   points="207.347,285.328 194.907,262.406 171.867,285.564 153.086,262.406 139.967,285.848 171.486,318.279 "
   id="polygon96"
   style="fill:#282828" />
		</g>
		<g
   id="g102">
			<polyline
   points="258.171,223.232 258.171,196.086 102.69,115.422 102.69,146.234    "
   id="polyline100"
   style="fill:#282828" />
		</g>
		<path
   d="M 132.18,172.125"
   id="path104"
   inkscape:connector-curvature="0"
   style="fill:#282828" />
		<g
   id="g116">
			<g
   id="g112">
				<g
   id="g108">
					<polygon
   points="222.095,127.422 122.531,176.922 121.89,196.922 222.095,144.922 "
   id="polygon106"
   style="fill:#282828" />
				</g>
				<g
   id="g110">
				</g>
			</g>
			<polyline
   points="121.89,196.922 121.865,177.172 138.458,169.004    "
   id="polyline114"
   style="fill:#282828" />
		</g>
	</g>
</g>
</svg>