<?xml version="1.0" encoding="UTF-8" standalone="no"?>
<!-- Generator: Adobe Illustrator 16.0.0, SVG Export Plug-In . SVG Version: 6.00 Build 0)  -->

<svg
   xmlns:dc="http://purl.org/dc/elements/1.1/"
   xmlns:cc="http://creativecommons.org/ns#"
   xmlns:rdf="http://www.w3.org/1999/02/22-rdf-syntax-ns#"
   xmlns:svg="http://www.w3.org/2000/svg"
   xmlns="http://www.w3.org/2000/svg"
   xmlns:sodipodi="http://sodipodi.sourceforge.net/DTD/sodipodi-0.dtd"
   xmlns:inkscape="http://www.inkscape.org/namespaces/inkscape"
   version="1.1"
   id="Layer_1"
   x="0px"
   y="0px"
   width="300"
   height="300"
   viewBox="0 0 300 300"
   xml:space="preserve"
   sodipodi:docname="IT8 we3dx.svg"
   inkscape:version="0.92.3 (2405546, 2018-03-11)"><metadata
   id="metadata41"><rdf:RDF><cc:Work
       rdf:about=""><dc:format>image/svg+xml</dc:format><dc:type
         rdf:resource="http://purl.org/dc/dcmitype/StillImage" /><dc:title></dc:title></cc:Work></rdf:RDF></metadata><defs
   id="defs39" /><sodipodi:namedview
   pagecolor="#ffffff"
   bordercolor="#666666"
   borderopacity="1"
   objecttolerance="10"
   gridtolerance="10"
   guidetolerance="10"
   inkscape:pageopacity="0"
   inkscape:pageshadow="2"
   inkscape:window-width="640"
   inkscape:window-height="480"
   id="namedview37"
   showgrid="false"
   fit-margin-top="0"
   fit-margin-left="0"
   fit-margin-right="0"
   fit-margin-bottom="0"
   inkscape:zoom="0.921875"
   inkscape:cx="209.27585"
   inkscape:cy="165.42645"
   inkscape:window-x="26"
   inkscape:window-y="26"
   inkscape:window-maximized="0"
   inkscape:current-layer="Layer_1" />
<polyline
   stroke-miterlimit="10"
   points="487.751,653.725 548.816,654.005   548.816,661.586 487.751,661.586 487.751,670.575 548.816,670.575 548.816,678.495 487.751,678.495 487.751,687.725   548.816,687.725 548.816,694.441 487.751,694.401 487.751,701.739 "
   id="polyline2"
   style="fill:none;stroke:#565656;stroke-width:1.3915;stroke-miterlimit:10"
   transform="translate(-296.47315,-572.875)" />
<line
   stroke-miterlimit="10"
   x1="252.34282"
   y1="129.95502"
   x2="191.27785"
   y2="129.95502"
   id="line4"
   style="fill:none;stroke:#565656;stroke-width:1.3915;stroke-miterlimit:10" />
<path
   stroke-miterlimit="10"
   d="m 168.21785,131.18399 c 0,-5.88 -0.012,-11.76 0.014,-17.64 0.003,-0.684 -0.129,-1.064 -0.852,-1.319 -4.475,-1.586 -7.104,-5.75 -6.632,-10.385 0.458,-4.477005 3.899,-8.010005 8.476,-8.700005 4.874,-0.735 9.646,2.351 10.926,7.066005 1.324,4.877 -1.093,10.015 -5.727,11.769 -1.295,0.488 -1.507,1.133 -1.5,2.351 0.043,11.458 0.012,22.915 0.05,34.37301 0.003,1.037 -0.268,1.42 -1.309,1.29 -1.104,-0.14 -2.545,0.47 -3.252,-0.26 -0.653,-0.673 -0.183,-2.084 -0.186,-3.167 -0.018,-5.12601 -0.008,-10.25201 -0.008,-15.37801 z"
   id="path6"
   inkscape:connector-curvature="0"
   style="fill:none;stroke:#d16d00;stroke-width:1.3915;stroke-miterlimit:10" />
<path
   stroke-miterlimit="10"
   d="m 117.77985,131.22199 c 0,-5.88 -0.015,-11.76 0.019,-17.64 0.006,-0.759 -0.198,-1.113 -0.941,-1.377 -4.372,-1.542 -7.02,-5.745 -6.57,-10.322 0.438,-4.461005 3.915,-8.063005 8.438,-8.737005 5.641,-0.842 10.68,3.12 11.255,8.795005 0.49,4.848 -2.53,8.892 -6.251,10.156 -1.088,0.368 -1.273,0.896 -1.271,1.928 0.038,11.532 0.011,23.066 0.05,34.60201 0.003,1.067 -0.223,1.506 -1.351,1.37 -0.815,-0.099 -1.657,-0.057 -2.482,-0.007 -0.692,0.041 -0.916,-0.209 -0.908,-0.901 0.034,-2.524 0.014,-5.05001 0.014,-7.57501 -0.002,-3.433 -0.002,-6.863 -0.002,-10.292 z"
   id="path8"
   inkscape:connector-curvature="0"
   style="fill:none;stroke:#d16d00;stroke-width:1.3915;stroke-miterlimit:10" />
<path
   stroke-miterlimit="10"
   d="m 92.135848,131.18299 c 0,-5.845 -0.018,-11.688 0.019,-17.532 0.006,-0.817 -0.26,-1.172 -1.028,-1.445 -4.386,-1.567 -6.772,-5.574 -6.568,-9.568 0.256,-4.989005 3.592,-8.688005 8.183,-9.465005 4.329,-0.731 8.479002,1.308 10.496002,5.16 1.979,3.783005 1.275,8.567005 -1.755,11.593005 -0.993,0.992 -2.148002,1.84 -3.506002,2.211 -0.995,0.271 -1.134,0.803 -1.131,1.693 0.022,11.538 0.015,23.076 0.015,34.61301 0,1.533 0,1.567 -1.491,1.522 -1.041,-0.032 -2.373,0.469 -3.043,-0.221 -0.611,-0.633 -0.178,-1.942 -0.181,-2.951 -0.019,-5.20401 -0.01,-10.40701 -0.01,-15.61001 z"
   id="path10"
   inkscape:connector-curvature="0"
   style="fill:none;stroke:#d16d00;stroke-width:1.3915;stroke-miterlimit:10" />
<path
   stroke-miterlimit="10"
   d="m 143.52885,139.76699 c 0,-3.054 -0.013,-6.106 0.012,-9.158 0.006,-0.64 -0.119,-1.016 -0.807,-1.231 -3.786,-1.188 -6.715,-4.547 -6.794,-9.174 -0.098,-5.74 4.391,-9.845 9.519,-10.07 5.7,-0.25 10.604,4.489 10.293,10.528 -0.19,3.76 -2.782,7.292 -6.578,8.667 -0.738,0.267 -0.962,0.604 -0.959,1.369 0.031,6.03 -0.002,12.06 0.037,18.09101 0.006,0.919 -0.209,1.314 -1.179,1.2 -1.145,-0.136 -2.644,0.489 -3.358,-0.27 -0.649,-0.69 -0.166,-2.156 -0.18,-3.28 -0.023,-2.22501 -0.005,-4.44901 -0.006,-6.67201 z"
   id="path12"
   inkscape:connector-curvature="0"
   style="fill:none;stroke:#d16d00;stroke-width:1.3915;stroke-miterlimit:10" />
<path
   stroke-miterlimit="10"
   d="m 143.52885,88.645985 c 0,-5.2 0.02,-10.401 -0.02,-15.604 -0.008,-0.886 0.225,-1.24 1.132,-1.126 1.142,0.142 2.604,-0.5 3.359,0.284 0.704,0.729 0.219,2.16 0.222,3.278 0.018,9.533 0.01,19.07 0.01,28.605005 0,1.514 -0.002,1.514 -1.563,1.516 -0.714,0 -1.435,-0.051 -2.146,0.012 -0.811,0.071 -1.014,-0.244 -1.01,-1.023 0.031,-5.315005 0.016,-10.629005 0.016,-15.942005 z"
   id="path14"
   inkscape:connector-curvature="0"
   style="fill:none;stroke:#d16d00;stroke-width:1.3915;stroke-miterlimit:10" />
<path
   stroke-miterlimit="10"
   d="m 122.48185,80.900985 c 0,2.486 -0.03,4.974 0.019,7.459 0.016,0.81 -0.257,1.054 -1.031,1.002 -0.863,-0.062 -1.735,-0.063 -2.599,0 -0.818,0.06 -1.116,-0.176 -1.108,-1.056 0.039,-4.973 0.04,-9.943 -0.002,-14.917 -0.008,-0.881 0.286,-1.114 1.105,-1.052 0.823,0.063 1.659,0.063 2.483,0.001 0.854,-0.065 1.183,0.166 1.156,1.104 -0.068,2.485 -0.023,4.972 -0.023,7.459 z"
   id="path16"
   inkscape:connector-curvature="0"
   style="fill:none;stroke:#d16d00;stroke-width:1.3915;stroke-miterlimit:10" />
<path
   stroke-miterlimit="10"
   d="m 172.94885,80.353985 c 0,2.525 -0.021,5.053 0.014,7.578 0.011,0.694 -0.215,0.938 -0.905,0.903 -0.979,-0.048 -1.96,-0.038 -2.939,-0.004 -0.696,0.024 -0.91,-0.273 -0.908,-0.943 0.021,-5.054 0.021,-10.106 -0.001,-15.159 -0.003,-0.671 0.269,-0.836 0.875,-0.814 1.018,0.033 2.037,0.042 3.053,-0.002 0.665,-0.028 0.831,0.245 0.824,0.863 -0.028,2.524 -0.013,5.051 -0.013,7.578 z"
   id="path18"
   inkscape:connector-curvature="0"
   style="fill:none;stroke:#d16d00;stroke-width:1.3915;stroke-miterlimit:10" />
<path
   stroke-miterlimit="10"
   d="m 96.858848,81.136985 c 0,2.412 -0.02,4.825 0.014,7.237 0.011,0.712 -0.17,1.06 -0.943,0.979 -1.225,-0.125 -2.787,0.522 -3.587,-0.268 -0.694,-0.687 -0.19,-2.223 -0.197,-3.382 -0.021,-3.959 0.008,-7.919 -0.023,-11.877 -0.007,-0.763 0.174,-1.1 0.998,-1.036 0.862,0.064 1.739,0.082 2.599,-0.002 0.994,-0.1 1.184,0.326 1.161,1.223 -0.058,2.375 -0.022,4.75 -0.022,7.126 z"
   id="path20"
   inkscape:connector-curvature="0"
   style="fill:none;stroke:#d16d00;stroke-width:1.3915;stroke-miterlimit:10" />
<path
   stroke-miterlimit="10"
   d="m 175.71485,102.97599 c -0.014,2.896 -2.286,5.154 -5.166,5.135 -2.813,-0.021 -5.101,-2.387 -5.089,-5.261 0.012,-2.834 2.372,-5.180005 5.205,-5.144005 2.841,0.032 5.315,2.617005 5.05,5.270005 z"
   id="path22"
   inkscape:connector-curvature="0"
   style="fill:none;stroke:#d16d00;stroke-width:1.3915;stroke-miterlimit:10" />
<path
   stroke-miterlimit="10"
   d="m 114.99385,102.84799 c 0.015,-2.83 2.362,-5.152005 5.199,-5.146005 2.747,0.009 5.211,2.479005 5.197,5.213005 -0.013,2.807 -2.488,5.226 -5.319,5.195 -2.809,-0.032 -5.093,-2.399 -5.077,-5.262 z"
   id="path24"
   inkscape:connector-curvature="0"
   style="fill:none;stroke:#d16d00;stroke-width:1.3915;stroke-miterlimit:10" />
<path
   stroke-miterlimit="10"
   d="m 99.628848,102.91699 c -0.002,2.832 -2.333,5.178 -5.157,5.192 -2.783,0.014 -5.187,-2.354 -5.231,-5.155 -0.045,-2.798 2.439,-5.285005 5.251,-5.253005 2.827,0.033 5.141,2.380005 5.137,5.216005 z"
   id="path26"
   inkscape:connector-curvature="0"
   style="fill:none;stroke:#d16d00;stroke-width:1.3915;stroke-miterlimit:10" />
<path
   stroke-miterlimit="10"
   d="m 145.90085,125.13099 c -2.902,0.014 -5.267,-2.185 -5.249,-5.071 0.021,-3.392 2.895,-5.277 5.146,-5.207 2.921,0.093 5.202,2.236 5.221,5.112 0.016,2.937 -2.179,5.155 -5.118,5.166 z"
   id="path28"
   inkscape:connector-curvature="0"
   style="fill:none;stroke:#d16d00;stroke-width:1.3915;stroke-miterlimit:10" />
<rect
   x="42.611839"
   y="47.603996"
   stroke-miterlimit="10"
   width="218.091"
   height="134.49001"
   id="rect30"
   style="fill:none;stroke:#565656;stroke-width:2.78299999;stroke-miterlimit:10" />
<path
   stroke-miterlimit="10"
   d="M 143.69485,183.915 99.815848,257.338 Z"
   id="path32"
   inkscape:connector-curvature="0"
   style="fill:none;stroke:#3a3a3a;stroke-width:1.3915;stroke-miterlimit:10" />
<path
   stroke-miterlimit="10"
   d="m 157.97285,183.915 43.88,73.423 z"
   id="path34"
   inkscape:connector-curvature="0"
   style="fill:none;stroke:#3a3a3a;stroke-width:1.3915;stroke-miterlimit:10" />
</svg>