<?xml version="1.0" encoding="UTF-8" standalone="no"?>
<!-- Generator: Adobe Illustrator 16.0.0, SVG Export Plug-In . SVG Version: 6.00 Build 0)  -->

<svg
   xmlns:dc="http://purl.org/dc/elements/1.1/"
   xmlns:cc="http://creativecommons.org/ns#"
   xmlns:rdf="http://www.w3.org/1999/02/22-rdf-syntax-ns#"
   xmlns:svg="http://www.w3.org/2000/svg"
   xmlns="http://www.w3.org/2000/svg"
   xmlns:sodipodi="http://sodipodi.sourceforge.net/DTD/sodipodi-0.dtd"
   xmlns:inkscape="http://www.inkscape.org/namespaces/inkscape"
   version="1.1"
   id="Layer_1"
   x="0px"
   y="0px"
   width="271.84219"
   height="270.85019"
   viewBox="0 0 271.84219 270.85019"
   xml:space="preserve"
   sodipodi:docname="ss1 we3dx.svg"
   inkscape:version="0.92.3 (2405546, 2018-03-11)"><metadata
   id="metadata39"><rdf:RDF><cc:Work
       rdf:about=""><dc:format>image/svg+xml</dc:format><dc:type
         rdf:resource="http://purl.org/dc/dcmitype/StillImage" /><dc:title></dc:title></cc:Work></rdf:RDF></metadata><defs
   id="defs37" /><sodipodi:namedview
   pagecolor="#ffffff"
   bordercolor="#666666"
   borderopacity="1"
   objecttolerance="10"
   gridtolerance="10"
   guidetolerance="10"
   inkscape:pageopacity="0"
   inkscape:pageshadow="2"
   inkscape:window-width="1366"
   inkscape:window-height="745"
   id="namedview35"
   showgrid="false"
   fit-margin-top="0"
   fit-margin-left="0"
   fit-margin-right="0"
   fit-margin-bottom="0"
   inkscape:zoom="0.47333333"
   inkscape:cx="140.01009"
   inkscape:cy="133.0461"
   inkscape:window-x="-8"
   inkscape:window-y="-8"
   inkscape:window-maximized="1"
   inkscape:current-layer="Layer_1" />
<g
   id="g32"
   transform="translate(-159.98991,-62.195903)">
	
		<line
   stroke-miterlimit="10"
   x1="397.104"
   y1="251.354"
   x2="411.14999"
   y2="268.728"
   id="line2"
   style="fill:none;stroke:#fc3c1d;stroke-width:1.91349995;stroke-miterlimit:10" />
	
		<line
   stroke-miterlimit="10"
   x1="180.408"
   y1="269.06799"
   x2="194.64101"
   y2="252.237"
   id="line4"
   style="fill:none;stroke:#fc3c1d;stroke-width:1.67589998;stroke-miterlimit:10" />
	
		<line
   stroke-miterlimit="10"
   x1="297.271"
   y1="62.629002"
   x2="297.673"
   y2="138.81799"
   id="line6"
   style="fill:none;stroke:#fc3c1d;stroke-width:1.70519996;stroke-miterlimit:10" />
	<polyline
   stroke-miterlimit="10"
   points="345.171,165.575 392.52,195.363    343.05,221.473  "
   id="polyline8"
   style="fill:none;stroke:#fc3c1d;stroke-width:2.22729993;stroke-miterlimit:10" />
	<polyline
   stroke-miterlimit="10"
   points="249.368,165.575 202.02,195.363    251.49,221.473  "
   id="polyline10"
   style="fill:none;stroke:#fc3c1d;stroke-width:2.22729993;stroke-miterlimit:10" />
	
		<line
   stroke-miterlimit="10"
   x1="345.12399"
   y1="147.658"
   x2="309.173"
   y2="242.839"
   id="line12"
   style="fill:none;stroke:#fc3c1d;stroke-width:2.22729993;stroke-miterlimit:10" />
	<polygon
   stroke-miterlimit="10"
   points="271.619,183.36 268.331,188.257 271.163,192.46 270.09,197.734 265.469,199.584 266.081,205.61 271.126,206.642 273.341,211.547 271.424,215.834 275.354,219.915 280.009,217.711 284.499,219.718 285.861,224.611 291.793,225.306 293.846,220.713 298.875,219.046 302.964,222.221 307.808,218.508 306.103,213.83 309.015,209.501 314.201,209.128 315.804,203.356 311.576,200.488 310.564,195.631 314.646,191.702 312.06,186.262 307.045,187.08 303.397,183.737 303.67,178.472 298.264,176.055 294.716,179.61 289.804,179.374 286.715,175.055 280.834,176.71 280.747,181.565 276.892,184.985 "
   id="polygon14"
   style="fill:none;stroke:#191919;stroke-width:0.8344;stroke-miterlimit:10" />
	<polyline
   stroke-miterlimit="10"
   points="267.029,190.08 269.342,193.114    267.468,193.745 266.247,196.75 262.981,196.393 262.203,193.475 259.494,192.142 256.858,193.655 254.46,191.359 255.689,188.604    254.369,185.809 251.545,185.282 250.849,181.91 253.653,180.841 254.623,177.846 252.62,175.481 254.535,172.298 257.085,173.438    259.9,171.515 260.168,168.452 263.63,167.551 265.147,170.187 268.198,170.205 270.099,167.872 273.361,169.331 272.983,172.099    272.901,172.552 275.041,174.61 277.823,174.141 278.973,177.591 277.393,179.21 277.785,181.344 276.432,182.453 273.61,181.686     "
   id="polyline16"
   style="fill:none;stroke:#191919;stroke-width:0.8344;stroke-miterlimit:10" />
	
		<ellipse
   stroke-miterlimit="10"
   cx="290.43701"
   cy="199.679"
   rx="15.141"
   ry="15.116"
   id="ellipse18"
   style="fill:none;stroke:#fc3c1d;stroke-width:2.22729993;stroke-miterlimit:10" />
	<path
   stroke-miterlimit="10"
   d="m 274.307,181.876 c 0,0 -3.14,-9.824 -12.187,-6.69 0,0 -9.35,4.964 -2.211,13.748 0,0 2.398,2.479 7.2,1.727"
   id="path20"
   inkscape:connector-curvature="0"
   style="fill:none;stroke:#191919;stroke-width:0.8344;stroke-miterlimit:10" />
	
		<ellipse
   stroke-miterlimit="10"
   cx="295.91101"
   cy="197.621"
   rx="135.498"
   ry="135.002"
   id="ellipse22"
   style="fill:none;stroke:#191919;stroke-width:0.84619999;stroke-miterlimit:10" />
	<g
   id="g30">
		
			<line
   stroke-miterlimit="10"
   x1="297.46301"
   y1="252.70799"
   x2="297.46301"
   y2="264.603"
   id="line24"
   style="fill:#ffffff;stroke:#191919;stroke-width:2.01110005;stroke-miterlimit:10" />
		
			<line
   stroke-miterlimit="10"
   x1="268.94101"
   y1="264.603"
   x2="323.573"
   y2="264.603"
   id="line26"
   style="fill:#ffffff;stroke:#191919;stroke-width:2.01110005;stroke-miterlimit:10" />
		
			<rect
   x="195.097"
   y="139.03"
   stroke-miterlimit="10"
   width="203.114"
   height="113.678"
   id="rect28"
   style="fill:none;stroke:#191919;stroke-width:2.01110005;stroke-miterlimit:10" />
	</g>
</g>
</svg>