<?xml version="1.0" encoding="UTF-8" standalone="no"?>
<!-- Generator: Adobe Illustrator 16.0.0, SVG Export Plug-In . SVG Version: 6.00 Build 0)  -->

<svg
   xmlns:dc="http://purl.org/dc/elements/1.1/"
   xmlns:cc="http://creativecommons.org/ns#"
   xmlns:rdf="http://www.w3.org/1999/02/22-rdf-syntax-ns#"
   xmlns:svg="http://www.w3.org/2000/svg"
   xmlns="http://www.w3.org/2000/svg"
   xmlns:sodipodi="http://sodipodi.sourceforge.net/DTD/sodipodi-0.dtd"
   xmlns:inkscape="http://www.inkscape.org/namespaces/inkscape"
   version="1.1"
   id="Layer_1"
   x="0px"
   y="0px"
   width="298.31503"
   height="271.07736"
   viewBox="0 0 298.31503 271.07736"
   xml:space="preserve"
   sodipodi:docname="ss3 we3dx.svg"
   inkscape:version="0.92.3 (2405546, 2018-03-11)"><metadata
   id="metadata43"><rdf:RDF><cc:Work
       rdf:about=""><dc:format>image/svg+xml</dc:format><dc:type
         rdf:resource="http://purl.org/dc/dcmitype/StillImage" /><dc:title></dc:title></cc:Work></rdf:RDF></metadata><defs
   id="defs41" /><sodipodi:namedview
   pagecolor="#ffffff"
   bordercolor="#666666"
   borderopacity="1"
   objecttolerance="10"
   gridtolerance="10"
   guidetolerance="10"
   inkscape:pageopacity="0"
   inkscape:pageshadow="2"
   inkscape:window-width="1366"
   inkscape:window-height="745"
   id="namedview39"
   showgrid="false"
   fit-margin-top="0"
   fit-margin-left="0"
   fit-margin-right="0"
   fit-margin-bottom="0"
   inkscape:zoom="0.23046875"
   inkscape:cx="98.90165"
   inkscape:cy="82.805"
   inkscape:window-x="-8"
   inkscape:window-y="-8"
   inkscape:window-maximized="1"
   inkscape:current-layer="Layer_1" />
<g
   id="g34"
   transform="translate(-285.09835,-323.72764)">
	<path
   stroke-miterlimit="10"
   d="m 380.827,415.814 c -9.123,-0.068 -9.13,-14.22 0,-14.152 3.418,0.025 6.885,0.476 10.092,-0.412 V 389.292 H 285.42 v 111.471 h 17.169 c 9.127,0 9.127,14.152 0,14.152 H 285.42 v 41.632 H 390.919 V 415.531 c -3.273,0.38 -6.642,0.311 -10.092,0.283 z"
   id="path2"
   inkscape:connector-curvature="0"
   style="fill:none;stroke:#191919;stroke-width:0.6433;stroke-miterlimit:10" />
	
		<line
   stroke-miterlimit="10"
   x1="296.19601"
   y1="436.80499"
   x2="379.19601"
   y2="436.80499"
   id="line4"
   style="fill:none;stroke:#fc3c1d;stroke-width:2;stroke-miterlimit:10" />
	
		<line
   stroke-miterlimit="10"
   x1="296.19601"
   y1="445.80499"
   x2="379.19601"
   y2="445.80499"
   id="line6"
   style="fill:none;stroke:#fc3c1d;stroke-width:2;stroke-miterlimit:10" />
	
		<line
   stroke-miterlimit="10"
   x1="296.19601"
   y1="455.80499"
   x2="337.19601"
   y2="455.80499"
   id="line8"
   style="fill:none;stroke:#fc3c1d;stroke-width:2;stroke-miterlimit:10" />
	<polyline
   stroke-miterlimit="10"
   points="363.196,495.805 417.196,495.805    417.196,455.805 363.196,455.805  "
   id="polyline10"
   style="fill:#fc3c1d;stroke:#ffffff;stroke-width:2;stroke-miterlimit:10" />
	<polyline
   stroke-miterlimit="10"
   points="367.786,461.767 390.919,476.138    411.253,461.767  "
   id="polyline12"
   style="fill:none;stroke:#ffffff;stroke-width:1.92990005;stroke-miterlimit:10" />
	<polygon
   stroke-miterlimit="10"
   points="363.196,545.805 363.196,503.805 443.196,503.805 443.196,545.805 418.581,545.805 "
   id="polygon14"
   style="fill:none;stroke:#1c1c1c;stroke-width:2;stroke-miterlimit:10" />
	
		<ellipse
   stroke-miterlimit="10"
   cx="376.513"
   cy="518.14899"
   rx="6.191"
   ry="6.8000002"
   id="ellipse16"
   style="fill:#ffffff;stroke:#fc3c1d;stroke-width:2;stroke-miterlimit:10" />
	
		<line
   stroke-miterlimit="10"
   x1="393.19601"
   y1="525.80499"
   x2="440.19601"
   y2="525.80499"
   id="line18"
   style="fill:none;stroke:#fc3c1d;stroke-width:2;stroke-miterlimit:10" />
	
		<line
   stroke-miterlimit="10"
   x1="394.19601"
   y1="533.80499"
   x2="438.19601"
   y2="533.80499"
   id="line20"
   style="fill:none;stroke:#fc3c1d;stroke-width:2;stroke-miterlimit:10" />
	<g
   id="g28">
		<path
   stroke-miterlimit="10"
   d="m 465.196,586.385 c 0,3.58 0.747,7.42 -2.468,7.42 H 348.812 c -3.215,0 -6.615,-3.84 -6.615,-7.42 V 366.888 c 0,-3.58 3.4,-6.083 6.615,-6.083 h 113.917 c 3.215,0 2.468,2.503 2.468,6.083 v 219.497 z"
   id="path22"
   inkscape:connector-curvature="0"
   style="fill:none;stroke:#808080;stroke-width:2;stroke-miterlimit:10" />
		
			<line
   stroke-miterlimit="10"
   x1="351.19601"
   y1="376.80499"
   x2="460.19601"
   y2="376.80499"
   id="line24"
   style="fill:none;stroke:#808080;stroke-width:2;stroke-miterlimit:10" />
		
			<line
   stroke-miterlimit="10"
   x1="351.19601"
   y1="570.80499"
   x2="460.19601"
   y2="570.80499"
   id="line26"
   style="fill:none;stroke:#808080;stroke-width:2;stroke-miterlimit:10" />
	</g>
	
		<ellipse
   stroke-miterlimit="10"
   cx="408.15302"
   cy="581.24701"
   rx="6.3759999"
   ry="7.1609998"
   id="ellipse30"
   style="fill:none;stroke:#808080;stroke-width:1.09130001;stroke-miterlimit:10" />
	
		<ellipse
   stroke-miterlimit="10"
   cx="303.17599"
   cy="408.147"
   rx="6.191"
   ry="6.7989998"
   id="ellipse32"
   style="fill:#ffffff;stroke:#fc3c1d;stroke-width:2;stroke-miterlimit:10" />
</g>
<polyline
   stroke-miterlimit="10"
   points="391,390 415,435 440,326 472,470.292 494,398.146 517,423   583,326 "
   id="polyline36"
   style="fill:none;stroke:#808080;stroke-miterlimit:10"
   transform="translate(-285.09835,-323.72764)" />
</svg>