<?xml version="1.0" encoding="utf-8"?>
<!-- Generator: Adobe Illustrator 16.0.0, SVG Export Plug-In . SVG Version: 6.00 Build 0)  -->
<!DOCTYPE svg PUBLIC "-//W3C//DTD SVG 1.1 Tiny//EN" "http://www.w3.org/Graphics/SVG/1.1/DTD/svg11-tiny.dtd">
<svg version="1.1" baseProfile="tiny" id="Layer_1" xmlns="http://www.w3.org/2000/svg" xmlns:xlink="http://www.w3.org/1999/xlink"
	 x="0px" y="0px" width="800px" height="500px" viewBox="0 0 800 500" xml:space="preserve">
<polyline fill="none" stroke="#FC3C1D" stroke-width="5" stroke-miterlimit="10" points="453.348,21.055 421.348,82.335 
	439.16,119.416 "/>
<line fill="none" stroke="#FC3C1D" stroke-width="5" stroke-miterlimit="10" x1="80.16" y1="61.055" x2="112.16" y2="115.075"/>
<path d="M395.457,42.067"/>
<g>
	<polyline fill="#282828" points="193.472,31.945 173.389,48.179 185.369,51.013 	"/>
	<g>
		<polygon fill="#282828" points="93.16,31.888 84.826,58.287 116.493,112.075 143.493,60.928 116.826,83.696 		"/>
		<polygon fill="#282828" points="193.494,31.888 201.828,58.287 170.161,112.075 143.161,60.928 169.828,83.696 		"/>
		<polyline fill="#282828" points="93.16,31.888 94.113,32.168 113.222,48.054 101.566,50.961 		"/>
	</g>
	<g>
		<polygon fill="#282828" points="254.667,31.752 193.493,31.752 193.493,110.499 254.667,110.499 243.07,96.336 209.028,96.336 
			209.028,45.915 		"/>
		<polygon fill="#282828" points="210.34,66.15 215.27,76.693 238.174,76.693 243.393,66.15 		"/>
	</g>
	<g>
		<polygon fill="#282828" points="304.698,31.777 325.066,109.803 325.595,50.585 		"/>
		<path fill="#282828" d="M304.333,31.752l42.934,0.1c0,0,39.293-0.684,44.721,41.75c0,0,6.078,49.965-44.285,53.615l-22.578-17.568
			h18.887c0,0,30.611-0.91,26.92-33.992c0,0-1.086-23.272-25.4-25.555l-20.441,0.207L304.333,31.752z"/>
	</g>
	<g>
		<path fill="#282828" d="M281.642,50"/>
		<polygon fill="#282828" points="249.281,31.752 305.175,31.752 305.175,62.973 305.175,62.973 		"/>
		<polygon fill="#282828" points="249.281,134.658 305.175,134.658 305.175,104.794 		"/>
		<polyline fill="#282828" points="249.281,134.658 249.249,104.299 268.852,124.472 		"/>
		<polygon fill="#282828" points="281.735,49.854 249.302,81.373 282.254,117.234 305.175,104.794 282.018,81.754 305.175,62.973 		
			"/>
	</g>
	<g>
		<g>
			<polyline fill="#282828" points="344.349,168.059 371.496,168.059 452.16,12.578 421.348,12.578 			"/>
		</g>
		<g>
			<g>
				<g>
					<polygon fill="#282828" points="370.66,31.777 422.66,131.982 440.16,131.982 390.66,32.418 					"/>
				</g>
				<g>
				</g>
			</g>
			<polyline fill="#282828" points="370.66,31.777 390.41,31.752 398.578,48.345 			"/>
		</g>
	</g>
</g>
</svg>
