<?xml version="1.0" encoding="UTF-8" standalone="no"?>
<!-- Generator: Adobe Illustrator 16.0.0, SVG Export Plug-In . SVG Version: 6.00 Build 0)  -->

<svg
   xmlns:dc="http://purl.org/dc/elements/1.1/"
   xmlns:cc="http://creativecommons.org/ns#"
   xmlns:rdf="http://www.w3.org/1999/02/22-rdf-syntax-ns#"
   xmlns:svg="http://www.w3.org/2000/svg"
   xmlns="http://www.w3.org/2000/svg"
   xmlns:sodipodi="http://sodipodi.sourceforge.net/DTD/sodipodi-0.dtd"
   xmlns:inkscape="http://www.inkscape.org/namespaces/inkscape"
   version="1.1"
   id="Layer_1"
   x="0px"
   y="0px"
   width="423.94052"
   height="86.233101"
   viewBox="0 0 423.94052 86.233101"
   xml:space="preserve"
   sodipodi:docname="delphi.svg"
   inkscape:version="0.92.3 (2405546, 2018-03-11)"><metadata
   id="metadata125"><rdf:RDF><cc:Work
       rdf:about=""><dc:format>image/svg+xml</dc:format><dc:type
         rdf:resource="http://purl.org/dc/dcmitype/StillImage" /><dc:title></dc:title></cc:Work></rdf:RDF></metadata><defs
   id="defs123" /><sodipodi:namedview
   pagecolor="#ffffff"
   bordercolor="#666666"
   borderopacity="1"
   objecttolerance="10"
   gridtolerance="10"
   guidetolerance="10"
   inkscape:pageopacity="0"
   inkscape:pageshadow="2"
   inkscape:window-width="640"
   inkscape:window-height="480"
   id="namedview121"
   showgrid="false"
   fit-margin-top="0"
   fit-margin-left="0"
   fit-margin-right="0"
   fit-margin-bottom="0"
   inkscape:zoom="0.221875"
   inkscape:cx="239.76"
   inkscape:cy="50.066985"
   inkscape:window-x="0"
   inkscape:window-y="0"
   inkscape:window-maximized="0"
   inkscape:current-layer="Layer_1" />
<g
   id="g118"
   transform="translate(-400.24,-363.83388)">
	<path
   d="m 400.24,363.84 c 8.514,0.004 17.028,-0.028 25.543,0.024 6.537,0.04 12.916,1.009 18.845,3.931 9.627,4.745 14.66,12.671 15.564,23.231 0.554,6.464 -0.29,12.785 -3.132,18.699 -4.15,8.646 -11.243,13.688 -20.28,16.265 -4.337,1.235 -8.782,1.659 -13.277,1.664 -7.754,0.009 -15.509,0.019 -23.263,0.026 0,-21.28 0,-42.56 0,-63.84 z"
   id="path2"
   inkscape:connector-curvature="0"
   style="fill:#1e1e1e" />
	<path
   d="m 400.24,440.4 c 0.575,-0.145 0.445,-0.702 0.59,-1.072 1.748,-4.488 7.97,-6.156 11.505,-3.085 0.599,0.52 0.813,0.822 0.003,1.4 -0.82,0.586 -1.312,0.813 -2.302,0.089 -2.354,-1.723 -5.92,-0.068 -6.786,2.984 -0.974,3.436 1.174,6.765 4.453,6.926 1.101,0.056 2.129,-0.203 2.835,-1.021 0.671,-0.777 1.116,-0.525 1.759,-0.03 1.271,0.979 1.295,0.965 0.054,1.992 -3.56,2.944 -9.738,1.292 -11.498,-3.055 -0.146,-0.362 -0.012,-0.938 -0.612,-1.048 0,-0.32 0,-0.642 0,-0.96 0.191,-0.722 0.191,-1.44 0,-2.16 -10e-4,-0.32 -10e-4,-0.64 -10e-4,-0.96 z"
   id="path4"
   inkscape:connector-curvature="0"
   style="fill:#1e1e1e" />
	<path
   d="m 400.24,441.36 c 0.383,0.72 0.386,1.438 0,2.159 0,-0.719 0,-1.439 0,-2.159 z"
   id="path6"
   inkscape:connector-curvature="0"
   style="fill:#565656" />
	<path
   d="m 594.363,396.787 c 0,-8.879 0.017,-17.759 -0.023,-26.638 -0.004,-1.004 0.273,-1.254 1.262,-1.243 4.8,0.053 9.6,0.057 14.398,-0.002 1.042,-0.013 1.229,0.329 1.22,1.284 -0.044,5.759 -10e-4,11.519 -0.043,17.278 -0.007,0.95 0.173,1.302 1.219,1.29 4.958,-0.058 9.919,-0.05 14.878,-0.004 0.911,0.008 1.139,-0.254 1.133,-1.144 -0.039,-5.719 0.002,-11.439 -0.042,-17.158 -0.007,-0.913 0.249,-1.127 1.137,-1.119 4.879,0.044 9.759,0.046 14.638,-0.001 0.912,-0.009 1.124,0.248 1.123,1.137 -0.026,17.718 -0.027,35.438 0.002,53.156 10e-4,0.954 -0.253,1.197 -1.193,1.188 -4.839,-0.048 -9.68,-0.049 -14.519,0.001 -0.952,0.011 -1.19,-0.256 -1.187,-1.192 0.038,-7.719 -0.003,-15.438 0.049,-23.157 0.007,-1.093 -0.313,-1.314 -1.343,-1.303 -4.919,0.055 -9.839,0.047 -14.759,0.004 -0.892,-0.008 -1.141,0.218 -1.136,1.128 0.038,7.759 0.003,15.52 0.045,23.277 0.006,1.002 -0.264,1.256 -1.254,1.244 -4.799,-0.054 -9.6,-0.057 -14.397,0.003 -1.026,0.012 -1.232,-0.301 -1.229,-1.271 0.037,-8.919 0.021,-17.839 0.021,-26.758 z"
   id="path8"
   inkscape:connector-curvature="0"
   style="fill:#1e1e1e" />
	<path
   d="m 546.12,396.817 c 0,-8.88 0.015,-17.76 -0.021,-26.639 -0.004,-0.968 0.209,-1.279 1.233,-1.271 7.4,0.046 14.8,-0.003 22.2,0.037 3.77,0.02 7.503,0.397 11.114,1.593 9.592,3.178 13.631,12.137 9.492,21.388 -3.263,7.294 -9.229,11.096 -16.912,12.48 -1.814,0.328 -3.655,0.357 -5.498,0.396 -0.712,0.016 -0.98,-0.156 -0.963,-0.925 0.063,-2.719 0.068,-5.439 0.06,-8.159 -0.002,-0.588 0.176,-0.843 0.772,-0.956 1.629,-0.306 3.14,-0.934 4.477,-1.932 2.728,-2.038 3.77,-4.802 3.318,-8.112 -0.41,-3.015 -2.947,-4.986 -6.689,-5.232 -1.673,-0.11 -3.359,-0.007 -5.038,-0.062 -0.733,-0.024 -0.734,0.369 -0.73,0.896 0.016,1.92 0.007,3.84 0.007,5.76 0,12.479 -0.018,24.96 0.028,37.438 0.004,1.097 -0.303,1.309 -1.331,1.296 -4.759,-0.057 -9.52,-0.055 -14.278,-10e-4 -0.98,0.012 -1.27,-0.223 -1.265,-1.234 0.042,-8.921 0.024,-17.842 0.024,-26.761 z"
   id="path10"
   inkscape:connector-curvature="0"
   style="fill:#1e1e1e" />
	<path
   d="m 463.698,396.96 c 0,-8.919 0.013,-17.838 -0.021,-26.758 -0.003,-0.937 0.151,-1.302 1.213,-1.297 10.52,0.043 21.038,0.036 31.558,0.008 0.897,-0.002 1.249,0.16 1.221,1.162 -0.077,2.758 -0.07,5.52 -0.002,8.278 0.023,0.942 -0.291,1.11 -1.155,1.103 -4.959,-0.041 -9.919,-0.001 -14.878,-0.039 -0.819,-0.006 -1.094,0.181 -1.078,1.045 0.056,2.959 0.064,5.92 -0.004,8.878 -0.021,0.961 0.329,1.098 1.17,1.091 4.8,-0.037 9.601,0.008 14.398,-0.04 0.907,-0.009 1.14,0.235 1.12,1.13 -0.063,2.718 -0.061,5.44 -0.001,8.158 0.02,0.913 -0.188,1.218 -1.166,1.205 -4.799,-0.055 -9.6,0.002 -14.398,-0.048 -0.924,-0.01 -1.129,0.266 -1.118,1.146 0.049,3.759 0.047,7.519 0,11.277 -0.01,0.831 0.197,1.072 1.052,1.066 6.079,-0.038 12.158,-0.002 18.237,-0.039 0.902,-0.006 1.245,0.167 1.219,1.165 -0.075,2.798 -0.05,5.599 -0.012,8.397 0.011,0.722 -0.168,0.954 -0.928,0.952 -11.839,-0.022 -23.678,-0.029 -35.517,0.007 -1.056,0.003 -0.914,-0.572 -0.914,-1.214 0.005,-8.874 0.004,-17.753 0.004,-26.633 z"
   id="path12"
   inkscape:connector-curvature="0"
   style="fill:#1e1e1e" />
	<path
   d="m 506.321,396.771 c 0,-8.839 0.023,-17.679 -0.03,-26.517 -0.007,-1.15 0.354,-1.358 1.402,-1.347 4.679,0.054 9.358,0.063 14.038,-0.005 1.134,-0.017 1.462,0.232 1.458,1.419 -0.045,14.198 -0.014,28.396 -0.061,42.596 -0.004,1.194 0.335,1.431 1.461,1.419 5.52,-0.061 11.039,-0.006 16.559,-0.05 0.918,-0.007 1.143,0.264 1.125,1.149 -0.057,2.758 -0.05,5.52 -0.004,8.277 0.015,0.809 -0.166,1.097 -1.043,1.095 -11.278,-0.029 -22.558,-0.033 -33.836,0.004 -0.959,0.004 -1.09,-0.321 -1.087,-1.163 0.029,-8.959 0.018,-17.919 0.018,-26.877 z"
   id="path14"
   inkscape:connector-curvature="0"
   style="fill:#1e1e1e" />
	<path
   d="m 650.225,396.962 c 0,-8.918 0.021,-17.836 -0.026,-26.755 -0.006,-1.087 0.308,-1.314 1.339,-1.302 4.759,0.057 9.519,0.05 14.275,0.003 0.951,-0.009 1.294,0.173 1.291,1.222 -0.034,17.836 -0.033,35.674 0,53.51 0.002,0.988 -0.311,1.176 -1.217,1.167 -4.839,-0.041 -9.678,-0.05 -14.517,0.007 -0.99,0.012 -1.167,-0.316 -1.164,-1.217 0.031,-8.877 0.019,-17.756 0.019,-26.635 z"
   id="path16"
   inkscape:connector-curvature="0"
   style="fill:#1e1e1e" />
	<path
   d="m 696.992,377.398 c 3.034,1.281 4.041,2.946 3.448,5.545 -0.36,1.582 -1.402,2.559 -2.827,3.187 -1.076,0.474 -2.225,0.666 -3.389,0.689 -1.759,0.036 -3.519,-0.004 -5.276,0.026 -0.583,0.01 -0.864,-0.103 -0.861,-0.777 0.022,-5.398 0.024,-10.797 -10e-4,-16.195 -0.004,-0.68 0.271,-0.78 0.852,-0.771 1.959,0.03 3.922,-0.038 5.879,0.029 3.267,0.112 5.142,2.036 4.899,4.908 -0.141,1.678 -1.183,2.636 -2.724,3.359 z"
   id="path18"
   inkscape:connector-curvature="0"
   style="fill:#202020" />
	<path
   d="m 644.78,445.54 c 0,-3.23 0.053,-6.35 -0.028,-9.464 -0.029,-1.095 0.551,-1.038 1.248,-0.979 0.622,0.055 1.449,-0.374 1.43,0.924 -0.066,4.234 -0.04,8.474 -0.012,12.71 0.005,0.704 -0.176,0.908 -0.918,0.988 -1.683,0.185 -2.753,-0.306 -3.65,-1.868 -1.768,-3.073 -3.8,-5.995 -5.74,-9.01 -0.394,0.334 -0.218,0.715 -0.22,1.035 -0.017,2.918 -0.073,5.838 0.021,8.752 0.037,1.153 -0.554,1.095 -1.313,1.063 -0.686,-0.029 -1.392,0.222 -1.37,-1.002 0.077,-4.195 0.058,-8.395 0.009,-12.59 -0.012,-0.896 0.343,-0.944 1.098,-1.043 1.77,-0.229 2.816,0.407 3.709,1.976 1.502,2.632 3.27,5.112 4.937,7.65 0.185,0.285 0.29,0.653 0.799,0.858 z"
   id="path20"
   inkscape:connector-curvature="0"
   style="fill:#1e1e1e" />
	<path
   d="m 700.525,412.707 c -0.797,0 -1.581,-0.016 -2.365,0.005 -0.582,0.017 -0.698,-0.452 -0.908,-0.817 -1.213,-2.11 -2.416,-4.229 -3.628,-6.342 -0.339,-0.589 -2.376,-1.052 -2.875,-0.646 -0.291,0.235 -0.162,0.598 -0.163,0.903 -0.01,1.998 -0.066,3.998 0.018,5.991 0.051,1.19 -0.714,0.87 -1.331,0.906 -0.66,0.04 -1.206,0.11 -1.196,-0.921 0.052,-5.313 0.03,-10.627 0.016,-15.94 -10e-4,-0.557 0.055,-0.878 0.753,-0.859 2.076,0.057 4.161,-0.062 6.229,0.084 3.622,0.253 5.556,2.667 4.888,5.906 -0.351,1.697 -1.442,2.787 -3.021,3.25 -1.136,0.334 -0.981,0.697 -0.467,1.492 1.237,1.908 2.393,3.871 3.563,5.822 0.192,0.327 0.506,0.613 0.487,1.166 z"
   id="path22"
   inkscape:connector-curvature="0"
   style="fill:#202020" />
	<path
   d="m 443.104,439.027 c 0,1.462 0,2.924 0,4.386 0,1.599 0,3.198 0,4.797 0,1.314 -1.112,2.008 -2.314,1.455 -0.34,-0.156 -0.292,-0.438 -0.292,-0.709 -0.003,-4.396 -0.003,-8.794 0,-13.19 0,-0.232 -0.042,-0.486 0.213,-0.641 0.769,-0.464 3.348,0.157 3.853,0.93 2.049,3.144 4.096,6.286 6.15,9.44 0.438,-0.216 0.254,-0.579 0.255,-0.853 0.017,-2.838 0.075,-5.679 -0.021,-8.514 -0.04,-1.183 0.595,-1.05 1.333,-1.044 0.72,0.005 1.357,-0.171 1.334,1.026 -0.083,4.195 -0.056,8.395 -0.013,12.591 0.008,0.813 -0.271,0.932 -1.016,1.018 -1.67,0.193 -2.664,-0.389 -3.528,-1.88 -1.758,-3.033 -3.76,-5.926 -5.661,-8.876 -0.098,0.022 -0.195,0.044 -0.293,0.064 z"
   id="path24"
   inkscape:connector-curvature="0"
   style="fill:#1e1e1e" />
	<path
   d="m 777.758,376.546 c 0.336,-0.632 -0.378,-1.684 1.028,-1.655 1.074,0.022 1.413,0.26 1.385,1.38 -0.081,3.194 -0.041,6.391 -0.023,9.587 0.014,2.72 -0.574,5.17 -3.354,6.329 -3.005,1.253 -5.864,0.69 -8.515,-1.118 -0.342,-0.232 -0.463,-0.427 -0.166,-0.853 0.87,-1.25 1.023,-1.304 2.291,-0.469 0.777,0.514 1.633,0.841 2.559,0.951 3.397,0.399 5.078,-1.512 4.734,-5.583 -1.327,1.35 -2.865,1.922 -4.652,1.778 -1.815,-0.146 -3.301,-0.903 -4.354,-2.405 -1.819,-2.595 -1.347,-6.525 1.002,-8.513 2.319,-1.963 5.583,-1.757 8.065,0.571 z"
   id="path26"
   inkscape:connector-curvature="0"
   style="fill:#202020" />
	<path
   d="m 596.415,438.976 c 0,3.19 -0.057,6.383 0.03,9.57 0.031,1.157 -0.505,1.172 -1.361,1.16 -0.804,-0.012 -1.309,-0.005 -1.289,-1.112 0.076,-4.157 0.056,-8.317 0.01,-12.478 -0.01,-0.872 0.299,-0.965 1.081,-1.063 1.782,-0.225 2.805,0.441 3.707,1.995 1.683,2.896 3.624,5.641 5.467,8.462 0.406,-0.238 0.232,-0.595 0.234,-0.871 0.015,-2.88 0.057,-5.761 -0.012,-8.639 -0.031,-1.308 0.844,-0.848 1.455,-0.897 0.62,-0.051 1.225,-0.18 1.209,0.889 -0.063,4.279 -0.04,8.56 -0.012,12.839 0.005,0.701 -0.252,0.806 -0.894,0.886 -1.688,0.21 -2.755,-0.311 -3.653,-1.87 -1.769,-3.07 -3.799,-5.99 -5.721,-8.975 -0.083,0.033 -0.167,0.068 -0.251,0.104 z"
   id="path28"
   inkscape:connector-curvature="0"
   style="fill:#1e1e1e" />
	<path
   d="m 587.237,442.378 c -0.012,4.562 -3.205,7.656 -7.876,7.633 -4.502,-0.022 -7.571,-3.147 -7.541,-7.68 0.03,-4.586 3.231,-7.688 7.882,-7.638 4.544,0.049 7.546,3.112 7.535,7.685 z"
   id="path30"
   inkscape:connector-curvature="0"
   style="fill:#1e1e1e" />
	<path
   d="m 433.906,442.388 c -0.016,4.557 -3.215,7.649 -7.889,7.623 -4.496,-0.024 -7.572,-3.164 -7.536,-7.688 0.036,-4.577 3.253,-7.686 7.897,-7.629 4.543,0.053 7.542,3.119 7.528,7.694 z"
   id="path32"
   inkscape:connector-curvature="0"
   style="fill:#1e1e1e" />
	<path
   d="m 740.921,376.465 c 0,-2.627 0.048,-5.106 -0.023,-7.581 -0.028,-0.956 0.399,-1.03 1.136,-0.979 0.657,0.045 1.302,-0.176 1.29,0.961 -0.059,5.595 -0.038,11.191 -0.014,16.787 0.005,0.793 -0.05,1.244 -1.06,1.218 -0.92,-0.023 -1.473,-0.139 -1.28,-1.212 0.019,-0.102 -0.036,-0.216 -0.083,-0.458 -1.381,1.5 -3.031,2.117 -4.972,1.903 -1.448,-0.16 -2.679,-0.769 -3.653,-1.859 -2.09,-2.338 -2.096,-6.38 -0.02,-8.722 2.164,-2.44 5.313,-2.498 8.679,-0.058 z"
   id="path34"
   inkscape:connector-curvature="0"
   style="fill:#202020" />
	<path
   d="m 794.055,411.221 c -0.395,0.443 0.392,1.533 -0.926,1.514 -1.508,-0.022 -1.51,0.06 -1.51,-1.455 -10e-4,-5.479 0.029,-10.959 -0.027,-16.438 -0.01,-1.009 0.404,-1.09 1.196,-1.055 0.705,0.031 1.28,-0.082 1.24,1.006 -0.092,2.476 -0.028,4.957 -0.028,7.749 1.352,-1.482 2.845,-2.139 4.651,-2.021 1.837,0.121 3.308,0.884 4.369,2.375 1.815,2.545 1.452,6.539 -0.754,8.604 -2.262,2.116 -5.28,2.018 -8.211,-0.279 z"
   id="path36"
   inkscape:connector-curvature="0"
   style="fill:#202020" />
	<path
   d="m 503.521,449.535 c -2.226,0.723 -3.494,-0.164 -4.256,-2.204 -0.415,-1.109 -1.18,-2.083 -1.679,-3.168 -0.428,-0.931 -1.192,-0.681 -1.847,-0.619 -0.762,0.07 -0.387,0.763 -0.401,1.163 -0.051,1.354 -0.044,2.715 -0.009,4.072 0.017,0.632 -0.115,0.919 -0.844,0.927 -1.785,0.021 -1.785,0.062 -1.785,-1.777 0,-3.913 0.031,-7.827 -0.022,-11.738 -0.013,-0.917 0.252,-1.16 1.143,-1.117 1.713,0.085 3.438,-0.039 5.146,0.092 3.198,0.245 4.855,2.424 4.119,5.254 -0.325,1.249 -1.057,2.2 -2.293,2.552 -0.951,0.271 -0.731,0.62 -0.365,1.214 1.048,1.697 2.057,3.419 3.075,5.136 0.035,0.054 0.014,0.145 0.018,0.213 z"
   id="path38"
   inkscape:connector-curvature="0"
   style="fill:#1e1e1e" />
	<path
   d="m 730.782,411.204 c 0,2.192 -0.067,4.297 0.026,6.394 0.05,1.068 -0.435,1.112 -1.265,1.14 -0.874,0.026 -1.158,-0.188 -1.149,-1.117 0.051,-5.154 0.022,-10.31 0.026,-15.464 0,-0.676 -0.246,-1.417 0.984,-1.381 1.006,0.031 1.519,0.205 1.307,1.303 -0.012,0.063 0.038,0.14 0.125,0.429 1.438,-1.796 3.304,-2.227 5.376,-1.899 1.352,0.215 2.463,0.899 3.34,1.955 1.995,2.405 1.863,6.468 -0.285,8.717 -2.194,2.296 -5.29,2.305 -8.485,-0.077 z"
   id="path40"
   inkscape:connector-curvature="0"
   style="fill:#202020" />
	<path
   d="m 521.44,440.279 c -0.001,1.398 0.028,2.799 -0.008,4.195 -0.088,3.364 -2.449,5.555 -5.93,5.535 -3.387,-0.019 -5.734,-2.232 -5.791,-5.554 -0.049,-2.836 0.01,-5.675 -0.026,-8.512 -0.009,-0.697 0.231,-0.865 0.894,-0.869 1.739,-0.011 1.739,-0.043 1.739,1.682 0,2.397 -0.011,4.795 0.003,7.193 0.012,2.283 1.226,3.607 3.263,3.598 2.042,-0.011 3.22,-1.317 3.231,-3.625 0.013,-2.637 0.053,-5.275 -0.021,-7.911 -0.029,-1.037 0.541,-0.996 1.192,-0.907 0.585,0.077 1.537,-0.476 1.471,0.859 -0.07,1.437 -0.016,2.878 -0.017,4.316 z"
   id="path42"
   inkscape:connector-curvature="0"
   style="fill:#1e1e1e" />
	<path
   d="m 709.355,407.486 c -1.279,0 -2.563,0.041 -3.839,-0.016 -0.863,-0.037 -0.916,0.311 -0.688,0.995 0.845,2.543 4.194,3.386 6.34,1.581 0.806,-0.678 1.521,-0.564 2.159,0.289 0.349,0.467 -0.077,0.655 -0.288,0.864 -1.786,1.771 -3.951,2.168 -6.315,1.594 -2.257,-0.547 -3.735,-2.002 -4.269,-4.249 -0.566,-2.391 -0.208,-4.65 1.666,-6.411 1.792,-1.683 3.967,-1.994 6.263,-1.317 2.43,0.715 4.169,3.74 3.705,6.188 -0.103,0.545 -0.428,0.479 -0.774,0.479 -1.321,0.005 -2.64,10e-4 -3.96,0.003 z"
   id="path44"
   inkscape:connector-curvature="0"
   style="fill:#202020" />
	<path
   d="m 464.586,450.012 c -1.487,0.013 -2.831,-0.397 -4.015,-1.32 -0.494,-0.386 -0.709,-0.732 -0.083,-1.199 0.316,-0.236 0.605,-0.526 0.857,-0.833 0.371,-0.452 0.607,-0.383 1.034,0.006 1.176,1.071 2.692,1.276 3.87,0.638 1.37,-0.742 1.421,-2.356 0.087,-3.172 -0.861,-0.526 -1.854,-0.725 -2.79,-1.07 -2.376,-0.879 -3.253,-2.11 -3.099,-4.362 0.13,-1.891 1.557,-3.354 3.739,-3.808 1.787,-0.371 3.491,-0.183 5.084,0.774 0.563,0.338 0.758,0.661 0.161,1.157 -0.305,0.254 -0.573,0.559 -0.824,0.868 -0.331,0.404 -0.563,0.477 -1.039,0.086 -0.966,-0.791 -2.113,-0.895 -3.28,-0.453 -0.646,0.243 -1.047,0.731 -1.129,1.429 -0.084,0.722 0.267,1.264 0.883,1.563 0.678,0.329 1.396,0.588 2.114,0.824 3.1,1.022 4.262,2.53 3.845,5.032 -0.406,2.452 -2.394,3.861 -5.415,3.84 z"
   id="path46"
   inkscape:connector-curvature="0"
   style="fill:#1e1e1e" />
	<path
   d="m 661.483,450.022 c -3.016,-0.109 -5.492,-1.24 -6.775,-4.093 -1.342,-2.984 -1.15,-5.982 0.956,-8.575 2.013,-2.479 4.786,-3.021 7.813,-2.414 1.077,0.215 1.982,0.813 2.788,1.565 0.371,0.346 0.434,0.572 -0.025,0.926 -0.87,0.67 -1.471,1.151 -2.704,0.235 -2.135,-1.585 -5.519,-0.087 -6.506,2.614 -1.33,3.635 0.982,7.364 4.563,7.368 0.919,10e-4 1.823,-0.209 2.409,-0.879 0.783,-0.896 1.319,-0.634 2.148,-0.058 0.9,0.627 0.858,1.018 0.094,1.666 -1.383,1.177 -2.963,1.692 -4.761,1.645 z"
   id="path48"
   inkscape:connector-curvature="0"
   style="fill:#1e1e1e" />
	<path
   d="m 535.473,450.022 c -3.018,-0.104 -5.499,-1.239 -6.78,-4.088 -1.343,-2.981 -1.154,-5.984 0.952,-8.58 2.015,-2.481 4.79,-3.019 7.816,-2.413 1.076,0.215 1.983,0.813 2.788,1.566 0.371,0.35 0.439,0.57 -0.027,0.92 -0.865,0.649 -1.457,1.174 -2.698,0.244 -2.099,-1.57 -5.42,-0.146 -6.471,2.491 -1.438,3.617 0.896,7.479 4.518,7.487 0.921,0.003 1.826,-0.208 2.411,-0.877 0.782,-0.896 1.318,-0.643 2.148,-0.063 0.892,0.623 0.876,1 0.101,1.662 -1.383,1.182 -2.962,1.691 -4.758,1.651 z"
   id="path50"
   inkscape:connector-curvature="0"
   style="fill:#1e1e1e" />
	<path
   d="m 683.043,407.882 c 0,-12.833 0,-25.665 0,-38.497 0,-0.32 -0.005,-0.64 0.004,-0.959 0.006,-0.241 0.014,-0.489 0.354,-0.513 0.379,-0.026 0.48,0.197 0.483,0.516 0.003,0.28 0.005,0.56 0.005,0.84 0,25.705 0,51.409 0,77.114 0,0.08 0.017,0.163 -0.002,0.239 -0.086,0.375 0.249,1.029 -0.431,1.028 -0.705,-0.003 -0.398,-0.669 -0.399,-1.031 -0.017,-12.912 -0.014,-25.824 -0.014,-38.737 z"
   id="path52"
   inkscape:connector-curvature="0"
   style="fill:#363636" />
	<path
   d="m 749.805,400.523 c 3.749,-0.015 6.473,2.621 6.453,6.246 -0.018,3.58 -2.713,6.232 -6.354,6.256 -3.705,0.022 -6.442,-2.643 -6.446,-6.277 -0.004,-3.598 2.662,-6.212 6.347,-6.225 z"
   id="path54"
   inkscape:connector-curvature="0"
   style="fill:#202020" />
	<path
   d="m 812.174,400.891 c 2.576,-0.199 2.574,-0.197 3.422,1.949 0.918,2.326 1.84,4.65 2.883,7.286 0.94,-2.646 1.776,-4.991 2.606,-7.339 0.729,-2.063 0.726,-2.063 3.009,-1.918 0.212,0.288 -0.021,0.531 -0.112,0.764 -1.83,4.688 -3.652,9.377 -5.521,14.051 -0.968,2.422 -2.544,3.299 -4.841,2.979 -1.046,-0.146 -0.617,-0.807 -0.622,-1.32 -0.004,-0.492 0.013,-0.955 0.795,-0.771 1.208,0.284 1.963,-0.349 2.465,-1.405 0.702,-1.479 0.982,-2.829 0.156,-4.492 -1.56,-3.138 -2.808,-6.428 -4.24,-9.784 z"
   id="path56"
   inkscape:connector-curvature="0"
   style="fill:#202020" />
	<path
   d="m 761.738,402.646 c 1.164,-1.477 2.428,-2.181 4.08,-2.129 2.363,0.07 4.068,1.613 4.177,4.057 0.107,2.472 0.022,4.951 0.052,7.428 0.014,1.086 -0.781,0.646 -1.275,0.691 -0.517,0.045 -1.142,0.209 -1.121,-0.74 0.044,-2.116 0.054,-4.235 -0.007,-6.352 -0.071,-2.576 -1.896,-3.854 -3.952,-2.791 -1.357,0.703 -1.813,1.969 -1.838,3.402 -0.032,1.836 -0.067,3.678 0.011,5.512 0.041,0.947 -0.394,1.045 -1.136,0.993 -0.659,-0.045 -1.315,0.171 -1.294,-0.963 0.065,-3.313 0.014,-6.63 -0.002,-9.944 -0.003,-0.516 -0.158,-1.11 0.705,-0.992 0.646,0.091 1.658,-0.42 1.544,0.938 -0.016,0.187 0.021,0.383 0.056,0.89 z"
   id="path58"
   inkscape:connector-curvature="0"
   style="fill:#212121" />
	<path
   d="m 756.133,376.684 c 1.156,-1.413 2.45,-2.135 4.136,-2.055 1.948,0.092 3.527,1.205 3.912,3.103 0.575,2.841 0.233,5.738 0.214,8.607 -0.007,0.985 -1.022,0.341 -1.562,0.48 -0.521,0.134 -0.793,-0.098 -0.783,-0.703 0.03,-1.798 0.021,-3.597 0.005,-5.395 -0.006,-0.597 -0.044,-1.198 -0.129,-1.788 -0.166,-1.169 -0.741,-2.032 -1.978,-2.257 -1.259,-0.229 -2.279,0.198 -3.028,1.241 -0.563,0.782 -0.698,1.682 -0.696,2.618 0.003,1.798 -0.056,3.6 0.022,5.395 0.045,1.055 -0.586,0.905 -1.225,0.909 -0.646,0.005 -1.233,0.134 -1.223,-0.911 0.041,-3.436 -0.006,-6.872 -0.051,-10.308 -0.007,-0.537 0.179,-0.792 0.675,-0.672 0.543,0.13 1.344,-0.482 1.602,0.495 0.087,0.326 0.065,0.681 0.109,1.241 z"
   id="path60"
   inkscape:connector-curvature="0"
   style="fill:#212121" />
	<path
   d="m 712.172,385.142 c -1.095,1.271 -2.273,1.995 -3.826,1.999 -2.452,0.005 -4.178,-1.396 -4.338,-3.857 -0.166,-2.547 -0.07,-5.11 -0.107,-7.666 -0.016,-0.982 0.707,-0.664 1.187,-0.667 0.482,-0.003 1.191,-0.303 1.177,0.678 -0.024,1.677 -0.017,3.356 -10e-4,5.034 0.008,0.677 0.037,1.358 0.112,2.031 0.129,1.161 0.636,2.052 1.859,2.367 1.197,0.308 2.438,-0.154 3.155,-1.189 0.544,-0.784 0.729,-1.675 0.729,-2.611 0.004,-1.838 0.044,-3.677 -0.018,-5.513 -0.028,-0.891 0.478,-0.88 1.057,-0.804 0.532,0.071 1.354,-0.4 1.349,0.759 -0.013,3.476 0.018,6.951 0.052,10.427 0.007,0.499 -0.125,0.826 -0.65,0.691 -0.538,-0.137 -1.341,0.503 -1.593,-0.495 -0.08,-0.306 -0.081,-0.63 -0.144,-1.184 z"
   id="path62"
   inkscape:connector-curvature="0"
   style="fill:#202020" />
	<path
   d="m 552.462,443.521 c 0,1.681 -0.072,3.364 0.026,5.038 0.062,1.041 -0.373,1.198 -1.244,1.145 -0.764,-0.047 -1.451,0.144 -1.417,-1.103 0.09,-3.356 0.003,-6.72 0.05,-10.078 0.012,-0.828 -0.195,-1.146 -1.052,-1.065 -0.793,0.073 -1.607,-0.059 -2.396,0.034 -1.042,0.124 -1.048,-0.448 -1.043,-1.209 0.004,-0.748 -0.017,-1.244 1.033,-1.218 3.158,0.078 6.32,0.073 9.478,0.002 0.998,-0.023 1.105,0.38 1.065,1.188 -0.035,0.713 0.07,1.357 -1.015,1.237 -0.87,-0.097 -1.762,0.022 -2.638,-0.032 -0.713,-0.046 -0.875,0.245 -0.859,0.902 0.038,1.718 0.012,3.439 0.012,5.159 z"
   id="path64"
   inkscape:connector-curvature="0"
   style="fill:#1f1f1f" />
	<path
   d="m 777.481,400.514 c 1.719,0.021 3,0.385 4.059,1.348 0.284,0.258 0.713,0.611 0.118,0.921 -0.5,0.26 -0.753,1.403 -1.577,0.628 -0.969,-0.911 -2.055,-1.192 -3.304,-0.903 -0.651,0.151 -1.188,0.497 -1.268,1.257 -0.08,0.776 0.371,1.196 1.033,1.412 0.984,0.321 1.996,0.563 2.974,0.901 1.896,0.657 2.759,1.792 2.644,3.382 -0.129,1.757 -1.188,2.945 -3.049,3.366 -2.146,0.483 -4.131,0.149 -5.854,-1.283 -0.293,-0.243 -0.894,-0.608 -0.206,-0.978 0.514,-0.274 0.733,-1.521 1.669,-0.646 1,0.932 2.142,1.383 3.503,1.107 0.839,-0.17 1.523,-0.57 1.578,-1.537 0.049,-0.875 -0.547,-1.282 -1.275,-1.517 -0.836,-0.268 -1.688,-0.48 -2.525,-0.737 -1.9,-0.58 -2.753,-1.574 -2.729,-3.162 0.025,-1.68 1.032,-2.879 2.87,-3.353 0.534,-0.138 1.096,-0.17 1.339,-0.206 z"
   id="path66"
   inkscape:connector-curvature="0"
   style="fill:#202020" />
	<path
   d="m 720.857,400.52 c 1.569,-0.002 2.854,0.353 3.932,1.291 0.321,0.279 0.792,0.653 0.136,0.996 -0.487,0.256 -0.716,1.426 -1.58,0.577 -0.911,-0.895 -1.982,-1.153 -3.193,-0.894 -0.705,0.15 -1.271,0.5 -1.332,1.322 -0.06,0.782 0.422,1.174 1.077,1.385 0.984,0.316 1.999,0.555 2.975,0.896 1.909,0.672 2.656,1.706 2.554,3.422 -0.101,1.687 -1.148,2.879 -2.953,3.297 -2.094,0.487 -4.058,0.201 -5.767,-1.168 -0.273,-0.219 -1.114,-0.535 -0.388,-1.035 0.492,-0.34 0.786,-1.633 1.833,-0.596 0.966,0.959 2.174,1.311 3.528,0.973 0.754,-0.187 1.329,-0.58 1.405,-1.426 0.077,-0.871 -0.452,-1.324 -1.197,-1.565 -0.795,-0.261 -1.604,-0.479 -2.405,-0.714 -2.083,-0.609 -3.054,-1.729 -2.928,-3.381 0.132,-1.746 1.41,-3 3.396,-3.31 0.354,-0.053 0.715,-0.057 0.907,-0.07 z"
   id="path68"
   inkscape:connector-curvature="0"
   style="fill:#202020" />
	<path
   d="m 482.416,443.603 c 0,1.72 -0.063,3.441 0.021,5.156 0.057,1.164 -0.687,0.92 -1.327,0.924 -0.651,0.006 -1.339,0.22 -1.313,-0.938 0.073,-3.276 -0.048,-6.56 0.063,-9.833 0.043,-1.286 -0.384,-1.604 -1.535,-1.451 -0.55,0.073 -1.126,-0.048 -1.676,0.025 -1.027,0.137 -1.402,-0.176 -1.346,-1.281 0.044,-0.865 0.203,-1.153 1.127,-1.135 3.157,0.063 6.317,0.062 9.475,0.001 0.94,-0.02 1.043,0.389 0.984,1.135 -0.051,0.65 0.19,1.463 -0.955,1.269 -0.038,-0.007 -0.079,-0.004 -0.119,-0.001 -1.102,0.093 -2.553,-0.491 -3.212,0.24 -0.643,0.713 -0.152,2.14 -0.185,3.252 -0.022,0.877 -0.002,1.757 -0.002,2.637 z"
   id="path70"
   inkscape:connector-curvature="0"
   style="fill:#1e1e1e" />
	<path
   d="m 725.055,377.342 c 0,-2.796 0.052,-5.594 -0.026,-8.388 -0.027,-1.006 0.396,-1.104 1.191,-1.053 0.68,0.043 1.278,-0.128 1.269,0.985 -0.062,5.671 -0.059,11.345 -0.004,17.017 0.011,1.155 -0.672,0.889 -1.313,0.941 -0.75,0.063 -1.159,-0.054 -1.138,-0.994 0.061,-2.834 0.021,-5.671 0.021,-8.508 z"
   id="path72"
   inkscape:connector-curvature="0"
   style="fill:#222222" />
	<path
   d="m 809.858,403.32 c 0,2.8 -0.041,5.601 0.022,8.397 0.021,0.933 -0.365,1.063 -1.127,1.003 -0.657,-0.053 -1.31,0.17 -1.299,-0.965 0.055,-5.68 0.053,-11.359 0,-17.038 -0.01,-1.05 0.555,-0.941 1.204,-0.919 0.602,0.021 1.255,-0.219 1.225,0.882 -0.075,2.88 -0.025,5.76 -0.025,8.64 z"
   id="path74"
   inkscape:connector-curvature="0"
   style="fill:#222222" />
	<path
   d="m 565.341,442.446 c 0,2.112 -0.058,4.229 0.022,6.338 0.045,1.192 -0.728,0.887 -1.339,0.895 -0.624,0.008 -1.344,0.273 -1.326,-0.901 0.061,-4.265 0.062,-8.53 0,-12.795 -0.019,-1.202 0.733,-0.875 1.335,-0.88 0.607,-0.003 1.377,-0.308 1.332,0.889 -0.083,2.148 -0.024,4.302 -0.024,6.454 z"
   id="path76"
   inkscape:connector-curvature="0"
   style="fill:#1f1f1f" />
	<path
   d="m 627.002,442.438 c 0,2.112 -0.057,4.229 0.022,6.338 0.045,1.184 -0.714,0.903 -1.334,0.901 -0.614,-0.002 -1.35,0.294 -1.333,-0.894 0.061,-4.266 0.063,-8.531 -10e-4,-12.797 -0.019,-1.194 0.718,-0.892 1.324,-0.887 0.604,0.006 1.388,-0.323 1.344,0.88 -0.078,2.152 -0.022,4.307 -0.022,6.459 z"
   id="path78"
   inkscape:connector-curvature="0"
   style="fill:#1f1f1f" />
	<path
   d="m 749.774,380.999 c 0,1.68 -0.042,3.361 0.016,5.039 0.035,1.035 -0.655,0.793 -1.205,0.79 -0.541,-0.003 -1.214,0.27 -1.199,-0.781 0.049,-3.438 0.046,-6.879 0,-10.318 -0.013,-0.91 0.506,-0.85 1.069,-0.789 0.541,0.059 1.361,-0.375 1.331,0.78 -0.046,1.759 -0.012,3.519 -0.012,5.279 z"
   id="path80"
   inkscape:connector-curvature="0"
   style="fill:#222222" />
	<path
   d="m 720.944,380.899 c 0,1.679 -0.059,3.36 0.021,5.035 0.05,1.061 -0.594,0.887 -1.226,0.909 -0.681,0.023 -1.206,0.071 -1.188,-0.94 0.063,-3.356 0.063,-6.715 10e-4,-10.071 -0.02,-1.055 0.584,-0.89 1.218,-0.907 0.678,-0.018 1.244,-0.078 1.195,0.939 -0.079,1.675 -0.021,3.357 -0.021,5.035 z"
   id="path82"
   inkscape:connector-curvature="0"
   style="fill:#232323" />
	<path
   d="m 787.505,406.68 c 0,1.715 -0.063,3.432 0.023,5.143 0.055,1.088 -0.618,0.873 -1.229,0.891 -0.645,0.018 -1.228,0.135 -1.207,-0.912 0.064,-3.387 0.06,-6.775 0.005,-10.162 -0.018,-1.141 0.729,-0.781 1.283,-0.813 0.579,-0.032 1.196,-0.184 1.146,0.834 -0.082,1.668 -0.021,3.345 -0.021,5.019 z"
   id="path84"
   inkscape:connector-curvature="0"
   style="fill:#222222" />
	<path
   d="m 719.74,372.221 c -0.909,-0.113 -1.488,-0.567 -1.551,-1.505 -0.059,-0.864 0.69,-1.59 1.568,-1.577 0.882,0.013 1.592,0.742 1.535,1.611 -0.062,0.963 -0.684,1.357 -1.552,1.471 z"
   id="path86"
   inkscape:connector-curvature="0"
   style="fill:#252525" />
	<path
   d="m 750.119,370.825 c -0.057,0.813 -0.603,1.302 -1.506,1.372 -0.873,0.068 -1.65,-0.677 -1.603,-1.536 0.053,-0.924 0.591,-1.453 1.509,-1.515 0.877,-0.059 1.604,0.673 1.6,1.679 z"
   id="path88"
   inkscape:connector-curvature="0"
   style="fill:#252525" />
	<path
   d="m 786.202,398.091 c -0.88,-0.134 -1.438,-0.626 -1.445,-1.579 -0.009,-0.889 0.778,-1.57 1.685,-1.464 0.936,0.11 1.431,0.665 1.401,1.616 -0.025,0.837 -0.761,1.47 -1.641,1.427 z"
   id="path90"
   inkscape:connector-curvature="0"
   style="fill:#242424" />
	<path
   d="m 419.459,395.694 c 0,-6.239 0.021,-12.478 -0.023,-18.715 -0.007,-0.95 0.245,-1.231 1.191,-1.182 2.589,0.134 5.212,-0.262 7.765,0.393 6.515,1.671 10.182,6.132 11.551,12.464 1.333,6.163 0.764,12.282 -1.762,18.091 -2.572,5.921 -7.235,8.84 -13.681,8.917 -1.32,0.017 -2.644,-0.063 -3.958,0.023 -0.949,0.063 -1.108,-0.299 -1.103,-1.156 0.037,-6.278 0.02,-12.556 0.02,-18.835 z"
   id="path92"
   inkscape:connector-curvature="0"
   style="fill:#fefefe" />
	<path
   d="m 690.581,381.696 c 0,-3.021 0,-3.019 3.02,-3.002 0.84,0.004 1.674,0.025 2.48,0.287 1.12,0.363 1.841,1.062 1.943,2.297 0.109,1.322 -0.364,2.304 -1.513,2.852 -1.768,0.843 -3.671,0.523 -5.528,0.548 -0.474,0.007 -0.396,-0.408 -0.399,-0.712 -0.008,-0.757 -0.003,-1.513 -0.003,-2.27 z"
   id="path94"
   inkscape:connector-curvature="0"
   style="fill:#fdfdfd" />
	<path
   d="m 692.727,371.204 c 0.958,0.012 1.914,-0.007 2.843,0.316 1.008,0.352 1.611,1.021 1.682,2.097 0.07,1.092 -0.347,1.963 -1.345,2.471 -1.581,0.805 -3.291,0.416 -4.95,0.461 -0.479,0.013 -0.366,-0.435 -0.369,-0.729 -0.012,-1.118 0.083,-2.245 -0.029,-3.352 -0.114,-1.119 0.325,-1.424 1.333,-1.27 0.27,0.042 0.555,0.007 0.835,0.006 z"
   id="path96"
   inkscape:connector-curvature="0"
   style="fill:#fdfdfd" />
	<path
   d="m 693.056,397.103 c 0.849,0.049 1.858,-0.033 2.807,0.36 1.052,0.437 1.664,1.183 1.681,2.372 0.018,1.179 -0.529,1.974 -1.581,2.437 -1.602,0.705 -3.301,0.399 -4.963,0.434 -0.562,0.012 -0.407,-0.49 -0.411,-0.814 -0.015,-1.275 0.049,-2.556 -0.024,-3.827 -0.051,-0.844 0.294,-1.042 1.033,-0.968 0.432,0.041 0.875,0.006 1.458,0.006 z"
   id="path98"
   inkscape:connector-curvature="0"
   style="fill:#fdfdfd" />
	<path
   d="m 777.94,380.863 c -0.036,2.378 -1.794,4.118 -4.1,4.059 -2.207,-0.057 -3.834,-1.851 -3.821,-4.212 0.014,-2.426 1.713,-4.168 4.014,-4.116 2.26,0.052 3.944,1.891 3.907,4.269 z"
   id="path100"
   inkscape:connector-curvature="0"
   style="fill:#fefefe" />
	<path
   d="m 584.527,442.345 c -0.024,3.143 -2.146,5.351 -5.098,5.305 -2.867,-0.046 -4.91,-2.297 -4.888,-5.391 0.021,-2.979 2.13,-5.177 4.973,-5.184 2.894,-0.007 5.036,2.246 5.013,5.27 z"
   id="path102"
   inkscape:connector-curvature="0"
   style="fill:#fefefe" />
	<path
   d="m 431.194,442.325 c -0.015,3.146 -2.126,5.359 -5.075,5.323 -2.88,-0.037 -4.907,-2.259 -4.901,-5.369 0.006,-2.982 2.101,-5.186 4.947,-5.204 2.89,-0.019 5.042,2.228 5.029,5.25 z"
   id="path104"
   inkscape:connector-curvature="0"
   style="fill:#fefefe" />
	<path
   d="m 733.188,380.918 c -0.024,-2.487 1.567,-4.279 3.827,-4.305 2.265,-0.025 4.042,1.862 4.039,4.286 -0.004,2.369 -1.732,4.233 -3.95,4.256 -2.239,0.025 -3.891,-1.765 -3.916,-4.237 z"
   id="path106"
   inkscape:connector-curvature="0"
   style="fill:#fefefe" />
	<path
   d="m 801.745,406.761 c -0.004,2.48 -1.629,4.261 -3.895,4.265 -2.229,0.005 -3.993,-1.84 -4.021,-4.205 -0.028,-2.4 1.768,-4.323 4.034,-4.317 2.286,0.005 3.886,1.76 3.882,4.257 z"
   id="path108"
   inkscape:connector-curvature="0"
   style="fill:#fefefe" />
	<path
   d="m 495.32,439.309 c 0,-1.987 0,-2.001 2.033,-1.974 0.594,0.009 1.197,0.063 1.775,0.192 0.893,0.199 1.354,0.829 1.356,1.731 0.002,0.952 -0.486,1.604 -1.421,1.823 -1.059,0.25 -2.145,0.154 -3.222,0.157 -0.42,10e-4 -0.541,-0.233 -0.526,-0.614 0.018,-0.436 0.005,-0.876 0.005,-1.315 z"
   id="path110"
   inkscape:connector-curvature="0"
   style="fill:#fcfcfc" />
	<path
   d="m 738.544,406.686 c 0.022,2.476 -1.586,4.289 -3.846,4.338 -2.232,0.05 -4.018,-1.776 -4.063,-4.154 -0.047,-2.454 1.673,-4.363 3.951,-4.385 2.294,-0.023 3.935,1.719 3.958,4.201 z"
   id="path112"
   inkscape:connector-curvature="0"
   style="fill:#fefefe" />
	<path
   d="m 708.168,405.699 c -0.957,-0.001 -1.914,-0.012 -2.87,0.004 -0.472,0.008 -0.635,-0.153 -0.544,-0.643 0.26,-1.404 1.901,-2.65 3.569,-2.672 1.675,-0.022 2.849,0.896 3.231,2.452 0.15,0.612 0.066,0.896 -0.637,0.867 -0.913,-0.036 -1.831,-0.008 -2.749,-0.008 z"
   id="path114"
   inkscape:connector-curvature="0"
   style="fill:#fdfdfd" />
	<path
   d="m 745.904,406.729 c 0.01,-2.481 1.629,-4.225 3.927,-4.228 2.287,-0.002 3.927,1.758 3.937,4.226 0.012,2.523 -1.672,4.334 -3.993,4.299 -2.282,-0.036 -3.88,-1.81 -3.871,-4.297 z"
   id="path116"
   inkscape:connector-curvature="0"
   style="fill:#fefefe" />
</g>
</svg>