<?xml version="1.0" encoding="UTF-8" standalone="no"?>
<!-- Generator: Adobe Illustrator 16.0.0, SVG Export Plug-In . SVG Version: 6.00 Build 0)  -->

<svg
   xmlns:dc="http://purl.org/dc/elements/1.1/"
   xmlns:cc="http://creativecommons.org/ns#"
   xmlns:rdf="http://www.w3.org/1999/02/22-rdf-syntax-ns#"
   xmlns:svg="http://www.w3.org/2000/svg"
   xmlns="http://www.w3.org/2000/svg"
   xmlns:sodipodi="http://sodipodi.sourceforge.net/DTD/sodipodi-0.dtd"
   xmlns:inkscape="http://www.inkscape.org/namespaces/inkscape"
   version="1.1"
   id="Layer_1"
   x="0px"
   y="0px"
   width="1075.4539"
   height="307.86273"
   viewBox="0 0 1075.4539 307.86273"
   xml:space="preserve"
   sodipodi:docname="Disney.svg"
   inkscape:version="0.92.3 (2405546, 2018-03-11)"><metadata
   id="metadata45"><rdf:RDF><cc:Work
       rdf:about=""><dc:format>image/svg+xml</dc:format><dc:type
         rdf:resource="http://purl.org/dc/dcmitype/StillImage" /><dc:title></dc:title></cc:Work></rdf:RDF></metadata><defs
   id="defs43" /><sodipodi:namedview
   pagecolor="#ffffff"
   bordercolor="#666666"
   borderopacity="1"
   objecttolerance="10"
   gridtolerance="10"
   guidetolerance="10"
   inkscape:pageopacity="0"
   inkscape:pageshadow="2"
   inkscape:window-width="640"
   inkscape:window-height="480"
   id="namedview41"
   showgrid="false"
   fit-margin-top="0"
   fit-margin-left="0"
   fit-margin-right="0"
   fit-margin-bottom="0"
   inkscape:zoom="0.221875"
   inkscape:cx="592.85868"
   inkscape:cy="81.861836"
   inkscape:window-x="0"
   inkscape:window-y="0"
   inkscape:window-maximized="0"
   inkscape:current-layer="Layer_1" />
<g
   id="g38"
   transform="translate(-47.141319,-173.99911)">
	<path
   d="m 1122.593,323.147 c -0.442,82.597 -66.72,149.267 -147.878,148.756 -81.492,-0.514 -147.248,-67.746 -146.669,-149.965 0.58,-82.396 67.014,-148.523 148.621,-147.935 80.642,0.582 146.362,67.753 145.926,149.144 z"
   id="path2"
   inkscape:connector-curvature="0"
   style="fill:#333333" />
	<path
   d="m 187.343,347.089 c 0,8.996 0.181,17.997 -0.074,26.986 -0.134,4.729 1.091,6.734 6.344,7.493 29.404,4.248 58.169,2.605 85.835,-8.78 15.616,-6.426 28.311,-16.459 33.201,-33.564 4.477,-15.661 0.771,-30.328 -7.02,-44.122 C 294.933,276.163 279.656,261.335 262.164,248.871 210.272,211.892 152.761,192.033 88.6,193.167 c -7.48,0.132 -14.98,0.623 -22.274,2.599 -1.754,0.476 -3.91,0.754 -4.176,2.92 -0.237,1.932 1.654,2.639 3.092,3.49 1.435,0.85 3.043,1.768 2.605,3.807 -0.442,2.06 -2.358,2.038 -3.958,2.389 -2.811,0.617 -5.633,0.521 -8.448,0.104 -7.968,-1.186 -10.564,-6.272 -6.186,-13.121 5.066,-7.925 11.769,-13.559 21.583,-15.481 43.728,-8.568 86.429,-5.118 128.231,10.114 41.826,15.241 79.273,37.508 110.589,69.454 11.005,11.226 20.508,23.618 27.229,37.953 11.766,25.094 7.963,51.142 -10.652,71.813 -16.231,18.023 -37.159,27.633 -60.382,32.729 -24.812,5.443 -49.626,4.627 -74.285,-1.138 -2.925,-0.685 -3.917,-0.474 -4.667,2.653 -1.657,6.898 -5.6,10.029 -11.752,10.197 -6.7,0.184 -11.227,-3.023 -13.417,-9.703 -0.722,-2.201 -1.699,-4.573 -1.501,-6.771 0.528,-5.851 -2.608,-8.146 -7.41,-10.529 -20.771,-10.316 -39.389,-23.563 -53.887,-42.004 -0.719,-0.914 -1.399,-1.862 -2.06,-2.82 -9.746,-14.154 -8.361,-22.016 6.128,-31.479 15.434,-10.082 32.827,-15.131 50.768,-18.271 4.636,-0.813 6.53,-2.05 6.675,-7.178 0.291,-10.299 1.298,-20.608 3.583,-30.713 0.621,-2.745 1.396,-5.49 2.452,-8.093 0.985,-2.429 2.07,-5.272 5.199,-5.486 3.506,-0.238 5.355,2.396 6.696,5.153 4.846,9.962 5.532,20.835 6.451,31.59 0.943,11.04 0.732,11.063 12.004,11.319 17.708,0.404 35.22,2.047 51.963,8.384 7.07,2.676 13.659,6.225 18.791,11.912 10.688,11.846 8.39,26.521 -6.604,34.983 -4.6,2.596 -10.126,0.967 -15.01,-0.643 -2.386,-0.786 -1.593,-3.123 -0.503,-4.626 1.456,-2.009 3.314,-3.72 4.949,-5.604 3.681,-4.241 3.423,-6.295 -1.474,-8.915 -7.862,-4.205 -16.519,-6.064 -25.141,-7.831 -11.132,-2.281 -22.424,-2.981 -33.79,-2.816 -3.021,0.044 -4.271,0.621 -4.167,4.103 0.295,9.817 0.103,19.649 0.103,29.476 0.467,0.001 0.931,0.001 1.396,0.002 z"
   id="path4"
   inkscape:connector-curvature="0"
   style="fill:#333333" />
	<path
   d="m 696.458,349.59 c 8.88,-11.192 17.758,-21.959 27.544,-31.933 6.313,-6.434 12.852,-12.616 20.537,-17.399 9.834,-6.121 17.898,-4.713 24.539,4.9 8.318,12.045 9.848,25.711 5.07,39.119 -9.133,25.625 -27.399,41.853 -54.032,48.306 -0.964,0.233 -1.974,0.313 -2.966,0.392 -8.771,0.688 -8.64,0.72 -10.937,8.979 -5.473,19.683 -11.176,39.303 -16.574,59.006 -1.4,5.115 -1.884,10.475 -3.035,15.667 -1.206,5.437 -3.188,6.512 -8.077,3.813 -9.118,-5.033 -14.361,-12.902 -14.493,-23.424 -0.215,-17.153 4.138,-33.622 8.503,-50.024 2.734,-10.271 5.881,-20.433 8.906,-30.624 0.53,-1.787 1.093,-3.473 0.264,-5.317 -6.688,-14.872 -4.828,-29.536 1.282,-44.01 5.888,-13.948 14.22,-26.305 24.892,-37.051 1.196,-1.204 2.315,-3.208 4.543,-2.135 1.813,0.873 2.31,2.706 2.634,4.555 0.726,4.126 -0.268,7.883 -2.232,11.512 -5.381,9.931 -11.054,19.723 -15.438,30.152 -2.029,4.82 -4.23,9.807 -0.93,15.516 z"
   id="path6"
   inkscape:connector-curvature="0"
   style="fill:#333333" />
	<path
   d="m 456.305,288.017 c 8.514,-0.057 17.032,0.146 25.326,2.166 4.086,0.994 9.161,1.943 9.367,7.422 0.21,5.587 -4.859,6.712 -8.905,7.865 -11.774,3.355 -23.989,3.61 -36.099,4.515 -9.128,0.682 -18.305,0.96 -27.275,2.985 -2.995,0.677 -7.479,0.96 -7.464,4.515 0.019,4.002 4.71,3.237 7.556,3.719 13.961,2.362 28.23,2.097 42.161,4.759 3.577,0.684 7.115,1.669 10.591,2.769 22.894,7.244 25.006,34.727 9.128,48.52 -6.496,5.643 -14.07,8.842 -22.441,10.061 -16.969,2.473 -33.514,1.616 -48.905,-7.094 -4.271,-2.417 -7.912,-5.547 -10.89,-9.396 -7.553,-9.765 -4.646,-22.146 6.446,-27.623 3.773,-1.863 7.851,-2.938 12.011,-3.036 12.748,-0.299 25.225,1.539 37.286,5.735 3.249,1.13 7.371,2.342 7.232,6.522 -0.13,3.937 -3.981,5.408 -7.283,6.688 -6.297,2.442 -12.636,2.549 -19.012,0.205 -6.075,-2.232 -12.182,-4.378 -18.264,-6.592 -2.28,-0.83 -4.55,-0.867 -6.856,-0.169 -3.639,1.104 -6.4,3.185 -6.46,7.255 -0.059,4.072 2.959,5.649 6.381,6.57 7.564,2.034 15.217,1.424 22.824,0.472 8.416,-1.053 16.797,-2.422 24.933,-4.92 2.851,-0.876 5.715,-1.842 8.38,-3.157 3.414,-1.685 7.644,-3.464 7.608,-7.788 -0.036,-4.626 -4.784,-5.535 -8.215,-6.846 -12.909,-4.935 -26.453,-6.387 -40.153,-6.825 -7.153,-0.229 -14.333,-0.101 -21.416,-1.425 -15.735,-2.943 -21.021,-16.607 -11.347,-29.497 4.908,-6.539 11.942,-9.903 19.429,-12.462 14.379,-4.917 29.299,-5.835 44.326,-5.913 z"
   id="path8"
   inkscape:connector-curvature="0"
   style="fill:#333333" />
	<path
   d="m 585.342,341.597 c 0.635,12.477 -1.785,22.319 -7.483,31.304 -1.889,2.976 -4.234,5.553 -7.269,7.437 -5.844,3.628 -9.792,3.382 -14.926,-1.161 -7.452,-6.595 -12.538,-15.043 -17.903,-23.254 -4.454,-6.815 -8.748,-13.736 -13.228,-20.534 -0.845,-1.28 -1.684,-3.453 -3.553,-2.897 -1.702,0.507 -1.723,2.737 -1.828,4.321 -0.768,11.457 -1.399,22.923 -2.117,34.383 -0.221,3.502 -1.038,6.908 -2.237,10.191 -1.117,3.056 -2.694,5.985 -6.401,6.197 -3.93,0.225 -7.141,-1.454 -9.15,-4.952 -2.399,-4.172 -3.02,-8.891 -3.011,-13.506 0.035,-20.74 2.647,-41.168 9.575,-60.788 5.163,-14.622 10.096,-15.389 20.451,-3.692 9.852,11.124 17.404,23.914 25.729,36.142 2.15,3.159 4.372,6.272 6.614,9.367 1.915,2.642 3.341,1.68 3.923,-0.872 0.973,-4.265 0.684,-8.573 -0.103,-12.876 -3.046,-16.701 -9.263,-32.583 -12.665,-49.186 -0.823,-4.016 -2.708,-9.246 1.456,-11.48 4.445,-2.385 8.011,2.111 10.718,5.301 12.274,14.466 18.43,31.728 22.021,50.046 0.8,4.065 1.096,8.231 1.387,10.509 z"
   id="path10"
   inkscape:connector-curvature="0"
   style="fill:#333333" />
	<path
   d="m 650.328,288.777 c 9.979,-0.94 17.862,2.915 23.945,10.638 3.255,4.133 2.366,7.737 -2.314,10.093 -2.1,1.057 -4.383,1.389 -6.748,1.539 -9.64,0.614 -19.278,1.274 -28.902,2.091 -6.024,0.512 -9.717,6.212 -8.124,12.064 0.709,2.604 2.962,2.5 4.816,2.649 5.976,0.482 11.968,0.751 17.958,1.056 4.908,0.251 7.29,2.545 7.507,7.332 0.207,4.571 -2.199,7.872 -6.851,8.206 -6.637,0.477 -13.313,0.39 -19.975,0.509 -12.142,0.217 -12.89,0.83 -15.279,12.765 -0.099,0.489 -0.196,0.979 -0.264,1.473 -0.905,6.718 -0.071,7.564 6.741,6.449 8.371,-1.37 16.718,-2.878 25.086,-4.268 2.952,-0.49 5.863,-0.851 8.763,0.672 7.961,4.181 8.752,9.561 1.819,15.029 -12.695,10.015 -27.077,16.075 -43.229,17.698 -8.628,0.867 -15.378,-2.446 -19.858,-9.786 -4.662,-7.637 -6.967,-15.752 -3.752,-24.716 1.512,-4.215 2.551,-8.597 3.939,-12.858 0.994,-3.056 1.452,-5.765 -0.101,-9.034 -2.028,-4.272 1.145,-7.406 4.617,-8.553 7.187,-2.372 8.433,-8.112 9.649,-14.221 0.455,-2.286 -0.09,-3.729 -2.32,-4.775 -3.446,-1.617 -7.035,-3.066 -9.911,-5.677 -4.493,-4.078 -3.829,-7.968 1.858,-10.106 7.251,-2.727 14.979,-2.955 22.56,-3.876 4.79,-0.582 9.625,-0.772 14.438,-1.172 4.646,-0.385 9.289,-0.811 13.932,-1.221 z"
   id="path12"
   inkscape:connector-curvature="0"
   style="fill:#333333" />
	<path
   d="m 387.326,195.832 c 4.815,-0.215 9.542,0.354 13.712,2.492 7.873,4.035 15.036,9.217 23.518,12.386 6.544,2.444 8.361,11.106 5.775,19.812 -3.169,10.67 -10.324,18.548 -18.703,25.31 -14.493,11.696 -30.272,20.05 -49.843,17.224 -1.479,-0.214 -2.971,-0.409 -4.419,-0.767 -2.781,-0.686 -4.849,-0.828 -7.22,1.92 -4.598,5.326 -11.504,3.525 -12.477,-3.467 -0.938,-6.755 -3.637,-12.531 -6.265,-18.594 -3.69,-8.513 -2.351,-16.982 2.429,-24.835 12.212,-20.06 30.396,-29.997 53.493,-31.481 z"
   id="path14"
   inkscape:connector-curvature="0"
   style="fill:#333333" />
	<path
   d="m 378.912,350.437 c 0,9.315 0.351,18.647 -0.096,27.942 -0.475,9.867 -5.066,13.155 -13.831,11.006 -3.625,-0.888 -5.646,-3.244 -6.982,-6.475 -1.874,-4.527 -2.542,-9.356 -2.694,-14.138 -0.683,-21.462 -0.728,-42.917 2.69,-64.212 0.553,-3.448 1.426,-6.835 2.985,-9.986 1.041,-2.104 2.186,-4.345 4.915,-4.394 2.921,-0.054 4.97,1.589 6.324,4.137 3.202,6.022 3.983,12.688 4.573,19.267 1.101,12.253 1.691,24.552 2.493,36.832 -0.125,0.007 -0.251,0.014 -0.377,0.021 z"
   id="path16"
   inkscape:connector-curvature="0"
   style="fill:#333333" />
	<path
   d="m 793.011,312.381 c 0,-28.643 0.179,-57.288 -0.147,-85.927 -0.065,-5.812 3.274,-4.16 6.259,-4.447 3.49,-0.337 5.12,0.254 5.095,4.594 -0.331,57.118 -0.415,114.237 -0.634,171.355 -0.006,1.633 1.129,4.212 -1.095,4.788 -2.496,0.646 -5.368,0.586 -7.911,0.051 -1.734,-0.365 -0.849,-2.617 -0.852,-3.987 -0.054,-28.81 -0.04,-57.618 -0.04,-86.427 -0.225,0 -0.451,0 -0.675,0 z"
   id="path18"
   inkscape:connector-curvature="0"
   style="fill:#333333" />
	<path
   d="m 953.049,287.416 c 15.164,-12.368 28.928,-13.914 44.648,-5.245 15.744,8.682 25.273,26.995 23.072,44.337 -2.873,22.636 -20.315,39.099 -42.659,40.263 -21.354,1.112 -41.593,-14.203 -46.548,-35.456 -0.861,-3.692 -1.15,-7.59 -1.168,-11.396 -0.112,-23.163 0.002,-46.328 -0.155,-69.49 -0.022,-3.409 0.717,-4.719 4.344,-4.474 4.812,0.325 9.673,0.291 14.488,0.007 3.215,-0.189 3.859,0.974 3.819,3.96 -0.16,11.829 -0.057,23.662 -0.039,35.494 0.003,0.59 0.115,1.18 0.198,2 z"
   id="path20"
   inkscape:connector-curvature="0"
   style="fill:#fefefe" />
	<path
   d="m 902.994,353.801 c -12.644,14.036 -27.06,14.316 -41.972,7.476 -16.342,-7.495 -25.237,-20.829 -26.014,-38.832 -1.014,-23.56 15.695,-43.778 37.77,-46.494 24.644,-3.032 46.587,12.167 51.623,35.876 0.615,2.902 0.805,5.94 0.824,8.918 0.094,13.811 -0.038,27.624 0.141,41.434 0.04,3.071 -0.755,4.021 -3.861,3.861 -4.978,-0.256 -9.987,-0.181 -14.97,0.054 -2.776,0.131 -3.874,-0.628 -3.593,-3.525 0.247,-2.561 0.052,-5.164 0.052,-8.768 z"
   id="path22"
   inkscape:connector-curvature="0"
   style="fill:#fefefe" />
	<path
   d="m 1115.729,311.923 c -3.607,0 -6.94,-0.162 -10.254,0.034 -6.677,0.397 -11.882,-0.252 -16.805,-6.685 -7.908,-10.334 -23.682,-9.505 -32.577,0.135 -8.934,9.68 -7.855,25.038 2.336,33.319 10.237,8.316 25.613,6.275 32.862,-4.757 2.012,-3.062 3.969,-4.192 7.503,-4.008 5.606,0.293 11.239,0.078 16.913,0.078 -3.886,21.469 -24.585,37.375 -45.992,35.61 -23.804,-1.961 -41.439,-20.473 -41.906,-43.983 -0.455,-23.042 16.526,-43.233 38.388,-45.642 23.737,-2.613 44.276,12.052 49.532,35.899 z"
   id="path24"
   inkscape:connector-curvature="0"
   style="fill:#fefefe" />
	<path
   d="m 159.169,343.132 c 0,8.655 -0.042,17.311 0.027,25.965 0.018,2.317 -0.155,3.326 -2.981,2.22 -18.849,-7.375 -36.701,-16.469 -51.659,-30.355 -10.248,-9.515 -8.965,-15.024 4.471,-19.396 15.64,-5.088 31.968,-5.874 48.225,-6.984 3.208,-0.22 2.452,1.899 2.458,3.588 0.03,8.32 0.014,16.642 0.014,24.963 -0.186,-10e-4 -0.37,-10e-4 -0.555,-10e-4 z"
   id="path26"
   inkscape:connector-curvature="0"
   style="fill:#fefefe" />
	<path
   d="m 720.065,366.731 c 9.163,-15.948 17.818,-31.469 29.335,-45.148 0.853,-1.013 1.838,-1.936 2.861,-2.777 4.298,-3.53 8.292,-2.257 9.633,3.204 1.215,4.949 0.887,9.906 -0.64,14.777 -4.99,15.94 -23.601,29.713 -41.189,29.944 z"
   id="path28"
   inkscape:connector-curvature="0"
   style="fill:#fefefe" />
	<path
   d="m 359.805,253.859 c 12.618,-13.339 24.757,-25.281 40.485,-32.827 1.771,-0.849 3.764,-1.396 5.713,-1.685 6.813,-1.009 11.551,4.154 10.312,10.993 -0.591,3.251 -2.127,6.063 -4.458,8.2 -14.435,13.221 -31.04,19.439 -52.052,15.319 z"
   id="path30"
   inkscape:connector-curvature="0"
   style="fill:#fefefe" />
	<path
   d="m 345.54,240.842 c -1.492,-11.522 10.808,-21.966 28.804,-24.825 -10.874,7.351 -20.413,14.774 -28.804,24.825 z"
   id="path32"
   inkscape:connector-curvature="0"
   style="fill:#fafafa" />
	<path
   d="m 975.839,297.746 c 12.722,0.005 22.697,10.186 22.545,23.01 -0.149,12.642 -10.035,22.507 -22.559,22.511 -12.563,0.004 -22.833,-10.436 -22.652,-23.023 0.181,-12.483 10.275,-22.503 22.666,-22.498 z"
   id="path34"
   inkscape:connector-curvature="0"
   style="fill:#333333" />
	<path
   d="m 902.132,320.486 c 0.004,12.836 -10.05,22.898 -22.765,22.786 -12.405,-0.109 -22.358,-10.239 -22.364,-22.762 -0.006,-12.736 10.16,-22.87 22.84,-22.765 12.498,0.104 22.285,10.089 22.289,22.741 z"
   id="path36"
   inkscape:connector-curvature="0"
   style="fill:#333333" />
</g>
</svg>