<?xml version="1.0" encoding="UTF-8" standalone="no"?>
<!-- Generator: Adobe Illustrator 16.0.0, SVG Export Plug-In . SVG Version: 6.00 Build 0)  -->

<svg
   xmlns:dc="http://purl.org/dc/elements/1.1/"
   xmlns:cc="http://creativecommons.org/ns#"
   xmlns:rdf="http://www.w3.org/1999/02/22-rdf-syntax-ns#"
   xmlns:svg="http://www.w3.org/2000/svg"
   xmlns="http://www.w3.org/2000/svg"
   xmlns:sodipodi="http://sodipodi.sourceforge.net/DTD/sodipodi-0.dtd"
   xmlns:inkscape="http://www.inkscape.org/namespaces/inkscape"
   version="1.1"
   id="Layer_1"
   x="0px"
   y="0px"
   width="589.638"
   height="99.848007"
   viewBox="0 0 589.638 99.848007"
   xml:space="preserve"
   sodipodi:docname="harley.svg"
   inkscape:version="0.92.3 (2405546, 2018-03-11)"><metadata
   id="metadata45"><rdf:RDF><cc:Work
       rdf:about=""><dc:format>image/svg+xml</dc:format><dc:type
         rdf:resource="http://purl.org/dc/dcmitype/StillImage" /><dc:title></dc:title></cc:Work></rdf:RDF></metadata><defs
   id="defs43" /><sodipodi:namedview
   pagecolor="#ffffff"
   bordercolor="#666666"
   borderopacity="1"
   objecttolerance="10"
   gridtolerance="10"
   guidetolerance="10"
   inkscape:pageopacity="0"
   inkscape:pageshadow="2"
   inkscape:window-width="640"
   inkscape:window-height="480"
   id="namedview41"
   showgrid="false"
   fit-margin-top="0"
   fit-margin-left="0"
   fit-margin-right="0"
   fit-margin-bottom="0"
   inkscape:zoom="0.221875"
   inkscape:cx="294.76"
   inkscape:cy="83.565"
   inkscape:window-x="0"
   inkscape:window-y="0"
   inkscape:window-maximized="0"
   inkscape:current-layer="Layer_1" />
<g
   id="g38"
   transform="translate(-345.24,-383.71699)">
	<path
   d="m 345.24,405.32 c 3.201,-5.13 6.399,-10.26 9.604,-15.388 0.716,-1.147 1.461,-2.277 2.163,-3.433 0.404,-0.665 1.017,-0.625 1.659,-0.624 20.919,0.005 41.839,0.004 62.758,0.004 4.88,0 9.771,0.207 14.637,-0.054 5.588,-0.3 11.165,-0.045 16.745,-0.182 0.357,-0.009 0.765,-0.074 1.064,0.066 0.505,0.236 1.026,0.516 0.59,1.299 -1.633,2.932 -3.219,5.889 -4.826,8.835 -0.147,0.272 -0.33,0.526 -0.468,0.802 -1.142,2.289 -1.094,2.191 1.452,2.46 8.91,0.942 17.839,0.293 26.757,0.428 7.878,0.119 15.76,-0.038 23.638,0.076 1.65,0.024 2.605,-0.453 3.343,-1.863 1.803,-3.451 3.686,-6.86 5.541,-10.284 0.388,-0.713 0.8,-1.413 1.189,-2.124 0.306,-0.558 0.773,-0.673 1.384,-0.672 9.561,0.017 19.12,0.01 28.68,0.015 1.179,0 1.47,0.445 0.899,1.553 -1.076,2.092 -2.216,4.151 -3.344,6.216 -0.979,1.794 -1.975,3.58 -2.969,5.366 -0.429,0.769 -0.057,0.984 0.661,1.028 0.718,0.043 1.409,-0.209 2.101,-0.221 4.206,-0.073 8.349,0.328 12.244,2.083 1.126,0.507 2.199,1.137 3.146,1.944 0.405,0.346 0.662,0.462 0.969,-0.152 0.43,-0.859 1.045,-1.629 1.465,-2.493 0.343,-0.707 0.789,-0.945 1.563,-0.942 6.439,0.027 12.883,-0.092 19.318,0.081 1.969,0.053 2.829,-0.753 3.677,-2.28 2.173,-3.913 4.501,-7.739 6.719,-11.627 0.35,-0.611 0.737,-0.807 1.396,-0.807 22.919,0.011 45.839,-0.052 68.758,0.064 4.284,0.021 8.136,1.728 11.356,4.712 2.583,2.393 4.355,5.268 5.366,8.6 0.245,0.815 0.555,0.951 1.271,0.799 1.934,-0.41 3.919,-0.76 5.862,-0.455 8.396,1.322 16.84,0.517 25.259,0.657 8.438,0.141 16.881,-0.072 25.317,0.1 2.237,0.045 3.309,-0.783 4.336,-2.584 2.198,-3.855 4.616,-7.585 6.974,-11.349 0.313,-0.499 0.763,-0.799 1.474,-0.796 10.16,0.03 20.319,0.017 30.479,0.024 1.356,10e-4 1.736,0.569 1.028,1.75 -1.61,2.683 -3.317,5.307 -4.984,7.955 -0.679,1.078 -1.388,2.139 -2.021,3.242 -0.307,0.535 -0.328,1.177 0.511,1.187 1.226,0.014 2.415,0.252 3.58,0.536 0.871,0.212 1.282,-0.165 1.648,-0.774 1.55,-2.581 3.088,-5.17 4.626,-7.759 1.222,-2.057 2.451,-4.109 3.642,-6.184 0.256,-0.446 0.595,-0.438 0.992,-0.438 10.119,0.002 20.239,-10e-4 30.359,0.005 1.115,0.001 1.381,0.452 0.782,1.502 -1.892,3.32 -3.83,6.612 -5.753,9.914 -0.39,0.668 -0.798,1.326 -1.176,2 -0.479,0.857 -0.277,1.209 0.732,1.215 2.521,0.016 5.046,-0.112 7.558,0.036 3.017,0.177 6.075,0.365 8.798,1.909 1.107,0.63 2.266,1.199 3.193,2.124 0.641,0.639 1.271,0.84 2.235,0.299 2.661,-1.496 5.494,-2.563 8.512,-3.202 3.671,-0.776 7.324,-0.809 11.039,-0.472 3.755,0.341 7.178,1.479 10.252,3.644 0.8,0.563 1.572,1.194 2.24,1.903 0.682,0.727 1.099,0.518 1.594,-0.156 1.035,-1.405 1.803,-2.969 2.643,-4.487 0.294,-0.533 0.625,-0.647 1.188,-0.645 4.959,0.023 9.919,0.017 14.879,0.012 2.969,-0.002 5.926,-0.238 8.884,-0.381 3.341,-0.162 6.596,0.771 9.37,2.894 3.575,2.734 5.696,6.217 6.284,10.768 0.607,4.707 -1.305,8.51 -3.655,12.267 -2.256,3.603 -4.468,7.229 -6.686,10.855 -0.556,0.91 -0.294,1.277 0.888,1.277 7.04,0.004 14.079,0.002 21.119,0.002 2.84,0 5.683,0.066 8.521,-0.021 1.953,-0.062 3.876,0.282 5.82,0.275 0.988,-0.004 0.886,0.674 0.563,1.27 -1.377,2.547 -2.795,5.07 -4.186,7.61 -1.964,3.589 -3.933,7.176 -5.855,10.784 -0.379,0.711 -0.924,0.729 -1.576,0.729 -9.04,-0.009 -18.08,-0.006 -27.12,-0.006 -5.279,0 -10.56,-0.005 -15.839,0.002 -4.186,0.004 -7.865,-1.292 -10.921,-4.211 -0.641,-0.61 -1.148,-0.835 -1.658,0.197 -0.477,0.967 -1.256,1.795 -1.658,2.783 -0.363,0.893 -0.894,1.007 -1.715,1.002 -4.6,-0.029 -9.211,0.192 -13.796,-0.069 -4.987,-0.284 -9.967,-0.183 -14.944,-0.133 -2.937,0.029 -5.842,0.842 -8.817,0.674 -3.199,-0.181 -6.365,-0.577 -9.359,-1.755 -1.661,-0.651 -3.056,-1.817 -4.438,-2.942 -0.418,-0.339 -0.778,-0.522 -1.26,-0.178 -3.264,2.346 -7.001,3.511 -10.869,4.322 -0.917,0.193 -1.869,0.226 -2.807,0.305 -2.439,0.208 -4.891,0.182 -7.317,-0.026 -2.967,-0.255 -6.028,-0.407 -8.672,-1.938 -1.484,-0.858 -2.604,-0.854 -4.149,-0.135 -2.166,1.007 -4.536,1.45 -6.97,1.671 -3.063,0.278 -6.232,0.217 -8.699,-1.373 -2.803,-1.808 -4.778,-0.164 -7.095,0.476 -5.281,1.458 -10.397,1.393 -15.17,-1.702 -0.386,-0.251 -0.728,-0.227 -1.127,-0.009 -2.312,1.257 -4.777,2.162 -7.335,2.696 -1.774,0.371 -3.633,0.18 -5.412,-0.253 -3.258,-0.79 -6.009,-2.47 -8.287,-4.923 -0.903,-0.973 -1.639,-2.07 -2.268,-3.236 -0.426,-0.791 -0.833,-0.759 -1.377,-0.094 -1.267,1.549 -2.577,3.061 -3.853,4.603 -1.395,1.688 -2.763,3.396 -4.152,5.089 -2.264,2.752 -4.52,5.511 -6.81,8.238 -1.92,2.287 -3.88,4.54 -5.835,6.798 -0.229,0.264 -0.519,0.482 -0.811,0.679 -0.699,0.468 -1.436,1.059 -2.285,0.408 -0.811,-0.618 -0.625,-1.569 -0.532,-2.417 0.19,-1.746 0.452,-3.483 0.677,-5.228 0.315,-2.439 0.725,-4.875 0.9,-7.326 0.127,-1.766 0.489,-3.501 0.549,-5.271 0.032,-0.952 -0.235,-1.232 -1.148,-0.738 -2.178,1.177 -4.437,2.101 -6.887,2.633 -3.198,0.697 -6.268,0.419 -9.288,-0.705 -0.712,-0.265 -1.427,-0.528 -2.076,-0.999 -0.787,-0.569 -1.514,0.182 -2.191,0.47 -3.034,1.289 -6.146,2.218 -9.469,2.123 -4.113,-0.117 -7.751,-1.475 -10.71,-4.429 -0.367,-0.366 -0.792,-0.691 -1.093,-1.106 -0.498,-0.686 -1.037,-0.476 -1.522,-0.104 -3.674,2.813 -7.887,4.348 -12.382,5.138 -1.188,0.208 -2.417,0.3 -3.653,0.297 -12.12,-0.036 -24.24,-0.048 -36.358,0.01 -1.56,0.007 -1.722,-0.677 -1.106,-1.801 2.409,-4.399 4.88,-8.766 7.306,-13.154 1.568,-2.838 3.101,-5.694 4.646,-8.544 0.44,-0.813 0.859,-1.64 1.319,-2.442 0.504,-0.881 0.14,-1.191 -0.737,-1.21 -0.16,-0.003 -0.32,-10e-4 -0.48,-10e-4 -4.64,0 -9.278,0.013 -13.919,-0.007 -1.302,-0.005 -2.123,0.504 -2.766,1.703 -3.139,5.849 -6.381,11.643 -9.563,17.467 -2.182,3.995 -4.307,8.022 -6.49,12.018 -3.573,6.534 -7.183,13.049 -10.752,19.584 -0.555,1.013 -0.946,2.113 -1.726,2.997 -10,0 -20,0 -30,0 -0.964,-0.486 -0.723,-1.205 -0.358,-1.931 1.146,-2.289 2.445,-4.496 3.667,-6.743 3.304,-6.077 6.64,-12.138 9.959,-18.205 0.375,-0.688 0.321,-1.188 -0.35,-1.629 -0.668,-0.438 -1.357,-0.873 -1.904,-1.453 -0.733,-0.779 -1.442,-0.743 -2.354,-0.306 -3.323,1.601 -6.759,2.904 -10.378,3.685 -4.105,0.884 -8.231,1.159 -12.372,0.296 -1.89,-0.395 -3.696,-1.077 -5.31,-2.147 -0.958,-0.635 -1.801,-0.639 -2.779,-0.083 -1.322,0.75 -2.708,1.391 -4.164,1.844 -7.673,2.39 -15.543,0.128 -19.903,-6.925 -0.788,-1.273 -1.265,-2.668 -1.732,-4.072 -0.097,-0.286 -0.098,-0.703 -0.501,-0.729 -0.376,-0.021 -0.503,0.351 -0.65,0.624 -1.801,3.344 -3.756,6.606 -5.458,10.001 -0.792,1.58 -1.758,2.261 -3.616,2.234 -7.838,-0.108 -15.678,-0.081 -23.517,-0.026 -2.75,0.02 -5.335,-0.467 -7.702,-1.874 -0.986,-0.587 -1.834,-0.593 -2.911,-0.115 -4.328,1.917 -8.794,2.933 -13.532,1.623 -2.111,-0.584 -4.021,-1.545 -5.773,-2.849 -0.97,-0.722 -1.241,-0.732 -1.679,0.396 -0.893,2.296 -2.467,2.87 -4.859,2.854 -15.758,-0.104 -31.518,-0.054 -47.276,-0.054 -0.439,0 -0.88,0.009 -1.318,-0.006 -1.897,-0.063 -2.402,-0.976 -1.479,-2.669 5.954,-10.916 11.902,-21.836 17.815,-32.773 2.565,-4.748 5.188,-9.467 7.74,-14.224 0.695,-1.293 0.625,-1.445 -0.88,-1.445 -13.158,-0.005 -26.317,0.001 -39.477,-0.012 -0.895,0 -1.886,0.197 -2.466,-0.808 -0.002,-0.244 -0.002,-0.483 -0.002,-0.724 z"
   id="path2"
   inkscape:connector-curvature="0" />
	<path
   d="m 670.676,405.038 c 1.711,-0.731 3.241,-1.708 5.013,-2.124 3.752,-0.881 7.452,-0.732 11.097,0.511 0.447,0.152 0.78,0.333 1.148,-0.099 0.275,-0.323 0.68,-0.158 1.021,-0.159 10.76,-0.009 21.521,0.015 32.28,-0.038 1.109,-0.005 1.196,0.477 1.028,1.258 -0.403,1.883 -0.509,3.797 -0.709,5.701 -0.132,1.254 -0.334,2.502 -0.537,3.99 2.342,-2.905 4.511,-5.602 6.685,-8.294 0.394,-0.488 0.928,-0.907 1.178,-1.457 0.562,-1.23 1.623,-1.361 2.719,-1.396 1.64,-0.049 3.279,-0.031 4.919,-0.003 0.655,0.011 1.034,-0.198 1.4,-0.799 2.659,-4.351 5.39,-8.659 8.055,-13.006 0.271,-0.44 0.501,-0.613 0.995,-0.613 7.521,0.013 15.04,0.011 22.561,0.016 0.069,0 0.14,0.047 0.303,0.107 -3.311,5.35 -6.607,10.681 -10.04,16.229 2.028,-0.859 3.861,-1.52 5.785,-1.994 3.393,-0.84 6.569,-0.165 9.718,0.908 0.903,0.308 1.341,0.228 1.819,-0.586 2.704,-4.588 5.498,-9.125 8.148,-13.743 0.695,-1.212 1.386,-1.718 2.856,-1.694 6.599,0.104 13.199,0.042 19.8,0.055 0.323,0 0.754,-0.209 0.965,0.182 0.198,0.366 -0.137,0.688 -0.298,0.969 -2.306,4.014 -4.64,8.012 -6.964,12.017 -0.769,1.323 -1.526,2.653 -2.448,4.258 1.921,-0.926 3.614,-1.613 5.42,-1.949 1.458,-0.271 2.917,-0.504 4.401,-0.639 1.743,-0.156 3.491,-0.336 5.222,-0.179 2.569,0.233 5.189,0.111 7.698,0.843 3.203,0.932 5.658,2.834 7.204,5.784 3.882,-2.999 8.113,-5.124 13.022,-5.694 3.979,-0.463 7.978,-0.588 11.854,0.517 4.336,1.235 7.529,3.884 8.96,8.365 2.969,-2.367 5.527,-4.991 7.154,-8.394 0.319,-0.672 0.836,-0.481 1.31,-0.482 5.92,-0.012 11.84,-0.029 17.76,0.013 1.117,0.008 2.188,-0.263 3.303,-0.288 5.06,-0.113 9.771,3.289 11.06,8.077 0.902,3.349 0.322,6.389 -1.423,9.269 -3.283,5.414 -6.604,10.808 -9.907,16.209 -0.901,1.475 -1.798,2.949 -2.799,4.592 12.636,0 25.081,0 37.68,0 -0.881,2.107 -2.06,3.87 -3.042,5.731 -0.99,1.878 -2.047,3.721 -3.037,5.601 -0.336,0.636 -0.824,0.721 -1.464,0.721 -13.6,-0.013 -27.2,0.038 -40.8,-0.046 -3.082,-0.021 -5.688,-1.498 -7.747,-3.788 -1.337,-1.487 -2.077,-3.319 -2.604,-5.399 -1.706,2.805 -3.402,5.422 -4.905,8.146 -0.579,1.049 -1.32,1.29 -2.252,1.029 -0.6,-0.168 -1.166,-0.184 -1.75,-0.186 -3.521,-0.014 -7.04,0 -10.561,-0.009 -2.977,-0.007 -5.957,0.117 -8.933,-0.34 0.438,-0.764 0.904,-1.571 1.369,-2.38 -2.72,1.376 -5.49,2.354 -8.428,2.832 -2.939,0.477 -5.883,0.504 -8.853,0.171 -1.829,-0.204 -3.609,-0.504 -5.284,-1.249 -2.229,-0.992 -4.021,-2.563 -5.415,-4.551 -0.532,-0.76 -0.976,-0.751 -1.567,-0.146 -1.632,1.66 -3.585,2.833 -5.688,3.803 -2.669,1.231 -5.467,1.854 -8.389,2.141 -1.667,0.164 -3.328,0.277 -4.983,0.179 -2.57,-0.156 -5.16,-0.343 -7.659,-0.99 -1.714,-0.444 -3.156,-1.489 -4.353,-2.813 -0.347,-0.386 -0.521,-0.415 -0.999,-0.074 -3.327,2.374 -7.08,3.407 -11.151,3.432 -3.145,0.019 -5.836,-1.143 -8.192,-3.102 -0.599,-0.498 -0.921,-0.455 -1.486,-0.099 -2.202,1.39 -4.584,2.409 -7.146,2.831 -4.118,0.679 -8.047,0.346 -11.082,-2.994 -0.623,-0.687 -1.104,-0.604 -1.745,-0.207 -2.406,1.484 -4.906,2.755 -7.694,3.369 -3.036,0.671 -5.818,-0.016 -8.328,-1.725 -2.639,-1.798 -4.37,-4.295 -5.068,-7.437 -0.436,-1.958 -0.449,-3.935 -0.069,-6.018 -7.546,9.027 -15.092,18.055 -22.638,27.082 -0.083,-0.021 -0.165,-0.044 -0.248,-0.066 0.831,-6.96 1.663,-13.92 2.521,-21.121 -3.396,2.856 -6.603,5.507 -10.438,7.197 -4.149,1.829 -8.354,2.363 -12.547,0.093 -0.576,-0.313 -1.19,-0.646 -1.615,-1.124 -0.522,-0.588 -0.909,-0.505 -1.484,-0.135 -2.526,1.628 -5.29,2.756 -8.257,3.134 -3.611,0.46 -7.011,-0.19 -9.791,-2.81 -1.579,-1.484 -2.932,-3.104 -3.51,-5.277 -0.232,-0.875 -0.634,-0.181 -0.868,0.063 -2.272,2.354 -4.807,4.351 -7.811,5.695 -2.779,1.243 -5.651,2.151 -8.734,2.153 -10.56,0.009 -21.119,0.002 -31.679,-0.001 -0.079,0 -0.157,-0.026 -0.457,-0.082 4.925,-8.954 9.816,-17.846 14.739,-26.793 -8.495,0 -16.894,-0.018 -25.291,0.017 -1.475,0.006 -2.539,0.875 -3.227,2.132 -1.737,3.184 -3.419,6.396 -5.151,9.583 -3.395,6.237 -6.818,12.459 -10.208,18.698 -1.731,3.186 -3.41,6.398 -5.128,9.593 -2.284,4.249 -4.593,8.486 -6.868,12.743 -0.301,0.561 -0.668,0.77 -1.305,0.768 -6.479,-0.021 -12.96,-0.023 -19.439,0.001 -0.858,0.004 -1.073,-0.177 -0.64,-0.979 3.047,-5.64 6.084,-11.282 9.104,-16.937 1.218,-2.282 2.386,-4.59 3.557,-6.896 0.243,-0.479 0.45,-0.974 0.967,-1.451 -2.229,-0.402 -4.201,-0.96 -5.87,-2.296 -1.083,-0.866 -2.186,-1.734 -2.85,-2.956 -0.552,-1.019 -1.13,-0.863 -1.905,-0.384 -3.033,1.873 -6.254,3.357 -9.671,4.359 -3.612,1.061 -7.3,1.882 -11.089,1.574 -3.019,-0.245 -5.809,-1.252 -8.09,-3.378 -0.225,-0.209 -0.534,-0.327 -0.754,-0.539 -0.22,-0.212 -0.551,-0.36 -0.521,-0.819 -2.84,1.985 -5.762,3.639 -9.102,4.41 -5.564,1.286 -11.657,-1.26 -13.977,-7.166 -1.653,-4.211 -0.621,-7.967 1.366,-11.655 1.427,-2.648 2.954,-5.244 4.438,-7.864 0.304,-0.537 0.589,-1.085 0.917,-1.606 0.459,-0.729 0.139,-1.006 -0.582,-1.109 -2.685,-0.39 -6.461,1.625 -7.42,4.127 -0.935,2.435 -2.413,4.565 -3.586,6.864 -1.438,2.816 -3.093,5.521 -4.619,8.293 -1.804,3.277 -3.556,6.583 -5.367,9.855 -0.31,0.56 -0.734,0.931 -1.573,0.892 -6.775,-0.313 -13.562,-0.18 -20.339,-0.335 -2.405,-0.056 -4.934,0.097 -7.229,-1.113 -0.897,-0.474 -1.806,-0.94 -2.511,-1.634 -0.631,-0.617 -0.997,-0.536 -1.684,-0.093 -3.601,2.328 -7.554,3.625 -11.854,3.104 -3.89,-0.473 -6.825,-2.6 -8.729,-6.06 -0.404,-0.735 -0.712,-1.524 -1.092,-2.349 -1.439,2.607 -2.854,5.129 -4.215,7.678 -0.233,0.438 -0.493,0.535 -0.922,0.534 -14.479,-0.021 -28.957,-0.037 -43.656,-0.054 9.263,-17.057 18.476,-34.02 27.746,-51.087 -14.78,0 -29.438,0 -44.326,0 1.055,-1.713 2.01,-3.28 2.982,-4.838 1.349,-2.162 2.74,-4.298 4.042,-6.488 0.289,-0.485 0.544,-0.729 1.085,-0.658 0.039,0.005 0.08,0.001 0.119,0.001 28.9,-0.356 57.802,-0.22 86.702,-0.239 0.23,0 0.46,0.02 0.819,0.035 -2.833,5.141 -5.616,10.188 -8.499,15.42 1.619,-0.768 3.115,-1.406 4.715,-1.79 3.608,-0.866 7.141,-0.625 10.619,0.584 0.496,0.173 0.875,0.449 1.284,-0.184 0.228,-0.353 0.749,-0.14 1.131,-0.14 15.76,-0.009 31.52,-0.015 47.28,0.013 0.899,0.002 1.353,-0.304 1.777,-1.083 2.402,-4.404 4.878,-8.767 7.299,-13.161 0.237,-0.433 0.438,-0.666 0.962,-0.665 6.958,0.014 13.917,0.009 21.147,0.009 -3.141,5.743 -6.201,11.337 -9.374,17.14 1.062,-0.486 1.936,-0.922 2.835,-1.293 2.383,-0.979 4.871,-1.445 7.438,-1.725 3.521,-0.384 6.951,-0.248 10.367,0.734 3.748,1.078 6.404,3.369 8.117,6.986 1.188,-2.16 2.365,-4.244 3.483,-6.359 0.413,-0.781 0.908,-1.122 1.845,-1.108 3.839,0.06 7.68,0.05 11.521,0.021 8.86,-0.064 17.722,-0.156 26.582,-0.229 0.345,-0.002 0.806,-0.18 1.017,0.116 0.303,0.425 -0.223,0.677 -0.398,1.005 -1.254,2.35 -2.509,4.698 -3.742,7.059 -0.457,0.875 -0.147,1.407 0.824,1.409 7.921,0.011 15.841,0.024 23.761,-0.01 1.754,-0.008 2.829,-1.203 3.608,-2.601 1.394,-2.49 2.71,-5.024 4.033,-7.556 0.653,-1.25 0.276,-1.827 -1.154,-1.827 -13.88,-0.004 -27.76,-0.002 -41.64,-0.002 -0.42,0 -0.841,0 -1.414,0 2.33,-3.992 4.57,-7.809 6.773,-11.646 0.18,-0.313 0.345,-0.363 0.632,-0.356 0.28,0.008 0.56,0.002 0.84,0.002 21.8,0 43.6,0 65.4,0 3.68,0 6.793,1.312 9.45,3.878 3.02,2.916 4.313,6.481 4.394,10.595 0.012,0.6 -0.23,1.139 -0.261,1.805 z"
   id="path4"
   inkscape:connector-curvature="0"
   style="fill:#fefefe" />
	<path
   d="m 621.398,405.08 c -0.332,1.15 -1.138,1.986 -1.547,3.018 -0.203,0.517 -0.571,0.334 -0.881,0.334 -5.674,0.012 -11.348,0.01 -17.123,0.01 0.557,-1.057 1.118,-2.047 1.601,-3.075 0.178,-0.382 0.436,-0.279 0.681,-0.279 5.743,-0.009 11.486,-0.008 17.269,-0.008 z"
   id="path6"
   inkscape:connector-curvature="0"
   style="fill:#fefefe" />
	<path
   d="m 736.385,412.322 c -1.924,-0.271 -2.899,1 -3.863,2.113 -2.445,2.825 -4.812,5.721 -7.192,8.601 -2.58,3.12 -5.127,6.267 -7.716,9.379 -2.191,2.634 -4.437,5.225 -6.633,7.854 -2.271,2.715 -4.51,5.454 -6.77,8.178 -1.283,1.545 -2.581,3.077 -3.875,4.611 -0.13,0.154 -0.273,0.303 -0.541,0.188 0.766,-6.389 1.534,-12.797 2.314,-19.3 -0.879,0.461 -1.267,1.305 -1.873,1.93 -3.75,3.857 -7.657,7.524 -12.267,10.378 -2.85,1.764 -5.882,2.923 -9.247,2.467 -2.797,-0.378 -4.685,-2.199 -6.019,-4.729 -2.249,2.462 -5.077,4.015 -8.257,4.86 -3.197,0.853 -6.366,0.795 -8.995,-1.558 -2.532,-2.265 -3.656,-6.076 -2.096,-9.679 1.336,-3.085 3.187,-5.89 4.796,-8.824 1.799,-3.283 3.688,-6.517 5.565,-9.755 1.884,-3.249 3.389,-6.761 6.418,-9.224 2.339,-1.9 4.874,-3.293 7.907,-3.799 3.534,-0.589 6.768,0.191 9.854,1.81 0.695,0.364 1.122,0.448 1.422,-0.378 0.312,-0.858 0.973,-0.951 1.805,-0.944 4.435,0.04 8.87,0.021 13.471,0.021 -0.886,1.645 -1.685,3.186 -2.534,4.697 -1.702,3.026 -3.442,6.031 -5.149,9.055 -2.896,5.129 -5.783,10.262 -8.658,15.401 -0.419,0.748 -0.729,1.554 -1.237,2.261 -0.388,0.538 -0.374,1.072 0.188,1.568 0.523,0.464 0.996,0.5 1.594,0.146 3.617,-2.146 6.445,-5.129 9.105,-8.332 1.73,-2.087 3.311,-4.278 4.981,-6.402 0.614,-0.779 0.462,-1.591 0.6,-2.331 0.422,-2.273 0.521,-4.605 0.806,-6.909 0.342,-2.769 0.752,-5.526 0.972,-8.31 0.031,-0.403 0.146,-0.853 0.761,-0.851 4.113,0.013 8.229,0.007 12.35,0.007 -0.787,6.412 -1.563,12.736 -2.386,19.435 1.354,-1.658 2.498,-3.032 3.61,-4.432 2.076,-2.605 4.126,-5.233 6.204,-7.839 1.766,-2.211 3.574,-4.385 5.311,-6.617 0.275,-0.355 0.479,-0.554 0.925,-0.554 7.438,0.009 14.876,0.007 22.539,0.007 -0.956,1.629 -1.822,3.129 -2.713,4.613 -2.768,4.613 -5.54,9.223 -8.315,13.83 -2.312,3.841 -4.638,7.674 -6.936,11.522 -0.357,0.599 -0.648,1.247 -0.884,1.903 -0.373,1.044 0.187,1.66 1.295,1.55 1.044,-0.105 1.792,-0.698 2.533,-1.362 2.449,-2.193 3.949,-5.047 5.534,-7.849 2.669,-4.719 5.396,-9.403 8.02,-14.147 1.186,-2.146 2.36,-4.249 4.234,-5.904 2.683,-2.369 5.785,-3.753 9.282,-4.414 3.862,-0.73 7.265,0.502 10.552,2.279 0.442,0.239 0.516,0.352 0.815,-0.159 2.059,-3.491 4.173,-6.95 6.269,-10.42 1.229,-2.036 2.47,-4.066 3.673,-6.117 0.185,-0.313 0.338,-0.456 0.71,-0.454 4.681,0.019 9.358,0.02 14.038,0.031 0.06,0 0.118,0.075 0.224,0.146 -2.361,4.109 -4.723,8.223 -7.091,12.333 -2.025,3.514 -4.06,7.021 -6.093,10.529 -2.268,3.913 -4.541,7.822 -6.806,11.737 -1.895,3.273 -3.779,6.554 -5.669,9.83 -0.486,0.844 -0.979,1.684 -1.46,2.529 -0.352,0.612 -0.876,1.314 -0.201,1.918 0.712,0.635 1.576,0.512 2.406,0.01 1.291,-0.78 2.137,-1.989 3.04,-3.122 1.043,-1.311 1.917,-2.745 2.708,-4.229 0.315,-0.596 0.729,-0.929 1.551,-0.939 4.179,-0.062 8.335,0.523 12.819,0.199 -1.143,1.92 -2.13,3.58 -3.115,5.24 -0.733,1.236 -1.476,2.467 -2.091,3.771 -0.42,0.891 -0.486,1.691 0.346,2.316 0.998,0.753 2.341,0.696 3.152,-0.056 0.615,-0.572 0.932,-1.352 1.33,-2.063 0.877,-1.565 1.713,-3.152 2.712,-4.648 0.421,-0.63 0.438,-1.353 0.219,-2.056 -0.355,-1.131 -0.905,-2.162 -1.78,-2.985 -1.623,-1.524 -3.104,-3.188 -4.824,-4.626 -2.738,-2.287 -3.138,-6.407 -1.689,-9.647 2.271,-5.084 6.126,-8.561 11.313,-10.492 2.059,-0.768 4.292,-0.941 6.474,-1.047 2.817,-0.135 5.646,-0.065 8.469,0.197 3.721,0.348 6.874,2.289 7.6,5.422 0.538,2.326 0.367,4.595 -0.952,6.684 -0.438,0.691 -0.879,1.388 -1.225,2.126 -0.383,0.819 -0.949,1.161 -1.85,1.148 -2.48,-0.031 -4.961,0.033 -7.439,-0.033 -0.967,-0.025 -1.866,0.323 -2.829,0.274 -1.606,-0.08 -2.239,-1.037 -1.428,-2.414 1.268,-2.146 2.608,-4.253 3.95,-6.354 0.357,-0.562 0.704,-1.145 0.361,-1.747 -0.354,-0.622 -1.064,-0.782 -1.756,-0.77 -1.538,0.029 -2.482,0.889 -3.199,2.196 -0.937,1.708 -1.982,3.356 -2.999,5.021 -0.924,1.509 -0.723,3.94 0.429,5.428 1.57,2.026 3.497,3.709 5.297,5.51 2.298,2.297 2.9,5.052 1.934,8.005 -1.856,5.674 -5.594,9.642 -11.258,11.776 -3.83,1.442 -7.791,1.53 -11.774,1.387 -1.553,-0.056 -3.108,-0.378 -4.633,-0.718 -2.357,-0.525 -4.076,-1.91 -5.074,-4.148 -0.224,-0.498 -0.513,-0.967 -0.828,-1.556 -0.649,0.726 -1.231,1.497 -1.933,2.14 -3.602,3.306 -7.858,4.428 -12.631,3.587 -2.438,-0.429 -4.177,-1.913 -5.308,-4.065 -0.411,-0.782 -0.698,-0.684 -1.283,-0.22 -2.786,2.202 -5.856,4.017 -9.394,4.439 -3.644,0.438 -6.927,-0.169 -8.912,-4.504 -0.397,-0.867 -0.71,-0.955 -1.48,-0.325 -2.717,2.225 -5.8,3.891 -9.163,4.786 -2.388,0.636 -4.773,0.053 -6.7,-1.721 -2.894,-2.663 -3.862,-5.923 -2.522,-9.604 0.684,-1.879 1.911,-3.563 2.93,-5.316 2.136,-3.673 4.291,-7.334 6.443,-10.997 1.62,-2.757 3.25,-5.509 4.867,-8.267 0.191,-0.334 0.326,-0.705 0.518,-1.117 z"
   id="path8"
   inkscape:connector-curvature="0"
   style="fill:#888888" />
	<path
   d="m 543.395,475.749 c 4.826,-9.157 9.625,-18.26 14.537,-27.583 -3.014,1.588 -5.972,1.891 -8.905,0.473 -2.939,-1.42 -4.5,-3.876 -4.904,-7.193 -0.974,0.296 -1.765,0.98 -2.607,1.518 -3.605,2.293 -7.395,4.206 -11.487,5.424 -3.289,0.979 -6.681,1.712 -10.125,1.295 -3.434,-0.415 -6.138,-2.199 -7.845,-5.273 -0.444,-0.802 -0.678,-0.768 -1.357,-0.222 -3.185,2.56 -6.554,4.903 -10.699,5.484 -4.263,0.597 -8.133,-1.712 -9.323,-6.096 -0.821,-3.027 0.373,-5.619 1.75,-8.151 1.36,-2.502 2.828,-4.944 4.217,-7.433 2.815,-5.04 5.621,-10.086 8.41,-15.14 2.205,-3.996 4.368,-8.014 6.574,-12.008 1.471,-2.664 3.008,-5.292 4.462,-7.965 0.277,-0.51 0.622,-0.52 1.063,-0.52 4.238,0.002 8.479,0.001 12.8,0.001 -0.591,1.713 -1.608,3.156 -2.404,4.7 -1.519,2.946 -3.198,5.807 -4.806,8.708 -3.006,5.428 -6.023,10.849 -9.006,16.287 -2.044,3.729 -4.033,7.485 -6.059,11.226 -0.984,1.817 -2.058,3.592 -2.962,5.449 -0.372,0.766 -0.803,1.742 -0.018,2.536 0.741,0.75 1.68,0.228 2.29,-0.127 1.551,-0.898 3.208,-1.69 3.532,-3.895 0.47,-3.186 2.309,-5.853 3.803,-8.623 1.74,-3.228 3.616,-6.379 5.381,-9.592 1.44,-2.624 2.889,-5.225 5.179,-7.24 2.757,-2.428 5.932,-3.999 9.51,-4.794 2.821,-0.627 5.695,-0.647 8.529,-0.433 4.686,0.356 8.121,2.142 9.72,7.082 0.621,1.918 0.522,3.912 -0.354,5.681 -1.787,3.602 -3.793,7.094 -5.651,10.66 -0.339,0.65 -0.809,0.527 -1.295,0.528 -5.56,0.009 -11.119,0.019 -16.678,-0.01 -0.775,-0.004 -1.247,0.133 -1.626,0.924 -0.673,1.399 -1.604,2.674 -2.313,4.06 -0.834,1.628 -0.952,3.358 0.348,4.771 1.345,1.461 3.129,2.059 5.139,1.696 5.636,-1.014 10.104,-4.336 14.686,-7.441 2.101,-1.424 3.268,-3.557 4.459,-5.674 3.405,-6.051 6.798,-12.108 10.188,-18.169 0.572,-1.021 1.134,-2.049 1.657,-3.096 0.252,-0.506 0.543,-0.824 1.156,-0.822 4.315,0.012 8.632,0.007 13.096,0.007 -1.292,2.386 -2.509,4.675 -3.769,6.94 -1.457,2.626 -2.961,5.228 -4.429,7.849 -2.63,4.695 -5.254,9.395 -7.867,14.1 -0.396,0.716 -0.713,1.478 -1.075,2.213 -0.638,1.294 -0.365,2.359 0.77,2.981 1.053,0.576 2.474,0.205 3.093,-0.886 1.231,-2.17 2.418,-4.366 3.622,-6.552 3.105,-5.641 6.219,-11.274 9.313,-16.92 1.632,-2.979 3.253,-5.961 4.822,-8.974 0.3,-0.575 0.589,-0.774 1.232,-0.771 3.919,0.033 7.839,0.014 11.758,0.023 0.301,0 0.689,-0.16 0.891,0.139 0.24,0.359 -0.1,0.688 -0.256,0.978 -1.878,3.465 -3.781,6.915 -5.673,10.373 -3.352,6.129 -6.707,12.255 -10.044,18.392 -1.658,3.051 -3.27,6.126 -4.926,9.179 -3.48,6.414 -6.988,12.813 -10.466,19.229 -1.786,3.294 -3.534,6.607 -5.297,9.913 -0.257,0.483 -0.432,0.94 -1.177,0.934 -4.039,-0.044 -8.079,-0.022 -12.118,-0.028 -0.11,0.001 -0.215,-0.054 -0.466,-0.122 z"
   id="path10"
   inkscape:connector-curvature="0"
   style="fill:#888888" />
	<path
   d="m 846.039,449.472 c 5.273,-8.59 10.475,-17.062 15.825,-25.775 -2.108,0.829 -3.918,1.606 -5.826,2.104 -0.476,0.123 -0.724,0.516 -0.979,0.939 -2.687,4.478 -5.253,9.036 -8.146,13.376 -3.617,5.424 -8.68,8.803 -15.275,9.604 -3.904,0.477 -7.78,0.554 -11.526,-0.955 -2.256,-0.907 -5.322,-4.184 -5.456,-7.418 -0.145,-3.463 1.438,-6.229 3.131,-9.029 3.206,-5.305 6.594,-10.499 9.514,-15.974 1.576,-2.955 4.209,-4.801 6.961,-6.511 4.29,-2.664 9.028,-3.547 13.974,-3.276 3.374,0.184 6.748,0.735 9.262,3.334 1.38,1.426 2.166,3.178 2.358,5.237 0.097,1.044 -0.101,2.068 -0.039,3.238 2.256,-1.078 4.172,-2.402 6.011,-3.837 2.572,-2.008 4.66,-4.467 6.407,-7.208 0.24,-0.378 0.501,-0.316 0.791,-0.316 4.276,-0.007 8.555,-0.005 12.854,-0.005 0.13,0.807 -0.734,1.165 -0.779,1.98 2.585,-1.64 5.318,-2.357 8.296,-2.23 3.785,0.161 6.642,3.221 6.995,6.909 0.274,2.854 -1.329,4.914 -2.647,7.104 -3.018,5.01 -6.082,9.987 -9.131,14.977 -0.73,1.196 -1.427,2.42 -2.221,3.574 -0.792,1.148 -0.995,2.42 -0.333,3.547 0.66,1.123 1.732,1.848 3.231,1.839 7.198,-0.044 14.398,-0.13 21.594,0.032 3.019,0.067 6.042,0.135 9.285,0.209 -0.89,1.596 -1.708,3.08 -2.544,4.553 -0.259,0.456 -0.724,0.213 -1.081,0.214 -8.118,0.016 -16.235,0.013 -24.354,0.013 -4.279,0 -8.562,-0.087 -12.838,0.024 -3.979,0.104 -7.569,-3.594 -7.617,-7.544 -0.031,-2.539 1.188,-4.407 2.347,-6.374 2.632,-4.466 5.333,-8.893 7.998,-13.338 0.78,-1.304 1.562,-2.605 2.288,-3.938 0.635,-1.162 0.229,-2.374 -0.908,-2.938 -1.101,-0.547 -2.114,-0.137 -2.814,1.115 -1.468,2.621 -2.937,5.237 -4.513,7.797 -3.229,5.242 -6.407,10.518 -9.601,15.783 -1.777,2.932 -3.539,5.872 -5.314,8.805 -0.324,0.535 -0.826,0.662 -1.435,0.612 -4.499,-0.356 -9.005,-0.214 -13.745,-0.253 z"
   id="path12"
   inkscape:connector-curvature="0"
   style="fill:#888888" />
	<path
   d="m 457.271,446.512 c -1.856,0.941 -3.623,1.961 -5.611,2.554 -2.477,0.736 -4.914,0.91 -7.237,-0.399 -1.59,-0.896 -2.785,-2.217 -3.531,-3.971 -2.255,2.325 -4.875,3.954 -7.959,4.851 -3.814,1.108 -7.321,0.852 -10.105,-2.308 -1.914,-2.171 -2.428,-4.763 -1.758,-7.573 0.748,-3.141 2.787,-5.643 4.254,-8.423 1.764,-3.342 3.733,-6.575 5.599,-9.865 1.461,-2.577 2.609,-5.395 4.415,-7.699 2.855,-3.646 6.446,-6.376 11.344,-6.949 3.496,-0.41 6.655,0.338 9.65,2.051 0.464,0.266 0.818,0.148 0.966,-0.281 0.422,-1.232 1.348,-1.284 2.443,-1.273 4.276,0.043 8.556,0.019 12.999,0.019 -0.802,1.487 -1.532,2.881 -2.298,4.253 -1.729,3.099 -3.472,6.189 -5.216,9.277 -2.531,4.483 -5.073,8.963 -7.604,13.445 -0.805,1.426 -1.571,2.873 -2.396,4.288 -0.413,0.711 -0.416,1.377 0.162,1.928 0.583,0.558 1.261,0.264 1.794,-0.113 3.549,-2.51 6.758,-5.212 8.76,-9.321 2.764,-5.675 6.026,-11.105 9.08,-16.639 1.205,-2.188 2.438,-4.358 3.614,-6.561 0.226,-0.421 0.472,-0.564 0.917,-0.563 4.637,0.009 9.274,0.005 13.973,0.005 -0.083,1.013 -0.948,1.624 -1.215,2.717 4.278,-3.367 9.135,-2.655 13.959,-2.707 -0.452,1.657 -1.466,2.965 -2.2,4.394 -1.428,2.771 -3.031,5.453 -4.527,8.189 -0.453,0.828 -0.794,1.247 -1.962,0.907 -3.369,-0.979 -6.759,-1.144 -10.001,0.647 -2.107,1.164 -3.638,2.856 -4.638,5 -1.305,2.796 -2.933,5.41 -4.354,8.141 -1.496,2.869 -3.131,5.665 -4.708,8.493 -1.197,2.146 -2.415,4.281 -3.58,6.445 -0.241,0.447 -0.546,0.495 -0.961,0.495 -4.319,-0.004 -8.639,-0.013 -12.958,0.006 -0.791,0.004 -0.909,-0.24 -0.522,-0.896 0.491,-0.845 0.943,-1.71 1.412,-2.564 z"
   id="path14"
   inkscape:connector-curvature="0"
   style="fill:#888888" />
	<path
   d="m 358.65,398.6 c 0.994,-1.624 1.888,-3.079 2.777,-4.535 0.356,-0.583 0.925,-0.508 1.484,-0.508 12.837,0.004 25.676,0.137 38.51,-0.06 5.542,-0.085 11.085,-0.09 16.626,-0.176 0.426,-0.007 0.854,-0.001 1.53,-0.001 -4.341,7.933 -8.58,15.679 -12.871,23.52 2.594,0 5.064,-0.008 7.535,0.008 0.463,0.002 0.68,-0.192 0.895,-0.599 1.5,-2.825 3.031,-5.635 4.564,-8.442 2.451,-4.486 4.921,-8.964 7.354,-13.459 0.306,-0.563 0.656,-0.799 1.294,-0.797 4.479,0.02 8.958,0.01 13.513,0.01 -0.415,1.4 -1.281,2.524 -1.917,3.75 -1.509,2.907 -3.148,5.745 -4.739,8.608 -2.938,5.286 -5.891,10.563 -8.811,15.859 -2.033,3.688 -4.008,7.412 -6.033,11.104 -3,5.473 -6.032,10.926 -9.021,16.403 -0.224,0.411 -0.473,0.438 -0.839,0.437 -4.837,-0.004 -9.675,-0.002 -14.714,-0.002 5.332,-9.236 10.594,-18.354 15.931,-27.601 -2.525,0 -4.907,0.006 -7.289,-0.005 -0.441,-0.002 -0.688,0.141 -0.916,0.563 -2.315,4.292 -4.656,8.57 -7.011,12.842 -2.504,4.545 -5.038,9.071 -7.531,13.62 -0.224,0.408 -0.446,0.586 -0.902,0.585 -4.388,-0.01 -8.775,-0.006 -13.267,-0.006 1.246,-2.363 2.427,-4.643 3.645,-6.901 1.313,-2.438 2.664,-4.856 3.996,-7.284 3.266,-5.952 6.543,-11.897 9.792,-17.859 1.868,-3.427 3.684,-6.881 5.536,-10.315 0.684,-1.271 1.396,-2.523 2.11,-3.776 0.625,-1.099 0.749,-2.213 0.067,-3.316 -0.695,-1.126 -1.75,-1.662 -3.066,-1.663 -6.559,-0.004 -13.117,-0.002 -19.676,-0.002 C 371.09,398.6 364.972,398.6 358.65,398.6 Z"
   id="path16"
   inkscape:connector-curvature="0"
   style="fill:#888888" />
	<path
   d="m 606.193,448.965 c 1.379,-2.561 2.707,-5.069 4.073,-7.556 1.637,-2.976 3.311,-5.928 4.96,-8.896 2.786,-5.011 5.576,-10.019 8.345,-15.039 1.883,-3.414 3.722,-6.854 5.6,-10.272 1.165,-2.12 2.403,-4.201 3.532,-6.341 0.423,-0.801 1.105,-1.611 0.332,-2.663 -0.646,-0.878 -1.479,-1.042 -2.451,-1.041 -13.117,0.004 -26.234,0.003 -39.352,0.003 -0.438,0 -0.878,0 -1.399,0 0.234,-1.241 1.078,-2.102 1.555,-3.137 0.18,-0.387 0.467,-0.726 0.626,-1.118 0.242,-0.594 0.607,-0.802 1.271,-0.801 21.114,0.019 42.23,-0.048 63.347,0.053 6.663,0.032 11.163,5.346 10.668,11.875 -0.115,1.519 -0.716,2.94 -1.457,4.28 -1.664,3.004 -3.334,6.004 -5.001,9.004 -2.858,5.149 -5.748,10.283 -8.563,15.457 -1.194,2.192 -2.294,4.438 -3.665,6.529 -3.519,5.369 -8.508,8.529 -14.777,9.672 -1.984,0.361 -4,0.118 -6.014,0.078 -7.115,-0.142 -14.236,-0.057 -21.354,-0.059 -0.042,0.003 -0.081,-0.005 -0.276,-0.028 z"
   id="path18"
   inkscape:connector-curvature="0"
   style="fill:#888888" />
	<path
   d="m 751.376,400.28 c -1.998,0 -3.995,-0.012 -5.993,0.007 -0.58,0.006 -1.168,0.022 -1.425,-0.596 -0.206,-0.498 -0.021,-0.93 0.308,-1.411 1.202,-1.771 2.35,-3.583 3.434,-5.43 0.428,-0.729 0.896,-1.031 1.749,-0.985 4.135,0.222 8.271,0.321 12.414,0.264 0.972,-0.014 1.315,0.642 0.787,1.483 -1.286,2.044 -2.628,4.054 -3.894,6.11 -0.302,0.491 -0.65,0.569 -1.146,0.566 -2.079,-0.017 -4.157,-0.008 -6.234,-0.008 z"
   id="path20"
   inkscape:connector-curvature="0"
   style="fill:#888888" />
	<path
   d="m 614.879,416.359 c -0.956,1.902 -1.822,3.6 -2.655,5.313 -0.163,0.334 -0.337,0.456 -0.708,0.454 -5.271,-0.025 -10.542,-0.036 -15.813,-0.054 -0.026,0 -0.052,-0.045 -0.121,-0.107 0.675,-1.858 1.914,-3.452 2.678,-5.28 0.138,-0.326 0.498,-0.33 0.833,-0.328 5.19,0.004 10.381,0.002 15.786,0.002 z"
   id="path22"
   inkscape:connector-curvature="0"
   style="fill:#888888" />
	<path
   d="m 682.821,412.28 c 1.972,-0.005 3.063,1.673 2.154,3.315 -2.452,4.437 -4.974,8.834 -7.458,13.252 -1.566,2.787 -3.153,5.565 -4.654,8.39 -0.5,0.939 -1.147,1.521 -2.161,1.805 -0.84,0.236 -1.58,0.162 -2.166,-0.486 -0.613,-0.681 -0.694,-1.478 -0.252,-2.293 1.471,-2.709 2.937,-5.422 4.427,-8.12 1.47,-2.661 2.973,-5.307 4.451,-7.965 1.289,-2.318 2.559,-4.646 3.848,-6.965 0.411,-0.738 1.084,-0.993 1.811,-0.933 z"
   id="path24"
   inkscape:connector-curvature="0"
   style="fill:#fefefe" />
	<path
   d="m 759.043,439.166 c -1.857,-0.054 -2.879,-1.999 -2.033,-3.438 3.549,-6.046 7.084,-12.098 10.63,-18.146 0.709,-1.209 1.437,-2.408 2.16,-3.607 0.912,-1.51 2.325,-1.439 3.617,-0.563 0.671,0.455 0.872,1.115 0.393,1.939 -2.055,3.537 -4.063,7.102 -6.096,10.651 -1.78,3.109 -3.565,6.217 -5.355,9.321 -0.546,0.944 -1.14,1.864 -1.658,2.823 -0.418,0.771 -1.195,0.773 -1.658,1.02 z"
   id="path26"
   inkscape:connector-curvature="0"
   style="fill:#fefefe" />
	<path
   d="m 529.45,426.2 c 1.617,-2.959 3.122,-5.726 4.639,-8.484 0.62,-1.128 1.244,-2.254 1.902,-3.358 0.768,-1.289 1.805,-2.168 3.428,-2.08 1.419,0.078 2.083,1.084 1.419,2.344 -1.381,2.621 -2.83,5.205 -4.263,7.799 -0.547,0.988 -1.187,1.932 -1.666,2.95 -0.292,0.618 -0.6,0.885 -1.308,0.85 -1.311,-0.067 -2.631,-0.021 -4.151,-0.021 z"
   id="path28"
   inkscape:connector-curvature="0"
   style="fill:#fefefe" />
	<path
   d="m 840.785,425.837 c -0.168,0.323 -0.281,0.574 -0.422,0.809 -3.128,5.245 -6.249,10.493 -9.399,15.726 -0.482,0.803 -1.246,1.425 -2.22,1.313 -0.914,-0.104 -1.6,-0.67 -1.951,-1.62 -0.259,-0.699 0.022,-1.26 0.334,-1.758 3.134,-5.018 6.305,-10.013 9.459,-15.017 0.455,-0.724 0.709,-1.847 1.463,-1.998 0.42,-0.084 1.071,1.065 1.646,1.632 0.342,0.337 0.737,0.62 1.09,0.913 z"
   id="path30"
   inkscape:connector-curvature="0"
   style="fill:#fefefe" />
	<path
   d="m 847.321,414.247 c 0.093,0.431 -0.164,0.8 -0.378,1.168 -0.583,1.005 -1.169,2.01 -1.794,2.99 -0.616,0.966 -1.291,1.112 -2.183,0.413 -0.933,-0.73 -1.474,-1.873 -1.095,-2.908 0.494,-1.352 1.242,-2.702 2.797,-3.268 1.286,-0.465 2.654,0.322 2.653,1.605 z"
   id="path32"
   inkscape:connector-curvature="0"
   style="fill:#fefefe" />
	<path
   d="m 438.512,439.885 c -2.003,-0.028 -2.868,-1.377 -2.07,-2.833 2.917,-5.334 5.871,-10.646 8.81,-15.971 1.261,-2.285 2.514,-4.575 3.776,-6.86 0.64,-1.158 1.865,-1.565 2.964,-0.994 1.282,0.664 1.793,1.938 1.138,3.108 -2.398,4.283 -4.848,8.536 -7.251,12.817 -1.659,2.955 -3.287,5.928 -4.896,8.909 -0.615,1.142 -1.515,1.757 -2.471,1.824 z"
   id="path34"
   inkscape:connector-curvature="0"
   style="fill:#fefefe" />
	<path
   d="m 623.374,443.849 c 1.341,-2.47 2.618,-4.872 3.942,-7.249 1.384,-2.485 2.831,-4.938 4.218,-7.423 2.813,-5.035 5.615,-10.077 8.401,-15.127 2.202,-3.991 4.372,-8.001 6.563,-11.999 0.805,-1.469 1.646,-2.919 2.437,-4.397 0.191,-0.36 0.389,-0.532 0.807,-0.499 1.95,0.153 3.69,0.791 4.766,2.498 0.631,1.003 0.459,2.208 0.152,3.33 -0.627,2.297 -2.199,4.11 -3.22,6.213 -1.259,2.594 -2.743,5.076 -4.132,7.604 -3.245,5.913 -6.513,11.815 -9.727,17.745 -1.042,1.923 -1.822,3.992 -3.464,5.543 -2.336,2.207 -5.105,3.402 -8.299,3.628 -0.777,0.055 -1.529,0.459 -2.444,0.133 z"
   id="path36"
   inkscape:connector-curvature="0"
   style="fill:#fefefe" />
</g>
</svg>