<?xml version="1.0" encoding="UTF-8" standalone="no"?>
<!-- Generator: Adobe Illustrator 16.0.0, SVG Export Plug-In . SVG Version: 6.00 Build 0)  -->

<svg
   xmlns:dc="http://purl.org/dc/elements/1.1/"
   xmlns:cc="http://creativecommons.org/ns#"
   xmlns:rdf="http://www.w3.org/1999/02/22-rdf-syntax-ns#"
   xmlns:svg="http://www.w3.org/2000/svg"
   xmlns="http://www.w3.org/2000/svg"
   xmlns:sodipodi="http://sodipodi.sourceforge.net/DTD/sodipodi-0.dtd"
   xmlns:inkscape="http://www.inkscape.org/namespaces/inkscape"
   version="1.1"
   id="Layer_1"
   x="0px"
   y="0px"
   width="539.09497"
   height="139.72516"
   viewBox="0 0 539.09497 139.72516"
   xml:space="preserve"
   sodipodi:docname="sepalogo.svg"
   inkscape:version="0.92.3 (2405546, 2018-03-11)"><metadata
   id="metadata137"><rdf:RDF><cc:Work
       rdf:about=""><dc:format>image/svg+xml</dc:format><dc:type
         rdf:resource="http://purl.org/dc/dcmitype/StillImage" /><dc:title></dc:title></cc:Work></rdf:RDF></metadata><defs
   id="defs135" /><sodipodi:namedview
   pagecolor="#ffffff"
   bordercolor="#666666"
   borderopacity="1"
   objecttolerance="10"
   gridtolerance="10"
   guidetolerance="10"
   inkscape:pageopacity="0"
   inkscape:pageshadow="2"
   inkscape:window-width="640"
   inkscape:window-height="480"
   id="namedview133"
   showgrid="false"
   fit-margin-top="0"
   fit-margin-left="0"
   fit-margin-right="0"
   fit-margin-bottom="0"
   inkscape:zoom="0.221875"
   inkscape:cx="277.57508"
   inkscape:cy="71.944108"
   inkscape:window-x="0"
   inkscape:window-y="0"
   inkscape:window-maximized="0"
   inkscape:current-layer="Layer_1" />
<g
   id="g130"
   transform="translate(-362.42492,-332.21894)">
	<path
   d="m 551.399,369.657 c 2.603,-3.949 5.884,-6.265 10.511,-5.897 4.287,0.34 6.241,1.919 7.841,6.003 0.696,-1.063 1.352,-2.049 2.234,-2.844 3.399,-3.067 7.334,-3.981 11.683,-2.652 3.993,1.222 5.425,4.439 5.842,8.246 0.302,2.748 0.103,5.514 0.119,8.272 0.026,4.12 -0.014,8.24 0.025,12.359 0.007,0.786 -0.204,1.021 -0.993,0.994 -1.718,-0.06 -3.442,-0.079 -5.158,0.004 -1.009,0.049 -1.343,-0.169 -1.33,-1.274 0.068,-5.519 0.034,-11.039 0.027,-16.559 -0.001,-0.598 -0.031,-1.199 -0.093,-1.793 -0.341,-3.263 -2.334,-4.64 -5.512,-3.807 -2.116,0.555 -3.535,1.963 -4.525,3.834 -0.934,1.762 -1.327,3.659 -1.317,5.657 0.021,4.28 -0.025,8.56 0.031,12.839 0.012,0.934 -0.269,1.135 -1.142,1.101 -1.757,-0.069 -3.521,-0.065 -5.277,0 -0.825,0.031 -1.073,-0.174 -1.066,-1.037 0.043,-5.279 0.029,-10.559 0.016,-15.839 -0.003,-0.917 -0.063,-1.837 -0.157,-2.75 -0.345,-3.334 -2.369,-4.675 -5.607,-3.758 -2.105,0.597 -3.496,2.013 -4.489,3.88 -0.998,1.877 -1.35,3.905 -1.348,6.012 0.006,4.16 -0.016,8.32 0.018,12.479 0.007,0.751 -0.149,1.043 -0.973,1.014 -1.838,-0.065 -3.681,-0.065 -5.519,0 -0.824,0.029 -0.974,-0.265 -0.972,-1.014 0.023,-9.24 0.023,-18.479 0,-27.719 -0.002,-0.766 0.18,-1.054 0.998,-1.025 1.758,0.063 3.521,0.05 5.279,0.004 0.7,-0.019 0.888,0.222 0.866,0.89 -0.043,1.38 -0.012,2.765 -0.012,4.38 z"
   id="path2"
   inkscape:connector-curvature="0"
   style="fill:#272727" />
	<path
   d="m 592.61,438.507 c 1.755,-6.962 3.846,-13.83 5.74,-20.753 0.143,-0.52 0.388,-0.602 0.834,-0.599 1.76,0.014 3.521,0.036 5.278,-0.011 0.664,-0.019 0.776,0.34 0.911,0.838 1.857,6.852 3.962,13.634 5.667,20.525 0.037,0.151 0.095,0.297 0.235,0.729 0.462,-1.769 0.852,-3.277 1.251,-4.785 1.439,-5.437 2.905,-10.864 4.304,-16.312 0.212,-0.824 0.535,-1.07 1.366,-1.041 1.877,0.066 3.759,0.043 5.638,0.01 0.746,-0.015 1.043,0.029 0.759,0.953 -2.859,9.298 -5.67,18.61 -8.48,27.925 -0.172,0.57 -0.426,0.837 -1.076,0.823 -2.159,-0.042 -4.32,-0.052 -6.479,0.004 -0.794,0.021 -1.089,-0.271 -1.296,-1.01 -1.71,-6.104 -3.692,-12.131 -5.28,-18.271 -0.026,-0.103 -0.108,-0.188 -0.297,-0.503 -0.328,2.269 -1.021,4.225 -1.604,6.212 -1.221,4.171 -2.464,8.336 -3.661,12.515 -0.219,0.765 -0.529,1.093 -1.394,1.063 -2.117,-0.076 -4.238,-0.049 -6.357,-0.012 -0.665,0.014 -0.979,-0.171 -1.184,-0.843 -2.869,-9.462 -5.77,-18.913 -8.658,-28.368 -0.034,-0.109 -0.035,-0.23 -0.069,-0.476 2.456,0 4.88,0.013 7.303,-0.008 0.764,-0.007 0.641,0.628 0.744,1.013 1.249,4.62 2.472,9.247 3.682,13.878 0.604,2.314 1.352,4.596 1.698,6.973 0.162,0.187 0.066,0.418 0.103,0.586 0.015,-0.353 0.247,-0.682 0.322,-1.055 z"
   id="path4"
   inkscape:connector-curvature="0"
   style="fill:#272727" />
	<path
   d="m 726.023,446.796 c -0.44,0 -0.881,0 -1.32,0 -2.57,0 -2.564,-0.003 -3.358,-2.477 -0.767,-2.392 -1.571,-4.77 -2.309,-7.168 -0.209,-0.682 -0.51,-0.94 -1.252,-0.936 -4.198,0.038 -8.398,0.036 -12.597,0.001 -0.688,-0.005 -0.977,0.227 -1.18,0.859 -0.934,2.927 -1.941,5.83 -2.859,8.762 -0.232,0.743 -0.568,0.998 -1.343,0.976 -1.878,-0.057 -3.761,-0.07 -5.638,0.003 -1.06,0.041 -1.075,-0.293 -0.768,-1.159 3.584,-10.105 7.135,-20.224 10.692,-30.337 1.032,-2.935 2.089,-5.858 3.07,-8.811 0.262,-0.785 0.643,-1.033 1.455,-1.006 1.877,0.063 3.76,0.07 5.637,-0.003 0.903,-0.035 1.311,0.235 1.616,1.117 3.369,9.675 6.788,19.332 10.194,28.994 1.191,3.383 2.362,6.772 3.592,10.143 0.312,0.854 0.167,1.122 -0.758,1.055 -0.951,-0.067 -1.914,-0.013 -2.874,-0.013 z"
   id="path6"
   inkscape:connector-curvature="0"
   style="fill:#272727" />
	<path
   d="m 513.881,426.16 c 0,-6.479 0.027,-12.957 -0.027,-19.436 -0.008,-1.037 0.302,-1.234 1.269,-1.224 5.356,0.065 10.727,-0.156 16.069,0.136 6.719,0.366 11.4,5.373 11.748,12.111 0.256,4.989 -1.093,9.347 -5.278,12.443 -2.217,1.64 -4.771,2.362 -7.524,2.365 -2.56,0.003 -5.12,0.032 -7.678,-0.019 -0.826,-0.016 -1.09,0.195 -1.08,1.056 0.045,4.039 -0.013,8.078 0.045,12.117 0.014,0.935 -0.271,1.138 -1.144,1.103 -1.717,-0.066 -3.441,-0.076 -5.157,0.004 -0.97,0.045 -1.278,-0.186 -1.269,-1.224 0.053,-6.475 0.026,-12.953 0.026,-19.432 z"
   id="path8"
   inkscape:connector-curvature="0"
   style="fill:#272727" />
	<path
   d="m 687.44,373.469 c 0,-6.519 0.017,-13.037 -0.021,-19.556 -0.005,-0.854 0.147,-1.143 1.088,-1.138 7.559,0.045 15.116,0.041 22.675,0.004 0.869,-0.004 1.069,0.259 1.034,1.076 -0.064,1.517 -0.062,3.04 -10e-4,4.557 0.03,0.75 -0.197,0.929 -0.933,0.924 -5.039,-0.034 -10.078,0.006 -15.116,-0.039 -0.92,-0.008 -1.22,0.202 -1.196,1.167 0.067,2.878 0.049,5.758 0.008,8.637 -0.012,0.791 0.233,1.004 1.02,0.997 3.959,-0.04 7.918,0.006 11.877,-0.038 0.838,-0.009 1.101,0.217 1.06,1.061 -0.068,1.437 -0.071,2.881 0,4.317 0.046,0.893 -0.215,1.155 -1.129,1.143 -3.918,-0.052 -7.838,10e-4 -11.757,-0.041 -0.83,-0.009 -1.088,0.207 -1.073,1.057 0.053,2.918 0.063,5.839 -0.004,8.757 -0.021,0.982 0.225,1.28 1.239,1.27 5.238,-0.052 10.479,0.008 15.716,-0.052 1.032,-0.012 1.271,0.285 1.215,1.258 -0.085,1.515 -0.046,3.039 -0.011,4.557 0.014,0.571 -0.155,0.744 -0.734,0.743 -8.078,-0.018 -16.156,-0.024 -24.234,0.006 -0.867,0.003 -0.721,-0.488 -0.721,-0.992 -0.002,-6.557 -0.002,-13.116 -0.002,-19.675 z"
   id="path10"
   inkscape:connector-curvature="0"
   style="fill:#272727" />
	<path
   d="m 534.54,362.671 c -2.905,-2.252 -5.987,-3.741 -9.65,-3.58 -1.854,0.082 -3.522,0.69 -4.726,2.205 -1.443,1.818 -1.282,4.015 0.415,5.594 1.399,1.304 3.148,2.015 4.871,2.755 2.928,1.259 5.912,2.381 8.563,4.222 6.505,4.513 5.354,13.066 1.376,17.007 -2.487,2.464 -5.513,3.643 -8.915,3.871 -5.524,0.371 -10.484,-1.152 -14.816,-4.667 -0.816,-0.662 -0.931,-1.155 -0.23,-1.998 0.993,-1.196 1.88,-2.485 2.739,-3.784 0.448,-0.677 0.716,-0.8 1.418,-0.22 2.445,2.02 5.225,3.349 8.422,3.707 1.46,0.163 2.87,0.003 4.214,-0.599 3.198,-1.433 3.799,-5.212 1.187,-7.534 -1.609,-1.43 -3.599,-2.197 -5.532,-3.047 -2.518,-1.106 -5.043,-2.181 -7.358,-3.702 -7.171,-4.713 -5.876,-13.775 -0.474,-17.803 4.413,-3.289 9.351,-3.574 14.5,-2.385 2.396,0.553 4.577,1.61 6.528,3.134 0.554,0.433 0.76,0.771 0.354,1.473 -0.998,1.721 -1.897,3.498 -2.886,5.351 z"
   id="path12"
   inkscape:connector-curvature="0"
   style="fill:#272727" />
	<path
   d="m 561.315,447.542 c -7.676,-0.028 -13.925,-4.504 -15.806,-11.344 -2.524,-9.184 3.457,-18.243 12.898,-19.54 5.759,-0.791 10.945,0.474 15.024,4.743 4.232,4.43 5.21,9.794 3.367,15.55 -1.832,5.721 -6.063,8.889 -11.8,10.204 -0.466,0.105 -0.941,0.185 -1.417,0.229 -0.752,0.074 -1.51,0.108 -2.266,0.158 z"
   id="path14"
   inkscape:connector-curvature="0"
   style="fill:#272727" />
	<path
   d="m 891.065,433.439 c -3.078,0 -6.156,0.024 -9.234,-0.018 -0.824,-0.011 -0.993,0.181 -0.813,1.005 1.026,4.682 5.417,7.501 10.365,6.631 2.285,-0.4 4.359,-1.284 6.216,-2.65 0.564,-0.415 0.801,-0.398 1.116,0.247 0.668,1.357 1.401,2.687 2.146,4.005 0.236,0.42 0.25,0.685 -0.155,1.004 -7.192,5.669 -19.785,5.509 -25.154,-3.306 -4.104,-6.736 -2.617,-16.16 3.331,-20.855 5.201,-4.105 13.522,-4.146 18.214,-0.012 3.252,2.868 4.338,6.689 4.412,10.868 0.055,3.081 0.016,3.081 -3.009,3.081 -2.479,0 -4.956,0 -7.435,0 z"
   id="path16"
   inkscape:connector-curvature="0"
   style="fill:#272727" />
	<path
   d="m 644.067,433.439 c -3.038,0 -6.077,0.051 -9.113,-0.026 -1.104,-0.027 -1.144,0.371 -0.933,1.25 1.083,4.513 5.5,7.254 10.31,6.401 2.286,-0.405 4.352,-1.306 6.219,-2.648 0.565,-0.407 0.813,-0.398 1.133,0.244 0.673,1.355 1.406,2.684 2.146,4.006 0.229,0.409 0.256,0.662 -0.158,0.99 -7.365,5.842 -20.894,5.657 -25.904,-4.646 -3.697,-7.607 -0.828,-17.315 6.295,-20.891 4.364,-2.189 8.924,-2.447 13.396,-0.339 4.295,2.023 6.206,5.777 6.851,10.293 0.216,1.506 0.131,3.023 0.053,4.542 -0.036,0.699 -0.3,0.843 -0.938,0.837 -3.121,-0.028 -6.239,-0.013 -9.357,-0.013 z"
   id="path18"
   inkscape:connector-curvature="0"
   style="fill:#272727" />
	<path
   d="m 749.617,380.679 c -3.04,0 -6.081,0.054 -9.118,-0.029 -1.058,-0.029 -1.087,0.368 -0.906,1.171 1.068,4.755 5.688,7.508 10.809,6.439 2.146,-0.448 4.096,-1.338 5.851,-2.632 0.483,-0.356 0.683,-0.345 0.959,0.193 0.709,1.384 1.465,2.745 2.212,4.108 0.208,0.379 0.313,0.66 -0.129,1.006 -7.221,5.657 -19.717,5.579 -25.181,-3.277 -4.441,-7.199 -2.364,-17.408 4.523,-21.672 4.303,-2.663 8.999,-3.137 13.676,-1.25 5.437,2.192 7.435,6.785 7.713,12.321 0.048,0.954 -0.097,1.916 -0.069,2.872 0.019,0.676 -0.288,0.765 -0.859,0.761 -3.16,-0.022 -6.322,-0.011 -9.481,-0.011 z"
   id="path20"
   inkscape:connector-curvature="0"
   style="fill:#272727" />
	<path
   d="m 613.521,389.958 c -4.074,5.123 -10.143,6.272 -15.1,3.159 -4.872,-3.061 -5.749,-11.313 0.072,-14.793 2.85,-1.704 5.994,-2.357 9.23,-2.67 1.469,-0.142 2.95,-0.207 4.426,-0.191 0.833,0.009 0.901,-0.356 0.839,-1.012 -0.273,-2.828 -2.028,-4.433 -5.036,-4.567 -2.903,-0.129 -5.501,0.833 -7.913,2.332 -0.712,0.443 -1.015,0.417 -1.373,-0.36 -0.584,-1.265 -1.247,-2.497 -1.938,-3.708 -0.317,-0.56 -0.317,-0.873 0.28,-1.237 4.78,-2.914 9.899,-4.024 15.371,-2.648 5.08,1.276 7.901,5.14 7.958,10.732 0.063,6.076 0,12.154 0.033,18.231 0.004,0.769 -0.245,0.929 -0.954,0.908 -1.678,-0.049 -3.358,-0.044 -5.037,-0.001 -0.657,0.017 -0.918,-0.142 -0.878,-0.847 0.063,-1.028 0.02,-2.064 0.02,-3.328 z"
   id="path22"
   inkscape:connector-curvature="0"
   style="fill:#272727" />
	<path
   d="m 795.948,442.876 c -3.606,6.109 -12.878,5.855 -16.79,1.233 -2.718,-3.211 -3.302,-9.843 2.01,-13.045 3.572,-2.153 7.555,-2.646 11.604,-2.861 0.519,-0.027 1.038,-0.023 1.558,-0.039 1.478,-0.047 1.543,-0.127 1.28,-1.557 -0.433,-2.356 -1.988,-3.712 -4.45,-3.946 -3.081,-0.294 -5.842,0.653 -8.382,2.253 -0.859,0.541 -1.108,0.271 -1.459,-0.442 -0.616,-1.25 -1.248,-2.495 -1.947,-3.7 -0.328,-0.564 -0.185,-0.836 0.309,-1.133 4.979,-3.004 10.282,-4.129 15.946,-2.49 4.308,1.246 6.896,4.618 7.295,9.101 0.164,0.791 0.068,1.592 0.069,2.387 0.011,5.673 -0.011,11.347 0.023,17.02 0.006,0.858 -0.166,1.213 -1.107,1.165 -1.555,-0.08 -3.116,-0.055 -4.673,-0.009 -0.722,0.021 -1.018,-0.186 -0.963,-0.938 0.057,-0.795 0.026,-1.598 0.004,-2.396 -0.007,-0.233 0.163,-0.615 -0.327,-0.603 z"
   id="path24"
   inkscape:connector-curvature="0"
   style="fill:#272727" />
	<path
   d="m 817.079,422.021 c 1.876,-2.583 4.177,-4.507 7.291,-5.177 3.881,-0.835 7.671,-0.744 10.771,2.219 2.033,1.94 2.677,4.547 2.72,7.217 0.104,6.594 0.042,13.188 0.069,19.784 0.002,0.587 -0.179,0.752 -0.748,0.741 -1.879,-0.028 -3.759,-0.055 -5.636,0.011 -0.876,0.028 -1.049,-0.299 -1.044,-1.101 0.031,-5.396 0.017,-10.792 0.016,-16.188 0,-0.319 0.009,-0.641 -10e-4,-0.959 -0.119,-4.438 -2.629,-6.26 -6.923,-5.025 -3.419,0.981 -5.862,4.105 -6.086,7.921 -0.271,4.671 -0.089,9.35 -0.088,14.022 0.001,1.03 -0.215,1.397 -1.307,1.336 -1.753,-0.101 -3.518,-0.054 -5.274,-0.016 -0.675,0.016 -0.89,-0.202 -0.889,-0.884 0.019,-9.313 0.019,-18.626 -0.001,-27.938 -0.002,-0.674 0.185,-0.896 0.87,-0.879 1.798,0.043 3.598,0.043 5.396,0 0.67,-0.016 0.905,0.164 0.877,0.86 -0.051,1.351 -0.013,2.705 -0.013,4.056 z"
   id="path26"
   inkscape:connector-curvature="0"
   style="fill:#272727" />
	<path
   d="m 392.6,343.484 c 0,-3.396 0.026,-6.794 -0.019,-10.19 -0.011,-0.835 0.218,-1.077 1.065,-1.073 6.793,0.034 13.587,0.033 20.38,10e-4 0.835,-0.004 1.077,0.217 1.072,1.064 -0.033,6.793 -0.032,13.587 0,20.38 0.004,0.835 -0.218,1.077 -1.063,1.073 -6.793,-0.034 -13.587,-0.033 -20.38,-10e-4 -0.834,0.004 -1.085,-0.216 -1.074,-1.064 0.046,-3.396 0.019,-6.793 0.019,-10.19 z"
   id="path28"
   inkscape:connector-curvature="0"
   style="fill:#6b6b6b" />
	<path
   d="m 415.081,372.877 c 0,3.396 -0.025,6.792 0.018,10.188 0.011,0.799 -0.235,0.994 -1.011,0.99 -6.832,-0.028 -13.664,-0.028 -20.495,0 -0.772,0.003 -1.015,-0.189 -1.011,-0.989 0.031,-6.832 0.032,-13.664 -10e-4,-20.496 -0.004,-0.841 0.232,-1.074 1.071,-1.07 6.792,0.032 13.583,0.032 20.375,0 0.838,-0.004 1.084,0.226 1.072,1.069 -0.045,3.436 -0.018,6.873 -0.018,10.308 z"
   id="path30"
   inkscape:connector-curvature="0"
   style="fill:#7c7c7c" />
	<path
   d="m 384.917,343.535 c 0,3.398 -0.024,6.797 0.018,10.196 0.011,0.795 -0.225,1.009 -1.008,1.006 -6.797,-0.028 -13.595,-0.028 -20.392,0 -0.812,0.003 -1.104,-0.192 -1.101,-1.056 0.033,-6.797 0.032,-13.594 0,-20.392 -0.004,-0.85 0.267,-1.07 1.09,-1.066 6.757,0.03 13.515,0.033 20.271,-0.004 0.884,-0.004 1.158,0.203 1.144,1.121 -0.056,3.397 -0.022,6.796 -0.022,10.195 z"
   id="path32"
   inkscape:connector-curvature="0"
   style="fill:#626262" />
	<path
   d="m 445.222,343.602 c 0,3.356 -0.024,6.712 0.019,10.068 0.011,0.848 -0.266,1.072 -1.089,1.068 -6.792,-0.029 -13.584,-0.03 -20.375,10e-4 -0.801,0.003 -0.994,-0.241 -0.991,-1.014 0.028,-6.832 0.029,-13.663 0,-20.495 -0.003,-0.78 0.202,-1.013 0.996,-1.009 6.792,0.03 13.583,0.03 20.375,0 0.831,-0.004 1.095,0.231 1.085,1.073 -0.045,3.436 -0.02,6.872 -0.02,10.308 z"
   id="path34"
   inkscape:connector-curvature="0"
   style="fill:#acacac" />
	<path
   d="m 475.396,343.479 c 0,3.399 -0.027,6.798 0.019,10.196 0.011,0.847 -0.246,1.069 -1.078,1.065 -6.758,-0.032 -13.516,-0.032 -20.272,0 -0.828,0.004 -1.084,-0.211 -1.08,-1.063 0.032,-6.797 0.032,-13.595 0,-20.393 -0.004,-0.846 0.246,-1.069 1.076,-1.065 6.759,0.032 13.517,0.032 20.273,0 0.828,-0.004 1.092,0.21 1.081,1.063 -0.046,3.399 -0.019,6.798 -0.019,10.197 z"
   id="path36"
   inkscape:connector-curvature="0"
   style="fill:#8b8b8b" />
	<path
   d="m 494.444,354.722 c -3.396,0 -6.792,-0.023 -10.188,0.017 -0.816,0.009 -1.1,-0.208 -1.095,-1.063 0.031,-6.792 0.03,-13.583 0,-20.374 -0.003,-0.832 0.237,-1.085 1.078,-1.081 6.791,0.031 13.583,0.029 20.374,0 0.784,-0.003 1.006,0.215 1.002,1.003 -0.03,6.831 -0.035,13.663 0.004,20.494 0.005,0.902 -0.329,1.029 -1.109,1.02 -3.354,-0.037 -6.71,-0.016 -10.066,-0.016 z"
   id="path38"
   inkscape:connector-curvature="0"
   style="fill:#b7b7b7" />
	<path
   d="m 415.081,402.08 c 0,3.438 -0.021,6.873 0.017,10.311 0.009,0.732 -0.188,0.947 -0.935,0.945 -6.873,-0.027 -13.746,-0.025 -20.619,-0.003 -0.704,0.003 -0.966,-0.144 -0.962,-0.916 0.03,-6.873 0.025,-13.746 0.006,-20.619 -0.002,-0.656 0.166,-0.917 0.869,-0.915 6.913,0.021 13.826,0.024 20.739,-0.003 0.8,-0.003 0.9,0.344 0.896,1.011 -0.024,3.396 -0.011,6.793 -0.011,10.189 z"
   id="path40"
   inkscape:connector-curvature="0"
   style="fill:#7c7c7c" />
	<path
   d="m 384.918,372.825 c 0,3.359 -0.042,6.72 0.026,10.077 0.02,0.988 -0.309,1.161 -1.207,1.156 -6.72,-0.036 -13.438,-0.035 -20.156,0 -0.857,0.004 -1.158,-0.161 -1.152,-1.1 0.044,-6.758 0.043,-13.517 0.001,-20.275 -0.006,-0.974 0.301,-1.188 1.221,-1.184 6.719,0.037 13.438,0.038 20.155,-0.001 0.898,-0.005 1.148,0.225 1.135,1.13 -0.056,3.398 -0.023,6.798 -0.023,10.197 z"
   id="path42"
   inkscape:connector-curvature="0"
   style="fill:#898989" />
	<path
   d="m 445.227,372.756 c 0,3.397 -0.021,6.795 0.016,10.191 0.008,0.771 -0.102,1.119 -1.011,1.114 -6.835,-0.04 -13.669,-0.032 -20.503,-0.006 -0.716,0.002 -0.949,-0.151 -0.946,-0.916 0.032,-6.914 0.025,-13.829 0.006,-20.743 -0.002,-0.661 0.164,-0.894 0.862,-0.892 6.874,0.024 13.749,0.03 20.623,-0.006 0.865,-0.004 0.971,0.353 0.965,1.065 -0.026,3.399 -0.012,6.796 -0.012,10.193 z"
   id="path44"
   inkscape:connector-curvature="0"
   style="fill:#898989" />
	<path
   d="m 475.396,372.817 c 0,3.398 -0.03,6.798 0.021,10.196 0.013,0.866 -0.262,1.048 -1.08,1.044 -6.757,-0.032 -13.515,-0.032 -20.271,0 -0.813,0.004 -1.088,-0.169 -1.083,-1.04 0.038,-6.797 0.038,-13.595 0,-20.392 -0.005,-0.91 0.25,-1.132 1.14,-1.127 6.717,0.037 13.435,0.037 20.152,0 0.885,-0.005 1.16,0.208 1.145,1.124 -0.057,3.398 -0.024,6.797 -0.024,10.195 z"
   id="path46"
   inkscape:connector-curvature="0"
   style="fill:#b7b7b7" />
	<path
   d="m 483.181,372.76 c 0,-3.32 0.031,-6.64 -0.02,-9.959 -0.015,-0.942 0.168,-1.315 1.225,-1.308 6.721,0.05 13.44,0.04 20.16,0.007 0.834,-0.004 1.077,0.212 1.072,1.061 -0.034,6.84 -0.033,13.68 0,20.52 0.004,0.816 -0.263,0.979 -1.018,0.976 -6.799,-0.026 -13.6,-0.032 -20.398,0.004 -0.881,0.005 -1.046,-0.302 -1.038,-1.099 0.039,-3.402 0.017,-6.802 0.017,-10.202 z"
   id="path48"
   inkscape:connector-curvature="0"
   style="fill:#c5c5c5" />
	<path
   d="m 403.784,442.637 c -3.398,0 -6.796,-0.023 -10.193,0.02 -0.794,0.01 -1.012,-0.228 -1.009,-1.011 0.028,-6.796 0.028,-13.592 0,-20.387 -0.003,-0.813 0.201,-1.103 1.06,-1.098 6.796,0.03 13.592,0.03 20.388,0 0.848,-0.004 1.071,0.265 1.068,1.09 -0.028,6.795 -0.027,13.591 -0.001,20.386 0.003,0.772 -0.194,1.029 -1,1.02 -3.437,-0.045 -6.875,-0.02 -10.313,-0.02 z"
   id="path50"
   inkscape:connector-curvature="0"
   style="fill:#acacac" />
	<path
   d="m 403.78,471.918 c -3.4,0 -6.8,-0.025 -10.199,0.019 -0.806,0.012 -1,-0.244 -0.998,-1.017 0.027,-6.8 0.027,-13.6 0,-20.398 -0.003,-0.771 0.192,-1.021 0.997,-1.018 6.839,0.032 13.679,0.032 20.519,0 0.806,-0.004 1,0.245 0.998,1.018 -0.026,6.8 -0.026,13.599 0,20.397 0.003,0.771 -0.19,1.028 -0.998,1.019 -3.439,-0.045 -6.879,-0.02 -10.319,-0.02 z"
   id="path52"
   inkscape:connector-curvature="0"
   style="fill:#898989" />
	<path
   d="m 373.721,442.638 c -3.438,0 -6.877,-0.018 -10.315,0.016 -0.708,0.006 -0.973,-0.158 -0.968,-0.924 0.027,-6.878 0.026,-13.756 0.002,-20.633 -0.004,-0.755 0.263,-0.938 0.973,-0.936 6.877,0.021 13.754,0.021 20.632,0 0.672,-0.002 0.889,0.196 0.887,0.879 -0.021,6.917 -0.027,13.835 0.007,20.752 0.005,0.854 -0.398,0.856 -1.02,0.854 -3.4,-0.017 -6.799,-0.008 -10.198,-0.008 z"
   id="path54"
   inkscape:connector-curvature="0"
   style="fill:#898989" />
	<path
   d="m 422.801,402.162 c 0,-3.437 0.019,-6.874 -0.015,-10.311 -0.006,-0.704 0.146,-0.973 0.917,-0.969 6.834,0.029 13.668,0.027 20.503,0.002 0.769,-0.003 1.034,0.207 1.031,1.006 -0.027,6.834 -0.026,13.668 -0.001,20.502 0.003,0.735 -0.208,0.944 -0.944,0.941 -6.874,-0.025 -13.749,-0.031 -20.623,0.004 -0.815,0.004 -0.885,-0.324 -0.88,-0.984 0.025,-3.396 0.012,-6.792 0.012,-10.191 z"
   id="path56"
   inkscape:connector-curvature="0"
   style="fill:#acacac" />
	<path
   d="m 445.227,431.566 c 0,3.355 -0.021,6.713 0.017,10.068 0.008,0.771 -0.194,1.022 -0.995,1.021 -6.833,-0.03 -13.666,-0.026 -20.499,-0.004 -0.688,0.002 -0.971,-0.113 -0.967,-0.901 0.033,-6.873 0.034,-13.746 0,-20.619 -0.004,-0.83 0.289,-0.975 1.028,-0.972 6.793,0.022 13.586,0.028 20.381,-0.004 0.867,-0.005 1.063,0.294 1.053,1.102 -0.04,3.435 -0.018,6.873 -0.018,10.309 z"
   id="path58"
   inkscape:connector-curvature="0"
   style="fill:#898989" />
	<path
   d="m 475.396,431.478 c 0,3.356 -0.021,6.716 0.017,10.071 0.009,0.782 -0.126,1.113 -1.022,1.108 -6.794,-0.038 -13.589,-0.031 -20.383,-0.006 -0.759,0.003 -1.024,-0.177 -1.021,-0.985 0.03,-6.834 0.029,-13.669 10e-4,-20.503 -0.003,-0.8 0.253,-1.002 1.022,-0.999 6.794,0.025 13.589,0.032 20.384,-0.005 0.909,-0.005 1.025,0.354 1.019,1.126 -0.036,3.398 -0.017,6.795 -0.017,10.193 z"
   id="path60"
   inkscape:connector-curvature="0"
   style="fill:#b7b7b7" />
	<path
   d="m 505.599,431.443 c 0,3.396 -0.021,6.796 0.017,10.192 0.008,0.76 -0.174,1.021 -0.984,1.019 -6.796,-0.031 -13.592,-0.031 -20.388,-10e-4 -0.831,0.004 -1.083,-0.224 -1.08,-1.068 0.032,-6.756 0.033,-13.512 0,-20.268 -0.004,-0.882 0.226,-1.16 1.135,-1.155 6.756,0.036 13.512,0.035 20.269,0 0.862,-0.004 1.061,0.271 1.05,1.087 -0.043,3.397 -0.019,6.796 -0.019,10.194 z"
   id="path62"
   inkscape:connector-curvature="0"
   style="fill:#cecece" />
	<path
   d="m 494.554,449.523 c 3.319,0 6.64,0.021 9.958,-0.017 0.776,-0.009 1.114,0.111 1.109,1.016 -0.039,6.799 -0.033,13.598 -0.006,20.396 0.003,0.761 -0.178,1.021 -0.985,1.016 -6.798,-0.031 -13.597,-0.031 -20.396,0 -0.843,0.005 -1.075,-0.242 -1.071,-1.076 0.031,-6.76 0.031,-13.519 0,-20.276 -0.004,-0.836 0.231,-1.087 1.072,-1.076 3.44,0.043 6.879,0.017 10.319,0.017 z"
   id="path64"
   inkscape:connector-curvature="0"
   style="fill:#c5c5c5" />
	<path
   d="m 384.917,402.175 c 0,3.356 -0.022,6.714 0.017,10.069 0.01,0.783 -0.124,1.102 -1.018,1.097 -6.833,-0.039 -13.666,-0.036 -20.498,-0.003 -0.818,0.004 -0.983,-0.27 -0.98,-1.021 0.025,-6.793 0.029,-13.585 -0.003,-20.377 -0.004,-0.859 0.278,-1.064 1.096,-1.061 6.792,0.029 13.585,0.033 20.378,-0.004 0.898,-0.005 1.033,0.329 1.024,1.113 -0.037,3.394 -0.016,6.79 -0.016,10.187 z"
   id="path66"
   inkscape:connector-curvature="0"
   style="fill:#626262" />
	<path
   d="m 384.918,460.715 c 0,3.356 -0.025,6.713 0.018,10.068 0.012,0.835 -0.117,1.168 -1.08,1.161 -6.792,-0.049 -13.587,-0.041 -20.379,-0.006 -0.861,0.004 -1.049,-0.271 -1.045,-1.085 0.03,-6.753 0.038,-13.506 -0.007,-20.258 -0.006,-0.948 0.317,-1.097 1.161,-1.093 6.752,0.031 13.506,0.039 20.258,-0.007 0.942,-0.007 1.105,0.294 1.094,1.147 -0.047,3.359 -0.02,6.715 -0.02,10.073 z"
   id="path68"
   inkscape:connector-curvature="0"
   style="fill:#6b6b6b" />
	<path
   d="m 433.959,449.523 c 3.399,0 6.799,0.024 10.198,-0.019 0.832,-0.011 1.084,0.223 1.08,1.068 -0.033,6.759 -0.031,13.518 -0.001,20.275 0.004,0.824 -0.212,1.088 -1.063,1.084 -6.799,-0.031 -13.598,-0.03 -20.396,0 -0.797,0.003 -0.995,-0.235 -0.992,-1.009 0.028,-6.799 0.034,-13.598 -0.005,-20.396 -0.005,-0.894 0.314,-1.031 1.102,-1.022 3.358,0.042 6.718,0.019 10.077,0.019 z"
   id="path70"
   inkscape:connector-curvature="0"
   style="fill:#c5c5c5" />
	<path
   d="m 453.002,402.057 c 0,-3.356 0.021,-6.714 -0.016,-10.071 -0.01,-0.783 0.124,-1.118 1.023,-1.113 6.794,0.038 13.588,0.032 20.382,0.005 0.765,-0.003 1.025,0.186 1.022,0.991 -0.03,6.834 -0.033,13.668 0.003,20.503 0.004,0.835 -0.295,0.964 -1.028,0.961 -6.794,-0.022 -13.589,-0.031 -20.383,0.008 -0.888,0.005 -1.031,-0.302 -1.021,-1.093 0.041,-3.396 0.018,-6.794 0.018,-10.191 z"
   id="path72"
   inkscape:connector-curvature="0"
   style="fill:#898989" />
	<path
   d="m 464.143,471.917 c -3.397,0 -6.797,-0.018 -10.194,0.015 -0.71,0.008 -0.965,-0.157 -0.961,-0.924 0.029,-6.877 0.026,-13.754 0.003,-20.631 -0.002,-0.696 0.229,-0.868 0.893,-0.866 6.877,0.021 13.754,0.026 20.63,-0.006 0.802,-0.004 0.897,0.315 0.896,0.987 -0.02,6.837 -0.023,13.674 0.005,20.511 0.003,0.759 -0.238,0.936 -0.956,0.929 -3.439,-0.034 -6.878,-0.015 -10.316,-0.015 z"
   id="path74"
   inkscape:connector-curvature="0"
   style="fill:#acacac" />
	<path
   d="m 505.599,402.165 c 0,3.356 -0.021,6.715 0.017,10.071 0.009,0.772 -0.101,1.109 -1.007,1.104 -6.794,-0.041 -13.589,-0.036 -20.384,-0.004 -0.838,0.004 -1.068,-0.229 -1.064,-1.067 0.033,-6.754 0.036,-13.507 -0.002,-20.263 -0.005,-0.917 0.285,-1.132 1.158,-1.127 6.754,0.033 13.509,0.035 20.263,-0.002 0.878,-0.005 1.046,0.295 1.037,1.096 -0.041,3.398 -0.018,6.796 -0.018,10.192 z"
   id="path76"
   inkscape:connector-curvature="0"
   style="fill:#acacac" />
	<path
   d="m 852.08,380.413 c 0.006,-9.417 5.84,-15.773 14.092,-16.581 4.595,-0.45 8.795,0.471 12.496,3.358 0.806,0.628 1.026,1.125 0.333,2.014 -0.806,1.035 -1.5,2.169 -2.14,3.317 -0.403,0.722 -0.656,0.607 -1.219,0.161 -3.076,-2.446 -6.52,-3.362 -10.32,-2.047 -3.964,1.371 -6.151,5.416 -5.57,10.042 0.5,3.987 3.799,7.248 7.731,7.7 3.617,0.416 6.656,-0.898 9.38,-3.11 0.583,-0.474 0.813,-0.554 1.171,0.188 0.604,1.257 1.258,2.497 1.995,3.68 0.408,0.656 0.289,1.031 -0.245,1.491 -2.851,2.459 -6.173,3.822 -9.895,4.095 -6.023,0.442 -11.23,-1.231 -14.966,-6.272 -2.017,-2.726 -2.817,-5.866 -2.843,-8.036 z"
   id="path78"
   inkscape:connector-curvature="0"
   style="fill:#272727" />
	<path
   d="m 787.922,373.239 c -3.002,-2.567 -6.302,-3.806 -10.153,-2.881 -4.269,1.025 -6.923,5.036 -6.55,9.741 0.348,4.364 3.712,7.848 7.938,8.293 3.202,0.337 5.965,-0.719 8.513,-2.53 0.486,-0.345 0.941,-0.733 1.479,-1.153 0.87,1.599 1.698,3.186 2.594,4.734 0.447,0.774 -0.208,1.008 -0.578,1.318 -2.841,2.38 -6.136,3.716 -9.82,3.971 -5.641,0.389 -10.693,-1.02 -14.325,-5.606 -3.843,-4.855 -4.435,-10.374 -2.139,-16.035 2.273,-5.606 6.751,-8.526 12.682,-9.235 4.622,-0.552 8.877,0.403 12.627,3.303 0.854,0.66 1.026,1.183 0.335,2.102 -0.936,1.237 -1.712,2.595 -2.603,3.978 z"
   id="path80"
   inkscape:connector-curvature="0"
   style="fill:#272727" />
	<path
   d="m 860.107,447.517 c -9.045,-0.008 -15.009,-4.497 -16.783,-11.752 -2.437,-9.955 4.814,-19.229 15.07,-19.333 4.173,-0.043 7.972,0.926 11.264,3.611 0.724,0.592 0.768,1.024 0.231,1.758 -0.798,1.094 -1.52,2.249 -2.203,3.42 -0.394,0.674 -0.653,0.625 -1.237,0.167 -3.04,-2.379 -6.412,-3.358 -10.192,-2.066 -3.999,1.364 -6.379,5.571 -5.696,9.945 0.709,4.547 4.146,7.734 8.441,7.901 3.292,0.128 6.09,-1.077 8.575,-3.104 0.644,-0.525 0.942,-0.623 1.341,0.23 0.57,1.226 1.223,2.423 1.945,3.567 0.454,0.719 0.235,1.074 -0.336,1.555 -3.361,2.819 -7.256,4.079 -10.42,4.101 z"
   id="path82"
   inkscape:connector-curvature="0"
   style="fill:#272727" />
	<path
   d="m 798.204,378.306 c 0,-2.198 -0.032,-4.397 0.018,-6.595 0.018,-0.76 -0.231,-0.954 -0.957,-0.931 -0.907,0.029 -2.077,0.396 -2.667,-0.151 -0.657,-0.611 -0.197,-1.813 -0.216,-2.753 -0.019,-0.951 -0.417,-2.169 0.164,-2.787 0.592,-0.629 1.823,-0.211 2.768,-0.184 0.822,0.023 1.095,-0.183 1.068,-1.046 -0.064,-2.197 0.006,-4.397 -0.037,-6.595 -0.015,-0.731 0.204,-0.974 0.943,-0.955 1.798,0.046 3.599,0.059 5.395,-0.004 0.852,-0.03 0.979,0.332 0.967,1.055 -0.035,2.198 0.017,4.397 -0.029,6.594 -0.016,0.739 0.198,0.968 0.942,0.942 1.597,-0.055 3.199,0.044 4.795,-0.04 0.944,-0.05 1.152,0.291 1.102,1.156 -0.072,1.195 -0.072,2.4 -0.001,3.595 0.055,0.907 -0.164,1.273 -1.163,1.216 -1.594,-0.092 -3.196,-0.023 -4.795,-0.026 -0.444,0 -0.878,-0.074 -0.871,0.628 0.033,3.796 -0.092,7.599 0.088,11.387 0.159,3.332 2.359,5.111 5.896,4.996 1.003,-0.033 1.31,0.177 1.247,1.195 -0.092,1.473 -0.031,2.956 -0.021,4.435 0.004,0.481 -0.034,0.859 -0.665,0.896 -3.112,0.182 -6.151,-0.057 -8.955,-1.578 -3.735,-2.028 -4.937,-5.434 -5.01,-9.417 -0.031,-1.675 -0.006,-3.354 -0.006,-5.033 z"
   id="path84"
   inkscape:connector-curvature="0"
   style="fill:#272727" />
	<path
   d="m 651.564,377.917 c 0,-2.079 -0.021,-4.158 0.013,-6.236 0.011,-0.656 -0.156,-0.912 -0.862,-0.901 -0.947,0.014 -2.185,0.431 -2.773,-0.169 -0.639,-0.648 -0.194,-1.9 -0.205,-2.885 -0.031,-2.832 -0.012,-2.879 2.848,-2.819 0.979,0.021 1.186,-0.291 1.157,-1.199 -0.064,-2.116 0.005,-4.237 -0.033,-6.354 -0.014,-0.734 0.12,-1.081 0.973,-1.049 1.796,0.067 3.599,0.054 5.396,0.004 0.754,-0.021 0.948,0.247 0.935,0.964 -0.04,2.118 0.036,4.239 -0.037,6.354 -0.032,0.965 0.174,1.345 1.223,1.278 1.514,-0.097 3.038,0.006 4.556,-0.038 0.698,-0.02 1.013,0.143 0.98,0.917 -0.057,1.357 -0.052,2.719 -10e-4,4.076 0.025,0.727 -0.189,0.981 -0.942,0.957 -1.637,-0.053 -3.278,0.012 -4.916,-0.03 -0.67,-0.018 -0.896,0.174 -0.89,0.869 0.03,3.637 -0.028,7.276 0.026,10.913 0.052,3.438 2.396,5.441 6.164,5.24 0.913,-0.049 1.069,0.188 1.039,1.002 -0.057,1.517 -0.038,3.038 -0.006,4.556 0.013,0.631 -0.149,0.948 -0.847,0.985 -2.414,0.13 -4.79,-0.018 -7.089,-0.824 -4.301,-1.507 -6.649,-4.913 -6.702,-9.734 -0.025,-1.96 -0.007,-3.919 -0.007,-5.877 z"
   id="path86"
   inkscape:connector-curvature="0"
   style="fill:#272727" />
	<path
   d="m 718.2,369.661 c 0,-5.274 0.02,-10.547 -0.021,-15.821 -0.007,-0.846 0.232,-1.086 1.066,-1.057 1.756,0.062 3.519,0.078 5.271,-0.005 0.922,-0.043 1.104,0.248 1.102,1.124 -0.033,9.868 -0.022,19.737 -0.018,29.605 10e-4,0.597 0.004,1.205 0.114,1.788 0.341,1.817 1.111,2.521 2.944,2.436 0.97,-0.045 1.108,0.271 1.074,1.107 -0.063,1.476 -0.06,2.958 -0.002,4.434 0.03,0.767 -0.198,1.069 -0.983,1.091 -1.843,0.05 -3.68,0.085 -5.455,-0.503 -3.054,-1.012 -4.407,-3.351 -4.896,-6.351 -0.271,-1.666 -0.197,-3.345 -0.198,-5.021 0,-4.277 0.002,-8.552 0.002,-12.827 z"
   id="path88"
   inkscape:connector-curvature="0"
   style="fill:#272727" />
	<path
   d="m 748.641,422.553 c 0,-5.313 0.025,-10.629 -0.022,-15.941 -0.009,-0.916 0.239,-1.146 1.126,-1.107 1.715,0.073 3.438,0.085 5.151,-0.003 1.006,-0.052 1.165,0.335 1.162,1.228 -0.027,9.83 -0.019,19.66 -0.017,29.489 0,0.479 -0.001,0.961 0.044,1.438 0.19,2.021 1.08,2.875 3.106,2.799 0.812,-0.031 1.013,0.173 0.984,0.953 -0.058,1.597 -0.014,3.196 -0.021,4.795 -10e-4,0.331 0.128,0.73 -0.445,0.783 -3.291,0.296 -6.525,0.308 -8.999,-2.376 -1.572,-1.707 -2.023,-3.889 -2.049,-6.111 -0.061,-5.317 -0.019,-10.633 -0.02,-15.947 z"
   id="path90"
   inkscape:connector-curvature="0"
   style="fill:#272727" />
	<path
   d="m 740.479,421.774 c 0,4.879 0,9.757 0,14.636 0,0.639 0.017,1.271 0.182,1.9 0.414,1.585 1.122,2.24 2.825,2.132 1.051,-0.066 1.159,0.33 1.129,1.186 -0.056,1.518 -0.013,3.038 -0.02,4.558 -0.002,0.337 0.117,0.744 -0.442,0.797 -3.294,0.303 -6.533,0.306 -8.997,-2.39 -1.66,-1.813 -2.049,-4.137 -2.059,-6.479 -0.04,-10.517 -0.008,-21.032 -0.035,-31.55 -0.003,-0.861 0.27,-1.082 1.087,-1.057 1.718,0.055 3.439,0.064 5.156,-0.003 0.902,-0.035 1.21,0.179 1.199,1.155 -0.054,5.039 -0.025,10.077 -0.025,15.115 z"
   id="path92"
   inkscape:connector-curvature="0"
   style="fill:#272727" />
	<path
   d="m 824.959,370.84 c 1.531,-3.172 3.637,-5.582 7.102,-6.545 0.077,-0.021 0.15,-0.055 0.229,-0.074 3.01,-0.726 3.432,-0.409 3.432,2.576 0,1.279 -0.005,2.558 0.003,3.836 0.002,0.431 10e-4,0.712 -0.612,0.745 -6.6,0.353 -9.696,3.516 -9.856,10.149 -0.094,3.874 -0.063,7.751 -0.034,11.627 0.006,0.788 -0.209,1.006 -0.988,0.982 -1.876,-0.057 -3.758,-0.05 -5.635,-0.002 -0.695,0.018 -0.851,-0.214 -0.849,-0.875 0.021,-9.311 0.021,-18.622 -10e-4,-27.933 -0.002,-0.717 0.156,-0.972 0.921,-0.947 1.796,0.059 3.597,0.06 5.395,0 0.773,-0.026 0.932,0.247 0.913,0.955 -0.049,1.836 -0.02,3.671 -0.02,5.506 z"
   id="path94"
   inkscape:connector-curvature="0"
   style="fill:#272727" />
	<path
   d="m 634.399,370.893 c 1.57,-3.22 3.692,-5.672 7.23,-6.621 0.077,-0.021 0.15,-0.058 0.229,-0.076 2.942,-0.678 3.34,-0.375 3.34,2.559 0,1.28 -0.022,2.561 0.01,3.84 0.015,0.582 -0.085,0.806 -0.771,0.783 -5.399,-0.172 -9.023,3.019 -9.56,8.416 -0.432,4.348 -0.156,8.712 -0.166,13.068 -0.003,1.08 -0.286,1.336 -1.318,1.283 -1.756,-0.091 -3.52,-0.052 -5.277,-0.012 -0.657,0.015 -0.894,-0.147 -0.893,-0.853 0.023,-9.32 0.024,-18.64 -10e-4,-27.96 -0.002,-0.752 0.226,-0.956 0.953,-0.936 1.759,0.049 3.521,0.066 5.278,-0.005 0.853,-0.035 0.977,0.302 0.959,1.034 -0.042,1.825 -0.013,3.653 -0.013,5.48 z"
   id="path96"
   inkscape:connector-curvature="0"
   style="fill:#272727" />
	<path
   d="m 667.512,423.391 c 1.894,-4.342 5.271,-6.735 9.314,-6.688 0.896,0.01 1.177,0.291 1.146,1.179 -0.061,1.837 -0.024,3.678 -0.015,5.518 0.003,0.446 -0.03,0.694 -0.628,0.725 -6.585,0.323 -9.771,3.681 -9.808,10.313 -0.021,3.759 -0.038,7.518 0.02,11.273 0.015,0.915 -0.237,1.145 -1.126,1.108 -1.796,-0.073 -3.598,-0.051 -5.396,-0.009 -0.692,0.018 -0.964,-0.115 -0.96,-0.9 0.028,-9.314 0.025,-18.628 0.005,-27.942 -0.002,-0.686 0.196,-0.876 0.87,-0.859 2.036,0.051 4.075,0.035 6.113,0.045 0.235,1.797 0.025,3.604 0.123,5.402 0.018,0.275 -0.323,0.789 0.342,0.835 z"
   id="path98"
   inkscape:connector-curvature="0"
   style="fill:#272727" />
	<path
   d="m 846.839,379.256 c 0,4.52 -0.045,9.041 0.032,13.559 0.02,1.148 -0.35,1.375 -1.391,1.327 -1.757,-0.082 -3.52,-0.046 -5.277,-0.01 -0.621,0.013 -0.817,-0.166 -0.816,-0.805 0.021,-9.359 0.021,-18.719 -10e-4,-28.079 -10e-4,-0.709 0.247,-0.874 0.902,-0.861 1.84,0.037 3.682,0.059 5.52,-0.007 0.862,-0.031 1.057,0.257 1.051,1.077 -0.04,4.599 -0.02,9.199 -0.02,13.799 z"
   id="path100"
   inkscape:connector-curvature="0"
   style="fill:#272727" />
	<path
   d="m 772.199,431.97 c 0,4.594 -0.021,9.187 0.019,13.777 0.007,0.824 -0.193,1.101 -1.05,1.069 -1.795,-0.067 -3.594,-0.051 -5.391,-0.008 -0.745,0.019 -1.039,-0.146 -1.037,-0.981 0.031,-9.266 0.028,-18.53 0.003,-27.795 -0.003,-0.759 0.23,-0.944 0.95,-0.927 1.876,0.045 3.755,0.06 5.63,-0.006 0.805,-0.026 0.892,0.299 0.889,0.973 -0.024,4.633 -0.013,9.266 -0.013,13.898 z"
   id="path102"
   inkscape:connector-curvature="0"
   style="fill:#272727" />
	<path
   d="m 843.086,359.435 c -0.998,0 -1.997,-0.015 -2.994,0.006 -0.508,0.01 -0.705,-0.18 -0.699,-0.7 0.021,-1.756 0.023,-3.513 -0.002,-5.269 -0.008,-0.535 0.203,-0.682 0.702,-0.678 2.036,0.018 4.072,0.019 6.107,-10e-4 0.478,-0.004 0.61,0.175 0.605,0.627 -0.019,1.796 -0.026,3.593 0.003,5.389 0.012,0.582 -0.27,0.641 -0.729,0.632 -0.997,-0.019 -1.995,-0.005 -2.993,-0.006 z"
   id="path104"
   inkscape:connector-curvature="0"
   style="fill:#272727" />
	<path
   d="m 768.539,412.119 c -1.036,0 -2.072,-0.021 -3.106,0.009 -0.519,0.015 -0.689,-0.166 -0.683,-0.687 0.026,-1.713 0.025,-3.426 10e-4,-5.139 -0.008,-0.545 0.136,-0.796 0.732,-0.787 1.99,0.024 3.982,0.029 5.974,-0.005 0.61,-0.01 0.72,0.239 0.712,0.774 -0.026,1.712 -0.036,3.426 0.004,5.137 0.015,0.616 -0.23,0.727 -0.767,0.706 -0.955,-0.032 -1.912,-0.008 -2.867,-0.008 z"
   id="path106"
   inkscape:connector-curvature="0"
   style="fill:#272727" />
	<path
   d="m 795.948,442.876 c 0.058,-0.1 0.093,-0.255 0.177,-0.288 0.348,-0.138 0.271,0.154 0.271,0.318 -0.007,0.959 0.005,1.919 -0.049,2.876 -0.037,0.678 0.211,0.913 0.893,0.896 1.518,-0.039 3.04,-0.063 4.556,0.007 0.896,0.041 1.155,-0.229 1.147,-1.137 -0.057,-6.313 -0.057,-12.631 -0.071,-18.946 0,-0.116 0.032,-0.234 0.05,-0.354 0.314,0.511 0.218,1.084 0.218,1.633 0.011,5.949 -0.017,11.898 0.029,17.848 0.008,0.976 -0.291,1.235 -1.221,1.193 -1.556,-0.07 -3.115,-0.063 -4.67,-0.001 -0.874,0.035 -1.195,-0.204 -1.172,-1.129 0.025,-0.966 0.241,-1.965 -0.158,-2.916 z"
   id="path108"
   inkscape:connector-curvature="0"
   style="fill:#818181" />
	<path
   d="m 667.512,423.391 c 0.048,0.311 -0.158,0.509 -0.461,0.939 0,-2.534 0,-4.857 0,-7.18 0.502,0.304 0.217,0.789 0.25,1.187 0.141,1.681 -0.23,3.384 0.211,5.054 z"
   id="path110"
   inkscape:connector-curvature="0"
   style="fill:#8b8b8b" />
	<path
   d="m 592.61,438.507 c 0.082,0.382 -0.104,0.691 -0.271,1.022 -0.295,-0.125 -0.16,-0.355 -0.149,-0.552 0.139,-0.156 0.28,-0.313 0.42,-0.47 z"
   id="path112"
   inkscape:connector-curvature="0"
   style="fill:#a9a9a9" />
	<path
   d="m 706.196,429.994 c 1.704,-5.689 3.931,-11.199 5.344,-16.994 1.247,5.793 3.474,11.266 5.236,16.994 -3.564,0 -7.039,0 -10.58,0 z"
   id="path114"
   inkscape:connector-curvature="0"
   style="fill:#fefefe" />
	<path
   d="m 525.623,426.04 c -1.159,0 -2.318,-0.024 -3.475,0.01 -0.561,0.018 -0.764,-0.146 -0.76,-0.735 0.022,-4.154 0.021,-8.311 0.002,-12.465 -0.003,-0.594 0.137,-0.865 0.792,-0.854 2.197,0.03 4.398,-0.072 6.592,0.032 4.613,0.219 7.257,3.736 6.422,8.422 -0.6,3.36 -2.782,5.332 -6.22,5.547 -1.113,0.069 -2.235,0.011 -3.354,0.011 0.001,0.009 0.001,0.02 0.001,0.032 z"
   id="path116"
   inkscape:connector-curvature="0"
   style="fill:#fefefe" />
	<path
   d="m 552.521,431.977 c -0.014,-5.193 3.916,-9.306 8.839,-9.249 4.897,0.057 8.719,4.109 8.719,9.253 0,5.204 -3.773,9.176 -8.727,9.181 -5.062,0.003 -8.818,-3.901 -8.831,-9.185 z"
   id="path118"
   inkscape:connector-curvature="0"
   style="fill:#fefefe" />
	<path
   d="m 887.607,428.239 c -1.915,0 -3.83,-0.017 -5.744,0.009 -0.596,0.008 -0.722,-0.12 -0.572,-0.744 0.93,-3.927 5.07,-6.279 8.904,-5.016 2.121,0.699 3.688,2.92 3.78,5.204 0.029,0.725 -0.4,0.538 -0.745,0.54 -1.873,0.014 -3.748,0.007 -5.623,0.007 z"
   id="path120"
   inkscape:connector-curvature="0"
   style="fill:#fefefe" />
	<path
   d="m 640.484,428.239 c -1.836,0 -3.675,-0.021 -5.511,0.01 -0.666,0.011 -0.917,-0.075 -0.7,-0.857 1.053,-3.818 4.751,-6.002 8.536,-4.979 2.294,0.62 3.927,2.676 4.098,5.051 0.05,0.687 -0.198,0.796 -0.793,0.786 -1.876,-0.029 -3.753,-0.011 -5.63,-0.011 z"
   id="path122"
   inkscape:connector-curvature="0"
   style="fill:#fefefe" />
	<path
   d="m 746.056,375.6 c -1.838,0 -3.676,-0.029 -5.513,0.014 -0.743,0.017 -0.87,-0.204 -0.689,-0.899 0.987,-3.812 4.854,-6.075 8.638,-5.018 2.229,0.623 3.901,2.81 4.021,5.134 0.036,0.705 -0.25,0.784 -0.822,0.777 -1.88,-0.023 -3.758,-0.008 -5.635,-0.008 z"
   id="path124"
   inkscape:connector-curvature="0"
   style="fill:#fefefe" />
	<path
   d="m 610.127,380.621 c 3.053,-0.226 3.293,0.061 2.646,2.609 -0.805,3.164 -3.221,5.467 -6.016,5.733 -2.482,0.237 -4.529,-1.184 -4.771,-3.313 -0.2,-1.764 0.696,-3.172 2.602,-3.978 1.903,-0.803 3.922,-1.024 5.539,-1.051 z"
   id="path126"
   inkscape:connector-curvature="0"
   style="fill:#fefefe" />
	<path
   d="m 793.458,433.28 c 2.465,-0.002 2.582,0.13 2.134,2.136 -0.486,2.174 -1.529,3.998 -3.394,5.298 -1.282,0.896 -2.705,1.13 -4.214,0.896 -1.771,-0.273 -3.05,-1.521 -3.312,-3.157 -0.246,-1.546 0.506,-2.954 2.111,-3.805 2.22,-1.173 4.663,-1.242 6.675,-1.368 z"
   id="path128"
   inkscape:connector-curvature="0"
   style="fill:#fefefe" />
</g>
</svg>