<?xml version="1.0" encoding="utf-8"?>
<!-- Generator: Adobe Illustrator 16.0.0, SVG Export Plug-In . SVG Version: 6.00 Build 0)  -->
<!DOCTYPE svg PUBLIC "-//W3C//DTD SVG 1.1//EN" "http://www.w3.org/Graphics/SVG/1.1/DTD/svg11.dtd">
<svg version="1.1" id="Layer_1" xmlns="http://www.w3.org/2000/svg" xmlns:xlink="http://www.w3.org/1999/xlink" x="0px" y="0px"
	 width="2721.024px" height="1334.273px" viewBox="0 0 2721.024 1334.273" enable-background="new 0 0 2721.024 1334.273"
	 xml:space="preserve">
<g>
	<path fill-rule="evenodd" clip-rule="evenodd" fill="#C6AB73" d="M1365.704,749.108c-7.218-2.283-14.438-4.561-21.651-6.857
		c-1.155-0.369-2.268-0.885-3.867-0.932c0,4.036,0.022,8.029-0.016,12.022c-0.01,0.956,0.354,1.632,1.073,2.185
		c0.486,0.372,0.923,0.833,1.455,1.116c4.134,2.205,4.837,5.702,3.759,10.005c-2.687-0.236-5.133-1.395-7.658-2.204
		c-1.585-0.509-3.006-0.629-4.601-0.025c-2.168,0.819-4.427,1.397-6.642,2.095c-1.175,0.37-1.92,0.155-1.908-1.262
		c0.013-1.47,0.062-2.943-0.014-4.408c-0.077-1.521,0.992-2.248,2.027-2.803c3.372-1.807,4.338-4.568,3.874-8.215
		c-0.336-2.641,0.229-5.355-0.371-8.379c-8.913,2.928-17.687,5.811-27.018,8.875c0-2.916,0.02-5.309-0.007-7.702
		c-0.019-1.587,1.302-1.929,2.303-2.538c6.794-4.136,13.489-8.452,20.449-12.287c3.522-1.939,5.102-4.19,4.817-8.296
		c-0.311-4.503,0.242-9.06,0.127-13.584c-0.081-3.241,1.678-4.73,4.175-5.037c2.514-0.31,4.604,1.872,4.67,5.007
		c0.114,5.387,0.131,10.78-0.012,16.166c-0.057,2.1,0.622,3.266,2.456,4.346c8.113,4.775,16.12,9.734,24.165,14.626
		c0.611,0.95,0.265,1.468-0.756,1.686c-2.969-0.605-5.23-2.589-7.748-4.055c-5.709-3.323-11.323-6.808-17.019-10.154
		c-2.354-1.383-3.456-3.245-3.403-5.993c0.08-4.157,0.024-8.318,0.015-12.479c-0.001-0.978,0.04-1.959-0.051-2.934
		c-0.13-1.38-0.353-2.974-2.041-3.008c-1.926-0.039-1.777,1.74-1.775,3.023c0.009,5.139-0.238,10.25-0.689,15.375
		c-0.254,2.885-1.298,4.777-3.759,6.191c-6.258,3.596-12.381,7.42-18.518,11.217c-1.144,0.708-2.346,1.334-3.383,2.197
		c-1.107,0.922-1.907,2.172-1.268,3.533c0.759,1.615,2.165,0.563,3.212,0.225c6.287-2.026,12.522-4.213,18.814-6.227
		c3.788-1.213,4.623-0.598,4.784,3.326c0.096,2.322-0.102,4.657,0.057,6.971c0.273,4.005-0.254,7.551-4.139,9.814
		c-0.925,0.539-1.802,1.581-1.192,2.773c0.574,1.124,1.778,0.674,2.632,0.328c3.442-1.394,6.844-1.668,10.323-0.13
		c0.749,0.331,1.792,0.61,2.296-0.351c0.466-0.891-0.139-1.816-0.862-2.202c-5.782-3.086-5.271-8.437-5.203-13.749
		c0.109-8.509,0.425-8.85,8.509-6.053c6.93,2.398,14.019,4.311,20.899,6.867c0.492,0.545,0.824,1.141,0.234,1.79
		C1366.81,749.504,1366.246,749.403,1365.704,749.108z"/>
	<path fill-rule="evenodd" clip-rule="evenodd" fill="#C6AB73" d="M1366.598,742.419c0.569-0.299,0.671-0.828,0.692-1.397
		c1.645,2.542,0.734,5.358,0.62,8.007c-0.06,1.383-1.415,0.574-2.207,0.08c0.812-0.233,2.07-0.23,0.823-1.555
		C1365.31,745.825,1365.209,744.111,1366.598,742.419z"/>
</g>
<g>
	<path fill-rule="evenodd" clip-rule="evenodd" fill="#C6AB73" d="M1102.171,854.302c-0.64-1.377-0.632-2.845-0.632-4.317
		c0.001-13.704-0.014-27.409-0.004-41.113c0.002-4.321,0.862-5.181,5.095-5.225c1.591-0.016,3.182-0.001,4.772-0.001
		c1.239,0,2.468,0.029,3.227,1.26c0.221,0.917-0.388,1.188-1.08,1.398c-1.339,0.189-2.67-0.064-4.007-0.09
		c-4.934-0.091-5.535,0.453-5.627,5.26c-0.044,2.313,0.005,4.626-0.015,6.939c-0.1,11.317,0.214,22.637-0.154,33.957
		C1103.492,853.233,1103.403,854.237,1102.171,854.302z"/>
	<path fill-rule="evenodd" clip-rule="evenodd" fill="#C6AB73" d="M1113.838,805.805c0.264-0.3,0.528-0.599,0.791-0.899
		c0.603,0.327,1.151,0.916,1.792-0.043c1.015-1.523,2.084-3.014,3.2-4.464c2.646-3.439,5.264-4.04,8.876-1.782
		c7.245,4.527,14.426,9.159,21.612,13.781c3.474,2.234,5.198,5.392,4.802,9.588c-0.315,0.217-0.631,0.206-0.946-0.002
		c-0.522-0.5-0.847-1.123-1.128-1.777c-0.812-2.851-2.608-4.842-5.107-6.424c-6.4-4.052-12.68-8.297-19.165-12.214
		c-3.58-2.161-5.224-1.798-7.843,1.463c-1.226,1.524-2.32,3.149-3.518,4.694c-0.686,0.885-1.512,1.831-2.75,1.104
		C1113.261,808.13,1112.756,807.074,1113.838,805.805z"/>
	<path fill-rule="evenodd" clip-rule="evenodd" fill="#C6AB73" d="M1108.694,802.69c-1.218,0-2.441,0.074-3.652-0.021
		c-1.188-0.093-2.797,0.632-3.034-1.562c-0.308-2.829,0.311-4.692,2.291-5.129c2.743-0.604,5.589-0.54,8.34-0.062
		c2.161,0.376,3.483,4.106,2.361,6.038c-0.354,0.61-0.945,0.705-1.557,0.711c-1.583,0.017-3.166,0.005-4.749,0.005
		C1108.694,802.678,1108.694,802.685,1108.694,802.69z"/>
	<path fill-rule="evenodd" clip-rule="evenodd" fill="#C6AB73" d="M1102.171,854.302c0.57-0.418,0.617-1.063,0.73-1.681
		c0.117,0.035,0.299,0.032,0.343,0.11c3.366,5.848,8.886,5.89,14.676,5.709c6.846-0.215,13.703-0.096,20.555-0.033
		c3.922,0.035,7.818-0.071,11.673-0.873c0.683,0.138,1.296,0.344,1.168,1.242c-0.775,0.848-1.728,1.346-2.874,1.462
		c-1.266,0.464-2.576,0.685-3.92,0.688c-10.834,0.021-21.668,0.007-32.502,0.014c-1.238,0.001-2.417-0.218-3.573-0.628
		C1105.101,859.616,1103.013,857.61,1102.171,854.302z"/>
	<path fill-rule="evenodd" clip-rule="evenodd" fill="#C6AB73" d="M1151.316,858.776c-0.289-0.279-0.577-0.559-0.866-0.838
		c3.709-10.324,1.188-21.028,1.936-31.533c0.145-2.016-0.496-4.204,1.21-5.904c0.542,0.359,0.646,0.918,0.688,1.506
		c0.704,7.25,0.093,14.52,0.318,21.775c0.103,3.258-0.345,6.533,0.286,9.775C1154.596,855.913,1153.341,857.608,1151.316,858.776z"
		/>
	<path fill-rule="evenodd" clip-rule="evenodd" fill="#C6AB73" d="M1108.447,860.312c13.331-0.024,26.663-0.049,39.995-0.073
		c-0.524,0.261-1.049,0.522-1.574,0.784c-10.797,0.619-21.604,0.123-32.407,0.25c-1.68,0.021-3.399,0.334-5.053-0.278
		C1109.087,860.767,1108.767,860.539,1108.447,860.312z"/>
	<path fill-rule="evenodd" clip-rule="evenodd" fill="#C6AB73" d="M1109.408,860.994c12.487,0.009,24.974,0.019,37.46,0.028
		c-0.766,0.854-1.793,0.645-2.751,0.646c-10.657,0.01-21.314,0.009-31.971,0C1111.187,861.667,1110.158,861.874,1109.408,860.994z"
		/>
	<path fill-rule="evenodd" clip-rule="evenodd" fill="#C6AB73" d="M1154.887,853.558c-0.938-0.894-0.577-2.053-0.58-3.105
		c-0.027-9.482-0.021-18.964-0.025-28.445c0.21-0.015,0.42-0.021,0.63-0.021c0.582,8.106,0.177,16.224,0.266,24.336
		C1155.204,848.732,1155.508,851.167,1154.887,853.558z"/>
	<path fill-rule="evenodd" clip-rule="evenodd" fill="#C6AB73" d="M1147.078,829.406c-9.219-5.771-17.802-11.144-26.396-16.521
		c0.772-2.052,2.09-3.53,3.345-5.008c1.71-2.011,3.652-2.483,5.895-1.147c4.832,2.882,9.577,5.918,14.271,9.02
		c1.809,1.195,2.821,3.071,2.872,5.3C1147.123,823.598,1147.078,826.148,1147.078,829.406z"/>
	<path fill-rule="evenodd" clip-rule="evenodd" fill="#C6AB73" d="M1135.999,837.88c1.785,4.145,1.137,7.908-2.01,11.1
		c-2.668,2.706-6.956,3.252-10.583,1.59c-4.628-2.121-6.326-6.535-4.609-11.988c0.768,0.319,1.11,0.988,1.413,1.691
		c0.337,0.922,0.319,1.91,0.499,2.861c0.669,3.526,3.497,5.881,6.88,5.774c3.569-0.112,6.073-2.419,6.554-6.081
		c0.142-1.081,0.083-2.189,0.447-3.243C1134.876,838.864,1135.235,838.204,1135.999,837.88z"/>
	<path fill-rule="evenodd" clip-rule="evenodd" fill="#C6AB73" d="M1119.605,840.354c-0.624-0.43-0.668-1.123-0.809-1.773
		c1.405-5.459,4.872-9.592,8.698-13.916c3.593,4.164,7.019,8.045,8.504,13.215c-0.124,0.638-0.17,1.309-0.765,1.738
		c-2.599-2.482-3.638-5.982-5.737-8.814c-1.562-2.104-2.493-2.162-3.986-0.007c-1.604,2.317-2.959,4.755-4.274,7.228
		c-0.24,0.42-0.484,0.837-0.708,1.267C1120.314,839.726,1120.058,840.126,1119.605,840.354z"/>
	<path fill-rule="evenodd" clip-rule="evenodd" fill="#C6AB73" d="M1145.248,826.456c-7.555-4.726-14.974-9.367-22.436-14.034
		c0.247-0.53,0.349-0.864,0.539-1.136c3.224-4.59,3.674-4.674,8.517-1.625c2.899,1.826,5.794,3.661,8.699,5.478
		C1145.614,818.294,1146.344,819.96,1145.248,826.456z"/>
	<path fill-rule="evenodd" clip-rule="evenodd" fill="#C6AB73" d="M1120.256,838.176c1.831-3.984,3.962-7.769,7.269-10.994
		c3.452,3.718,6.046,7.782,7.709,12.437c0.03,0.732,0.097,1.465,0.084,2.195c-0.08,4.753-3.229,8.012-7.644,8.102
		c-3.634,0.074-8.475-2.932-8.038-8.098c0.041-0.483-0.019-0.975-0.031-1.463c0.064-0.382,0.128-0.764,0.191-1.145
		C1119.808,838.802,1120.092,838.517,1120.256,838.176z"/>
	<path fill-rule="evenodd" clip-rule="evenodd" fill="#C6AB73" d="M1120.256,838.176c0.04,0.431-0.13,0.767-0.459,1.034
		C1119.777,838.788,1119.915,838.437,1120.256,838.176z"/>
	<path fill-rule="evenodd" clip-rule="evenodd" fill="#C6AB73" d="M1121.817,839.468c1.41-3.913,2.647-5.596,5.739-7.537
		c0,4.914,0.025,9.609-0.017,14.305c-0.013,1.387-0.976,1.551-2.055,1.203c-1.663-0.537-3.167-1.305-3.703-3.176
		c-0.227-0.551-0.164-1.192-0.541-1.695c0.015-0.496,0.03-0.991,0.045-1.486C1121.605,840.589,1121.527,839.968,1121.817,839.468z"
		/>
	<path fill-rule="evenodd" clip-rule="evenodd" fill="#C6AB73" d="M1121.241,842.567c0.595,0.434,0.644,1.039,0.541,1.695
		C1121.241,843.813,1121.097,843.235,1121.241,842.567z"/>
	<path fill-rule="evenodd" clip-rule="evenodd" fill="#C6AB73" d="M1121.817,839.468c0.093,0.625,0.012,1.195-0.531,1.613
		C1121.157,840.441,1121.399,839.925,1121.817,839.468z"/>
	<path fill-rule="evenodd" clip-rule="evenodd" fill="#C6AB73" stroke="#FFFFFF" stroke-miterlimit="10" d="M1126.075,835.295
		c0,3.47,0.004,6.226-0.002,8.981c-0.001,0.496-0.063,1.017-0.612,1.193c-0.495,0.158-0.958-0.064-1.326-0.404
		c-0.939-0.864-1.635-1.91-1.45-3.22C1123.007,839.556,1123.89,837.512,1126.075,835.295z"/>
</g>
<g>
	<g>
		<path fill-rule="evenodd" clip-rule="evenodd" fill="#C6AB73" d="M1267.955,922.023c-4.388-0.943-8.752-3.311-13.251-5.313
			c-7.569-3.371-14.778-7.45-22.129-11.246c-2.264-1.166-2.326-2.284-0.676-3.877c1.794-1.731,2.961-3.822,3.604-6.198
			c0.456-1.701,1.177-1.892,2.712-0.99c10.437,6.132,20.318,13.063,29.73,20.661c1.062,0.855,2.068,1.891,2.779,3.042
			c0.541,0.875,1.477,1.89,0.591,3.158C1270.564,922.338,1269.489,922.004,1267.955,922.023z"/>
		<path fill-rule="evenodd" clip-rule="evenodd" fill="#C6AB73" d="M1177.734,921.135c-2.314-0.033-3.316-1.619-2.127-3.544
			c0.884-1.43,2.18-2.676,3.495-3.755c8.817-7.226,18.364-13.397,28.079-19.33c2.223-1.361,3.393-1.398,3.991,1.565
			c0.432,2.123,1.758,3.99,3.313,5.576c1.322,1.349,1.065,2.545-0.468,3.325c-11.148,5.691-22.091,11.835-34.113,15.612
			C1179.139,920.825,1178.349,920.979,1177.734,921.135z"/>
		<path fill-rule="evenodd" clip-rule="evenodd" fill="#C6AB73" d="M1220.961,929.646c0-6.69,0.005-13.378,0-20.069
			c-0.003-1.779-0.091-3.841,2.348-3.811c2.285,0.029,2.469,1.963,2.465,3.808c-0.01,13.265,0.067,26.529-0.067,39.791
			c-0.025,2.554,0.553,3.505,3.212,3.24c2.513-0.252,5.07-0.061,7.608-0.052c1.588,0.006,2.756,0.632,2.765,2.372
			c0.009,1.739-1.102,2.371-2.733,2.368c-8.88-0.013-17.763-0.019-26.643,0.005c-1.705,0.004-2.683-0.804-2.634-2.452
			c0.04-1.477,1.071-2.257,2.531-2.277c2.882-0.04,5.771-0.126,8.647,0.02c1.974,0.102,2.574-0.56,2.543-2.529
			C1220.897,943.255,1220.961,936.449,1220.961,929.646z"/>
		<path fill-rule="evenodd" clip-rule="evenodd" fill="#C6AB73" d="M1216.97,870.017c1.019-9.164,1.083-18.405,3.54-27.36
			c0.406-1.477,0.388-3.431,2.723-3.321c2.197,0.104,2.262,1.987,2.704,3.477c2.148,7.236,2.25,14.758,2.92,22.187
			c0.392,4.349,0.251,8.744,0.485,13.111c0.108,2.034-0.225,3.094-2.637,2.556c-2.37-0.528-4.836-0.509-7.209,0.025
			c-2.232,0.503-2.584-0.578-2.542-2.396C1217.016,875.536,1216.97,872.777,1216.97,870.017z"/>
		<path fill-rule="evenodd" clip-rule="evenodd" fill="#C6AB73" d="M1184.28,890.816c0.496-14.949,10.815-29.586,24.367-34.818
			c1.579-0.607,3.491-1.54,4.462,0.694c0.89,2.049-0.48,2.965-2.331,3.761c-13.383,5.758-20.443,16.107-21.838,30.488
			c-0.161,1.635,0.327,3.995-2.175,3.938C1184.066,894.818,1184.112,892.53,1184.28,890.816z"/>
		<path fill-rule="evenodd" clip-rule="evenodd" fill="#C6AB73" d="M1262.361,890.148c0.055,0.574,0.161,1.146,0.158,1.72
			c-0.007,1.69-0.64,3.105-2.521,3.034c-1.636-0.064-2.197-1.354-2.241-2.933c-0.117-4.058-1.004-7.947-2.425-11.764
			c-3.497-9.399-10.053-15.8-19.132-19.692c-1.984-0.854-3.458-1.832-2.39-4.011c0.933-1.911,2.697-1.151,4.232-0.495
			C1252.273,862.089,1261.305,874.768,1262.361,890.148z"/>
		<path fill-rule="evenodd" clip-rule="evenodd" fill="#C6AB73" d="M1213.521,928.313c-0.172,1.912-1.32,2.712-3.062,2.113
			c-5.287-1.817-9.83-4.899-13.794-8.795c-1.104-1.087-1.067-2.539,0.161-3.668c1.223-1.122,2.4-0.5,3.343,0.427
			c3.325,3.27,7.231,5.595,11.52,7.329C1212.867,926.195,1213.631,926.925,1213.521,928.313z"/>
		<path fill-rule="evenodd" clip-rule="evenodd" fill="#C6AB73" d="M1247.777,917.859c1.237,0.006,2.13,0.456,2.545,1.537
			c0.395,1.03,0.273,1.966-0.634,2.79c-3.773,3.416-7.924,6.237-12.667,8.121c-1.238,0.496-2.613,0.549-3.269-0.906
			c-0.544-1.205-0.561-2.575,0.851-3.291c4.394-2.217,8.965-4.134,12.309-7.975C1247.102,917.923,1247.543,917.929,1247.777,917.859
			z"/>
	</g>
	<g>
		<path fill-rule="evenodd" clip-rule="evenodd" fill="#FFFFFF" stroke="#FFFFFF" stroke-width="2.8205" stroke-miterlimit="10" d="
			M1250.128,910.088c-2.594-0.556-5.169-1.955-7.824-3.137c-4.468-1.99-8.727-4.399-13.069-6.64
			c-1.337-0.69-1.374-1.351-0.399-2.291c1.061-1.022,1.749-2.254,2.13-3.658c0.271-1.006,0.693-1.118,1.6-0.586
			c6.165,3.622,11.997,7.715,17.556,12.199c0.626,0.508,1.218,1.118,1.641,1.796c0.316,0.518,0.868,1.116,0.35,1.865
			C1251.665,910.272,1251.033,910.076,1250.128,910.088z"/>
		<path fill-rule="evenodd" clip-rule="evenodd" fill="#FFFFFF" stroke="#FFFFFF" stroke-width="2.8205" stroke-miterlimit="10" d="
			M1218.278,900.021c-6.582,3.36-13.043,6.988-20.141,9.217c-0.451,0.144-0.919,0.235-1.282,0.327
			c-1.364-0.021-1.957-0.957-1.257-2.094c0.523-0.845,1.29-1.58,2.065-2.215c5.205-4.27,10.844-7.912,16.578-11.417"/>
		<path fill-rule="evenodd" clip-rule="evenodd" fill="#FFFFFF" stroke="#FFFFFF" stroke-width="2.8205" stroke-miterlimit="10" d="
			M1220.022,875.974c0.6-5.411,0.64-10.869,2.09-16.155c0.24-0.872,0.228-2.027,1.607-1.962c1.299,0.061,1.334,1.175,1.597,2.053
			c1.269,4.272,1.328,8.714,1.724,13.101c0.232,2.567,0.147,5.162,0.286,7.74c0.065,1.203-0.133,1.826-1.559,1.51
			c-1.398-0.313-2.854-0.301-4.255,0.016c-1.316,0.296-1.524-0.342-1.5-1.416C1220.046,879.23,1220.022,877.603,1220.022,875.974z"
			/>
	</g>
</g>
<g>
	<path fill-rule="evenodd" clip-rule="evenodd" fill="none" stroke="#C6AB73" stroke-width="2.1591" stroke-miterlimit="10" d="
		M1409.333,859.433c0-5.918,0.073-11.839-0.036-17.758c-0.044-2.449,0.759-3.329,3.283-3.055c3.082,0.336,6.207,0.257,9.309,0.429
		c1.156,0.063,2.633-0.469,3.205,1.146c0.464,1.306-0.04,2.368-0.957,3.378c-3.108,3.423-3.688,7.143-0.882,11.016
		c2.718,3.748,7.82,4.646,11.626,2.175c3.67-2.383,4.77-7.618,2.421-11.584c-0.317-0.536-0.709-1.026-1.067-1.535
		c-0.787-1.126-2.096-2.221-1.227-3.719c0.854-1.476,2.521-0.797,3.848-0.867c1.864-0.098,3.736-0.028,5.606-0.028
		c6.98,0.006,7.229,0.31,6.691,7.463c-0.148,1.995-0.261,4.014-0.152,6.008c0.244,4.435,3.479,5.87,7.261,3.196
		c1.255-0.887,2.205-2.201,3.854-2.48c3.203-0.546,6.123,0.062,7.542,3.191c1.208,2.667,1.036,5.463-1.372,7.716
		c-2.558,2.391-5.336,2.206-8.157,0.714c-0.933-0.493-1.555-1.545-2.456-2.13c-3.395-2.2-6.549-0.677-6.67,3.287
		c-0.111,3.715-0.023,7.44,0.049,11.156c0.047,2.375-0.955,3.201-3.369,3.182c-11.681-0.101-23.366-0.115-35.047,0.012
		c-2.805,0.029-3.401-1.131-3.344-3.622C1409.419,870.961,1409.333,865.197,1409.333,859.433z"/>
	<path fill-rule="evenodd" clip-rule="evenodd" fill="none" stroke="#C6AB73" stroke-width="2.1591" stroke-miterlimit="10" d="
		M1430.377,795.305c5.763,0.001,11.527,0.101,17.285-0.046c2.573-0.065,3.727,0.683,3.562,3.413
		c-0.175,2.948-0.019,5.916-0.05,8.874c-0.012,1.224,0.199,2.658-1.142,3.322c-1.39,0.687-2.742,0.237-3.846-0.809
		c-1.887-1.793-4.019-2.868-6.713-2.675c-3.646,0.259-6.271,2.086-7.38,5.47c-1.123,3.423-0.866,6.904,2.252,9.346
		c2.873,2.249,6.116,3.082,9.567,1.174c0.804-0.446,1.516-1.082,2.223-1.684c1.007-0.854,2.136-1.44,3.417-0.929
		c1.562,0.622,0.937,2.132,0.984,3.27c0.522,12.479,0.507,12.412-11.652,12.572c-1.967,0.026-4.834-1.421-5.819,1.24
		c-0.984,2.663-0.397,5.485,1.906,7.713c2.218,2.148,2.001,4.771,0.77,7.32c-1.237,2.563-3.534,3.395-6.218,3.225
		c-3.029-0.193-4.729-2.124-5.72-4.775c-0.862-2.303-0.076-4.38,1.477-6.015c1.262-1.331,1.838-2.652,1.962-4.502
		c0.207-3.131-0.685-4.803-4.096-4.283c-0.153,0.023-0.314,0.015-0.467,0c-4.273-0.435-9.783,1.948-12.516-1.039
		c-2.461-2.691-0.652-8.044-0.705-12.218c-0.103-8.098,0.075-16.198-0.086-24.293c-0.056-2.856,0.852-3.821,3.722-3.729
		C1418.851,795.434,1424.618,795.303,1430.377,795.305z"/>
	<path fill-rule="evenodd" clip-rule="evenodd" fill="none" stroke="#C6AB73" stroke-width="2.1591" stroke-miterlimit="10" d="
		M1473.374,880.233c-5.141,0.003-10.289-0.188-15.413,0.067c-3.499,0.177-5.3-0.609-4.743-4.545
		c0.302-2.138-0.102-4.365,0.101-6.527c0.147-1.57-1.021-3.655,0.883-4.639c1.822-0.942,3.075,0.753,4.473,1.708
		c5.341,3.658,11.542,1.537,13.479-4.467c1.222-3.778-0.059-6.769-2.887-9.13c-2.725-2.275-5.865-2.83-9.123-1.067
		c-1.084,0.586-1.967,1.543-3.053,2.124c-2.164,1.158-3.979,1.369-3.829-2.01c0.006-0.156,0.008-0.311,0.002-0.468
		c-0.485-12.152-0.481-12.089,11.646-12.531c2.02-0.075,4.986,1.272,5.934-1.112c1.069-2.696,0.54-5.517-2.001-8.007
		c-2.743-2.691-2.026-6.077,0.548-8.755c2.23-2.324,6.747-2.248,8.872,0.143c2.457,2.763,2.862,5.852,0.323,8.845
		c-0.996,1.176-2.028,2.075-2.162,3.886c-0.269,3.617,0.459,5.6,4.727,5.112c3.222-0.366,6.537,0.143,9.791-0.062
		c2.579-0.164,3.568,0.492,3.533,3.282c-0.143,11.521-0.153,23.047,0.001,34.569c0.04,2.985-1.082,3.706-3.818,3.631
		C1484.9,880.123,1479.135,880.232,1473.374,880.233z"/>
	<path fill-rule="evenodd" clip-rule="evenodd" fill="none" stroke="#C6AB73" stroke-width="2.1591" stroke-miterlimit="10" d="
		M1474.077,795.208c5.602,0,11.203,0.09,16.801-0.04c2.519-0.06,3.609,0.619,3.58,3.38c-0.124,11.509-0.126,23.021,0,34.533
		c0.029,2.716-0.939,3.539-3.519,3.396c-3.103-0.169-6.22-0.078-9.331-0.035c-3.853,0.05-3.897-1.854-2.076-4.321
		c1.409-1.909,2.788-3.674,2.739-6.227c-0.08-4.005-1.792-6.802-5.583-8.272c-3.89-1.508-7.076-0.284-9.542,2.743
		c-2.533,3.112-2.484,6.581-0.476,9.995c0.545,0.927,1.542,1.623,1.953,2.587c0.742,1.748,0.906,3.465-1.845,3.473
		c-3.734,0.008-7.469-0.041-11.2,0.018c-1.855,0.027-2.422-0.892-2.399-2.586c0.046-3.265,0.116-6.538-0.045-9.798
		c-0.087-1.734,1.042-4.32-1.055-5.01c-2.345-0.771-5.145-1.172-7.355,1.187c-1.958,2.089-4.426,2.815-7.221,1.685
		c-2.396-0.966-3.676-2.781-3.903-5.33c-0.242-2.693,0.561-4.979,3.014-6.329c2.505-1.38,5.043-1.483,7.383,0.474
		c0.477,0.397,0.895,0.866,1.357,1.277c2.022,1.8,4.523,1.351,6.638,0.76c2.116-0.591,1.069-2.931,1.143-4.495
		c0.15-3.104,0.188-6.229,0.005-9.328c-0.169-2.793,0.75-3.888,3.673-3.791C1462.561,795.339,1468.321,795.207,1474.077,795.208z"/>
</g>
<g>
	<path fill-rule="evenodd" clip-rule="evenodd" fill="none" stroke="#C6AB73" stroke-width="3.2386" stroke-miterlimit="10" d="
		M1305.146,804.375c-0.059-1.081-0.237-2.142-0.507-3.188c-0.228-0.878-0.524-1.734-0.876-2.57c-0.08-0.188-0.171-0.371-0.263-0.572
		c0.1-0.072,0.223-0.032,0.333-0.032c5.764-0.005,11.529-0.005,17.294-0.005c0.131,0,0.261-0.011,0.394-0.017
		c0.133-0.131,0.306-0.104,0.467-0.104c0.736-0.01,1.474,0.007,2.209-0.012c0.189-0.028,0.131-0.179,0.139-0.296
		c0.145-1.404,0.855-2.441,2.063-3.147c0.638-0.372,1.34-0.534,2.085-0.497c2.584,0,5.169-0.003,7.753,0
		c0.412,0.124,0.65-0.074,0.899-0.393c1.013-1.302,2.042-2.592,3.086-3.866c1.75-2.137,3.442-4.316,5.192-6.451
		c0.557-0.678,1.303-1.097,2.192-1.219c0.439,0,0.881,0,1.321,0c2,0.692,3.667,1.989,5.472,3.035
		c2.734,1.587,5.426,3.245,8.134,4.871c2.554,1.535,5.102,3.075,7.659,4.605c0.446,0.268,0.948,0.417,1.363,0.756
		c0.827,0.668,1.3,1.513,1.484,2.559c0.284,1.606-0.631,3.371-2.036,4.09c-1.112,0.572-2.248,0.643-3.441,0.201
		c-0.582-0.217-0.996-0.656-1.523-0.941c-0.851-0.462-1.667-0.989-2.493-1.492c-0.911-0.557-1.812-1.122-2.725-1.672
		c-0.797-0.48-1.61-0.94-2.409-1.421c-0.809-0.487-1.602-0.993-2.409-1.482c-0.898-0.546-1.804-1.081-2.706-1.617
		c-1.017-0.606-2.035-1.209-3.049-1.819c-0.239-0.144-0.471-0.305-0.708-0.457c-0.116-0.074-0.183-0.026-0.267,0.075
		c-0.701,0.879-1.416,1.749-2.118,2.627c-0.86,1.069-1.713,2.145-2.568,3.22c-1.01,1.268-2.02,2.536-3.03,3.805
		c-0.286,0.357-0.561,0.727-0.866,1.065c-0.21,0.234-0.297,0.473-0.295,0.793c0.012,2.155,0.021,4.313-0.006,6.469
		c-0.005,0.367,0.167,0.596,0.361,0.837c1.005,1.261,2.021,2.512,3.029,3.771c1.014,1.267,2.02,2.538,3.032,3.807
		c0.816,1.021,1.633,2.041,2.453,3.06c0.081,0.099,0.125,0.152,0.295,0.048c1.134-0.705,2.289-1.376,3.433-2.064
		c0.897-0.54,1.787-1.091,2.684-1.632c1.05-0.639,2.101-1.272,3.155-1.905c1.226-0.732,2.454-1.457,3.68-2.193
		c1.31-0.786,2.64-1.542,3.913-2.381c0.564-0.369,1.097-0.74,1.769-0.889c2.218-0.498,4.473,0.954,4.85,3.307
		c0.271,1.687-0.696,3.504-2.296,4.232c-1.15,0.523-2.184,1.251-3.266,1.891c-2.396,1.416-4.77,2.861-7.154,4.293
		c-3.025,1.817-6.052,3.635-9.08,5.448c-0.695,0.416-1.37,0.887-2.201,1.007c-0.129,0.017-0.257,0.039-0.387,0.059
		c-0.219,0.025-0.438,0.027-0.657,0c-1.066-0.098-1.964-0.556-2.671-1.342c-0.511-0.571-0.951-1.205-1.429-1.809
		c-0.392-0.492-0.798-0.977-1.19-1.472c-0.487-0.608-0.965-1.221-1.453-1.828c-0.392-0.496-0.796-0.981-1.19-1.473
		c-0.486-0.608-0.963-1.224-1.451-1.832c-0.393-0.492-0.793-0.979-1.191-1.472c-0.196-0.24-0.398-0.477-0.59-0.718
		c-0.113-0.141-0.217-0.109-0.33-0.008c-0.075,0.021-0.152,0.015-0.229,0.015c-2.666,0.001-5.328,0.001-7.992,0
		c-0.076,0-0.154,0.007-0.23-0.013c-1.952-0.161-3.458-1.699-3.651-3.588c-0.033-0.119,0.008-0.248-0.042-0.363
		c-0.111-0.071-0.236-0.033-0.352-0.033c-6.699-0.003-13.399-0.001-20.096-0.001c-0.128,0-0.259,0-0.419,0
		c0.502-1.314,0.938-2.607,1.218-3.944c0.167-0.8,0.331-1.601,0.374-2.422c0.01-0.2,0.069-0.404,0.057-0.608
		c0.061-0.134,0.001-0.281,0.044-0.416c0.032-0.64,0.036-1.279-0.003-1.918C1305.154,804.609,1305.204,804.485,1305.146,804.375z"/>
	<path fill-rule="evenodd" clip-rule="evenodd" fill="none" stroke="#C6AB73" stroke-width="3.2386" stroke-miterlimit="10" d="
		M1349.145,864.352c1.828,0.171,3.185,1.31,3.658,3.083c0.077,0.283,0.11,0.574,0.11,0.873c-0.003,4.017-0.002,8.034-0.002,12.05
		c0,2.164-1.726,3.941-3.887,4.009c-0.099,0.004-0.199,0-0.298,0c-21.208,0-42.416,0-63.622,0.002c-1.797,0-3.111-0.786-3.892-2.414
		c-0.232-0.48-0.347-0.995-0.346-1.538c0.006-4.039-0.007-8.077,0.007-12.118c0.006-1.568,0.801-2.712,2.11-3.493
		c0.507-0.301,1.102-0.444,1.707-0.453c0.131-0.031,0.264-0.017,0.396-0.017c5.657,0,11.314,0,16.971,0
		c0.129,0,0.263,0.033,0.388-0.034c-0.398-0.703-0.792-1.408-1.199-2.104c-0.47-0.807-0.954-1.603-1.431-2.406
		c-0.617-1.045-1.234-2.091-1.851-3.135c-0.55-0.936-1.097-1.871-1.647-2.805c-0.616-1.045-1.232-2.089-1.847-3.134
		c-0.502-0.854-0.997-1.71-1.498-2.564c-0.442-0.752-0.893-1.499-1.336-2.253c-0.566-0.961-1.126-1.928-1.693-2.89
		c-0.607-1.023-1.223-2.045-1.828-3.072c-0.561-0.95-1.107-1.908-1.668-2.86c-0.669-1.137-1.35-2.271-2.021-3.405
		c-0.553-0.935-1.097-1.871-1.647-2.808c-0.616-1.043-1.234-2.087-1.847-3.133c-0.562-0.952-1.115-1.912-1.676-2.866
		c-0.606-1.026-1.219-2.05-1.825-3.076c-0.139-0.234-0.271-0.473-0.383-0.738c4.063,3.477,8.725,5.265,14.088,4.933
		c5.3-0.329,9.745-2.44,13.137-6.636c1.096,1.882,2.187,3.762,3.28,5.634c1.026,1.76,2.058,3.514,3.085,5.272
		c1.134,1.943,2.266,3.895,3.398,5.84c1.174,2.012,2.348,4.021,3.521,6.034c1.142,1.954,2.281,3.911,3.422,5.867
		c1.173,2.011,2.35,4.017,3.523,6.029c1.129,1.937,2.25,3.878,3.383,5.814c0.872,1.49,1.756,2.975,2.636,4.465
		c0.125,0.063,0.259,0.031,0.388,0.031c5.948,0,11.896,0,17.844,0C1348.882,864.335,1349.016,864.32,1349.145,864.352z"/>
	<g>
		<path fill-rule="evenodd" clip-rule="evenodd" fill="none" stroke="#C6AB73" stroke-width="3.2386" stroke-miterlimit="10" d="
			M1290.366,817.492c-4.888-0.002-8.879-4.001-8.878-8.893c0.002-4.862,4.01-8.865,8.88-8.866c4.871-0.004,8.904,4.036,8.888,8.897
			C1299.239,813.503,1295.235,817.492,1290.366,817.492z"/>
		<path fill-rule="evenodd" clip-rule="evenodd" fill="none" stroke="#C6AB73" stroke-width="3.2386" stroke-miterlimit="10" d="
			M1290.365,812.867c-2.353-0.001-4.251-1.899-4.25-4.244c0.001-2.371,1.906-4.271,4.27-4.265c2.339,0.008,4.251,1.933,4.24,4.27
			C1294.616,810.975,1292.714,812.867,1290.365,812.867z"/>
	</g>
</g>
<g>
	<path fill-rule="evenodd" clip-rule="evenodd" fill="#C6AB73" d="M1151.44,938.928c-1.389,10.616-10.404,20.359-21.42,23.152
		c-14.621,3.708-29.768-4.219-35.035-18.349c-0.209-0.563-0.264-1.185-0.389-1.778c-0.133-0.739-0.477-1.536,0.535-1.962
		c1.893,0.74,1.961,2.678,2.639,4.166c7.02,15.425,25.645,21.192,39.443,12.066c5.909-3.907,9.928-9.29,11.764-16.247
		c0.404-1.533,0.145-3.513,2.084-4.361C1152.18,936.607,1151.645,937.786,1151.44,938.928z"/>
	<path fill-rule="evenodd" clip-rule="evenodd" fill="#C6AB73" d="M1099.799,935.764c1.195,7.393,4.654,13.368,11.166,17.279
		c13.119,7.88,30.067,0.797,33.805-14.07c0.268-1.065,0.496-2.143,0.742-3.215c1.48,0.01,1.34,1.211,1.578,2.137
		c-0.707,9.58-8.983,18.166-19.688,20.437c-13.242,2.808-27.152-6.598-29.182-19.723
		C1098.428,937.485,1098.008,936.008,1099.799,935.764z"/>
	<path fill-rule="evenodd" clip-rule="evenodd" fill="#C6AB73" d="M1126.25,913.232c0,3.785,0.01,7.571-0.008,11.356
		c-0.004,0.851,0.021,1.73-0.182,2.542c-0.42,1.68-1.871,2.777-3.457,2.723c-1.83-0.063-2.926-1.12-3.391-2.805
		c-0.189-0.688-0.146-1.452-0.146-2.181c-0.01-7.692-0.008-15.386-0.006-23.079c0-0.488-0.031-0.982,0.025-1.464
		c0.26-2.227,1.508-3.521,3.426-3.596c2.064-0.08,3.609,1.272,3.686,3.683c0.135,4.27,0.039,8.546,0.039,12.82
		C1126.24,913.232,1126.244,913.232,1126.25,913.232z"/>
	<path fill-rule="evenodd" clip-rule="evenodd" fill="#C6AB73" d="M1145.52,931.314c-0.047-0.44-0.094-0.88-0.141-1.319
		c-0.482-0.711-0.039-1.646-0.566-2.346c-1.951-6.368-5.668-11.34-11.624-14.46c-1.24-0.649-1.914-1.376-1.779-2.813
		c0.145-1.547-0.225-3.137,0.332-4.84c3.783,0.808,6.793,2.831,9.665,5.104c4.23,3.348,6.932,7.818,9.197,12.604
		c0.645,0.611,0.053,1.627,0.727,2.229c0.039,0.854,0.078,1.71,0.119,2.564c0.219,1.116,0.545,2.236-0.127,3.315
		c-2.426-0.375-1.867-2.589-2.207-4.003c-1.598-6.637-5.479-11.667-10.643-15.851c-1.119-0.907-2.318-1.798-4.119-1.89
		c-0.006,1.716,1.406,2.124,2.355,2.883c5.182,4.144,9.526,8.836,10.358,15.832c0.027,0.739-0.025,1.469-0.273,2.174
		C1146.534,931.028,1146.209,931.458,1145.52,931.314z"/>
	<path fill-rule="evenodd" clip-rule="evenodd" fill="#C6AB73" d="M1093.928,927.482c1.992-10.501,8.346-17.389,17.943-21.533
		c1.82-0.786,2.166-0.507,2.277,1.35c0.059,0.975-0.043,1.961,0.029,2.934c0.092,1.237-0.322,2.075-1.473,2.646
		c-7.637,3.794-11.631,10.161-12.918,18.417c-1.666-0.161-1.313-1.525-1.529-2.551c0.895-8.558,6.561-13.919,12.826-18.922
		c-8.004,2.843-11.963,9.227-14.873,16.545c-0.453,0.785-0.525,1.665-0.629,2.542c-0.17,0.754-0.283,1.544-1.178,1.829
		C1093.074,929.823,1093.676,928.627,1093.928,927.482z"/>
	<path fill-rule="evenodd" clip-rule="evenodd" fill="#C6AB73" d="M1093.928,927.482c0.264,1.029-0.287,2.25,0.732,3.102
		c1.701,3.087,1.684,6.297,0.691,9.578c-0.604,0.448-0.613,1.147-0.756,1.79C1092.734,937.205,1092.578,932.379,1093.928,927.482z"
		/>
	<path fill-rule="evenodd" clip-rule="evenodd" fill="#C6AB73" d="M1150.698,931.321c0.998-0.922,0.482-2.191,0.752-3.282
		c1.105,3.629,1.086,7.259-0.01,10.888c-0.287-1.05,0.252-2.295-0.746-3.179C1149.377,934.271,1149.375,932.796,1150.698,931.321z"
		/>
	<path fill-rule="evenodd" clip-rule="evenodd" fill="#C6AB73" d="M1099.061,928.218c0.262,1.021-0.262,2.228,0.727,3.077
		c0.004,1.49,0.008,2.979,0.012,4.469c-1,0.834-0.477,2.022-0.707,3.036C1096.545,936.228,1096.529,930.914,1099.061,928.218z"/>
	<path fill-rule="evenodd" clip-rule="evenodd" fill="#C6AB73" d="M1145.52,931.314c0.232-0.249,0.465-0.498,0.697-0.747
		c0.473-0.196,0.848-0.079,1.127,0.353c0.656,2.563,1.598,5.167-1.006,7.278c-0.229-0.829,0.037-1.825-0.826-2.44
		C1145.516,934.277,1145.518,932.796,1145.52,931.314z"/>
	<path fill-rule="evenodd" clip-rule="evenodd" fill="#C6AB73" d="M1144.813,927.649c0.783,0.637,0.723,1.48,0.566,2.346
		C1144.905,929.281,1144.678,928.509,1144.813,927.649z"/>
	<path fill-rule="evenodd" clip-rule="evenodd" fill="#C6AB73" d="M1151.331,925.474c-0.605-0.626-0.74-1.403-0.727-2.229
		C1151.477,923.782,1151.315,924.656,1151.331,925.474z"/>
	<path fill-rule="evenodd" clip-rule="evenodd" fill="#C6AB73" d="M1146.286,928.231c0.553,0.71,0.689,1.512,0.521,2.38
		c-0.197-0.008-0.395-0.022-0.59-0.044C1146.239,929.789,1146.262,929.011,1146.286,928.231z"/>
	<path fill-rule="evenodd" clip-rule="evenodd" fill="#C6AB73" d="M1095.441,926.185c0.086,0.889-0.033,1.729-0.594,2.462
		C1094.727,927.75,1094.559,926.841,1095.441,926.185z"/>
</g>
<g>
	<path fill-rule="evenodd" clip-rule="evenodd" fill="#C6AB73" stroke="#FFFFFF" stroke-width="1.0807" stroke-miterlimit="10" d="
		M1547.115,842.563c-3.659-4.63-8.242-7.493-14.34-6.778c-5.779,0.677-9.923,3.793-12.375,9.143c-0.734,1.602-0.8,3.523-2.132,4.828
		c-9.908-2.904-10.17-3.433-7.58-13.236c1.019-3.865,2.279-7.529,5.805-9.859c1.769-1.17,1.717-2.341,0.646-4.052
		c-0.828-1.322-0.979-2.856,1.406-3.018c9.458-0.634,18.654-3.092,28.056-4.094c12.687-1.351,25.395-2.388,37.856,1.615
		c6.39,2.049,12.415,4.941,18.213,8.287c2.898,1.677,5.906,2.604,9.281,2.614c10.263,0.029,19.618,2.863,27.789,9.244
		c1.367,1.068,3.359,1.641,2.327,4.092c-0.382,0.912,0.524,0.949,1.087,1.105c2.563,0.717,2.478,2.667,2.226,4.71
		c-0.262,2.103-1.088,3.787-3.338,4.315c-3.797,0.894-7.586,1.911-11.541,1.832c-0.812-1.146-0.307-1.941,0.686-2.609
		c2.441-0.979,5.098-1.111,7.598-1.855c2.574-0.766,3.427-2.049,0.823-3.919c-1.715-1.233-3.646-2.142-3.203-4.916
		c0.25-1.558-1.487-1.931-2.514-2.666c-6.244-4.49-13.565-5.657-20.9-6.095c-5.428-0.323-10.2-1.899-14.817-4.511
		c-13.34-7.548-27.486-10.531-42.881-8.747c-8.603,0.997-17.154,2.223-25.723,3.416c-4.115,0.573-7.316,1.47-9.654,5.877
		c-2.079,3.919-5.839,6.963-6.415,11.801c-0.094,0.805-0.378,1.59-0.451,2.405c-0.129,1.433,0.271,2.64,1.694,3.194
		c1.643,0.64,2.426-0.496,3.004-1.729c2.556-5.432,6.936-8.548,12.634-9.957c7.654-1.896,15.931,1.902,18.246,8.321
		C1548.452,842.136,1548.124,842.769,1547.115,842.563z"/>
	<path fill-rule="evenodd" clip-rule="evenodd" fill="#C6AB73" d="M1626.577,850.813c0.037,6.634-5.396,12.204-12.014,12.314
		c-6.785,0.113-12.543-5.638-12.434-12.417c0.108-6.623,5.675-12.083,12.29-12.057
		C1621.043,838.68,1626.541,844.177,1626.577,850.813z"/>
	<path fill-rule="evenodd" clip-rule="evenodd" fill="#C6AB73" d="M1545.25,855.498c-2.901,5.82-7.854,8.573-13.343,7.418
		c-5.685-1.195-9.832-6.102-9.972-11.804c-0.135-5.453,3.616-10.427,9.06-12.006c5.83-1.696,11.21,1.015,14.266,7.187
		c0.394,0.67,0.259,1.521,0.746,2.158c0.006,0.329,0.017,0.656,0.025,0.987c-0.363,0.33-0.787,0.499-1.277,0.505
		c-0.472-0.093-0.876-0.32-1.222-0.651c-0.967-1.122-1.432-2.563-2.352-3.72c-3.44-4.314-8.818-4.813-12.956-1.202
		c-3.7,3.227-3.894,9.2-0.413,12.705c3.904,3.937,9.08,3.698,12.896-0.559c1.102-1.229,1.772-2.745,2.811-4.013
		c0.347-0.339,0.759-0.553,1.233-0.652c0.489,0.012,0.916,0.185,1.277,0.517c-0.011,0.33-0.02,0.658-0.03,0.987
		C1545.52,853.99,1545.66,854.841,1545.25,855.498z"/>
	<path fill-rule="evenodd" clip-rule="evenodd" fill="#C6AB73" d="M1600.144,846.608c-1.132,5.566-1.132,5.649-6.42,5.649
		c-13.738,0-27.452-0.606-41.138-1.776c-0.931-0.078-2.008,0.129-2.571-0.967c-0.798-1.38-0.28-2.168,1.143-2.553
		c12.075,1.218,24.235,0.992,36.32,2.062c4.674,0.412,8.626-0.488,11.384-4.598C1600.683,844.334,1600.766,845.264,1600.144,846.608
		z"/>
	<path fill-rule="evenodd" clip-rule="evenodd" fill="#C6AB73" d="M1631.659,851.305c-0.885,0.381-1.122,1.136-1.158,2.008
		c-1.374-0.338-0.986-1.494-1.021-2.368c-0.511-12.391-12.515-18.505-22.309-13.429c-0.283,0.146-0.617,0.189-0.931,0.28
		c-1.123,0.389-1.473-0.288-1.646-1.2c3.054-3.951,8.742-5.267,14.925-3.456C1628.102,835.656,1633.867,844.279,1631.659,851.305z"
		/>
	<path fill-rule="evenodd" clip-rule="evenodd" fill="#C6AB73" d="M1604.984,836.666c0.42,0.377,0.837,0.755,1.256,1.13
		c-2.783,2.417-4.54,5.546-6.096,8.813c-0.112-0.791-0.165-1.609-0.97-2.077C1598.892,840.236,1600.623,837.892,1604.984,836.666z"
		/>
	<path fill-rule="evenodd" clip-rule="evenodd" fill="#C6AB73" d="M1550.967,847.477c-0.801,0.454-0.861,1.252-0.952,2.038
		c-1.435-2.12-1.869-4.661-2.9-6.951c0.37-0.404,0.739-0.809,1.113-1.213C1551.008,842.559,1552.215,844.469,1550.967,847.477z"/>
	<path fill-rule="evenodd" clip-rule="evenodd" fill="#C6AB73" d="M1546.031,852.368c-0.289,0.001-0.579,0.004-0.869,0.007
		c-0.797-0.982-0.797-1.964,0-2.946c0.293,0.004,0.582,0.007,0.871,0.01C1546.348,850.414,1546.345,851.392,1546.031,852.368z"/>
	<path fill-rule="evenodd" clip-rule="evenodd" fill="#C6AB73" d="M1546.007,848.451c-0.749-0.548-0.896-1.3-0.746-2.158
		C1545.935,846.865,1546.181,847.586,1546.007,848.451z"/>
	<path fill-rule="evenodd" clip-rule="evenodd" fill="#C6AB73" d="M1545.25,855.498c-0.146-0.852,0.008-1.6,0.75-2.143
		C1546.178,854.218,1545.91,854.928,1545.25,855.498z"/>
	<path fill-rule="evenodd" clip-rule="evenodd" fill="#C6AB73" d="M1614.146,861.108c-5.563-0.139-10.199-5.048-9.985-10.57
		c0.213-5.582,5.147-10.136,10.679-9.859c5.393,0.27,9.767,4.909,9.715,10.306C1624.498,856.574,1619.696,861.244,1614.146,861.108z
		"/>
	<path fill-rule="evenodd" clip-rule="evenodd" fill="#C6AB73" d="M1544.323,852.404c-0.464,1.208-0.779,2.504-1.421,3.607
		c-2.349,4.028-7.034,5.941-11.278,4.731c-4.596-1.309-7.798-5.549-7.652-10.125c0.144-4.452,3.297-8.405,7.687-9.627
		c4.201-1.173,8.979,0.808,11.266,4.793c0.636,1.11,0.943,2.406,1.401,3.616C1544.77,850.4,1544.777,851.403,1544.323,852.404z"/>
	<path fill-rule="evenodd" clip-rule="evenodd" fill="#C6AB73" d="M1544.323,852.404c0-1.001,0-2.004,0.002-3.004
		c0.279,0.021,0.558,0.029,0.837,0.028c0,0.982,0,1.964,0,2.946C1544.882,852.374,1544.601,852.384,1544.323,852.404z"/>
	<path fill-rule="evenodd" clip-rule="evenodd" fill="#C6AB73" d="M1594.865,829.739c-6.284,1.25-12.405,0.115-18.539-0.061
		c-4.231-0.122-8.455-0.609-12.686-0.91c-5.297-0.376-9.178-2.848-11.93-8.176C1567.519,818.389,1582.045,819.873,1594.865,829.739z
		"/>
	<path fill-rule="evenodd" clip-rule="evenodd" fill="#C6AB73" d="M1551.854,827.837c-4.896,0-9.705,0.027-14.517-0.029
		c-0.771-0.008-1.595-0.284-2.3-0.636c-1.104-0.551-2.697-0.953-2.317-2.633c0.289-1.288,1.635-1.367,2.773-1.534
		c3.529-0.518,7.077-0.947,10.57-1.648c1.881-0.378,3.164-0.074,3.909,1.753C1550.563,824.556,1551.972,825.664,1551.854,827.837z"
		/>
	<path fill-rule="evenodd" clip-rule="evenodd" fill="#C6AB73" stroke="#FFFFFF" stroke-width="1.0807" stroke-miterlimit="10" d="
		M1614.36,857.999c-3.759-0.007-7.173-3.506-7.08-7.26c0.089-3.609,3.271-6.831,6.879-6.961c3.756-0.139,7.259,3.207,7.326,7
		C1621.554,854.521,1618.117,858.007,1614.36,857.999z"/>
	<path fill-rule="evenodd" clip-rule="evenodd" fill="#C6AB73" stroke="#FFFFFF" stroke-width="1.0807" stroke-miterlimit="10" d="
		M1533.995,843.756c3.772-0.131,7.195,3.2,7.242,7.045c0.047,3.87-3.229,7.196-7.086,7.194c-3.648-0.005-6.769-3.072-6.909-6.794
		C1527.09,847.228,1530.118,843.887,1533.995,843.756z"/>
	<path fill-rule="evenodd" clip-rule="evenodd" fill="#C6AB73" stroke="#FFFFFF" stroke-width="1.0807" stroke-miterlimit="10" d="
		M1588.38,828.44c-8.413-0.576-16.829-1.093-25.232-1.754c-3.526-0.278-4.521-0.967-7.891-4.549
		C1567.25,821.05,1578.336,821.623,1588.38,828.44z"/>
	<path fill-rule="evenodd" clip-rule="evenodd" fill="#C6AB73" stroke="#FFFFFF" stroke-width="1.0807" stroke-miterlimit="10" d="
		M1536.92,825.666c3.331-1.745,6.934-2.042,10.545-2.103c0.45-0.006,0.919,1.081,1.731,2.103
		C1544.646,825.666,1540.783,825.666,1536.92,825.666z"/>
</g>
<g>
	<path fill-rule="evenodd" clip-rule="evenodd" fill="#C6AB73" d="M1103.692,762.373c0.247-1.566,1.377-2.558,2.405-3.589
		c8.13-8.157,16.281-16.291,24.403-24.455c1.367-1.375,2.566-2.763,4.469-0.629c0.842,0.943,1.531-0.048,2.109-0.617
		c2.096-2.063,4.201-4.117,6.223-6.252c0.84-0.887,1.475-1.968,2.32-3.122c2.262,2.212,3.197,4.73,6.201,5.321
		c-3.27,4.148-7.117,7.207-10.227,10.783c-0.008,0.859,0.566,1.184,0.971,1.597c0.848,0.869,0.824,1.707,0.004,2.558
		c-0.34,0.354-0.693,0.694-1.039,1.041c-8.219,8.24-16.448,16.471-24.647,24.729c-1.996,2.012-4.281,3.411-7.168,2.973
		c-2.783-0.424-5.074-1.757-5.984-4.703c-0.269-0.702-0.437-1.382,0.417-1.829c1.134,0.092,1.536,1.109,2.202,1.776
		c3.213,3.219,5.469,3.37,8.78,0.131c7.771-7.604,15.408-15.346,23.089-23.042c0.684-0.687,1.736-1.448,1.408-2.427
		c-1.266-3.791,1.527-5.556,3.596-7.703c1.102-1.144,2.258-2.234,3.359-3.379c0.693-0.72,1.438-1.49,0.496-2.505
		c-0.955-1.03-1.963-0.774-2.891,0.074c-1.803,1.65-3.473,3.437-5.217,5.147c-1.496,1.47-2.867,3.001-5.381,1.854
		c-1.549-0.706-2.43,0.799-3.316,1.728c-8.434,8.819-17.74,16.793-25.499,26.267c-0.144,0.177-0.42,0.194-0.681,0.176
		C1103.255,763.791,1103.536,763.069,1103.692,762.373z"/>
	<path fill-rule="evenodd" clip-rule="evenodd" fill="#C6AB73" d="M1105.998,731.075c-0.618-0.407-0.767-0.981-0.317-1.537
		c0.688-0.853,1.449-1.653,2.225-2.43c7.691-7.705,15.392-15.402,23.091-23.1c0.518-0.52,1.021-1.055,1.566-1.547
		c3.148-2.852,7.23-3.108,10.338-0.666c3.008,2.365,3.533,6.288,1.357,10.146c-0.664,0.23-0.961-0.175-1.197-0.686
		c0.158-3.165,0.723-6.517-3.115-8.117c-3.713-1.548-5.611,1.301-7.75,3.377c-8.056,7.824-15.702,16.065-23.98,23.666
		C1107.526,730.601,1107.021,731.489,1105.998,731.075z"/>
	<path fill-rule="evenodd" clip-rule="evenodd" fill="#C6AB73" d="M1143.443,711.034c0.271,0.303,0.543,0.605,0.814,0.908
		c-0.332,1.123-1.281,1.761-2.043,2.526c-7.943,7.971-15.902,15.926-23.864,23.878c-2.54,2.536-2.553,2.524-5.52,0.148
		c-0.526,0.333-0.831,0.042-1.086-0.388c-0.022-0.326,0.106-0.582,0.364-0.778c0.417-0.208,0.861-0.271,1.321-0.236
		c0.29,0.033,0.577,0.097,0.857,0.174c0.438,0.079,0.872,0.052,1.299-0.102c7.896-6.952,14.885-14.811,22.491-22.039
		C1139.699,713.584,1140.816,711.29,1143.443,711.034z"/>
	<path fill-rule="evenodd" clip-rule="evenodd" fill="#C6AB73" d="M1154.805,714.026c3.865,0.041,6.984,3.152,6.99,6.971
		c0.006,3.719-3.248,7.016-6.98,7.071c-3.953,0.06-7.121-3.199-7.055-7.257C1147.826,716.855,1150.807,713.984,1154.805,714.026z"/>
	<path fill-rule="evenodd" clip-rule="evenodd" fill="#C6AB73" d="M1101.012,751.998c-0.04,3.862-3.17,6.968-7.022,6.969
		c-3.927,0.002-7.185-3.397-7.051-7.358c0.132-3.871,3.275-6.78,7.233-6.694C1098.085,744.998,1101.052,748.072,1101.012,751.998z"
		/>
	<path fill-rule="evenodd" clip-rule="evenodd" fill="#C6AB73" d="M1111.864,737.613c0.322,0.295,0.646,0.588,0.969,0.882
		c-3.389,3.298-6.777,6.596-10.274,9.999c-1.669-1.563-2.998-3.627-5.514-5.141c2.094-2.116,4.006-4.055,5.924-5.987
		c0.94-0.948,1.803-2.005,2.857-2.804c1.548-1.173,1.328-2.266,0.172-3.487c0.468-0.503,0.935-1.008,1.402-1.512
		c2.828,2.819,2.878,3.782,0.212,6.613c-1.667,1.771-3.451,3.43-5.136,5.186c-0.75,0.781-1.761,1.682-0.578,2.76
		c1.164,1.063,1.987-0.057,2.754-0.789c1.407-1.344,2.729-2.778,4.152-4.104C1109.665,738.43,1110.406,737.317,1111.864,737.613z"/>
	<path fill-rule="evenodd" clip-rule="evenodd" fill="#C6AB73" d="M1103.692,762.373c0.143,0.634,0.159,1.322,0.778,1.743
		c0.719,0.736,0.712,1.479,0.023,2.23c-0.629,0.382-0.638,1.048-0.761,1.661C1102.625,766.138,1102.636,764.259,1103.692,762.373z"
		/>
	<path fill-rule="evenodd" clip-rule="evenodd" fill="#C6AB73" d="M1111.862,737.631c0.771-1.1,1.54-1.101,2.308,0.005
		C1113.4,737.633,1112.631,737.632,1111.862,737.631z"/>
	<path fill-rule="evenodd" clip-rule="evenodd" fill="#C6AB73" d="M1114.149,737.611c0.408,0.105,0.664,0.366,0.783,0.766
		C1114.671,738.122,1114.41,737.866,1114.149,737.611z"/>
	<path fill-rule="evenodd" clip-rule="evenodd" fill="#C6AB73" d="M1160.281,720.918c0.037,2.951-2.617,5.637-5.572,5.639
		c-3.016,0.001-5.477-2.563-5.439-5.668c0.037-3.048,2.236-5.274,5.277-5.348C1157.648,715.467,1160.242,717.9,1160.281,720.918z"/>
	<path fill-rule="evenodd" clip-rule="evenodd" fill="#C6AB73" d="M1110.537,761.206c2.181-0.055,3.93,1.639,3.974,3.849
		c0.042,2.149-1.713,4.007-3.823,4.047c-2.106,0.039-3.939-1.755-3.98-3.896C1106.666,763.04,1108.37,761.261,1110.537,761.206z"/>
	<path fill-rule="evenodd" clip-rule="evenodd" fill="#C6AB73" d="M1137.914,711.748c-2.064-0.102-3.918-2.11-3.816-4.136
		c0.109-2.122,2.027-3.858,4.154-3.76c2.141,0.099,3.891,1.99,3.793,4.1C1141.947,710.059,1139.996,711.851,1137.914,711.748z"/>
	<path fill-rule="evenodd" clip-rule="evenodd" fill="#C6AB73" d="M1154.785,724.476c-1.936,0.041-3.551-1.445-3.654-3.359
		c-0.1-1.876,1.422-3.579,3.314-3.713c2.072-0.146,3.813,1.486,3.803,3.565C1158.236,722.931,1156.754,724.434,1154.785,724.476z"/>
	<path fill-rule="evenodd" clip-rule="evenodd" fill="#C6AB73" d="M1108.259,764.99c0.148-1.317,0.93-2.119,2.31-2.226
		c1.364-0.105,2.463,1.148,2.312,2.591c-0.148,1.434-1.064,2.204-2.421,2.106C1109.123,767.367,1108.309,766.498,1108.259,764.99z"
		/>
	<path fill-rule="evenodd" clip-rule="evenodd" fill="#C6AB73" d="M1138.17,710.156c-1.383-0.137-2.289-0.845-2.48-2.229
		c-0.176-1.298,1.17-2.65,2.5-2.517c1.391,0.14,2.26,0.983,2.275,2.376C1140.48,709.228,1139.494,709.911,1138.17,710.156z"/>
	<path fill-rule="evenodd" clip-rule="evenodd" fill="#C6AB73" d="M1156.709,721.139c-0.246,1.212-0.961,1.929-2.238,1.768
		c-1.271-0.162-1.861-1.045-1.701-2.274c0.141-1.094,0.941-1.698,2.012-1.63C1156.012,719.081,1156.701,719.835,1156.709,721.139z"
		/>
</g>
<g>
	<path fill-rule="evenodd" clip-rule="evenodd" fill="none" stroke="#C6AB73" stroke-miterlimit="10" d="M1430.704,771.216
		c-10.793,0-21.586,0.052-32.379-0.019c-7.268-0.046-9.426-6.141-7.496-11.302c1.209-3.232,4.471-4.18,7.576-4.197
		c18.973-0.11,37.946-0.055,56.919-0.055c2.68,0,5.385-0.226,8.035,0.06c2.914,0.315,5.76,1.167,7.178,4.179
		c1.814,3.85,0.551,8.933-3.965,10.398c-1.73,0.562-3.354,0.948-5.141,0.945C1451.189,771.206,1440.945,771.216,1430.704,771.216z"
		/>
	<path fill-rule="evenodd" clip-rule="evenodd" fill="none" stroke="#C6AB73" stroke-width="2" stroke-miterlimit="10" d="
		M1436.041,732.84c0.426-2.583,0.154-5.185,0.154-7.775c0-1.318,0.342-1.768,1.721-1.75c4.654,0.06,9.309-0.019,13.963-0.044
		c1.082-0.215,2.164-0.162,3.25-0.031c2.365,2.007,3.004,5.098,4.697,7.535c0.873,1.258,1.912,2.5,2.027,4.155
		c0.178,1.224,0.195,2.448-0.012,3.671c-0.043,3.434-0.139,6.867-0.107,10.3c0.012,1.233-0.326,1.662-1.619,1.66
		c-17.383-0.038-34.765-0.034-52.147-0.005c-1.145,0.002-1.596-0.309-1.541-1.504c0.084-1.852,0.105-3.715-0.006-5.563
		c-0.08-1.321,0.422-1.604,1.646-1.59c5.289,0.06,10.582-0.011,15.871,0.046c1.688,0.019,2.162-0.56,1.432-2.085
		c-3.316-0.476-6.65-0.079-9.973-0.213c-2.98-0.121-5.975,0.263-8.945-0.221c-0.002-2.071-0.004-4.142-0.006-6.212
		c1.523-0.447,3.119,0.143,4.639-0.341c0.088-2.059,1.391-2.198,3.061-2.126c2.781,0.118,5.572,0.041,8.357,0.046
		c1.076,0.51,2.268-0.09,3.35,0.356c-0.242,1.69,0.131,2.665,2.178,2.195c1.027-0.235,2.137-0.122,3.209-0.166
		C1432.818,732.775,1434.47,733.392,1436.041,732.84z"/>
	<path fill-rule="evenodd" clip-rule="evenodd" fill="none" stroke="#C6AB73" stroke-width="2" stroke-miterlimit="10" d="
		M1463.988,703.548c-3.926,2.481-7.453,5.5-11.195,8.23c-0.711,0.521-0.738,1.238-0.729,2.015c0.02,1.991-0.041,3.983,0.023,5.974
		c0.037,1.098-0.221,1.611-1.461,1.58c-3.02-0.077-6.043-0.066-9.064-0.006c-1.227,0.025-1.42-0.34-0.898-1.394
		c2.354-4.744,4.66-9.511,7.018-14.252c0.982-1.974,3.102-2.483,4.799-3.507c3.736-2.254,7.516-4.438,11.277-6.65
		c0.271,0.104,0.523,0.297,0.508,0.574C1464.134,698.589,1464.691,701.093,1463.988,703.548z"/>
	<path fill-rule="evenodd" clip-rule="evenodd" fill="none" stroke="#C6AB73" stroke-width="2" stroke-miterlimit="10" d="
		M1482.697,727.069c-2.041-1.531-2.631-3.979-3.738-6.072c-3.264-6.183-6.287-12.494-9.799-18.545
		c-1.412-2.434-1.313-5.08-1.264-7.721c0.021-1.159,0.959-2.02,1.844-2.269c0.971-0.272,1.072,1.023,1.391,1.704
		c4.898,10.421,9.73,20.873,14.682,31.267c0.762,1.602-0.133,1.485-1.102,1.601C1484.042,727.243,1483.371,727.195,1482.697,727.069
		z"/>
	<path fill-rule="evenodd" clip-rule="evenodd" fill="#C6AB73" d="M1472.775,742.056c5.023-1.439,8.428-4.375,9.096-9.838
		c0.381-2.188,2.791-2.811,4.896-1.265c0.145,2.76,1.107,5.42,0.492,8.288c-0.707,3.294-2.594,5.118-5.971,5.274
		c-3.119,0.143-6.063-0.47-8.898-1.719C1472.111,742.34,1472.542,742.248,1472.775,742.056z"/>
	<path fill-rule="evenodd" clip-rule="evenodd" fill="none" stroke="#C6AB73" stroke-width="2" stroke-miterlimit="10" d="
		M1446.171,766.735c-1.098,0.033-2.193-0.238-2.572-1.129c-0.643-1.506-1.744-1.47-3.002-1.417
		c-1.031,0.043-2.066,0.051-3.094-0.002c-1.209-0.062-2.061,0.12-2.84,1.35c-1.359,2.146-4.925,2.128-6.126-0.054
		c-0.713-1.296-1.545-1.308-2.645-1.288c-0.824,0.015-1.652,0.041-2.475-0.006c-1.27-0.071-2.223,0.077-3.098,1.345
		c-1.268,1.84-4.445,1.666-5.693-0.232c-0.652-0.993-1.357-1.148-2.355-1.113c-1.236,0.043-2.477,0.023-3.713,0.007
		c-1.555-0.021-2.924-0.112-4.055,1.55c-1.107,1.629-3.965,1.274-5.283-0.282c-1.158-1.367-0.947-3.426,0.471-4.612
		c1.711-1.433,4.045-1.246,5.191,0.617c0.566,0.92,1.141,1.198,2.127,1.152c1.371-0.064,2.748-0.011,4.123-0.019
		c1.463-0.006,2.764,0.193,3.814-1.533c1.068-1.755,4.463-1.395,5.52,0.422c0.564,0.965,1.146,1.177,2.107,1.125
		c1.027-0.054,2.064-0.059,3.092,0c1.223,0.071,2.053-0.159,2.848-1.357c1.514-2.285,4.989-2.039,6.37,0.344
		c0.451,0.778,0.875,1.06,1.73,1.019c1.371-0.063,2.75-0.055,4.123-0.005c1.146,0.043,1.943-0.128,2.691-1.282
		c1.27-1.954,4.611-1.806,5.789,0.195c0.57,0.971,1.186,1.125,2.131,1.087c1.234-0.049,2.475-0.039,3.711-0.004
		c1.256,0.037,2.236,0.013,3.035-1.403c0.965-1.71,3.803-1.68,5.283-0.268c1.389,1.327,1.252,3.728-0.295,5.14
		c-1.471,1.341-3.77,1.259-4.854-0.492c-0.813-1.314-1.762-1.483-3.055-1.403c-1.027,0.065-2.063,0.04-3.092,0.007
		c-1.246-0.04-2.346-0.09-3.078,1.345C1448.492,766.541,1447.267,766.807,1446.171,766.735z"/>
</g>
<g>
	<path fill-rule="evenodd" clip-rule="evenodd" fill="none" stroke="#C6AB73" stroke-width="2" stroke-miterlimit="10" d="
		M1546.682,770.263c-4.199-0.532-7.994-2.307-11.889-3.795c-2.16-0.825-4.389-1.5-6.771-1.293c-1.314,0.112-2.311,0.558-2.879,1.88
		c-0.596,1.392-0.232,2.511,0.664,3.571c0.869,1.025,2.006,1.642,3.262,2.043c5.848,1.865,11.684,3.77,17.559,5.551
		c2.082,0.631,4.164,0.05,6.227-0.503c9.699-2.603,19.541-4.58,29.373-6.604c2.127-0.438,2.297,1.302,2.742,2.575
		c0.506,1.451-0.801,1.513-1.656,1.709c-10.518,2.405-21.055,4.726-31.559,7.185c-4.189,0.98-8.102,0.096-11.9-1.427
		c-3.637-1.456-7.313-2.687-11.119-3.628c-3.473-0.86-6.838-2.188-7.688-6.297c-0.611-2.955-0.951-5.941,1.398-8.435
		c0.377-0.398,0.752-0.631,0.221-1.305c-2.68-3.418-2.793-7.668-0.238-10.983c0.635-0.825,0.756-1.251-0.016-2.013
		c-0.836-0.827-1.17-1.98-1.432-3.122c-0.199-1.223-0.191-2.446-0.004-3.669c0.266-0.658-0.049-1.478,0.568-2.038
		c0.092-1.952,1.4-3.04,2.885-3.961c1.305-0.81,2.789-1.164,4.289-1.365c2.652-0.356,5.303-0.716,7.926-1.253
		c0.543-0.11,1.09-0.151,1.615,0.091c0.514,0.314,0.604,0.882,0.793,1.384c0.531,1.406,1.668,1.672,2.984,1.604
		c1.229-0.063,2.066-0.628,2.359-1.87c0.174-0.734,0.34-1.47,0.992-1.962c0.66-0.487,1.346-0.933,2.07-1.321
		c0.381-0.205,0.775-0.379,1.193-0.497c2.877-0.511,5.699-1.357,8.652-1.363c3.039,0.892,6.068,0.938,9.084-0.132
		c0.963,0.175,1.986-0.005,2.9,0.473c0.412,0.318,0.504,0.792,0.59,1.262c0.184,1.005,0.592,1.827,1.703,2.044
		c1.184,0.23,2.152-0.075,2.811-1.157c0.246-0.405,0.516-0.81,1.002-0.987c3.236,0.026,6.375,0.877,9.596,1.121
		c1.928,0.146,1.957,2.07,2.148,3.54c0.184,1.409-0.635,2.166-1.984,2.395c-4.945,0.836-9.793,2.184-14.777,2.817
		c-0.744,0.295-1.586-0.112-2.316,0.308c-3.787,0.856-7.607,1.589-11.354,2.598c-7.393,1.989-14.492,1.275-21.385-1.936
		c-0.605-0.282-1.373-0.166-1.838-0.771c-1.535-0.249-3.039-0.724-4.605-0.736c-0.754-0.006-1.457,0.291-2.053,0.784
		c-2.275,1.223-2.262,4.048,0.076,5.487c1.689,1.039,3.549,1.66,5.463,2.22c3.98,1.164,7.9,2.539,11.852,3.809
		c1.033,0.331,2.064,0.742,3.195,0.562c1.133,0.301,2.266,0.323,3.396-0.014c4.146-0.154,8.002-1.647,11.969-2.629
		c6.154-1.523,12.285-3.152,18.572-4.062c0.963-0.135,1.924-0.313,2.867,0.096c0.291,0.604,0.738,1.098,0.855,1.83
		c0.195,1.229-0.08,1.781-1.416,2.08c-10.645,2.382-21.273,4.839-31.9,7.305c-3.809,0.883-7.34-0.101-10.895-1.332
		c-3.445-1.193-6.73-2.822-10.281-3.72c-0.984-0.33-1.969-0.315-2.955-0.005c-1.816,0.391-2.617,1.825-2.75,3.378
		c-0.107,1.259,0.67,2.43,1.922,3.146c0.947,0.542,1.871,1.076,2.932,1.395c5.064,1.524,10.148,2.988,15.125,4.804
		c2.504,0.912,5.117,0.763,7.654,0.037c9.242-2.641,18.791-3.978,28.023-6.65c0.953-0.141,1.902-0.213,2.848,0.045
		c0.361,0.312,0.781,0.578,1.076,0.943c1.23,1.52,0.795,2.746-1.129,3.184c-8.555,1.947-17.113,3.869-25.664,5.831
		c-2.318,0.531-4.609,1.173-6.914,1.764C1549.393,770.413,1548.038,770.437,1546.682,770.263z"/>
	<path fill-rule="evenodd" clip-rule="evenodd" fill="none" stroke="#C6AB73" stroke-width="2" stroke-miterlimit="10" d="
		M1538.073,732.004c-3.654,0.579-7.313,1.133-10.963,1.747c-2.727,0.458-4.479,2.213-5.766,4.533
		c-3.781-0.805-7.068-2.451-7.928-6.536c-1.479-7.021,0.762-12.507,8.609-13.742c0.943-0.148,2.184,0.212,2.473-1.256
		c-0.213-1.223-0.176-2.446-0.021-3.672c1.359-10.551,12.924-15.463,21.066-11.195c0.855,0.449,1.588,0.839,1.238,1.979
		c-0.861,1.137-2.295,1.441-3.344,2.305c-0.779-0.149-1.221-0.845-1.9-1.169c-1.514-0.726-2.975-0.647-4.186,0.496
		c-1.084,1.021-1.375,2.357-0.672,3.751c0.721,1.431,1.934,2.144,3.523,1.887c1.674-0.27,2.635-1.336,2.82-3.053
		c0.059-0.54,0.049-1.096,0.334-1.591c0.992-1.024,2.191-1.715,3.529-2.178c0.908,1.254,2.098,2.183,3.424,2.951
		c0.479,0.747,0.236,1.511,0.059,2.272c-0.162,1.747-0.6,3.443-0.953,5.154c-0.42,1.119-0.344,2.38-0.965,3.442
		c-0.346,0.561-0.896,0.499-1.434,0.472c-0.682-0.233-1.418-0.16-2.1-0.383c-1.301,0.217-1.953-0.554-2.596-1.541
		c-0.781-1.199-1.988-1.479-3.229-0.771c-1.021,0.585-1.207,1.622-0.863,2.7c0.547,1.713,2.6,2.138,3.941,0.675
		c0.793-0.864,1.576-1.207,2.668-1.053c0.676,0.211,1.404,0.143,2.076,0.383c1.654-0.159,1.205,0.863,0.984,1.754
		c-0.096,1.015-1.033,0.952-1.658,1.284c-1.469,0.783-2.049,2.185-1.381,3.378c0.619,1.106,2.266,1.434,3.438,0.684
		c1.232-0.79,1.41-2.189,0.393-3.559c-0.406-0.548-0.977-0.989-0.766-1.791c0.158-0.519,0.264-1.064,0.768-1.393
		c1.615-0.338,3.281-0.85,4.213,1.204c0.264,1.571,0.834,3.069,1.164,4.626c-0.338,1.293-1.57,1.648-2.484,2.328
		c-0.717,0.534-1.479,1.004-2.057,1.704c-0.383,0.326-0.879,0.366-1.328,0.521c-0.633,0.2-1.221,0.499-1.768,0.878
		c-0.381,0.319-0.785,0.575-1.311,0.558c-0.572-0.023-1.016-0.342-1.484-0.626c-2.311-1.404-3.438-1.14-4.881,1.13
		C1538.577,731.578,1538.436,731.896,1538.073,732.004z"/>
	<path fill-rule="evenodd" clip-rule="evenodd" fill="none" stroke="#C6AB73" stroke-width="2" stroke-miterlimit="10" d="
		M1568.889,739.089c5-1.466,10.135-2.305,15.234-3.313c0.836-0.165,2.119-0.059,1.656-1.397c-0.424-1.228,0.498-3.388-1.865-3.488
		c-3.236-0.137-6.385-0.806-9.559-1.331c-0.785-0.804-1.254-1.771-1.48-2.864c0.221-0.912,0.598-1.73,1.387-2.3
		c3.207-0.994,3.662-1.871,2.549-4.943c-0.295-2.081,0.703-3.935,1.027-5.906c0.076-0.729,0.293-1.427,0.492-2.129
		c0.102-0.304,0.277-0.556,0.527-0.756c0.947-0.146,1.779-2.28,2.908-0.112c0.174,0.332,1.137,0.267,1.736,0.361
		c5.973,0.933,8.865,5.027,10.559,10.324c0.266,0.831,0.369,1.715,0.549,2.575c0.184,1.223,0.184,2.447,0,3.672
		c-0.863,4.957-3.254,8.729-8.141,10.619c-1.547,0.599-3.166,0.769-4.77,1.059c-1.236,0.319-2.535-0.169-3.76,0.29
		c-1.895,0.005-3.787,0.011-5.682,0.016C1571.18,738.947,1569.975,739.552,1568.889,739.089z"/>
	<path fill-rule="evenodd" clip-rule="evenodd" fill="none" stroke="#C6AB73" stroke-width="2" stroke-miterlimit="10" d="
		M1556.405,702.629c-0.182-3.021-1.348-4.214-5.109-5.232c2.543-4.527,10.605-6.633,16.488-5.656
		c7.895,1.308,13.232,5.997,13.785,11.636c-2.313-0.365-4.51-0.502-5.521,2.313c-0.217,0.604-0.992,0.252-1.498,0.389
		c-1.184,0.799-2.471,0.537-3.748,0.361c-1.66-1.489-3.42-2.024-5.387-0.543c-1.193,0.332-2.213-0.414-3.334-0.537
		c-0.805-0.113-1.584-0.311-2.313-0.68c-0.602-0.467-1.254-0.842-2.002-1.031C1557.196,703.465,1556.692,703.189,1556.405,702.629z"
		/>
	<path fill-rule="evenodd" clip-rule="evenodd" fill="none" stroke="#C6AB73" stroke-width="2" stroke-miterlimit="10" d="
		M1559.651,704.38c0.859,0.151,1.719,0.302,2.576,0.454c0.771,0.918,2.199,0.61,2.945,1.574c0.65,2.836,1.109,3.178,4.018,2.96
		c0.41-0.03,0.813-0.024,1.199,0.131c0.742,0.498,1.561,0.919,1.838,1.873c-0.584,3.026-0.592,3.039,1.932,4.63
		c0.623,0.394,1.016,0.894,1.16,1.605c0.076,0.558,0.027,1.147-0.4,1.501c-1.906,1.566-1.662,3.322-0.551,5.189
		c-0.092,1.007-0.416,1.907-1.174,2.615c-0.857,0.419-1.768,0.321-2.672,0.29c-0.334-0.031-0.656-0.112-0.959-0.254
		c-1.246-0.753-1.045-1.778-0.518-2.852c0.641-1.312,1.059-2.678,0.994-4.153c-0.199-4.613-3.594-7.856-8.254-8.026
		c-1.283-0.048-2.566,0.609-3.84-0.021c-1.439-1.434-2.148-3.372-3.4-4.938c-0.115-0.153-0.193-0.325-0.244-0.51
		c0.705-1.052,1.412-2.104,2.117-3.155c0.471-0.563,0.803,0.192,1.221,0.127C1558.319,703.721,1559.104,703.801,1559.651,704.38z"/>
	<path fill-rule="evenodd" clip-rule="evenodd" fill="none" stroke="#C6AB73" stroke-width="2" stroke-miterlimit="10" d="
		M1554.301,706.449c0.166,0.021,0.332,0.04,0.5,0.06c0.529,2.072,2.301,3.468,2.971,5.465c-0.059,0.352-0.219,0.674-0.508,0.855
		c-2.357,1.484-3.313,4.042-4.777,6.21c-1.293,0.037-2.576-0.035-3.83-0.388c-0.197-0.128-0.291-0.31-0.287-0.544
		c0.385-1.117,0.424-2.313,0.777-3.438c0.385-1.763,0.875-3.504,1.063-5.307c0.246-0.699,0.291-1.472,0.754-2.093
		C1552.075,706.996,1553.188,706.723,1554.301,706.449z"/>
	<path fill-rule="evenodd" clip-rule="evenodd" fill="none" stroke="#C6AB73" stroke-width="2" stroke-miterlimit="10" d="
		M1546.887,704.31c-1.109,0.711-2.217,1.424-3.324,2.136c-0.193-0.191-0.199-0.389-0.02-0.592c1.08-0.663,2.16-1.328,3.238-1.992
		C1546.817,704.011,1546.852,704.159,1546.887,704.31z"/>
	<path fill-rule="evenodd" clip-rule="evenodd" fill="none" stroke="#C6AB73" stroke-width="2" stroke-miterlimit="10" d="
		M1569.532,739.089c1.105,0.286,2.291-0.153,3.369,0.375c-1.68-0.004-3.359-0.008-5.039-0.012
		C1568.344,738.994,1568.954,739.118,1569.532,739.089z"/>
	<path fill-rule="evenodd" clip-rule="evenodd" fill="none" stroke="#C6AB73" stroke-width="2" stroke-miterlimit="10" d="
		M1595.252,727.48c0-1.225,0-2.449,0-3.672C1595.766,725.031,1595.766,726.256,1595.252,727.48z"/>
	<path fill-rule="evenodd" clip-rule="evenodd" fill="none" stroke="#C6AB73" stroke-width="2" stroke-miterlimit="10" d="
		M1524.477,713.078c0.006,1.224,0.014,2.448,0.021,3.672C1523.959,715.529,1523.989,714.305,1524.477,713.078z"/>
	<path fill-rule="evenodd" clip-rule="evenodd" fill="none" stroke="#C6AB73" stroke-width="2" stroke-miterlimit="10" d="
		M1550.963,707.271c-0.145,0.687-0.287,1.373-0.432,2.061c-0.227,0.239-0.453,0.243-0.676-0.007c0.232-0.67,0.545-1.322,0.455-2.063
		C1550.528,707.265,1550.745,707.268,1550.963,707.271z"/>
	<path fill-rule="evenodd" clip-rule="evenodd" fill="none" stroke="#C6AB73" stroke-width="2" stroke-miterlimit="10" d="
		M1578.583,739.448c1.23-0.397,2.5-0.277,3.76-0.29C1581.131,739.803,1579.834,739.351,1578.583,739.448z"/>
	<path fill-rule="evenodd" clip-rule="evenodd" fill="none" stroke="#C6AB73" stroke-width="2" stroke-miterlimit="10" d="
		M1557.563,703.593c-0.381-0.099-0.764-0.199-1.145-0.299c-0.004-0.222-0.008-0.443-0.014-0.665
		c0.516,0.205,1.029,0.411,1.545,0.617C1558.022,703.585,1557.993,703.812,1557.563,703.593z"/>
	<path fill-rule="evenodd" clip-rule="evenodd" fill="none" stroke="#C6AB73" stroke-width="2" stroke-miterlimit="10" d="
		M1553.897,725.645c1.104,0.829,2.207,1.657,3.311,2.486c-3.01,0.497-6.021,0.993-9.031,1.49c-0.137-0.099-0.186-0.202-0.15-0.311
		c0.037-0.112,0.076-0.168,0.117-0.168c0.424-0.147,0.846-0.295,1.27-0.442C1550.655,727.312,1552.211,726.384,1553.897,725.645z"/>
	<path fill-rule="evenodd" clip-rule="evenodd" fill="none" stroke="#C6AB73" stroke-width="2" stroke-miterlimit="10" d="
		M1570.522,726.757c-0.471,0.566-0.941,1.133-1.412,1.7c-0.961-0.227-2.01,0.047-2.914-0.511c1.051-0.978,2.057-2.086,3.719-1.249
		C1570.118,726.718,1570.319,726.737,1570.522,726.757z"/>
	<path fill-rule="evenodd" clip-rule="evenodd" fill="none" stroke="#C6AB73" stroke-width="2" stroke-miterlimit="10" d="
		M1545.569,731.116c-0.135-0.217-0.27-0.434-0.402-0.651c0.42-0.158,0.84-0.316,1.262-0.475c0.287-0.25,0.58-0.248,0.873-0.008
		C1546.723,730.36,1546.147,730.738,1545.569,731.116z"/>
	<path fill-rule="evenodd" clip-rule="evenodd" fill="none" stroke="#C6AB73" stroke-width="2" stroke-miterlimit="10" d="
		M1547.301,729.982c-0.291,0.003-0.582,0.005-0.873,0.008c0.494-0.437,0.953-0.949,1.715-0.848c0.012,0.159,0.021,0.318,0.031,0.479
		C1547.983,729.978,1547.631,729.957,1547.301,729.982z"/>
	<path fill-rule="evenodd" clip-rule="evenodd" fill="none" stroke="#C6AB73" stroke-width="2" stroke-miterlimit="10" d="
		M1549.856,709.324c0.225,0.002,0.451,0.004,0.676,0.007c-0.283,1.826-0.535,3.661-1.277,5.379c-0.07,0.001-0.143,0.001-0.213,0.001
		C1549.313,712.916,1549.584,711.12,1549.856,709.324z"/>
	<path fill-rule="evenodd" clip-rule="evenodd" fill="none" stroke="#C6AB73" stroke-width="2" stroke-miterlimit="10" d="
		M1553.897,725.645c-1.496,1.019-2.99,2.037-4.486,3.057c-0.322-1.107,0.74-1.134,1.254-1.538c1.01-0.795,2.092-1.499,3.145-2.241
		C1553.836,725.163,1553.868,725.404,1553.897,725.645z"/>
	<path fill-rule="evenodd" clip-rule="evenodd" fill="none" stroke="#C6AB73" stroke-width="2" stroke-miterlimit="10" d="
		M1552.625,718.789c-0.012,0.603-0.023,1.205-0.037,1.808c-0.75-2.251-2.664-1.106-4.084-1.399c-0.225-0.326-0.252-0.635,0.082-0.91
		C1549.913,718.613,1551.241,718.919,1552.625,718.789z"/>
	<path fill-rule="evenodd" clip-rule="evenodd" fill="none" stroke="#C6AB73" stroke-width="2" stroke-miterlimit="10" d="
		M1549.042,714.711c0.072,0.003,0.143,0.003,0.213-0.001c0.021,1.157-0.193,2.265-0.705,3.308c-0.131,0.205-0.258,0.202-0.379-0.009
		C1548.485,716.916,1548.417,715.723,1549.042,714.711z"/>
	<path fill-rule="evenodd" clip-rule="evenodd" fill="none" stroke="#C6AB73" stroke-width="2" stroke-miterlimit="10" d="
		M1546.868,718.405c0.008,0.117,0.014,0.233,0.014,0.352c-0.73,0.103-1.424-0.005-2.08-0.343c0.002-0.119-0.004-0.238-0.014-0.356
		C1545.506,718.024,1546.243,717.876,1546.868,718.405z"/>
	<path fill-rule="evenodd" clip-rule="evenodd" fill="none" stroke="#C6AB73" stroke-width="2" stroke-miterlimit="10" d="
		M1574.104,724.203c0.275,0.135,0.551,0.269,0.828,0.403c-0.379,0.689-0.756,1.378-1.133,2.068c-0.184-0.01-0.365-0.019-0.549-0.029
		C1573.534,725.832,1573.819,725.018,1574.104,724.203z"/>
	<path fill-rule="evenodd" clip-rule="evenodd" fill="none" stroke="#C6AB73" stroke-width="2" stroke-miterlimit="10" d="
		M1578.975,713.45h-0.172l-0.174,0.011c0.088-0.769-0.244-1.709,0.85-2.062C1579.311,712.083,1579.143,712.767,1578.975,713.45z"/>
	<path fill-rule="evenodd" clip-rule="evenodd" fill="none" stroke="#C6AB73" stroke-width="2" stroke-miterlimit="10" d="
		M1565.395,705.545c-0.15,0.327-0.299,0.655-0.449,0.982c-0.758-0.802-2.363-0.246-2.719-1.693
		C1563.325,704.887,1564.225,705.811,1565.395,705.545z"/>
	<path fill-rule="evenodd" clip-rule="evenodd" fill="none" stroke="#C6AB73" stroke-width="2" stroke-miterlimit="10" d="
		M1557.563,703.593c0.129-0.115,0.258-0.231,0.387-0.347c0.627,0.285,1.586,0.076,1.701,1.134
		C1558.913,704.229,1558.167,704.101,1557.563,703.593z"/>
	<path fill-rule="evenodd" clip-rule="evenodd" fill="none" stroke="#C6AB73" stroke-width="2" stroke-miterlimit="10" d="
		M1557.915,711.458c-0.111,0.126-0.223,0.251-0.334,0.377c-0.926-1.412-1.842-2.833-2.791-4.231
		c-0.27-0.398-0.289-0.732,0.012-1.095C1555.838,708.159,1556.875,709.809,1557.915,711.458z"/>
</g>
<g>
	<path fill-rule="evenodd" clip-rule="evenodd" fill="#C6AB73" d="M1281.809,719.379c8.456,11.822,6.826,23.886,0.697,35.951
		c-2.074,4.084-5.123,7.54-8.187,10.933c-10.275,11.376-22.43,20.474-35.058,29.021c-2.972,2.012-5.444,1.925-8.262-0.237
		c-6.785-5.206-13.699-10.247-20.551-15.368c-0.756-0.566-1.537-1.148-2.136-1.866c-1.376-1.646-1.44-3.476-0.277-5.261
		c1.211-1.858,3.071-2.293,5.006-1.582c1.388,0.513,2.66,1.437,3.865,2.337c5.179,3.865,10.342,7.755,15.449,11.714
		c1.797,1.393,3.201,2.057,5.462,0.428c10.667-7.684,20.998-15.726,29.944-25.429c4.983-5.405,8.628-11.543,10.592-18.648
		c1.584-0.216,1.824,0.971,2.165,2.059c-0.612,9.277-6.639,15.701-12.486,21.792c-8.57,8.921-18.291,16.633-28.615,23.536
		c-3.531,2.36-6.364,1.286-9.371-0.898c-5.635-4.093-10.933-8.676-17.167-11.931c6.172,6.1,13.395,10.836,20.361,15.899
		c1.618,1.177,3.244,0.814,4.781-0.227c13.76-9.313,27.088-19.197,37.343-32.465c8.218-10.636,11.238-22.361,5.292-35.278
		c-0.401-0.872-0.617-1.799-0.548-2.775C1280.365,720.205,1280.931,719.634,1281.809,719.379z"/>
	<path fill-rule="evenodd" clip-rule="evenodd" fill="#C6AB73" d="M1281.809,719.379c-0.399,0.457-0.798,0.914-1.197,1.373
		c-2.387,0.48-3.259-1.581-4.541-2.819c-9.758-9.42-23-11.249-34.529-4.179c-4.236,2.599-7.529,3.023-11.938,0.246
		c-10.349-6.514-21.005-5.991-31.105,0.708c-10.545,6.997-12.619,17.419-10.815,29.14c0.115,0.752,0.386,1.471,0.548,2.214
		c1.232,5.613,0.527,6.534-5.421,7.093c-1.125,0.106-2.286-0.039-4.334,1.014c4.03,0.836,7.265,0.46,10.436,0.487
		c7.223,0.062,14.45-0.126,21.666,0.073c4.373,0.121,7.188-1.5,8.924-5.539c0.749-1.738,1.208-4.754,3.842-4.101
		c2.148,0.533,2.498,3.104,2.369,5.322c-0.339,1.215-0.542,2.567-2.321,2.365c-1.372-0.85-1.744,0.489-1.951,1.162
		c-1.147,3.724-3.701,4.812-7.395,4.769c-11.598-0.134-23.199-0.056-34.798-0.065c-0.76-0.001-1.531,0.023-2.276-0.1
		c-2.262-0.379-3.915-1.473-4.1-3.98c-0.21-2.829,1.539-4.139,3.963-4.746c2.552-0.642,5.283,0.337,7.962-0.623
		c-0.184-3.376-1.541-6.355-1.702-9.583c-0.594-11.905,3.259-21.717,13.373-28.468c10.557-7.044,21.613-7.558,32.927-1.771
		c1.013,0.517,2.092,1.002,2.934,1.739c2.09,1.831,3.747,1.408,5.961-0.123c8.537-5.907,17.964-6.988,27.737-3.865
		C1272.681,709.248,1278.299,713.04,1281.809,719.379z"/>
	<path fill-rule="evenodd" clip-rule="evenodd" fill="#C6AB73" d="M1245.565,754.919c0.313,0.459,0.627,0.917,1.202,1.756
		c1.021-1.576,1.981-3.017,2.896-4.484c0.966-1.555,2.246-2.418,4.16-2.356c2.533,0.083,5.074-0.055,7.604,0.063
		c2.503,0.114,3.662,1.167,3.766,3.097c0.114,2.119-1.23,3.915-3.736,3.493c-5.967-1.002-8.645,2.317-10.785,6.942
		c-0.704,1.521-1.631,2.975-2.651,4.311c-2.171,2.839-4.496,2.301-6.025-1.311c-0.148-0.811-0.582-1.669,0.399-2.28
		c2.587,1.931,4.355,1.276,5.63-1.619c0.56-1.272,1.466-2.402,2.122-3.645c1.803-3.413,4.373-5.438,8.454-5.015
		c0.795,0.082,1.633-0.018,2.45-0.679c-6.858-1.35-8.055-0.88-11.392,4.357c-0.229,0.356-0.42,0.735-0.66,1.082
		c-0.806,1.163-1.668,2.645-3.24,2.241c-1.516-0.389-1.862-1.945-1.788-3.46c0.124-0.837,0.468-1.568,1.063-2.178
		C1245.208,755.129,1245.387,755.025,1245.565,754.919z"/>
	<path fill-rule="evenodd" clip-rule="evenodd" fill="#C6AB73" d="M1191.533,736.467c1.076,3.431,1.109,7.104,2.631,10.456
		c0.796,1.751,1.674,2.753,3.745,2.695c4.179-0.116,8.366-0.125,12.544,0.004c2.233,0.068,3.417-0.777,4.232-2.86
		c1.522-3.887,3.292-7.677,5.02-11.479c0.843-1.852,2.235-3.188,4.403-2.995c2.294,0.203,3.952,1.305,4.002,3.919
		c0.307,1.214,0.776,2.476-0.904,3.11c-2.767-1.839-5.167-1.65-5.909,1.9c-2.365,11.331-10.158,12.803-20.001,12.083
		c-9.045-0.661-11.464-2.522-12.058-11.856C1189.783,739.685,1189.794,737.674,1191.533,736.467z"/>
	
		<line fill-rule="evenodd" clip-rule="evenodd" fill="none" stroke="#C6AB73" stroke-width="3" stroke-miterlimit="10" x1="1265.602" y1="737.128" x2="1226.361" y2="737.128"/>
	
		<line fill-rule="evenodd" clip-rule="evenodd" fill="none" stroke="#C6AB73" stroke-width="3" stroke-miterlimit="10" x1="1245.981" y1="719.314" x2="1245.902" y2="757.587"/>
</g>
</svg>
