<?xml version="1.0" encoding="UTF-8" standalone="no"?>
<!-- Generator: Adobe Illustrator 16.0.0, SVG Export Plug-In . SVG Version: 6.00 Build 0)  -->

<svg
   xmlns:dc="http://purl.org/dc/elements/1.1/"
   xmlns:cc="http://creativecommons.org/ns#"
   xmlns:rdf="http://www.w3.org/1999/02/22-rdf-syntax-ns#"
   xmlns:svg="http://www.w3.org/2000/svg"
   xmlns="http://www.w3.org/2000/svg"
   xmlns:sodipodi="http://sodipodi.sourceforge.net/DTD/sodipodi-0.dtd"
   xmlns:inkscape="http://www.inkscape.org/namespaces/inkscape"
   version="1.1"
   id="Layer_1"
   x="0px"
   y="0px"
   width="300"
   height="300"
   viewBox="0 0 299.99837 300"
   xml:space="preserve"
   sodipodi:docname="IT1 we3dx.svg"
   inkscape:version="0.92.3 (2405546, 2018-03-11)"><metadata
   id="metadata21"><rdf:RDF><cc:Work
       rdf:about=""><dc:format>image/svg+xml</dc:format><dc:type
         rdf:resource="http://purl.org/dc/dcmitype/StillImage" /><dc:title></dc:title></cc:Work></rdf:RDF></metadata><defs
   id="defs19" /><sodipodi:namedview
   pagecolor="#ffffff"
   bordercolor="#666666"
   borderopacity="1"
   objecttolerance="10"
   gridtolerance="10"
   guidetolerance="10"
   inkscape:pageopacity="0"
   inkscape:pageshadow="2"
   inkscape:window-width="1366"
   inkscape:window-height="705"
   id="namedview17"
   showgrid="false"
   fit-margin-top="0"
   fit-margin-left="0"
   fit-margin-right="0"
   fit-margin-bottom="0"
   inkscape:zoom="1.3037281"
   inkscape:cx="365.67031"
   inkscape:cy="162.92448"
   inkscape:window-x="-8"
   inkscape:window-y="-8"
   inkscape:window-maximized="1"
   inkscape:current-layer="Layer_1" />
<path
   stroke-miterlimit="10"
   d="m 197.6512,115.0352 h -7.277 c 0.054,7.752 -0.237,15.533 0.273,23.24997 0.409,6.13599 -1.047,8.26999 -7.35,8.12399 -20.953,-0.479 -41.926,-0.048 -62.887,-0.272 -5.267,-0.058 -7.179,2.328 -7.08,7.454 0.039,1.886 0.008,3.772 0.002,5.659 -0.063,35.33 -0.125,70.66 -0.188,105.988 1.388,-0.532 2.842,-0.843 4.307,-0.843 0.978,0 1.915,0.115 2.808,0.32 0.031,-34.967 0.064,-69.936 -0.098,-104.902 -0.023,-4.977 1.278,-6.388 5.971,-6.331 21.383,0.254 42.768,-0.003 64.151,0.188 5.413,0.05 7.414,-2.09 7.284,-7.798 -0.235,-10.27198 0.028,-20.55796 0.084,-30.83696 z"
   id="path2"
   inkscape:connector-curvature="0"
   style="fill:none;stroke:#565656;stroke-width:1.3915;stroke-miterlimit:10" />
<path
   stroke-miterlimit="10"
   d="m 204.1902,100.6212 c 0.531,3.217 -1.728,4.284 -5.674,4.313 -5.544,0.042 -3.604,-4.122 -4.017,-7.063006 -0.638,-4.536 1.364,-5.607 5.388,-5.628 5.486,-0.029 3.858,3.921 4.303,8.378006 z"
   id="path4"
   inkscape:connector-curvature="0"
   style="fill:#d8d0bc;stroke:#565656;stroke-width:0.61229998;stroke-miterlimit:10" />
<path
   stroke-miterlimit="10"
   d="m 235.0902,239.54116 c 0,6.891 -5.072,12.547 -11.576,12.547 h -83.477 c -6.503,0 -11.947,-5.656 -11.947,-12.547 V 53.858196 c 0,-6.890998 5.444,-12.769996 11.947,-12.769996 h 83.477 c 6.504,0 11.576,5.878998 11.576,12.769996 z"
   id="path6"
   inkscape:connector-curvature="0"
   style="fill:none;stroke:#565656;stroke-width:3;stroke-miterlimit:10" />
<line
   stroke-miterlimit="10"
   x1="140.59021"
   y1="59.088192"
   x2="224.59021"
   y2="59.088192"
   id="line8"
   style="fill:none;stroke:#565656;stroke-miterlimit:10" />
<line
   stroke-miterlimit="10"
   x1="139.59021"
   y1="231.08817"
   x2="224.59021"
   y2="231.08817"
   id="line10"
   style="fill:none;stroke:#565656;stroke-miterlimit:10" />
<ellipse
   stroke-miterlimit="10"
   cx="182.09421"
   cy="240.43619"
   rx="6.026"
   ry="6.4889998"
   id="ellipse12"
   style="fill:none;stroke:#565656;stroke-width:1.01010001;stroke-miterlimit:10" />
<path
   d="m 231.5942,113.8262 c 0,-9.71 -0.183,-9.9 -9.277,-9.913 -11.617,-0.012 -11.607,-0.012 -12.362,-12.060006 -0.219,-3.497 -0.65,-6.697 -5.074,-7.018 -3.66,-0.265 -8.709,2.011 -10.625,-1.249 -1.811,-3.077 -0.698,-8.101 -0.803,-12.27 -0.042,-1.674 0.096,-3.354 0.148,-5.029002 -2.359,-0.160996 -4.724,-0.319996 -7.085,-0.477996 -0.01,4.188998 -0.342,8.413998 0.057,12.562998 0.503,5.322 -1.416,6.652 -6.297,6.621 -33.809,-0.215 -67.62,-0.069 -101.431993,-0.158 -5.49,-0.015 -12.628,2.502 -16.053,-1.012 -3.732,-3.83 -0.915,-11.506 -1.203,-17.492002 -2.374,-0.09 -4.751,-0.176996 -7.129,-0.268996 0.035,5.879998 0.077,11.756998 0.111,17.635998 0.045,7.935 0.594,8.535 8.193,8.538 37.249003,0.009 74.498993,0.005 111.745993,0.005 11.742,0 11.912,0 11.896,12.381006 -0.008,4.827 1.43,7.151 6.163,6.656 1.565,-0.166 3.189,0.165 4.743,-0.063 4.392,-0.646 5.78,1.083 5.736,5.882 -0.22,24.77496 -0.09,49.55296 -0.125,74.32896 0,0.243 0.008,0.489 0.021,0.736 3.368,0.032 6.701,1.261 9.12,3.667 0.009,-1.31 -0.003,-2.618 -0.003,-3.926 0.015,-22.65 0.005,-45.298 0.01,-67.94196 0.004,-2.097 0.013,-4.19 0.129,-6.286 0.176,-3.209 1.932,-4.274 4.708,-4.32 4.516,-0.073 5.615,1.279 5.64,7.992 0.101,28.09696 -0.043,56.18896 0.096,84.28096 1.644,-0.838 3.501,-1.322 5.545,-1.322 1.154,0 2.308,0.195 3.425,0.539 -0.021,-30.337 -0.015,-60.677 -0.019,-91.01896 z"
   id="path14"
   inkscape:connector-curvature="0"
   style="fill:#d16d00" />
</svg>