<?xml version="1.0" encoding="UTF-8" standalone="no"?>
<!-- Generator: Adobe Illustrator 16.0.0, SVG Export Plug-In . SVG Version: 6.00 Build 0)  -->

<svg
   xmlns:dc="http://purl.org/dc/elements/1.1/"
   xmlns:cc="http://creativecommons.org/ns#"
   xmlns:rdf="http://www.w3.org/1999/02/22-rdf-syntax-ns#"
   xmlns:svg="http://www.w3.org/2000/svg"
   xmlns="http://www.w3.org/2000/svg"
   xmlns:sodipodi="http://sodipodi.sourceforge.net/DTD/sodipodi-0.dtd"
   xmlns:inkscape="http://www.inkscape.org/namespaces/inkscape"
   version="1.1"
   id="Layer_1"
   x="0px"
   y="0px"
   width="300"
   height="300"
   viewBox="0 0 300.00001 300"
   xml:space="preserve"
   sodipodi:docname="IT4 we3dx.svg"
   inkscape:version="0.92.3 (2405546, 2018-03-11)"><metadata
   id="metadata39"><rdf:RDF><cc:Work
       rdf:about=""><dc:format>image/svg+xml</dc:format><dc:type
         rdf:resource="http://purl.org/dc/dcmitype/StillImage" /><dc:title></dc:title></cc:Work></rdf:RDF></metadata><defs
   id="defs37" /><sodipodi:namedview
   pagecolor="#ffffff"
   bordercolor="#666666"
   borderopacity="1"
   objecttolerance="10"
   gridtolerance="10"
   guidetolerance="10"
   inkscape:pageopacity="0"
   inkscape:pageshadow="2"
   inkscape:window-width="640"
   inkscape:window-height="480"
   id="namedview35"
   showgrid="false"
   fit-margin-top="0"
   fit-margin-left="0"
   fit-margin-right="0"
   fit-margin-bottom="0"
   inkscape:zoom="0.65186406"
   inkscape:cx="262.33704"
   inkscape:cy="102.91329"
   inkscape:window-x="0"
   inkscape:window-y="0"
   inkscape:window-maximized="0"
   inkscape:current-layer="Layer_1" />
<g
   id="g32"
   transform="translate(-300.81343,-395.59257)">
	<path
   stroke-miterlimit="10"
   d="m 436.01,542.162 c 0,-10.384 0.061,-20.771 -0.049,-31.153 -0.021,-2.241 0.282,-3.25 2.921,-3.199 9.021,0.177 18.05,0.173 27.069,10e-4 2.634,-0.05 2.99,0.977 2.981,3.227 -0.066,21.016 -0.07,42.03 0.005,63.046 0.008,2.297 -0.423,3.242 -3.01,3.195 -9.021,-0.164 -18.051,-0.172 -27.07,0.002 -2.66,0.051 -2.925,-0.982 -2.899,-3.228 0.111,-10.627 0.049,-21.261 0.052,-31.891 z"
   id="path2"
   inkscape:connector-curvature="0"
   style="fill:none;stroke:#d16d00;stroke-width:2.78299999;stroke-miterlimit:10" />
	<path
   stroke-miterlimit="10"
   d="m 506.926,585.234 c 0,10.518 -0.061,21.036 0.051,31.554 0.022,2.222 -0.501,2.993 -2.857,2.958 -9.031,-0.137 -18.065,-0.108 -27.1,-0.015 -2.109,0.021 -3.041,-0.334 -3.03,-2.788 0.097,-21.406 0.075,-42.813 0.021,-64.221 -0.005,-1.892 0.486,-2.579 2.481,-2.56 9.28,0.092 18.563,0.105 27.842,-0.01 2.208,-0.027 2.649,0.771 2.635,2.783 -0.087,10.768 -0.043,21.534 -0.043,32.299 z"
   id="path4"
   inkscape:connector-curvature="0"
   style="fill:#d16d00;stroke:#d16d00;stroke-width:0.74290001;stroke-miterlimit:10" />
	<path
   stroke-miterlimit="10"
   d="m 452.382,474.763 c 4.569,0 9.144,0.081 13.708,-0.037 1.978,-0.05 2.887,0.361 2.851,2.61 -0.12,7.53 -0.119,15.066 0.002,22.599 0.034,2.2 -0.791,2.678 -2.808,2.657 -9.139,-0.087 -18.277,-0.091 -27.416,0.005 -2.017,0.022 -2.81,-0.389 -2.767,-2.619 0.142,-7.529 0.136,-15.066 0,-22.597 -0.038,-2.172 0.641,-2.73 2.724,-2.664 4.565,0.148 9.137,0.046 13.706,0.046 z"
   id="path6"
   inkscape:connector-curvature="0"
   style="fill:#d16d00;stroke:#d16d00;stroke-width:0.74290001;stroke-miterlimit:10" />
	<path
   stroke-miterlimit="10"
   d="m 414.602,548.876 c 4.571,0 9.144,0.067 13.711,-0.032 2.029,-0.041 2.879,0.608 2.854,2.744 -0.09,7.411 -0.076,14.822 -0.008,22.233 0.017,1.954 -0.774,2.577 -2.646,2.563 -9.388,-0.052 -18.773,-0.052 -28.162,0 -1.854,0.011 -2.677,-0.579 -2.658,-2.55 0.068,-7.41 0.08,-14.82 -0.008,-22.232 -0.023,-2.118 0.791,-2.801 2.837,-2.76 4.692,0.101 9.385,0.034 14.08,0.034 z"
   id="path8"
   inkscape:connector-curvature="0"
   style="fill:none;stroke:#565656;stroke-width:1.3915;stroke-miterlimit:10" />
	<path
   stroke-miterlimit="10"
   d="m 414.561,465.633 c 4.571,0 9.146,0.074 13.716,-0.034 2.063,-0.048 2.853,0.646 2.825,2.761 -0.088,7.29 -0.061,14.58 -0.017,21.871 0.012,2.017 -0.78,2.904 -2.852,2.895 -9.392,-0.048 -18.782,-0.046 -28.175,0 -1.81,0.011 -2.339,-0.786 -2.327,-2.466 0.047,-7.537 0.064,-15.075 -0.009,-22.611 -0.019,-2.066 0.989,-2.459 2.75,-2.436 4.696,0.062 9.392,0.02 14.089,0.02 z"
   id="path10"
   inkscape:connector-curvature="0"
   style="fill:none;stroke:#565656;stroke-width:1.3915;stroke-miterlimit:10" />
	<path
   stroke-miterlimit="10"
   d="m 376.684,508.015 c 4.45,0 8.903,0.101 13.351,-0.041 2.345,-0.072 3.311,0.592 3.263,3.109 -0.138,7.166 -0.122,14.341 -0.008,21.507 0.037,2.313 -0.829,2.969 -3.036,2.945 -9.024,-0.087 -18.049,-0.078 -27.072,-0.008 -2.325,0.018 -3.396,-0.785 -3.371,-3.222 0.075,-7.168 0.077,-14.341 -0.007,-21.509 -0.021,-2.069 0.692,-2.859 2.79,-2.813 4.693,0.105 9.392,0.034 14.09,0.032 z"
   id="path12"
   inkscape:connector-curvature="0"
   style="fill:none;stroke:#565656;stroke-width:1.3915;stroke-miterlimit:10" />
	<path
   stroke-miterlimit="10"
   d="m 490.151,654.374 c -4.578,0 -9.159,-0.095 -13.733,0.042 -2.314,0.07 -2.988,-0.824 -2.957,-3.037 0.102,-7.053 0.087,-14.105 0.011,-21.159 -0.024,-2.341 0.815,-3.373 3.242,-3.353 9.033,0.067 18.067,0.053 27.101,0.007 2.192,-0.013 3.137,0.87 3.118,3.091 -0.056,7.298 -0.063,14.602 0.007,21.9 0.021,1.994 -0.846,2.559 -2.682,2.531 -4.702,-0.07 -9.404,-0.023 -14.107,-0.022 z"
   id="path14"
   inkscape:connector-curvature="0"
   style="fill:none;stroke:#565656;stroke-width:2.57470012;stroke-miterlimit:10" />
	<path
   stroke-miterlimit="10"
   d="m 490.575,545.78 c -4.58,0 -9.163,-0.08 -13.739,0.038 -1.974,0.051 -2.878,-0.344 -2.84,-2.6 0.128,-7.549 0.09,-15.101 0.017,-22.651 -0.017,-1.824 0.372,-2.567 2.447,-2.541 9.283,0.125 18.567,0.093 27.851,0.017 1.79,-0.017 2.693,0.219 2.661,2.351 -0.113,7.674 -0.111,15.351 0,23.022 0.03,2.109 -0.856,2.437 -2.657,2.398 -4.579,-0.098 -9.161,-0.034 -13.74,-0.034 z"
   id="path16"
   inkscape:connector-curvature="0"
   style="fill:none;stroke:#d16d00;stroke-width:2.78299999;stroke-miterlimit:10" />
	<path
   stroke-miterlimit="10"
   d="m 452.49,435.747 c 4.569,0 9.148,0.166 13.707,-0.083 1.804,-0.098 2.141,0.419 2.135,1.942 -0.024,7.787 -0.04,15.574 0.009,23.361 0.011,1.724 -0.61,2.441 -2.374,2.433 -9.395,-0.043 -18.79,-0.038 -28.183,-0.008 -1.568,0.006 -2.225,-0.626 -2.218,-2.198 0.03,-7.665 0.055,-15.329 -0.015,-22.991 -0.018,-2.146 1.168,-2.361 2.847,-2.345 4.695,0.045 9.393,0.017 14.091,0.017 0,-0.042 0.001,-0.085 0.001,-0.128 z"
   id="path18"
   inkscape:connector-curvature="0"
   style="fill:none;stroke:#565656;stroke-width:2.57470012;stroke-miterlimit:10" />
	<path
   stroke-miterlimit="10"
   d="m 526.124,510.202 c 4.579,0.002 9.159,0.075 13.736,-0.034 2.094,-0.048 2.813,0.717 2.788,2.798 -0.086,7.3 -0.084,14.604 0,21.903 0.023,2.043 -0.606,2.861 -2.745,2.84 -9.156,-0.081 -18.315,-0.071 -27.473,-0.006 -1.933,0.012 -2.608,-0.696 -2.592,-2.604 0.067,-7.425 0.09,-14.853 -0.009,-22.273 -0.03,-2.243 0.983,-2.689 2.93,-2.65 4.455,0.086 8.911,0.026 13.365,0.026 z"
   id="path20"
   inkscape:connector-curvature="0"
   style="fill:none;stroke:#565656;stroke-width:2.57470012;stroke-miterlimit:10" />
	<path
   stroke-miterlimit="10"
   d="m 414.063,535.448 c -4.454,0 -8.908,-0.076 -13.358,0.031 -2.122,0.053 -3.15,-0.46 -3.111,-2.866 0.125,-7.297 0.101,-14.599 0.014,-21.896 -0.024,-2.107 0.757,-2.793 2.817,-2.775 9.03,0.074 18.063,0.098 27.09,-0.015 2.37,-0.028 2.926,0.908 2.898,3.07 -0.097,7.173 -0.108,14.349 0.006,21.524 0.036,2.279 -0.737,3.034 -2.995,2.965 -4.45,-0.137 -8.906,-0.038 -13.361,-0.038 z"
   id="path22"
   inkscape:connector-curvature="0"
   style="fill:none;stroke:#565656;stroke-width:1.3915;stroke-miterlimit:10" />
	<path
   stroke-miterlimit="10"
   d="m 526.339,579.293 c -4.579,0 -9.159,-0.079 -13.737,0.033 -2.115,0.053 -2.795,-0.738 -2.771,-2.812 0.087,-7.301 0.085,-14.604 10e-4,-21.905 -0.024,-2.052 0.627,-2.846 2.753,-2.825 9.158,0.084 18.319,0.073 27.479,0.009 1.942,-0.014 2.593,0.719 2.576,2.618 -0.064,7.426 -0.089,14.853 0.012,22.278 0.028,2.256 -1.015,2.669 -2.945,2.632 -4.454,-0.088 -8.911,-0.027 -13.368,-0.028 z"
   id="path24"
   inkscape:connector-curvature="0"
   style="fill:none;stroke:#565656;stroke-width:2.57470012;stroke-miterlimit:10" />
	<path
   stroke-miterlimit="10"
   d="m 451.846,590.475 c 4.447,0 8.896,0.068 13.342,-0.029 2.086,-0.046 3.183,0.407 3.144,2.835 -0.12,7.286 -0.092,14.578 -0.013,21.865 0.022,2.038 -0.624,2.864 -2.752,2.848 -9.143,-0.08 -18.285,-0.07 -27.426,-0.01 -1.955,0.013 -2.585,-0.771 -2.569,-2.644 0.062,-7.413 0.083,-14.827 -0.011,-22.238 -0.025,-2.231 1.004,-2.69 2.941,-2.652 4.446,0.084 8.894,0.025 13.344,0.025 z"
   id="path26"
   inkscape:connector-curvature="0"
   style="fill:none;stroke:#565656;stroke-width:2.57470012;stroke-miterlimit:10" />
	<path
   stroke-miterlimit="10"
   d="m 526.423,593.454 c 4.449,0 8.897,0.07 13.343,-0.03 2.033,-0.044 2.876,0.615 2.852,2.748 -0.087,7.413 -0.078,14.827 -0.009,22.24 0.02,1.969 -0.803,2.562 -2.658,2.551 -9.145,-0.055 -18.286,-0.055 -27.431,0 -1.858,0.011 -2.673,-0.587 -2.655,-2.554 0.068,-7.413 0.082,-14.828 -0.008,-22.238 -0.024,-2.138 0.821,-2.789 2.854,-2.747 4.566,0.1 9.141,0.03 13.712,0.03 z"
   id="path28"
   inkscape:connector-curvature="0"
   style="fill:none;stroke:#565656;stroke-width:2.57470012;stroke-miterlimit:10" />
	<path
   stroke-miterlimit="10"
   d="m 490.375,502.117 c -4.33,0 -8.666,-0.104 -12.989,0.041 -2.347,0.078 -3.308,-0.582 -3.259,-3.104 0.142,-7.174 0.126,-14.353 0.005,-21.528 -0.038,-2.342 0.867,-2.942 3.056,-2.921 8.907,0.089 17.816,0.089 26.725,0 2.18,-0.021 3.096,0.553 3.055,2.909 -0.123,7.297 -0.103,14.603 -0.011,21.9 0.027,2.148 -0.813,2.778 -2.848,2.73 -4.576,-0.099 -9.156,-0.027 -13.734,-0.027 z"
   id="path30"
   inkscape:connector-curvature="0"
   style="fill:none;stroke:#565656;stroke-width:2.57470012;stroke-miterlimit:10" />
</g>
</svg>