<?xml version="1.0" encoding="UTF-8" standalone="no"?>
<!-- Generator: Adobe Illustrator 16.0.0, SVG Export Plug-In . SVG Version: 6.00 Build 0)  -->

<svg
   xmlns:dc="http://purl.org/dc/elements/1.1/"
   xmlns:cc="http://creativecommons.org/ns#"
   xmlns:rdf="http://www.w3.org/1999/02/22-rdf-syntax-ns#"
   xmlns:svg="http://www.w3.org/2000/svg"
   xmlns="http://www.w3.org/2000/svg"
   xmlns:sodipodi="http://sodipodi.sourceforge.net/DTD/sodipodi-0.dtd"
   xmlns:inkscape="http://www.inkscape.org/namespaces/inkscape"
   version="1.1"
   id="Layer_1"
   x="0px"
   y="0px"
   width="300"
   height="300"
   viewBox="0 0 300 300"
   xml:space="preserve"
   sodipodi:docname="IT7 we3dx.svg"
   inkscape:version="0.92.3 (2405546, 2018-03-11)"><metadata
   id="metadata35"><rdf:RDF><cc:Work
       rdf:about=""><dc:format>image/svg+xml</dc:format><dc:type
         rdf:resource="http://purl.org/dc/dcmitype/StillImage" /><dc:title /></cc:Work></rdf:RDF></metadata><defs
   id="defs33" /><sodipodi:namedview
   pagecolor="#ffffff"
   bordercolor="#666666"
   borderopacity="1"
   objecttolerance="10"
   gridtolerance="10"
   guidetolerance="10"
   inkscape:pageopacity="0"
   inkscape:pageshadow="2"
   inkscape:window-width="640"
   inkscape:window-height="480"
   id="namedview31"
   showgrid="false"
   fit-margin-top="0"
   fit-margin-left="0"
   fit-margin-right="0"
   fit-margin-bottom="0"
   inkscape:zoom="0.921875"
   inkscape:cx="92.436951"
   inkscape:cy="167.34175"
   inkscape:window-x="0"
   inkscape:window-y="0"
   inkscape:window-maximized="0"
   inkscape:current-layer="Layer_1" />
<g
   id="g28"
   transform="matrix(0.88730544,0,0,0.87307441,-246.89405,-238.16278)">
	
		<ellipse
   stroke-miterlimit="10"
   cx="483.26001"
   cy="536.41803"
   rx="4.8239999"
   ry="5.1880002"
   id="ellipse2"
   style="fill:none;stroke:#333333;stroke-width:1.32850003;stroke-miterlimit:10" />
	<g
   id="g26">
		<path
   stroke-miterlimit="10"
   d="m 455.538,521.584 c -34.011,-0.102 -68.023,-0.169 -102.037,-0.326 -6.692,-0.033 -13.383,-0.409 -20.075,-0.639 -1.918,-0.065 -3.797,-0.414 -5.645,-0.944 -18.233,-5.24 -29.731,-17.285 -34.685,-35.83 -2.335,-8.751 -2.852,-17.698 -2.226,-26.729 0.246,-3.577 0.774,-7.089 1.862,-10.512 2.561,-8.061 7.208,-14.651 13.583,-20.011 6.834,-5.737 14.66,-9.481 23.158,-11.837 2.658,-0.737 5.365,-1.3 8.05,-1.949 1.862,-0.449 3.672,-1.048 5.406,-1.885 2.744,-1.326 4.278,-3.429 4.344,-6.602 0.062,-2.958 1.023,-5.734 1.875,-8.517 3.318,-10.851 8.321,-20.81 15.313,-29.697 5.6,-7.116 12.275,-12.81 20.568,-16.491 5.075,-2.255 10.153,-4.403 15.632,-5.385 2.72,-0.487 5.455,-0.876 8.223,-0.975 5.42,-0.191 10.842,-0.228 16.258,0.027 4.784,0.225 9.521,0.902 14.156,2.148 7.195,1.936 13.572,5.504 19.354,10.24 3.901,3.197 7.461,6.763 10.913,10.445 2.496,2.661 5.009,5.311 7.456,8.018 0.768,0.847 1.433,0.94 2.507,0.559 4.606,-1.629 9.166,-3.422 13.948,-4.484 15.857,-3.525 31.112,-2.004 45.309,6.306 15.425,9.027 24.396,22.744 27.173,40.634 0.416,2.668 0.521,5.384 0.75,8.082 0.094,1.078 0.114,2.163 0.211,3.24 0.256,2.844 0.267,2.838 2.913,3.813 3.393,1.245 6.825,2.381 10.1,3.938 5.345,2.541 10.187,5.813 14.24,10.212 5.313,5.766 8.579,12.621 9.955,20.341 1.772,9.954 1.349,19.847 -1.81,29.501 -2.044,6.248 -5.32,11.754 -9.985,16.387 -3.641,3.609 -8.065,5.941 -12.511,8.261 -0.451,0.235 -1.005,0.325 -1.518,0.359 -0.848,0.061 -1.701,0.023 -2.552,0.023 -40.07,0 -80.142,0 -120.214,0 0.001,0.091 0.001,0.185 0.001,0.279 z"
   id="path4"
   inkscape:connector-curvature="0"
   style="fill:none;stroke:#565656;stroke-width:2.78299999;stroke-miterlimit:10" />
		<g
   id="g12">
			<path
   stroke-miterlimit="10"
   d="m 492.073,515.49 c 0,3.366 -2.729,6.094 -6.095,6.094 h -76.171 c -3.362,0 -6.092,-2.728 -6.092,-6.094 v -8.567 c 0,-3.366 2.729,-6.095 6.092,-6.095 h 76.171 c 3.365,0 6.095,2.729 6.095,6.095 z"
   id="path6"
   inkscape:connector-curvature="0"
   style="fill:none;stroke:#565656;stroke-width:1.3915;stroke-miterlimit:10" />
			<path
   stroke-miterlimit="10"
   d="m 492.073,490.83 c 0,3.365 -2.729,6.094 -6.095,6.094 h -76.171 c -3.362,0 -6.092,-2.729 -6.092,-6.094 v -8.567 c 0,-3.367 2.729,-6.095 6.092,-6.095 h 76.171 c 3.365,0 6.095,2.728 6.095,6.093 z"
   id="path8"
   inkscape:connector-curvature="0"
   style="fill:none;stroke:#565656;stroke-width:1.3915;stroke-miterlimit:10" />
			<path
   stroke-miterlimit="10"
   d="m 492.073,540.702 c 0,3.365 -2.729,6.094 -6.095,6.094 h -76.171 c -3.362,0 -6.092,-2.729 -6.092,-6.094 v -8.569 c 0,-3.364 2.729,-6.095 6.092,-6.095 h 76.171 c 3.365,0 6.095,2.73 6.095,6.095 z"
   id="path10"
   inkscape:connector-curvature="0"
   style="fill:none;stroke:#565656;stroke-width:1.3915;stroke-miterlimit:10" />
		</g>
		<path
   stroke-miterlimit="10"
   d="m 489.1,487.672 c 0,2.866 -2.158,5.191 -4.824,5.191 -2.662,0 -4.822,-2.325 -4.822,-5.191 0,-2.864 2.16,-5.188 4.822,-5.188 2.664,-0.002 4.824,2.324 4.824,5.188 z"
   id="path14"
   inkscape:connector-curvature="0"
   style="fill:none;stroke:#565656;stroke-width:1.32850003;stroke-miterlimit:10" />
		
			<ellipse
   stroke-miterlimit="10"
   cx="483.76999"
   cy="512.047"
   rx="4.822"
   ry="5.1880002"
   id="ellipse16"
   style="fill:none;stroke:#333333;stroke-width:1.32850003;stroke-miterlimit:10" />
		<g
   id="g20">
			<path
   stroke-miterlimit="10"
   d="m 363.673,457.93 28.394,-9.224 c -11.75,9.206 -22.04,20.847 -27.545,34.879 -4.219,10.757 -5.339,22.617 -2.742,33.907 2.291,9.975 7.376,19.312 14.655,26.521 6.605,6.539 15.109,11.352 24.384,12.676"
   id="path18"
   inkscape:connector-curvature="0"
   style="fill:none;stroke:#d16d00;stroke-width:5.56610012;stroke-miterlimit:10" />
		</g>
		<g
   id="g24">
			<path
   stroke-miterlimit="10"
   d="m 524.484,547.462 -28.393,9.227 c 11.751,-9.205 22.04,-20.845 27.544,-34.879 4.218,-10.759 5.339,-22.618 2.743,-33.905 -2.292,-9.976 -7.377,-19.313 -14.657,-26.521 -6.604,-6.54 -15.109,-11.354 -24.383,-12.678"
   id="path22"
   inkscape:connector-curvature="0"
   style="fill:none;stroke:#d16d00;stroke-width:5.56610012;stroke-miterlimit:10" />
		</g>
	</g>
</g>
</svg>