<?xml version="1.0" encoding="utf-8"?>
<!-- Generator: Adobe Illustrator 16.0.3, SVG Export Plug-In . SVG Version: 6.00 Build 0)  -->
<!DOCTYPE svg PUBLIC "-//W3C//DTD SVG 1.1//EN" "http://www.w3.org/Graphics/SVG/1.1/DTD/svg11.dtd">
<svg version="1.1"
	 id="Layer_1" xmlns:osb="http://www.openswatchbook.org/uri/2009/osb" xmlns:dc="http://purl.org/dc/elements/1.1/" xmlns:cc="http://creativecommons.org/ns#" xmlns:rdf="http://www.w3.org/1999/02/22-rdf-syntax-ns#" xmlns:svg="http://www.w3.org/2000/svg" xmlns:sodipodi="http://sodipodi.sourceforge.net/DTD/sodipodi-0.dtd" xmlns:inkscape="http://www.inkscape.org/namespaces/inkscape" inkscape:version="0.92.3 (2405546, 2018-03-11)" sodipodi:docname="delphi.svg"
	 xmlns="http://www.w3.org/2000/svg" xmlns:xlink="http://www.w3.org/1999/xlink" x="0px" y="0px" width="423.941px"
	 height="86.232px" viewBox="0 0 423.941 86.232" enable-background="new 0 0 423.941 86.232" xml:space="preserve">
<sodipodi:namedview  inkscape:cy="84.269267" inkscape:cx="200.35469" inkscape:zoom="1.2551145" fit-margin-left="0" fit-margin-top="0" showgrid="false" guidetolerance="10" gridtolerance="10" objecttolerance="10" borderopacity="1" pagecolor="#ffffff" bordercolor="#666666" id="namedview121" inkscape:pagecheckerboard="true" inkscape:current-layer="Layer_1" inkscape:window-maximized="1" inkscape:window-y="-8" inkscape:window-x="-8" fit-margin-bottom="0" fit-margin-right="0" inkscape:window-height="705" inkscape:window-width="1366" inkscape:pageshadow="2" inkscape:pageopacity="0">
	</sodipodi:namedview>
<g>
	<path id="path2" inkscape:connector-curvature="0" fill="#1E1E1E" d="M0,0.006C8.514,0.01,17.028-0.022,25.543,0.031
		c6.537,0.04,12.916,1.009,18.846,3.931c9.627,4.745,14.659,12.671,15.563,23.231c0.554,6.464-0.29,12.784-3.132,18.698
		c-4.15,8.646-11.243,13.688-20.28,16.266c-4.337,1.234-8.782,1.658-13.276,1.664C15.509,63.829,7.754,63.839,0,63.846
		C0,42.567,0,21.286,0,0.006z"/>
	<path id="path4" inkscape:connector-curvature="0" fill="#1E1E1E" d="M0,76.567c0.575-0.146,0.445-0.702,0.59-1.072
		c1.748-4.488,7.971-6.156,11.506-3.085c0.599,0.52,0.813,0.821,0.003,1.399c-0.82,0.586-1.313,0.813-2.303,0.089
		c-2.354-1.723-5.92-0.067-6.786,2.984c-0.974,3.437,1.175,6.765,4.453,6.926c1.102,0.057,2.129-0.203,2.835-1.021
		c0.671-0.777,1.116-0.525,1.76-0.03c1.271,0.979,1.295,0.965,0.054,1.992c-3.561,2.944-9.738,1.292-11.498-3.055
		c-0.146-0.362-0.012-0.938-0.612-1.049c0-0.319,0-0.642,0-0.96c0.191-0.722,0.191-1.439,0-2.159C0,77.206,0,76.886,0,76.567
		L0,76.567z"/>
	<path id="path6" inkscape:connector-curvature="0" fill="#565656" d="M0,77.527c0.383,0.72,0.387,1.438,0,2.158
		C0,78.966,0,78.246,0,77.527z"/>
	<path id="path8" inkscape:connector-curvature="0" fill="#1E1E1E" d="M194.123,32.953c0-8.879,0.018-17.759-0.022-26.639
		c-0.004-1.004,0.272-1.254,1.262-1.242c4.8,0.053,9.6,0.057,14.398-0.002c1.042-0.014,1.229,0.328,1.22,1.283
		c-0.044,5.76-0.001,11.52-0.043,17.278c-0.007,0.95,0.173,1.302,1.219,1.29c4.958-0.058,9.919-0.05,14.878-0.004
		c0.911,0.008,1.139-0.254,1.133-1.145c-0.039-5.719,0.002-11.438-0.042-17.157c-0.007-0.913,0.249-1.127,1.138-1.119
		c4.879,0.044,9.759,0.046,14.638-0.001c0.912-0.009,1.124,0.248,1.123,1.137c-0.026,17.718-0.027,35.438,0.002,53.156
		c0.001,0.954-0.253,1.197-1.193,1.188c-4.839-0.048-9.68-0.049-14.519,0.001c-0.952,0.012-1.19-0.256-1.188-1.191
		c0.038-7.719-0.003-15.438,0.049-23.157c0.008-1.093-0.313-1.314-1.343-1.303c-4.919,0.055-9.839,0.047-14.759,0.004
		c-0.892-0.008-1.141,0.218-1.136,1.128c0.038,7.759,0.003,15.52,0.045,23.277c0.006,1.002-0.264,1.256-1.254,1.243
		c-4.799-0.054-9.601-0.057-14.397,0.003c-1.025,0.013-1.231-0.301-1.229-1.271C194.139,50.792,194.123,41.872,194.123,32.953
		L194.123,32.953z"/>
	<path id="path10" inkscape:connector-curvature="0" fill="#1E1E1E" d="M145.88,32.984c0-8.881,0.016-17.761-0.021-26.64
		c-0.004-0.968,0.209-1.279,1.232-1.271c7.4,0.046,14.801-0.003,22.2,0.037c3.771,0.02,7.503,0.396,11.114,1.593
		c9.592,3.178,13.631,12.137,9.492,21.388c-3.263,7.294-9.229,11.096-16.912,12.48c-1.814,0.327-3.655,0.356-5.498,0.396
		c-0.712,0.016-0.979-0.156-0.963-0.925c0.063-2.719,0.068-5.439,0.06-8.159c-0.002-0.588,0.177-0.843,0.772-0.956
		c1.629-0.306,3.14-0.934,4.477-1.932c2.729-2.038,3.771-4.802,3.318-8.112c-0.41-3.015-2.947-4.986-6.689-5.231
		c-1.673-0.11-3.358-0.008-5.038-0.063c-0.732-0.024-0.733,0.369-0.729,0.896c0.016,1.92,0.007,3.84,0.007,5.76
		c0,12.479-0.018,24.96,0.028,37.438c0.004,1.098-0.303,1.31-1.331,1.296c-4.759-0.057-9.521-0.055-14.278-0.001
		c-0.979,0.013-1.27-0.223-1.265-1.233C145.898,50.823,145.88,41.903,145.88,32.984L145.88,32.984z"/>
	<path id="path12" inkscape:connector-curvature="0" fill="#1E1E1E" d="M63.458,33.126c0-8.919,0.014-17.838-0.021-26.758
		c-0.003-0.938,0.15-1.302,1.213-1.297c10.52,0.043,21.038,0.036,31.558,0.008c0.897-0.002,1.249,0.16,1.222,1.162
		c-0.077,2.758-0.07,5.52-0.002,8.277c0.022,0.942-0.291,1.11-1.155,1.104c-4.959-0.041-9.919-0.001-14.878-0.039
		c-0.819-0.006-1.094,0.181-1.078,1.045c0.056,2.959,0.063,5.92-0.004,8.878c-0.021,0.961,0.329,1.098,1.17,1.091
		c4.8-0.037,9.601,0.008,14.397-0.04c0.907-0.009,1.141,0.235,1.12,1.13c-0.063,2.719-0.061,5.44-0.001,8.158
		c0.021,0.913-0.188,1.218-1.166,1.205c-4.799-0.055-9.6,0.002-14.397-0.048c-0.924-0.01-1.129,0.266-1.118,1.146
		c0.049,3.76,0.047,7.52,0,11.277c-0.01,0.831,0.197,1.072,1.052,1.066c6.079-0.038,12.158-0.002,18.237-0.039
		c0.902-0.006,1.245,0.167,1.219,1.165c-0.075,2.798-0.05,5.599-0.012,8.396c0.011,0.723-0.168,0.954-0.928,0.952
		c-11.84-0.021-23.679-0.029-35.518,0.007c-1.056,0.003-0.914-0.571-0.914-1.214C63.459,50.885,63.458,42.006,63.458,33.126
		L63.458,33.126z"/>
	<path id="path14" inkscape:connector-curvature="0" fill="#1E1E1E" d="M106.081,32.937c0-8.839,0.023-17.679-0.029-26.517
		c-0.008-1.15,0.354-1.358,1.401-1.347c4.679,0.054,9.358,0.063,14.038-0.005c1.134-0.018,1.462,0.231,1.458,1.419
		c-0.045,14.197-0.014,28.396-0.061,42.596c-0.004,1.194,0.335,1.431,1.461,1.419c5.52-0.061,11.039-0.006,16.559-0.05
		c0.918-0.007,1.144,0.264,1.125,1.148c-0.057,2.759-0.05,5.521-0.004,8.277c0.015,0.809-0.166,1.097-1.043,1.095
		c-11.278-0.028-22.558-0.032-33.836,0.004c-0.959,0.005-1.09-0.32-1.087-1.162C106.092,50.855,106.081,41.895,106.081,32.937z"/>
	<path id="path16" inkscape:connector-curvature="0" fill="#1E1E1E" d="M249.985,33.128c0-8.918,0.021-17.836-0.026-26.755
		c-0.006-1.087,0.309-1.314,1.339-1.302c4.76,0.057,9.52,0.05,14.275,0.003c0.951-0.01,1.294,0.173,1.291,1.222
		c-0.034,17.836-0.033,35.674,0,53.51c0.002,0.988-0.311,1.176-1.217,1.167c-4.839-0.041-9.678-0.05-14.518,0.007
		c-0.989,0.013-1.167-0.315-1.164-1.217C249.997,50.886,249.985,42.007,249.985,33.128L249.985,33.128z"/>
	<path id="path18" inkscape:connector-curvature="0" fill="#202020" d="M296.752,13.564c3.034,1.281,4.041,2.946,3.448,5.546
		c-0.36,1.582-1.402,2.559-2.827,3.187c-1.076,0.474-2.225,0.666-3.389,0.689c-1.759,0.035-3.52-0.004-5.276,0.025
		c-0.583,0.01-0.863-0.103-0.86-0.776c0.021-5.398,0.023-10.798-0.001-16.195c-0.005-0.68,0.271-0.78,0.852-0.771
		c1.959,0.03,3.922-0.038,5.879,0.029c3.268,0.112,5.143,2.036,4.899,4.908C299.335,11.883,298.293,12.841,296.752,13.564z"/>
	<path id="path20" inkscape:connector-curvature="0" fill="#1E1E1E" d="M244.54,81.706c0-3.23,0.054-6.351-0.027-9.464
		c-0.029-1.096,0.551-1.038,1.248-0.979c0.621,0.056,1.448-0.374,1.43,0.924c-0.066,4.234-0.04,8.475-0.012,12.71
		c0.005,0.704-0.177,0.908-0.919,0.988c-1.683,0.186-2.753-0.306-3.649-1.868c-1.769-3.072-3.8-5.995-5.74-9.01
		c-0.394,0.334-0.218,0.715-0.22,1.035c-0.018,2.918-0.073,5.838,0.021,8.752c0.037,1.153-0.554,1.095-1.313,1.063
		c-0.687-0.029-1.393,0.222-1.37-1.003c0.077-4.194,0.058-8.395,0.009-12.59c-0.012-0.896,0.343-0.943,1.099-1.043
		c1.77-0.229,2.815,0.407,3.709,1.977c1.502,2.632,3.27,5.111,4.937,7.649C243.926,81.133,244.031,81.501,244.54,81.706
		L244.54,81.706z"/>
	<path id="path22" inkscape:connector-curvature="0" fill="#202020" d="M300.285,48.873c-0.797,0-1.581-0.016-2.365,0.005
		c-0.582,0.017-0.697-0.452-0.907-0.817c-1.214-2.109-2.416-4.229-3.628-6.342c-0.34-0.589-2.376-1.052-2.875-0.646
		c-0.291,0.234-0.162,0.598-0.163,0.902c-0.011,1.998-0.066,3.998,0.018,5.991c0.051,1.19-0.714,0.87-1.331,0.906
		c-0.66,0.04-1.206,0.11-1.196-0.921c0.053-5.313,0.03-10.627,0.017-15.94c-0.001-0.557,0.055-0.878,0.753-0.858
		c2.076,0.057,4.161-0.063,6.229,0.084c3.622,0.253,5.557,2.667,4.889,5.905c-0.352,1.697-1.442,2.787-3.021,3.25
		c-1.136,0.334-0.98,0.697-0.467,1.492c1.237,1.908,2.393,3.871,3.563,5.822C299.99,48.034,300.304,48.321,300.285,48.873z"/>
	<path id="path24" inkscape:connector-curvature="0" fill="#1E1E1E" d="M42.864,75.194c0,1.462,0,2.924,0,4.386
		c0,1.599,0,3.198,0,4.797c0,1.313-1.112,2.008-2.314,1.455c-0.34-0.156-0.292-0.438-0.292-0.709c-0.003-4.396-0.003-8.794,0-13.19
		c0-0.231-0.042-0.485,0.214-0.641c0.769-0.464,3.348,0.157,3.853,0.93c2.049,3.145,4.096,6.286,6.15,9.44
		c0.438-0.216,0.254-0.579,0.255-0.854c0.017-2.838,0.075-5.679-0.021-8.514c-0.04-1.183,0.596-1.05,1.333-1.044
		c0.721,0.005,1.357-0.171,1.334,1.026c-0.083,4.194-0.056,8.395-0.013,12.591c0.008,0.813-0.271,0.932-1.016,1.018
		c-1.67,0.193-2.664-0.389-3.528-1.88c-1.758-3.033-3.76-5.926-5.661-8.876C43.059,75.152,42.962,75.173,42.864,75.194
		L42.864,75.194z"/>
	<path id="path26" inkscape:connector-curvature="0" fill="#202020" d="M377.518,12.712c0.336-0.632-0.378-1.684,1.028-1.655
		c1.073,0.022,1.413,0.261,1.385,1.38c-0.081,3.194-0.041,6.392-0.023,9.588c0.015,2.72-0.573,5.17-3.354,6.328
		c-3.005,1.253-5.864,0.69-8.516-1.117c-0.342-0.232-0.463-0.428-0.166-0.854c0.87-1.25,1.023-1.304,2.291-0.469
		c0.777,0.514,1.634,0.841,2.56,0.951c3.396,0.398,5.078-1.513,4.733-5.583c-1.326,1.35-2.864,1.922-4.651,1.777
		c-1.815-0.146-3.301-0.902-4.354-2.404c-1.818-2.596-1.347-6.525,1.002-8.514C371.772,10.178,375.036,10.384,377.518,12.712
		L377.518,12.712z"/>
	<path id="path28" inkscape:connector-curvature="0" fill="#1E1E1E" d="M196.175,75.142c0,3.19-0.057,6.384,0.03,9.57
		c0.031,1.157-0.505,1.172-1.36,1.16c-0.805-0.012-1.31-0.005-1.289-1.112c0.075-4.157,0.056-8.316,0.01-12.478
		c-0.01-0.872,0.299-0.965,1.081-1.063c1.782-0.225,2.805,0.441,3.707,1.995c1.683,2.896,3.624,5.641,5.467,8.462
		c0.406-0.238,0.231-0.595,0.234-0.871c0.015-2.88,0.057-5.761-0.013-8.639c-0.031-1.308,0.844-0.848,1.455-0.897
		c0.62-0.051,1.226-0.18,1.209,0.89c-0.063,4.278-0.04,8.56-0.012,12.839c0.005,0.701-0.252,0.806-0.895,0.886
		c-1.688,0.21-2.755-0.311-3.652-1.87c-1.77-3.069-3.799-5.989-5.722-8.975C196.343,75.072,196.259,75.106,196.175,75.142
		L196.175,75.142z"/>
	<path id="path30" inkscape:connector-curvature="0" fill="#1E1E1E" d="M186.997,78.544c-0.012,4.562-3.205,7.656-7.876,7.633
		c-4.502-0.021-7.57-3.146-7.541-7.68c0.03-4.586,3.231-7.688,7.882-7.638C184.006,70.908,187.009,73.971,186.997,78.544z"/>
	<path id="path32" inkscape:connector-curvature="0" fill="#1E1E1E" d="M33.666,78.554c-0.016,4.558-3.215,7.649-7.889,7.623
		c-4.496-0.023-7.572-3.164-7.536-7.688c0.036-4.577,3.253-7.687,7.897-7.629C30.681,70.913,33.68,73.979,33.666,78.554z"/>
	<path id="path34" inkscape:connector-curvature="0" fill="#202020" d="M340.681,12.631c0-2.627,0.048-5.105-0.023-7.581
		c-0.027-0.956,0.399-1.03,1.137-0.979c0.656,0.045,1.302-0.177,1.289,0.961c-0.059,5.595-0.037,11.19-0.014,16.787
		c0.005,0.793-0.05,1.243-1.06,1.218c-0.92-0.023-1.474-0.14-1.28-1.212c0.019-0.103-0.036-0.216-0.083-0.458
		c-1.381,1.5-3.031,2.117-4.972,1.902c-1.448-0.159-2.68-0.769-3.653-1.858c-2.09-2.338-2.096-6.38-0.021-8.723
		C334.166,10.249,337.315,10.191,340.681,12.631L340.681,12.631z"/>
	<path id="path36" inkscape:connector-curvature="0" fill="#202020" d="M393.815,47.387c-0.395,0.443,0.392,1.533-0.926,1.515
		c-1.508-0.022-1.51,0.06-1.51-1.455c-0.001-5.479,0.028-10.959-0.027-16.438c-0.01-1.009,0.404-1.09,1.196-1.055
		c0.705,0.031,1.279-0.082,1.239,1.006c-0.092,2.476-0.027,4.957-0.027,7.749c1.352-1.482,2.845-2.139,4.65-2.021
		c1.837,0.121,3.309,0.885,4.369,2.375c1.815,2.546,1.452,6.539-0.754,8.604C399.764,49.782,396.746,49.684,393.815,47.387
		L393.815,47.387z"/>
	<path id="path38" inkscape:connector-curvature="0" fill="#1E1E1E" d="M103.281,85.701c-2.226,0.723-3.494-0.164-4.256-2.204
		c-0.415-1.109-1.18-2.083-1.679-3.168c-0.429-0.932-1.192-0.682-1.848-0.619c-0.762,0.07-0.387,0.763-0.4,1.163
		c-0.052,1.354-0.044,2.715-0.01,4.072c0.018,0.632-0.114,0.919-0.844,0.927c-1.785,0.021-1.785,0.062-1.785-1.777
		c0-3.913,0.031-7.827-0.021-11.738c-0.014-0.917,0.252-1.159,1.143-1.116c1.713,0.085,3.438-0.039,5.146,0.092
		c3.197,0.245,4.854,2.424,4.119,5.254c-0.325,1.249-1.058,2.2-2.293,2.552c-0.951,0.271-0.731,0.62-0.365,1.214
		c1.048,1.697,2.057,3.419,3.075,5.137C103.298,85.542,103.277,85.633,103.281,85.701L103.281,85.701z"/>
	<path id="path40" inkscape:connector-curvature="0" fill="#202020" d="M330.543,47.37c0,2.191-0.067,4.297,0.025,6.394
		c0.05,1.068-0.435,1.112-1.265,1.141c-0.874,0.025-1.158-0.188-1.149-1.117c0.051-5.154,0.022-10.311,0.026-15.464
		c0-0.676-0.246-1.417,0.983-1.381c1.007,0.03,1.52,0.204,1.308,1.303c-0.013,0.063,0.038,0.14,0.125,0.429
		c1.438-1.796,3.304-2.227,5.376-1.898c1.352,0.215,2.463,0.898,3.34,1.954c1.995,2.405,1.863,6.469-0.285,8.718
		C336.834,49.743,333.737,49.752,330.543,47.37L330.543,47.37z"/>
	<path id="path42" inkscape:connector-curvature="0" fill="#1E1E1E" d="M121.2,76.446c-0.001,1.397,0.028,2.799-0.008,4.194
		c-0.088,3.364-2.449,5.556-5.93,5.535c-3.388-0.019-5.734-2.231-5.791-5.554c-0.05-2.836,0.01-5.675-0.026-8.512
		c-0.009-0.697,0.231-0.865,0.894-0.869c1.739-0.012,1.739-0.043,1.739,1.682c0,2.397-0.011,4.795,0.003,7.193
		c0.013,2.283,1.227,3.606,3.264,3.598c2.042-0.011,3.22-1.317,3.23-3.625c0.013-2.637,0.053-5.275-0.021-7.911
		c-0.029-1.037,0.541-0.996,1.191-0.907c0.585,0.077,1.537-0.476,1.472,0.859C121.147,73.567,121.201,75.007,121.2,76.446
		L121.2,76.446z"/>
	<path id="path44" inkscape:connector-curvature="0" fill="#202020" d="M309.115,43.653c-1.278,0-2.563,0.041-3.839-0.017
		c-0.863-0.037-0.916,0.312-0.688,0.995c0.846,2.543,4.194,3.386,6.341,1.581c0.806-0.678,1.521-0.564,2.159,0.289
		c0.349,0.467-0.077,0.655-0.288,0.864c-1.786,1.771-3.951,2.168-6.315,1.594c-2.257-0.547-3.735-2.002-4.27-4.249
		c-0.565-2.391-0.208-4.65,1.666-6.411c1.792-1.683,3.968-1.994,6.264-1.316c2.43,0.715,4.169,3.739,3.705,6.188
		c-0.104,0.545-0.428,0.479-0.774,0.479C311.755,43.655,310.435,43.651,309.115,43.653L309.115,43.653z"/>
	<path id="path46" inkscape:connector-curvature="0" fill="#1E1E1E" d="M64.346,86.178c-1.487,0.014-2.831-0.396-4.016-1.319
		c-0.494-0.387-0.709-0.732-0.083-1.199c0.316-0.236,0.605-0.526,0.857-0.833c0.371-0.452,0.606-0.383,1.034,0.006
		c1.176,1.071,2.691,1.276,3.869,0.638c1.37-0.742,1.422-2.355,0.088-3.172c-0.861-0.526-1.854-0.725-2.79-1.07
		c-2.376-0.879-3.253-2.109-3.1-4.361c0.13-1.892,1.558-3.354,3.739-3.809c1.787-0.371,3.491-0.183,5.084,0.774
		c0.563,0.338,0.758,0.661,0.161,1.157c-0.305,0.254-0.573,0.559-0.824,0.867c-0.331,0.404-0.563,0.478-1.039,0.087
		c-0.966-0.791-2.113-0.896-3.28-0.453c-0.646,0.243-1.047,0.73-1.129,1.429c-0.084,0.722,0.268,1.264,0.884,1.563
		c0.678,0.329,1.396,0.589,2.113,0.824c3.101,1.022,4.263,2.53,3.846,5.032C69.355,84.79,67.367,86.199,64.346,86.178z"/>
	<path id="path48" inkscape:connector-curvature="0" fill="#1E1E1E" d="M261.243,86.188c-3.016-0.108-5.492-1.239-6.775-4.093
		c-1.342-2.983-1.149-5.981,0.956-8.575c2.014-2.479,4.786-3.021,7.813-2.414c1.077,0.216,1.981,0.813,2.788,1.565
		c0.371,0.346,0.434,0.572-0.025,0.926c-0.87,0.67-1.471,1.151-2.704,0.235c-2.135-1.585-5.519-0.087-6.506,2.614
		c-1.33,3.635,0.982,7.363,4.563,7.367c0.919,0.002,1.822-0.209,2.409-0.879c0.782-0.896,1.318-0.634,2.147-0.058
		c0.9,0.627,0.858,1.018,0.094,1.666C264.621,85.72,263.041,86.236,261.243,86.188z"/>
	<path id="path50" inkscape:connector-curvature="0" fill="#1E1E1E" d="M135.233,86.188c-3.019-0.104-5.499-1.238-6.78-4.088
		c-1.343-2.98-1.154-5.983,0.952-8.58c2.015-2.48,4.79-3.019,7.816-2.412c1.075,0.215,1.982,0.813,2.788,1.565
		c0.37,0.351,0.438,0.57-0.027,0.92c-0.865,0.649-1.457,1.174-2.698,0.244c-2.099-1.57-5.42-0.146-6.471,2.491
		c-1.438,3.617,0.896,7.479,4.518,7.487c0.921,0.003,1.826-0.208,2.411-0.878c0.782-0.896,1.318-0.643,2.148-0.063
		c0.892,0.623,0.876,1,0.101,1.662C138.608,85.719,137.029,86.228,135.233,86.188L135.233,86.188z"/>
	<path id="path52" inkscape:connector-curvature="0" fill="#363636" d="M282.803,44.048c0-12.833,0-25.665,0-38.497
		c0-0.32-0.006-0.64,0.004-0.959c0.006-0.241,0.014-0.489,0.354-0.513c0.379-0.026,0.48,0.197,0.483,0.516
		c0.003,0.28,0.005,0.561,0.005,0.84c0,25.705,0,51.409,0,77.114c0,0.08,0.017,0.163-0.002,0.239
		c-0.086,0.375,0.249,1.028-0.432,1.027c-0.704-0.003-0.397-0.669-0.398-1.03C282.8,69.873,282.803,56.961,282.803,44.048z"/>
	<path id="path54" inkscape:connector-curvature="0" fill="#202020" d="M349.565,36.689c3.749-0.015,6.473,2.621,6.453,6.246
		c-0.019,3.58-2.713,6.232-6.354,6.257c-3.705,0.021-6.441-2.644-6.445-6.277C343.215,39.317,345.881,36.702,349.565,36.689z"/>
	<path id="path56" inkscape:connector-curvature="0" fill="#202020" d="M411.934,37.057c2.576-0.198,2.574-0.196,3.422,1.949
		c0.918,2.326,1.84,4.65,2.883,7.286c0.94-2.646,1.776-4.991,2.606-7.339c0.729-2.063,0.726-2.063,3.009-1.918
		c0.212,0.288-0.021,0.531-0.112,0.764c-1.83,4.688-3.651,9.377-5.521,14.051c-0.968,2.422-2.544,3.3-4.841,2.979
		c-1.047-0.146-0.617-0.808-0.622-1.32c-0.004-0.492,0.013-0.955,0.795-0.771c1.208,0.283,1.963-0.35,2.465-1.405
		c0.702-1.479,0.981-2.829,0.156-4.492C414.614,43.703,413.366,40.413,411.934,37.057z"/>
	<path id="path58" inkscape:connector-curvature="0" fill="#212121" d="M361.498,38.812c1.164-1.477,2.429-2.181,4.08-2.129
		c2.363,0.07,4.068,1.613,4.178,4.058c0.106,2.472,0.021,4.951,0.052,7.428c0.014,1.086-0.781,0.646-1.275,0.691
		c-0.517,0.045-1.142,0.209-1.121-0.74c0.044-2.116,0.055-4.235-0.007-6.353c-0.07-2.575-1.896-3.854-3.952-2.791
		c-1.356,0.703-1.813,1.97-1.838,3.402c-0.032,1.836-0.066,3.678,0.011,5.512c0.041,0.947-0.394,1.045-1.136,0.993
		c-0.659-0.045-1.314,0.171-1.294-0.963c0.065-3.313,0.014-6.63-0.002-9.944c-0.003-0.516-0.158-1.109,0.705-0.991
		c0.646,0.091,1.658-0.42,1.544,0.938C361.427,38.11,361.464,38.305,361.498,38.812L361.498,38.812z"/>
	<path id="path60" inkscape:connector-curvature="0" fill="#212121" d="M355.893,12.85c1.156-1.413,2.45-2.135,4.136-2.055
		c1.948,0.092,3.527,1.205,3.912,3.103c0.575,2.842,0.233,5.738,0.214,8.607c-0.007,0.985-1.021,0.341-1.562,0.48
		c-0.521,0.134-0.793-0.099-0.783-0.703c0.03-1.798,0.021-3.598,0.005-5.396c-0.006-0.597-0.044-1.198-0.129-1.788
		c-0.166-1.169-0.741-2.031-1.979-2.257c-1.259-0.229-2.278,0.198-3.027,1.241c-0.563,0.782-0.698,1.682-0.696,2.618
		c0.003,1.798-0.056,3.6,0.021,5.395c0.046,1.056-0.586,0.905-1.225,0.909c-0.646,0.005-1.232,0.134-1.223-0.911
		c0.041-3.436-0.006-6.872-0.051-10.308c-0.008-0.537,0.179-0.792,0.675-0.672c0.543,0.13,1.344-0.482,1.602,0.495
		C355.871,11.935,355.849,12.29,355.893,12.85L355.893,12.85z"/>
	<path id="path62" inkscape:connector-curvature="0" fill="#202020" d="M311.932,21.308c-1.095,1.271-2.273,1.995-3.826,1.999
		c-2.452,0.005-4.178-1.396-4.338-3.856c-0.166-2.547-0.07-5.11-0.107-7.666c-0.016-0.982,0.707-0.664,1.188-0.667
		c0.481-0.003,1.19-0.304,1.177,0.678c-0.024,1.677-0.018,3.356-0.001,5.034c0.008,0.677,0.037,1.357,0.112,2.031
		c0.129,1.16,0.636,2.052,1.858,2.366c1.197,0.309,2.438-0.153,3.155-1.188c0.544-0.784,0.729-1.675,0.729-2.611
		c0.004-1.838,0.044-3.677-0.019-5.513c-0.027-0.891,0.479-0.88,1.058-0.804c0.531,0.07,1.354-0.4,1.349,0.759
		c-0.013,3.476,0.018,6.951,0.052,10.427c0.007,0.499-0.125,0.826-0.649,0.691c-0.538-0.138-1.342,0.503-1.594-0.495
		C311.996,22.186,311.995,21.863,311.932,21.308L311.932,21.308z"/>
	<path id="path64" inkscape:connector-curvature="0" fill="#1F1F1F" d="M152.222,79.687c0,1.682-0.072,3.364,0.025,5.038
		c0.063,1.041-0.373,1.198-1.244,1.146c-0.764-0.047-1.45,0.144-1.417-1.104c0.091-3.355,0.003-6.72,0.051-10.078
		c0.012-0.827-0.195-1.146-1.053-1.064c-0.793,0.073-1.606-0.06-2.396,0.034c-1.042,0.124-1.048-0.448-1.043-1.209
		c0.004-0.748-0.018-1.244,1.033-1.219c3.157,0.078,6.319,0.073,9.478,0.003c0.998-0.023,1.105,0.38,1.065,1.188
		c-0.035,0.713,0.069,1.357-1.016,1.237c-0.87-0.098-1.762,0.021-2.638-0.032c-0.713-0.046-0.875,0.245-0.859,0.902
		C152.248,76.246,152.222,77.967,152.222,79.687z"/>
	<path id="path66" inkscape:connector-curvature="0" fill="#202020" d="M377.241,36.68c1.72,0.021,3,0.386,4.06,1.349
		c0.284,0.258,0.713,0.61,0.118,0.921c-0.5,0.26-0.753,1.402-1.577,0.628c-0.97-0.911-2.056-1.192-3.305-0.903
		c-0.65,0.151-1.188,0.497-1.268,1.257c-0.08,0.776,0.371,1.196,1.033,1.412c0.983,0.321,1.996,0.563,2.974,0.901
		c1.896,0.657,2.759,1.792,2.645,3.382c-0.13,1.757-1.188,2.945-3.05,3.366c-2.146,0.482-4.131,0.148-5.854-1.283
		c-0.293-0.243-0.895-0.608-0.206-0.979c0.514-0.273,0.733-1.521,1.669-0.646c1,0.932,2.142,1.383,3.503,1.106
		c0.839-0.17,1.523-0.569,1.578-1.536c0.049-0.875-0.547-1.282-1.275-1.518c-0.836-0.268-1.688-0.479-2.524-0.736
		c-1.9-0.58-2.753-1.574-2.729-3.162c0.025-1.681,1.032-2.879,2.87-3.354C376.436,36.748,376.998,36.716,377.241,36.68
		L377.241,36.68z"/>
	<path id="path68" inkscape:connector-curvature="0" fill="#202020" d="M320.617,36.686c1.569-0.002,2.854,0.354,3.933,1.291
		c0.32,0.279,0.792,0.653,0.136,0.996c-0.487,0.256-0.716,1.426-1.58,0.577c-0.911-0.895-1.982-1.153-3.193-0.894
		c-0.705,0.149-1.271,0.5-1.332,1.321c-0.06,0.782,0.423,1.175,1.077,1.386c0.984,0.315,1.999,0.555,2.976,0.896
		c1.908,0.672,2.655,1.706,2.554,3.422c-0.101,1.688-1.148,2.879-2.953,3.297c-2.094,0.487-4.058,0.201-5.767-1.168
		c-0.273-0.219-1.114-0.535-0.389-1.035c0.492-0.34,0.786-1.633,1.833-0.596c0.967,0.959,2.175,1.312,3.528,0.974
		c0.754-0.188,1.329-0.58,1.405-1.427c0.077-0.871-0.452-1.323-1.197-1.564c-0.795-0.262-1.604-0.479-2.405-0.714
		c-2.083-0.609-3.054-1.729-2.928-3.382c0.132-1.745,1.41-3,3.396-3.31C320.064,36.703,320.426,36.699,320.617,36.686
		L320.617,36.686z"/>
	<path id="path70" inkscape:connector-curvature="0" fill="#1E1E1E" d="M82.176,79.769c0,1.721-0.063,3.441,0.021,5.156
		c0.057,1.164-0.688,0.92-1.327,0.924c-0.65,0.006-1.339,0.221-1.313-0.938c0.072-3.276-0.049-6.561,0.063-9.833
		c0.043-1.286-0.384-1.604-1.535-1.451c-0.55,0.073-1.126-0.048-1.676,0.025c-1.027,0.137-1.402-0.177-1.346-1.281
		c0.044-0.865,0.203-1.153,1.127-1.135c3.157,0.063,6.316,0.062,9.475,0.001c0.94-0.021,1.043,0.389,0.984,1.135
		c-0.051,0.649,0.189,1.463-0.955,1.269c-0.038-0.007-0.079-0.004-0.119-0.001c-1.102,0.094-2.553-0.49-3.212,0.24
		c-0.643,0.713-0.152,2.14-0.185,3.252C82.156,78.009,82.177,78.889,82.176,79.769L82.176,79.769z"/>
	<path id="path72" inkscape:connector-curvature="0" fill="#222222" d="M324.815,13.508c0-2.796,0.052-5.594-0.026-8.388
		c-0.026-1.006,0.396-1.104,1.191-1.053c0.68,0.043,1.278-0.129,1.269,0.984c-0.062,5.671-0.059,11.345-0.004,17.018
		c0.012,1.154-0.672,0.889-1.313,0.94c-0.75,0.063-1.159-0.054-1.138-0.994C324.855,19.182,324.815,16.345,324.815,13.508
		L324.815,13.508z"/>
	<path id="path74" inkscape:connector-curvature="0" fill="#222222" d="M409.618,39.487c0,2.8-0.041,5.601,0.022,8.396
		c0.021,0.934-0.365,1.063-1.127,1.003c-0.657-0.053-1.311,0.17-1.299-0.965c0.055-5.68,0.053-11.359,0-17.038
		c-0.011-1.05,0.555-0.94,1.203-0.919c0.603,0.021,1.256-0.219,1.226,0.882C409.568,33.726,409.618,36.606,409.618,39.487
		L409.618,39.487z"/>
	<path id="path76" inkscape:connector-curvature="0" fill="#1F1F1F" d="M165.101,78.613c0,2.111-0.059,4.229,0.021,6.338
		c0.045,1.191-0.728,0.887-1.339,0.895c-0.624,0.008-1.344,0.273-1.326-0.9c0.062-4.266,0.063-8.53,0-12.795
		c-0.019-1.202,0.733-0.875,1.335-0.881c0.607-0.003,1.377-0.308,1.332,0.89C165.042,74.306,165.101,76.46,165.101,78.613z"/>
	<path id="path78" inkscape:connector-curvature="0" fill="#1F1F1F" d="M226.762,78.604c0,2.112-0.058,4.229,0.021,6.339
		c0.045,1.184-0.714,0.902-1.334,0.9c-0.614-0.002-1.35,0.294-1.333-0.894c0.062-4.267,0.063-8.531-0.001-12.797
		c-0.019-1.194,0.718-0.893,1.324-0.888c0.604,0.006,1.388-0.322,1.344,0.88C226.706,74.297,226.762,76.452,226.762,78.604z"/>
	<path id="path80" inkscape:connector-curvature="0" fill="#222222" d="M349.534,17.165c0,1.68-0.042,3.361,0.017,5.039
		c0.035,1.035-0.655,0.793-1.205,0.79c-0.541-0.003-1.214,0.27-1.199-0.781c0.049-3.438,0.046-6.879,0-10.318
		c-0.013-0.909,0.506-0.85,1.069-0.789c0.541,0.06,1.36-0.375,1.331,0.78C349.5,13.645,349.534,15.406,349.534,17.165
		L349.534,17.165z"/>
	<path id="path82" inkscape:connector-curvature="0" fill="#232323" d="M320.704,17.065c0,1.68-0.059,3.36,0.021,5.035
		c0.05,1.062-0.594,0.888-1.227,0.909c-0.681,0.023-1.206,0.071-1.188-0.939c0.063-3.356,0.063-6.716,0.001-10.071
		c-0.021-1.055,0.584-0.891,1.218-0.907c0.678-0.018,1.244-0.078,1.195,0.939C320.646,13.705,320.704,15.387,320.704,17.065
		L320.704,17.065z"/>
	<path id="path84" inkscape:connector-curvature="0" fill="#222222" d="M387.265,42.846c0,1.715-0.063,3.433,0.022,5.144
		c0.056,1.088-0.617,0.873-1.229,0.891c-0.646,0.018-1.229,0.135-1.207-0.912c0.064-3.387,0.06-6.774,0.005-10.162
		c-0.018-1.141,0.729-0.78,1.283-0.813c0.579-0.032,1.196-0.185,1.146,0.834C387.205,39.495,387.265,41.172,387.265,42.846
		L387.265,42.846z"/>
	<path id="path86" inkscape:connector-curvature="0" fill="#252525" d="M319.5,8.387c-0.908-0.112-1.487-0.566-1.551-1.505
		c-0.059-0.864,0.69-1.59,1.568-1.577c0.882,0.014,1.592,0.742,1.535,1.611C320.99,7.879,320.368,8.273,319.5,8.387L319.5,8.387z"/>
	<path id="path88" inkscape:connector-curvature="0" fill="#252525" d="M349.88,6.991c-0.058,0.813-0.604,1.302-1.507,1.372
		c-0.872,0.067-1.649-0.678-1.603-1.536c0.053-0.924,0.591-1.453,1.509-1.516C349.156,5.253,349.884,5.986,349.88,6.991
		L349.88,6.991z"/>
	<path id="path90" inkscape:connector-curvature="0" fill="#242424" d="M385.963,34.257c-0.881-0.134-1.438-0.626-1.445-1.579
		c-0.009-0.889,0.778-1.569,1.685-1.464c0.937,0.11,1.432,0.665,1.401,1.616C387.578,33.667,386.843,34.3,385.963,34.257z"/>
	<path id="path94" inkscape:connector-curvature="0" fill="#D8D0BC" d="M290.341,17.863c0-3.021,0-3.02,3.021-3.002
		c0.84,0.004,1.674,0.024,2.479,0.286c1.12,0.363,1.842,1.063,1.943,2.298c0.109,1.321-0.364,2.304-1.513,2.852
		c-1.769,0.843-3.671,0.523-5.528,0.548c-0.474,0.007-0.396-0.408-0.398-0.712C290.336,19.375,290.341,18.619,290.341,17.863
		L290.341,17.863z"/>
	<path id="path96" inkscape:connector-curvature="0" fill="#D8D0BC" d="M292.487,7.37c0.958,0.012,1.914-0.007,2.843,0.315
		c1.008,0.353,1.611,1.021,1.683,2.098c0.069,1.092-0.348,1.963-1.346,2.471c-1.581,0.805-3.291,0.416-4.949,0.461
		c-0.479,0.013-0.366-0.435-0.369-0.729c-0.013-1.118,0.083-2.245-0.029-3.353c-0.114-1.119,0.325-1.424,1.333-1.27
		C291.922,7.406,292.207,7.371,292.487,7.37L292.487,7.37z"/>
	<path id="path98" inkscape:connector-curvature="0" fill="#D8D0BC" d="M292.816,33.269c0.849,0.05,1.857-0.032,2.807,0.36
		c1.053,0.438,1.664,1.183,1.682,2.372c0.018,1.179-0.529,1.974-1.581,2.437c-1.603,0.705-3.302,0.399-4.963,0.435
		c-0.563,0.012-0.407-0.49-0.411-0.814c-0.016-1.274,0.049-2.556-0.024-3.827c-0.051-0.844,0.294-1.042,1.033-0.968
		C291.79,33.304,292.233,33.269,292.816,33.269L292.816,33.269z"/>
	<path id="path100" inkscape:connector-curvature="0" fill="#D8D0BC" d="M377.7,17.03c-0.036,2.378-1.794,4.117-4.1,4.059
		c-2.207-0.057-3.834-1.851-3.821-4.212c0.015-2.426,1.713-4.168,4.015-4.116C376.053,12.812,377.737,14.652,377.7,17.03z"/>
	<path id="path102" inkscape:connector-curvature="0" fill="#D8D0BC" d="M184.287,78.511c-0.023,3.144-2.146,5.352-5.098,5.306
		c-2.867-0.047-4.91-2.298-4.889-5.392c0.021-2.979,2.131-5.177,4.974-5.184C182.168,73.235,184.31,75.488,184.287,78.511z"/>
	<path id="path104" inkscape:connector-curvature="0" fill="#D8D0BC" d="M30.954,78.491c-0.015,3.146-2.126,5.358-5.075,5.322
		c-2.88-0.036-4.906-2.259-4.9-5.368c0.006-2.982,2.101-5.187,4.946-5.204C28.815,73.222,30.967,75.469,30.954,78.491L30.954,78.491
		z"/>
	<path id="path106" inkscape:connector-curvature="0" fill="#D8D0BC" d="M332.948,17.084c-0.023-2.487,1.567-4.279,3.827-4.305
		c2.266-0.025,4.042,1.861,4.039,4.286c-0.004,2.368-1.732,4.232-3.95,4.256C334.625,21.346,332.973,19.556,332.948,17.084
		L332.948,17.084z"/>
	<path id="path108" inkscape:connector-curvature="0" fill="#D8D0BC" d="M401.506,42.927c-0.004,2.48-1.629,4.261-3.896,4.266
		c-2.229,0.005-3.993-1.841-4.021-4.205c-0.028-2.4,1.768-4.323,4.033-4.317C399.909,38.675,401.51,40.43,401.506,42.927z"/>
	<path id="path110" inkscape:connector-curvature="0" fill="#D8D0BC" d="M95.08,75.475c0-1.986,0-2.001,2.033-1.974
		c0.594,0.009,1.197,0.063,1.775,0.192c0.893,0.198,1.354,0.828,1.355,1.73c0.002,0.952-0.486,1.604-1.421,1.823
		c-1.059,0.25-2.145,0.154-3.222,0.157c-0.42,0.001-0.541-0.233-0.526-0.614C95.094,76.354,95.08,75.914,95.08,75.475z"/>
	<path id="path112" inkscape:connector-curvature="0" fill="#D8D0BC" d="M338.304,42.852c0.021,2.477-1.586,4.289-3.846,4.339
		c-2.232,0.05-4.019-1.776-4.063-4.154c-0.047-2.454,1.673-4.363,3.951-4.385C336.64,38.628,338.281,40.37,338.304,42.852z"/>
	<path id="path114" inkscape:connector-curvature="0" fill="#FDFDFD" d="M307.928,41.865c-0.957-0.001-1.914-0.013-2.87,0.004
		c-0.473,0.008-0.636-0.153-0.544-0.644c0.26-1.403,1.901-2.649,3.569-2.672c1.675-0.021,2.849,0.896,3.23,2.452
		c0.15,0.612,0.066,0.896-0.637,0.867C309.764,41.837,308.846,41.865,307.928,41.865L307.928,41.865z"/>
	<path id="path116" inkscape:connector-curvature="0" fill="#D8D0BC" d="M345.664,42.895c0.011-2.48,1.63-4.225,3.928-4.228
		c2.287-0.002,3.927,1.758,3.937,4.226c0.013,2.523-1.672,4.334-3.993,4.3C347.254,47.156,345.655,45.382,345.664,42.895
		L345.664,42.895z"/>
	<g id="g877">
		<path id="path92" inkscape:connector-curvature="0" fill="#D8D0BC" d="M19.219,31.861c0-6.239,0.021-12.479-0.023-18.716
			c-0.007-0.949,0.245-1.23,1.191-1.182c2.589,0.134,5.212-0.262,7.765,0.393c6.515,1.672,10.182,6.133,11.551,12.465
			c1.333,6.163,0.765,12.281-1.762,18.091c-2.572,5.921-7.235,8.84-13.681,8.917c-1.32,0.017-2.645-0.063-3.958,0.022
			c-0.949,0.063-1.108-0.299-1.104-1.155C19.236,44.417,19.219,38.139,19.219,31.861z"/>
	</g>
</g>
</svg>
