<?xml version="1.0" encoding="UTF-8" standalone="no"?>
<!-- Generator: Adobe Illustrator 16.0.0, SVG Export Plug-In . SVG Version: 6.00 Build 0)  -->

<svg
   xmlns:dc="http://purl.org/dc/elements/1.1/"
   xmlns:cc="http://creativecommons.org/ns#"
   xmlns:rdf="http://www.w3.org/1999/02/22-rdf-syntax-ns#"
   xmlns:svg="http://www.w3.org/2000/svg"
   xmlns="http://www.w3.org/2000/svg"
   xmlns:sodipodi="http://sodipodi.sourceforge.net/DTD/sodipodi-0.dtd"
   xmlns:inkscape="http://www.inkscape.org/namespaces/inkscape"
   version="1.1"
   id="Layer_1"
   x="0px"
   y="0px"
   width="1991.9919"
   height="912.59467"
   viewBox="0 0 1991.9919 912.59467"
   xml:space="preserve"
   sodipodi:docname="fujitsu.svg"
   inkscape:version="0.92.3 (2405546, 2018-03-11)"><metadata
   id="metadata181"><rdf:RDF><cc:Work
       rdf:about=""><dc:format>image/svg+xml</dc:format><dc:type
         rdf:resource="http://purl.org/dc/dcmitype/StillImage" /><dc:title></dc:title></cc:Work></rdf:RDF></metadata><defs
   id="defs179" /><sodipodi:namedview
   pagecolor="#ffffff"
   bordercolor="#666666"
   borderopacity="1"
   objecttolerance="10"
   gridtolerance="10"
   guidetolerance="10"
   inkscape:pageopacity="0"
   inkscape:pageshadow="2"
   inkscape:window-width="640"
   inkscape:window-height="480"
   id="namedview177"
   showgrid="false"
   fit-margin-top="0"
   fit-margin-left="0"
   fit-margin-right="0"
   fit-margin-bottom="0"
   inkscape:zoom="0.221875"
   inkscape:cx="1024.771"
   inkscape:cy="442.31468"
   inkscape:window-x="0"
   inkscape:window-y="0"
   inkscape:window-maximized="0"
   inkscape:current-layer="Layer_1" />
<g
   id="g174"
   transform="translate(384.771,70.28)">
	<path
   d="m 1607.221,240.765 c -16.074,3.367 -26.295,13.16 -31.471,28.561 -1.557,4.633 -1.76,9.393 -1.762,14.193 -0.031,89.076 -0.06,178.15 -0.074,267.226 0,0.486 0.162,0.973 0.248,1.461 -1.055,3.07 0.176,6.32 -0.748,9.4 -2.703,20.94 -8.57,40.795 -20.605,58.414 -15.811,23.146 -37.338,39.077 -63.133,49.577 -17.811,7.248 -36.365,11.285 -55.438,13.187 -2.728,0.899 -5.64,-0.283 -8.354,0.744 -7.729,0 -15.455,-0.002 -23.184,-0.002 -2.404,-0.957 -5.002,0.092 -7.42,-0.724 -17.72,-1.172 -34.89,-4.875 -51.513,-11.139 -20.008,-7.537 -37.881,-18.086 -53.262,-33.385 -16.537,-16.449 -26.719,-36.015 -32.836,-58.039 -1.674,-6.023 -2.414,-12.33 -2.604,-18.64 -0.738,-2.077 0.188,-4.34 -0.707,-6.401 0.033,-3.818 0.092,-7.638 0.094,-11.455 0.041,-86.11 0.047,-172.224 0.143,-258.335 0.015,-12.693 -3.592,-24.197 -12.266,-33.309 -4.805,-5.047 -10.783,-9.658 -18.672,-9.523 -1.256,0.021 -1.93,-0.939 -2.861,-1.465 -0.037,-0.021 0.01,-0.285 0.082,-0.383 0.101,-0.123 0.269,-0.191 0.406,-0.285 1.455,-0.52 2.969,-0.291 4.453,-0.291 44.588,-0.014 89.176,-0.021 133.762,0.027 1.549,0.002 3.336,-0.775 4.658,0.791 -17.098,3.098 -27.396,13.461 -32.219,29.867 -0.627,2.129 -0.797,4.162 -0.785,6.293 -0.674,1.604 -0.4,3.291 -0.4,4.941 -0.014,91.639 -0.014,183.274 0.01,274.913 0,1.641 -0.367,3.338 0.412,4.922 0.33,17.139 6.943,31.961 17.178,45.279 12.634,16.44 29.306,26.678 49.564,31.026 1.918,0.412 3.934,0.361 5.904,0.527 1.731,0.803 3.674,0.002 5.416,0.713 3.35,-0.002 6.696,-0.004 10.047,-0.006 1.713,-0.72 3.637,0.131 5.334,-0.713 13.895,-1.031 25.762,-7.144 36.924,-14.896 15.164,-10.533 25.584,-24.803 31.764,-42.053 2.479,-6.916 4.019,-14.207 4.047,-21.68 0.736,-1.765 0.408,-3.617 0.408,-5.431 0.018,-90.343 0.018,-180.687 0,-271.028 0,-1.809 0.355,-3.664 -0.397,-5.426 -2.685,-19.234 -12.658,-32.17 -31.998,-37.771 20.641,0 41.278,0 61.92,0 6.448,-0.705 12.918,-0.26 19.375,-0.285 18.418,-0.074 36.838,-0.047 55.258,0.006 1.767,0.011 3.653,-0.597 5.308,0.597 z"
   id="path2"
   inkscape:connector-curvature="0"
   style="fill:#777777" />
	<path
   d="m -68.557,256.552 c -5.013,-7.943 -12.199,-12.58 -21.471,-13.875 -1.382,-0.193 -2.019,-0.883 -2.656,-1.854 1.276,-1.203 2.858,-0.652 4.292,-0.652 44.794,-0.031 89.589,-0.033 134.384,0.01 1.389,0.002 3.024,-0.725 4.172,0.785 -5.465,1.814 -11.407,2.453 -15.973,6.484 -0.715,1.086 -0.946,2.803 -2.924,2.242 -3.355,2.051 -5.416,5.184 -7.157,8.582 -0.768,3.23 -1.913,6.25 -4.688,8.355 -1.332,3.734 -2.667,7.469 -2.26,11.543 -0.739,1.768 -0.401,3.625 -0.401,5.438 -0.018,90.332 -0.018,180.665 0.001,270.996 0,1.811 -0.358,3.67 0.4,5.434 -0.439,4.609 0.408,9.1 1.264,13.59 1.424,1.062 2.108,2.307 1,4 1.36,4.449 2.746,8.887 4.98,13 1.388,0.965 2.372,2.133 1.991,3.982 2.83,5.629 6.02,11.006 10.734,15.313 1.957,0.006 1.319,1.931 2.084,2.818 1.751,2.213 3.536,4.393 6.051,5.813 1.98,-0.532 2.223,1.16 2.914,2.277 2.019,2.869 5.125,4.271 8.029,5.947 1.553,-0.338 2.252,0.797 3.048,1.766 9.429,5.709 19.439,9.676 30.598,10.195 1.716,0.819 3.648,0 5.378,0.711 3.349,0.002 6.698,0.002 10.046,0.002 1.722,-0.721 3.651,0.117 5.358,-0.715 18.9,-2.015 34.298,-10.984 47.662,-23.996 1.071,-1.863 1.913,-3.918 4.09,-4.849 2.135,-1.696 4.119,-3.518 5.07,-6.186 0.009,-1.465 0.895,-2.322 2.066,-2.979 3.447,-4.226 5.409,-9.265 7.74,-14.101 -0.599,-1.594 0.174,-2.801 1.11,-3.963 3.539,-6.469 3.732,-13.738 4.966,-20.758 0.811,-1.752 0.41,-3.613 0.41,-5.418 0.023,-91.257 0.022,-182.515 0.002,-273.771 0,-1.809 0.373,-3.666 -0.396,-5.428 -1.939,-12.725 -7.661,-23.164 -18.487,-30.494 -0.366,-0.248 -0.951,-0.174 -1.434,-0.248 -1.205,-0.33 -2.282,-0.889 -3.18,-1.77 -2.035,-1.736 -4.198,-3.018 -7.017,-1.986 -1.378,0.311 -2.318,-0.217 -2.861,-1.5 1.651,-1.164 3.533,-0.633 5.307,-0.643 19.197,-0.096 38.396,-0.139 57.593,-0.197 6.808,-0.688 13.633,-0.26 20.449,-0.287 18.323,-0.072 36.646,-0.064 54.97,0.051 1.443,0.01 3.699,-1.41 4.422,1.371 -18.226,2.846 -32.006,18.059 -32.976,36.443 -0.14,2.658 -0.186,5.324 -0.186,7.986 -0.02,87.572 -0.029,175.146 -0.028,262.72 0,0.819 0.15,1.639 0.231,2.459 -1.04,3.073 0.142,6.317 -0.723,9.405 -2.767,24.869 -10.755,47.703 -26.517,67.441 -10.324,12.93 -22.787,23.393 -37.142,31.617 -21.18,12.137 -43.884,19.518 -68.181,21.994 -2.467,0.252 -4.909,0.748 -7.363,1.131 -2.718,0.896 -5.622,-0.293 -8.327,0.744 -7.728,0 -15.457,-0.002 -23.185,-0.002 -2.411,-0.959 -5.02,0.09 -7.444,-0.73 C 63.788,681.697 46.782,678.074 30.372,672.074 11.024,665 -6.581,654.842 -21.635,640.576 c -1.687,-0.521 -2.831,-1.51 -2.938,-3.396 -5.096,-4.188 -8.532,-9.838 -12.921,-14.647 -2.221,-1.51 -3.435,-3.688 -4.12,-6.217 -2.604,-4.943 -4.479,-10.279 -7.968,-14.744 -1.015,-1.133 -1.736,-2.353 -1.14,-3.949 -4.068,-11.359 -7.612,-22.842 -8.18,-35.018 -0.861,-2.396 0.242,-4.984 -0.742,-7.365 0.029,-4.15 0.081,-8.303 0.084,-12.453 0.078,-85.403 0.154,-170.81 0.206,-256.214 10e-4,-2.648 -0.262,-5.299 -0.402,-7.949 -0.725,-1.229 -1.569,-2.422 -1.155,-3.982 0.511,-5.912 -2.93,-10.365 -5.585,-15.107 -1.143,-0.677 -2.038,-1.528 -2.061,-2.983 z"
   id="path4"
   inkscape:connector-curvature="0"
   style="fill:#777777" />
	<path
   d="m 1144.236,234.45 c 10.647,1.91 21.51,2.672 31.869,6.137 8.666,2.9 8.69,2.824 8.69,11.496 0,17.639 0.021,35.277 -0.033,52.914 0,1.588 0.894,3.93 -0.762,4.615 -2.102,0.869 -2.217,-1.898 -3.135,-3.037 -12.043,-14.941 -27.465,-23.924 -46.416,-27.115 -3.265,-0.549 -6.471,-1.66 -9.824,-1.941 -1.701,-0.838 -3.627,0.002 -5.344,-0.713 -7.019,-0.678 -14.033,-0.328 -21.049,0.01 -2.4,0.795 -4.978,-0.252 -7.361,0.707 -23.789,1.563 -44.645,9.221 -59.258,29.23 -5.978,8.186 -9.75,17.393 -10.426,27.67 -0.97,1.623 0.01,3.525 -0.744,5.18 -3.447,28.482 11.338,46.92 34.34,59.82 26.387,14.798 53.344,28.582 80.139,42.646 18.576,9.75 36.914,19.883 52.236,34.461 18.713,17.807 32.19,38.672 36.121,64.794 0.319,2.121 0.776,4.221 1.17,6.332 0.465,4.315 0.483,8.633 -0.012,12.948 -0.093,2.574 -0.185,5.148 -0.275,7.724 -0.908,1.664 0.055,3.604 -0.771,5.281 -3.221,15.737 -8.301,30.758 -17.104,44.342 -10.746,16.588 -24.914,29.615 -41.957,39.412 -20.777,11.94 -43.287,18.942 -66.979,22.26 -5.041,0.705 -10.078,1.445 -15.117,2.17 -2.039,0.814 -4.291,-0.211 -6.313,0.738 -2.229,0.09 -4.459,0.182 -6.688,0.271 -4.088,0.93 -8.31,-0.367 -12.39,0.729 -9.387,-0.002 -18.774,-0.004 -28.163,-0.004 -3.748,-1.074 -7.646,0.19 -11.402,-0.728 -1.902,-0.088 -3.807,-0.176 -5.711,-0.264 -2.35,-1.021 -4.926,0.129 -7.291,-0.752 -10.769,-0.729 -21.295,-2.854 -31.779,-5.304 -4.766,-1.112 -7.654,-3.139 -9.18,-8.491 -4.871,-17.097 -10.572,-33.959 -15.998,-50.896 -2.318,-7.231 -4.748,-14.43 -7.479,-22.705 28.267,31.047 64.81,39.773 103.119,44.336 1.668,0.894 3.584,-0.012 5.273,0.728 0.35,0 0.696,-0.002 1.047,-0.002 2.438,-0.795 5.051,0.227 7.473,-0.726 1.509,-0.084 3.017,-0.168 4.523,-0.252 1.682,-0.783 3.606,0.156 5.27,-0.75 20.511,-2.166 39.277,-8.795 55.732,-21.508 13.594,-10.502 22.588,-23.926 26.645,-40.684 3.955,-16.345 -0.67,-30.138 -11.586,-42.49 -10.291,-11.646 -23.991,-18.048 -37.235,-25.182 -15.517,-8.354 -31.188,-16.418 -46.703,-24.771 -14.285,-7.689 -29.06,-14.551 -42.617,-23.496 -13.857,-9.141 -27.053,-18.977 -37.992,-31.908 -8.854,-10.465 -16.457,-21.483 -21.604,-34.01 -3.794,-9.221 -7.003,-18.824 -7.076,-29.066 -0.545,-3.65 -0.515,-7.303 -0.017,-10.957 0.093,-2.539 0.185,-5.078 0.275,-7.617 0.838,-1.713 -0.029,-3.662 0.746,-5.385 2.637,-22.318 11.637,-42.045 25.447,-59.451 13.737,-17.316 31.817,-28.846 52.393,-36.678 18.172,-6.92 37.121,-10.055 56.326,-12.066 2.746,-0.853 5.66,0.281 8.393,-0.725 7.394,0 14.783,-0.002 22.177,-0.002 3.067,1.035 6.303,-0.137 9.385,0.713 2.559,0.098 5.117,0.193 7.676,0.289 2.031,0.93 4.277,-0.055 6.326,0.717 1.904,0.092 3.809,0.186 5.713,0.279 1.674,0.885 3.592,-0.009 5.287,0.727 z"
   id="path6"
   inkscape:connector-curvature="0"
   style="fill:#777777" />
	<path
   d="m -274.737,417.355 c 1.315,0.117 2.63,0.334 3.944,0.334 44.958,0.011 89.917,-0.002 134.875,-0.01 1.097,1.107 0.641,2.512 0.642,3.785 0.028,22.713 0.048,45.426 -0.052,68.14 -0.006,1.272 1.432,3.471 -1.38,3.907 -1.091,-4.147 -1.772,-8.41 -3.974,-12.223 -0.797,-1.381 -1.216,-2.961 -2.755,-3.773 -1.201,-0.627 -2.074,-1.498 -2.186,-2.936 -7.454,-8.314 -17.075,-12.83 -27.921,-12.973 -33.256,-0.439 -66.521,-0.185 -99.783,-0.179 -0.471,0 -0.942,0.263 -1.413,0.402 -0.902,1.373 -0.496,2.916 -0.497,4.379 -0.022,55.075 -0.021,110.149 -0.002,165.226 0,1.472 -0.35,3.003 0.429,4.408 1.054,12.869 7.063,22.791 17.792,29.902 2.783,0.563 5.195,1.842 7.278,3.758 1.382,1.986 4.226,0.322 5.942,2.475 -46.722,0 -93.132,0 -140.973,0 16.697,-4.258 26.321,-14.403 31.351,-29.229 -0.34,-1.506 -0.408,-2.959 0.837,-4.146 1.978,-9.485 1.049,-19.096 1.055,-28.645 0.067,-108.421 0.063,-216.841 0.013,-325.261 -0.005,-11.125 -2.759,-21.451 -10.289,-30.072 -2.552,-1.379 -4.506,-3.363 -5.938,-5.875 -4.786,-4.025 -10.632,-5.77 -16.753,-6.918 0.104,-0.402 0.209,-0.805 0.314,-1.207 1.707,0 3.414,0 5.12,0 35.622,0 71.243,0.002 106.865,-0.008 1.826,-0.002 3.652,-0.115 5.479,-0.176 1.456,-0.518 2.967,-0.291 4.453,-0.291 51.886,-0.014 103.772,-0.016 155.659,0.016 1.608,0.002 3.335,-0.541 4.828,0.584 0.067,13.959 0.135,27.916 0.203,41.875 1.432,1.961 1.42,4.188 1.188,6.457 -1.671,5.682 -0.5,11.508 -0.884,17.254 -0.228,3.412 0.694,6.896 -0.642,10.236 -2.491,-0.947 -1.619,-3.154 -1.85,-4.947 -0.664,-0.895 -1.662,-1.686 -0.924,-3.01 -2.714,-6.627 -6.192,-12.639 -12.908,-16.047 -1.045,-0.674 -2.373,-0.924 -3.101,-2.072 -5.556,-4.521 -12.42,-5.912 -19.06,-5.961 -44.522,-0.316 -89.048,-0.189 -133.572,-0.186 -0.472,0 -0.944,0.256 -1.417,0.393 -0.894,1.375 -0.495,2.918 -0.495,4.381 -0.023,41.285 -0.023,82.57 10e-4,123.854 0.003,1.465 -0.416,3.01 0.501,4.379 z"
   id="path8"
   inkscape:connector-curvature="0"
   style="fill:#777777" />
	<path
   d="m 878.766,284.536 c -18.504,-0.527 -37.008,-0.584 -55.506,0.252 -0.979,1.717 -0.49,3.592 -0.49,5.385 -0.026,113.443 -0.026,226.891 -0.006,340.333 0,1.81 -0.387,3.668 0.4,5.426 -0.043,13.845 13.842,32.64 29.01,34.814 -0.24,2.221 -2.006,1.32 -3.074,1.32 -43.188,0.053 -86.377,0.055 -129.563,-0.002 -1.064,-0.002 -2.805,0.938 -3.141,-1.232 11.211,-3.207 19.321,-9.986 24.729,-20.406 3.92,-7.553 5.373,-15.442 5.371,-23.797 -0.031,-112.15 -0.074,-224.304 0.059,-336.456 0.005,-4.746 -0.995,-6.08 -5.905,-6.004 -20.324,0.314 -40.681,0.717 -60.984,-0.018 -25.27,-0.914 -43.723,9.975 -57.408,30.377 -0.649,0.973 -0.989,2.109 -2.867,1.945 7.666,-24.953 15.302,-49.809 22.937,-74.662 1.133,-2.521 3.418,-1.631 5.266,-1.635 26.64,-0.051 53.277,-0.033 79.916,-0.033 71.592,-0.002 143.185,-0.014 214.775,0.084 1.633,0.002 4.08,-1.537 5.057,1.389 -5.192,13.396 -8.483,27.398 -12.987,41.018 -3.794,11.467 -7,23.125 -10.837,35.939 -4.477,-20.25 -14.946,-32.82 -35.762,-34.037 -2.998,-0.668 -5.994,-0.668 -8.99,0 z"
   id="path10"
   inkscape:connector-curvature="0"
   style="fill:#777777" />
	<path
   d="m 343.272,734.625 c -0.74,-2.707 1.75,-4.955 1.088,-7.652 0.985,-2.366 -0.113,-4.942 0.729,-7.323 0,-13.675 0.002,-27.349 0.002,-41.021 -2.713,-5.924 -0.959,-12.17 -1.33,-18.266 2.123,-49.601 0.787,-99.222 0.947,-148.831 0.246,-76.469 0.068,-152.939 0.047,-229.408 0,-1.98 0.361,-4.002 -0.385,-5.939 -2.535,-13.887 -9.199,-24.867 -22.125,-31.441 -1.578,0.428 -2.801,-0.283 -3.949,-1.232 -1.432,-2.605 -5.021,0.559 -6.377,-2.627 47.201,0 94.357,0 142.823,0 -19.072,4.26 -29.467,15.508 -32.559,33.533 -0.967,1.625 0.025,3.539 -0.762,5.191 -0.07,1.492 -0.205,2.986 -0.205,4.479 0.006,130.859 0.023,261.72 0.047,392.579 0,1.328 0.105,2.656 0.16,3.984 0.506,3.651 0.506,7.305 0,10.959 -0.092,4.873 -0.184,9.748 -0.274,14.623 -0.82,1.713 -0.025,3.637 -0.693,5.37 -2.873,20.966 -8.842,40.837 -20.521,58.738 -14.956,22.92 -35.528,39.363 -59.434,52.086 -17.731,9.439 -36.74,15.104 -56.16,19.685 -1.064,0.25 -2.008,0.426 -2.438,-0.463 -0.207,-0.433 0.434,-1.656 1.006,-2.013 2.098,-1.297 4.008,-2.746 5.432,-4.783 0.695,-1.112 1.539,-2.018 2.961,-2.11 5.049,-4.332 9.807,-8.957 14.082,-14.064 0.109,-1.442 0.976,-2.322 2.199,-2.928 4.572,-4.332 8.213,-9.346 10.996,-14.986 -0.121,-1.5 0.762,-2.36 1.936,-3.037 3.353,-5.125 6.688,-10.256 8.699,-16.102 -0.504,-1.59 0.188,-2.816 1.199,-3.943 2.551,-2.784 3.084,-6.43 4.248,-9.819 1.721,-5.021 3.971,-9.875 4.488,-15.248 -0.287,-1.48 0.396,-2.717 1.002,-3.974 0.731,-3.33 2.942,-6.356 2.047,-10.021 -0.31,-1.514 0.272,-2.783 1.074,-3.996 z"
   id="path12"
   inkscape:connector-curvature="0"
   style="fill:#777777" />
	<path
   d="m 804.033,2.722 c 0.787,2.525 1.365,5.137 3.021,7.301 2.056,1.482 2.48,3.451 1.722,5.771 1.51,6.947 3.021,13.893 4.53,20.84 0.593,1.016 1.029,2.068 0.746,3.281 -0.457,3.4 -0.604,6.799 0.115,10.186 l 0.002,0.051 c -1.07,3.426 0.16,7.014 -0.734,10.453 -0.338,2.34 -0.674,4.682 -1.01,7.023 0.785,1.436 1.131,2.807 -0.58,3.867 -10.342,51.35 -51.729,91.369 -107.612,98.334 -1.729,0.668 -3.646,-0.137 -5.354,0.693 -6.074,0 -12.147,-0.002 -18.223,-0.002 -1.713,-0.822 -3.638,-0.023 -5.371,-0.695 -24.047,-2.145 -45.211,-11.518 -64.178,-26.057 -5.857,-4.49 -10.783,-10.002 -15.623,-15.699 -11.218,-13.197 -22.765,-26.188 -35.042,-38.389 -18.795,-18.678 -41.703,-24.02 -66.72,-15.842 -24.311,7.947 -39.237,25.264 -43.166,50.795 -5.088,33.084 20.326,65.254 53.859,70.029 42.027,5.984 71.985,-20.598 85.972,-48.576 2.113,-0.33 1.263,1.33 1.316,2.152 0.291,4.289 -0.428,8.615 0.473,12.887 -0.844,9.107 -0.406,18.238 -0.174,27.342 0.121,4.754 -1.449,8.17 -4.674,11.381 -16.988,16.914 -37.411,26.75 -61.097,29.971 -1.771,0.66 -3.72,-0.088 -5.472,0.707 -4.332,0 -8.664,0.002 -12.996,0.002 -1.754,-0.799 -3.713,-0.039 -5.481,-0.719 -9.021,-0.566 -17.58,-3.115 -26.039,-6.082 -1.228,0.416 -2.086,-0.33 -2.986,-0.943 -7.1,-3.896 -14.328,-7.572 -20.953,-12.277 -1.424,-0.08 -2.258,-0.996 -2.967,-2.09 -1.68,-1.635 -3.356,-3.268 -5.035,-4.902 -3.133,-0.871 -4.592,-3.414 -6,-6.006 -1.239,-1.334 -2.479,-2.666 -3.721,-4 -1.228,-0.611 -2.094,-1.486 -2.15,-2.953 -1.977,-3.006 -3.95,-6.014 -5.928,-9.02 -1.143,-0.68 -2.039,-1.529 -2.07,-2.98 -2.952,-7.842 -6.591,-15.418 -8.486,-23.668 -1.013,-4.404 -1.187,-8.863 -1.851,-13.281 -0.524,-5.986 -0.539,-11.973 0.006,-17.959 0.365,-2.014 0.861,-4.025 -0.012,-6.037 0.49,-4.453 0.656,-8.984 3.094,-12.975 1.48,-1.342 1.103,-3.459 2.093,-5.006 -0.67,-1.268 0.276,-2.082 0.844,-3.002 0.845,-1.258 2.021,-2.342 2.085,-4.008 -0.598,-2.266 0.537,-3.727 2.279,-4.908 1.991,-3.334 3.981,-6.668 5.975,-10.004 0.018,-1.467 0.895,-2.33 2.088,-2.973 6.713,-8.229 14.434,-15.414 22.762,-21.969 0.699,-1.178 1.869,-1.656 3.076,-2.086 9.91,-5.045 19.799,-10.174 30.857,-12.307 5.656,-1.09 11.356,-1.953 17.039,-2.918 5.317,-0.516 10.637,-0.514 15.955,-0.002 27.305,2.828 50.341,14.178 68.878,34.508 1.957,-0.025 1.51,1.766 2.098,2.775 2.971,3.084 5.943,6.168 8.914,9.252 1.941,-0.031 1.502,1.748 2.086,2.748 2.971,3.084 5.941,6.17 8.912,9.256 1.945,-0.037 1.502,1.744 2.088,2.744 2.965,3.08 5.93,6.162 8.896,9.242 1.971,-0.049 1.514,1.754 2.104,2.758 3.549,4.598 8.312,7.766 13,11.018 1.541,-0.273 2.273,0.807 3.047,1.82 3.597,2.805 7.603,4.832 11.9,6.313 1.76,-0.445 2.928,0.6 4.1,1.631 2.404,1.693 5.351,1.918 8,2.939 1.693,-1.107 2.939,-0.422 4,1 3.861,0.664 7.685,1.699 11.664,1.264 5.236,0.695 10.474,0.68 15.709,0.006 0.543,-0.039 1.086,-0.076 1.629,-0.113 1.302,-0.859 2.627,-1.09 3.998,-0.156 11.09,-1.936 21.646,-5.287 31.043,-11.713 0.806,-0.965 1.59,-1.959 3.015,-1.977 2.916,-0.838 5.239,-2.51 7.008,-4.969 0.75,-1.039 1.561,-1.99 2.979,-2.063 7.23,-6.248 13.898,-12.965 18.113,-21.725 0.191,-1.406 0.752,-2.586 2.043,-3.313 1.131,-0.719 1.359,-1.941 1.725,-3.086 -0.459,-1.242 0.318,-2.092 0.949,-2.988 2.871,-4.963 4.687,-10.26 5.053,-16.012 -0.262,-1.514 0.246,-2.809 1.129,-3.996 0.941,-5.344 1.74,-10.723 1.179,-16.148 -1.603,-15.479 -5.101,-30.328 -14.947,-42.949 -2.311,-1.877 -4.271,-4.014 -5.154,-6.947 -9.162,-11.332 -20.787,-19.279 -34.143,-24.852 -1.58,0.449 -2.801,-0.268 -3.951,-1.215 -6.215,-3.145 -13.022,-3.922 -19.766,-4.967 -3.355,-1.111 -6.881,0.178 -10.25,-0.736 -2.017,0.002 -4.029,0.004 -6.045,0.006 -1.765,0.676 -3.711,-0.08 -5.459,0.703 -4.675,-0.232 -9.062,1.225 -13.519,2.277 -1.91,2.174 -4.215,3.215 -7.137,2.479 -4.838,1.68 -9.527,3.68 -13.863,6.441 -0.799,0.969 -1.502,2.104 -3.057,1.748 -4.418,2.428 -8.564,5.219 -12.037,8.922 -0.652,1.164 -0.906,2.828 -2.898,2.322 -2.186,1.074 -3.59,2.973 -5.051,4.809 -0.766,0.885 -0.125,2.816 -2.088,2.809 -10.973,11.018 -18.008,24.471 -23.918,38.627 -0.551,1.318 -0.666,2.895 -2.293,4.033 -0.201,-3.766 -0.389,-7.313 -0.578,-10.857 0.957,-7.396 0.244,-14.826 0.42,-22.238 0.221,-9.406 -0.309,-18.818 0.266,-28.223 0.193,-0.273 0.289,-0.578 0.287,-0.914 0.476,-1.203 0.857,-2.475 2.23,-3.016 6.928,-6.645 13.854,-13.287 20.781,-19.932 0.75,-1.039 1.561,-1.99 2.983,-2.051 3.238,-1.643 6.199,-3.701 8.992,-6.008 0.853,-1.688 2.738,-1.338 4.072,-2.072 13.389,-7.494 27.895,-11.611 42.908,-14.189 1.76,-0.752 3.735,0.063 5.485,-0.758 7,0 14,0 21,0.002 1.773,0.803 3.558,0.197 5.336,0.039 0.785,0.121 1.515,0.379 2.156,0.857 6.185,1.508 12.418,2.836 18.541,4.563 8.879,2.502 17.189,6.455 25.396,10.609 1.534,-0.316 2.276,0.756 3.063,1.75 6.949,5.016 14.012,9.824 20.297,15.762 11.15,10.535 20.027,22.643 26.853,36.32 0.975,0.809 1.987,1.592 1.625,3.1 z"
   id="path14"
   inkscape:connector-curvature="0"
   style="fill:#777777" />
	<path
   d="m 481.33,670.74 c 17.785,-5.67 29.227,-22.213 29.252,-41.547 0.063,-48.308 0.021,-96.613 0.021,-144.921 0,-66.798 0.024,-133.597 -0.023,-200.394 -0.008,-12.863 -3.734,-24.371 -13.709,-33.086 -4.846,-4.234 -9.914,-8.383 -16.979,-8.178 -1.172,0.035 -1.903,-0.443 -2.112,-1.814 46.934,0 93.846,0 142.088,0 -19.334,4.68 -30.273,15.805 -32.67,34.643 -0.857,1.742 -0.433,3.607 -0.433,5.408 -0.022,116.561 -0.022,233.119 -0.004,349.679 0,1.809 -0.373,3.666 0.396,5.428 0,14.438 14.754,33.135 28.998,34.82 -0.279,2.202 -2.035,1.284 -3.103,1.286 -42.881,0.056 -85.762,0.054 -128.643,0 -1.069,0.002 -2.837,0.899 -3.079,-1.324 z"
   id="path16"
   inkscape:connector-curvature="0"
   style="fill:#777777" />
	<path
   d="m 344.372,276.183 c 1.195,1.992 0.803,4.217 0.805,6.34 0.047,125.195 0.064,250.392 0.076,375.589 0,0.828 -0.104,1.655 -0.162,2.483 -3.033,-1.043 -2.141,-3.709 -2.256,-5.823 -0.15,-2.783 0.094,-5.58 1.424,-8.146 0,-121.147 -0.002,-242.298 0.002,-363.448 0,-2.331 0.072,-4.663 0.111,-6.995 z"
   id="path18"
   inkscape:connector-curvature="0"
   style="fill:#777777" />
	<path
   d="m 587.158,635.959 c -1.166,-2.184 -0.754,-4.564 -0.754,-6.857 -0.025,-115.433 -0.025,-230.864 0,-346.298 0,-2.463 -0.412,-5.01 0.793,-7.359 0.022,80.559 0.059,161.117 0.061,241.675 0,39.612 -0.065,79.226 -0.1,118.839 z"
   id="path20"
   inkscape:connector-curvature="0"
   style="fill:#777777" />
	<path
   d="m 823.164,635.932 c -1.186,-2.354 -0.736,-4.897 -0.736,-7.356 0.004,-113.04 0.035,-226.081 0.113,-339.122 0.002,-1.541 -0.809,-3.318 0.719,-4.664 0.002,115.551 0.004,231.102 0,346.651 0,1.497 -0.063,2.993 -0.096,4.491 z"
   id="path22"
   inkscape:connector-curvature="0"
   style="fill:#777777" />
	<path
   d="m 947.338,241.616 c -1.131,-1.932 -3.006,-1.016 -4.506,-1.016 -98.479,-0.051 -196.959,-0.047 -295.438,-0.029 -1.763,0 -3.728,-0.572 -5.07,1.24 0.055,-1.391 0.736,-2.152 2.17,-2.16 1.332,-0.008 2.666,-0.025 3.998,-0.025 98,-0.002 195.998,-0.012 293.998,0.1 1.557,0.002 4.535,-1.948 4.848,1.89 z"
   id="path24"
   inkscape:connector-curvature="0"
   style="fill:#777777" />
	<path
   d="m 1331.174,561.908 c -1.031,-2.562 -0.647,-5.256 -0.65,-7.89 -0.059,-90.013 -0.088,-180.023 -0.092,-270.036 0,-2.289 -0.457,-4.666 0.726,-6.85 0.034,17.65 0.104,35.303 0.102,52.955 -0.018,77.274 -0.057,154.549 -0.086,231.821 z"
   id="path26"
   inkscape:connector-curvature="0"
   style="fill:#777777" />
	<path
   d="m 183.36,277.292 c 1.081,2.205 0.688,4.576 0.689,6.875 0.024,89.781 0.025,179.564 -0.003,269.347 -0.001,2.804 0.398,5.67 -0.701,8.396 -0.031,-53.095 -0.085,-106.19 -0.085,-159.286 -0.001,-41.777 0.064,-83.555 0.1,-125.332 z"
   id="path28"
   inkscape:connector-curvature="0"
   style="fill:#777777" />
	<path
   d="m 17.162,560.037 c -0.841,-2.082 -0.527,-4.271 -0.528,-6.412 -0.047,-89.687 -0.076,-179.374 -0.084,-269.06 0,-2.137 -0.367,-4.334 0.611,-6.393 0.037,20.322 0.099,40.645 0.103,60.969 0.013,71.298 0.006,142.6 0.001,213.901 -0.001,2.331 -0.068,4.663 -0.103,6.995 z"
   id="path30"
   inkscape:connector-curvature="0"
   style="fill:#777777" />
	<path
   d="m 1497.359,278.226 c 0.924,2.064 0.6,4.258 0.6,6.398 0.018,89.529 0.018,179.057 0,268.585 0,2.303 0.363,4.664 -0.604,6.896 -0.034,-46.312 -0.096,-92.626 -0.094,-138.938 0,-47.648 0.065,-95.295 0.102,-142.941 z"
   id="path32"
   inkscape:connector-curvature="0"
   style="fill:#777777" />
	<path
   d="m -274.811,635.846 c -1.012,-1.86 -0.725,-3.903 -0.725,-5.875 -10e-4,-54.817 0.021,-109.639 0.082,-164.458 0.001,-1.225 -0.66,-2.682 0.713,-3.68 -0.023,58.005 -0.047,116.009 -0.07,174.013 z"
   id="path34"
   inkscape:connector-curvature="0"
   style="fill:#777777" />
	<path
   d="m -101.777,240.753 c -7.66,-0.053 -15.32,-0.141 -22.981,-0.15 -47.319,-0.063 -94.639,-0.107 -141.959,-0.158 1.583,-1.381 3.5,-0.791 5.266,-0.793 51.364,-0.031 102.728,-0.035 154.091,0.014 1.876,0.001 4.039,-0.856 5.583,1.087 z"
   id="path36"
   inkscape:connector-curvature="0"
   style="fill:#777777" />
	<path
   d="m 716.395,670.832 c 1.509,1.041 3.224,0.617 4.849,0.619 42.053,0.022 84.104,0.024 126.156,-0.01 1.596,0 3.34,0.577 4.774,-0.695 1.152,-0.158 2.308,-0.336 3.972,1.074 -48.162,0 -95.652,0 -143.464,0 0.978,-1.488 2.406,-1.068 3.713,-0.988 z"
   id="path38"
   inkscape:connector-curvature="0"
   style="fill:#777777" />
	<path
   d="m 481.33,670.74 c 1.438,1.272 3.182,0.692 4.779,0.694 41.743,0.033 83.489,0.033 125.233,0.005 1.609,-0.003 3.342,0.514 4.813,-0.66 0.979,-0.146 1.981,-0.381 2.934,1.121 -47.248,0 -94.213,0 -141.436,0 1.093,-1.726 2.451,-1.195 3.677,-1.16 z"
   id="path40"
   inkscape:connector-curvature="0"
   style="fill:#777777" />
	<path
   d="m 50.164,240.964 c -1.317,-0.137 -2.635,-0.391 -3.952,-0.393 -45.306,-0.02 -90.612,-0.018 -135.919,-0.004 -0.992,0 -1.984,0.166 -2.977,0.254 1.142,-1.813 2.977,-1.17 4.543,-1.17 44.624,-0.033 89.248,-0.033 133.872,0.002 1.547,0 3.424,-0.687 4.433,1.311 z"
   id="path42"
   inkscape:connector-curvature="0"
   style="fill:#777777" />
	<path
   d="m 1364.16,240.972 c -2.148,-0.139 -4.299,-0.396 -6.449,-0.398 -45.475,-0.061 -90.949,-0.092 -136.424,-0.129 1.582,-1.387 3.5,-0.791 5.266,-0.793 44.064,-0.033 88.127,-0.039 132.191,0.02 1.828,0.001 4.07,-0.997 5.416,1.3 z"
   id="path44"
   inkscape:connector-curvature="0"
   style="fill:#777777" />
	<path
   d="m -274.737,417.355 c -1.404,-0.981 -0.716,-2.442 -0.718,-3.657 -0.063,-41.783 -0.086,-83.564 -0.064,-125.348 0.001,-1.197 -0.734,-2.684 0.778,-3.605 10e-4,44.203 0.002,88.408 0.004,132.61 z"
   id="path46"
   inkscape:connector-curvature="0"
   style="fill:#777777" />
	<path
   d="m 293.122,241.589 c -1.266,-2.117 -3.311,-0.959 -4.916,-0.969 -24.975,-0.127 -49.951,-0.133 -74.925,-0.166 1.412,-1.313 3.164,-0.805 4.775,-0.807 23.83,-0.031 47.66,-0.055 71.49,0.08 1.111,0.006 4.201,-2.103 3.576,1.862 z"
   id="path48"
   inkscape:connector-curvature="0"
   style="fill:#777777" />
	<path
   d="m 1607.221,240.765 c -23.151,-0.057 -46.303,-0.107 -69.453,-0.174 -3.496,-0.01 -6.991,-0.09 -10.485,-0.137 1.235,-1.209 2.803,-0.813 4.252,-0.814 23.709,-0.02 47.416,-0.025 71.123,0.01 1.567,0.001 3.377,-0.614 4.563,1.115 z"
   id="path50"
   inkscape:connector-curvature="0"
   style="fill:#777777" />
	<path
   d="m -136.709,493.513 c 1.125,-0.239 0.993,-1.151 0.991,-1.94 -0.06,-24.631 -0.131,-49.261 -0.2,-73.891 1.629,0.985 1.162,2.616 1.163,4.042 0.023,22.904 0.041,45.808 -0.061,68.711 -0.004,1.062 1.545,3.832 -1.893,3.078 z"
   id="path52"
   inkscape:connector-curvature="0"
   style="fill:#777777" />
	<path
   d="m -101.911,316.575 c 0.113,-9.305 0.226,-18.611 0.338,-27.918 2.019,0.502 1.62,1.682 0.832,2.971 0,6.801 0.037,13.604 -0.025,20.404 -0.015,1.567 0.628,3.385 -1.145,4.543 z"
   id="path54"
   inkscape:connector-curvature="0"
   style="fill:#777777" />
	<path
   d="m -249.741,669.506 c -2.761,-0.604 -5.25,-1.733 -7.278,-3.758 4.157,-2.1 6.341,-0.377 7.278,3.758 z"
   id="path56"
   inkscape:connector-curvature="0"
   style="fill:#777777" />
	<path
   d="m -367.741,248.753 c 2.819,1.109 4.758,3.109 5.938,5.875 -3.732,-0.188 -5.724,-2.133 -5.938,-5.875 z"
   id="path58"
   inkscape:connector-curvature="0"
   style="fill:#777777" />
	<path
   d="m 162.392,609.896 c 0.104,2.854 -2.454,3.461 -4.09,4.848 0.094,-2.689 -0.639,-6.074 4.09,-4.848 z"
   id="path60"
   inkscape:connector-curvature="0"
   style="fill:#777777" />
	<path
   d="m -41.611,616.318 c 2.024,1.641 3.233,3.821 4.12,6.217 -3.524,-0.646 -4.966,-2.674 -4.12,-6.217 z"
   id="path62"
   inkscape:connector-curvature="0"
   style="fill:#777777" />
	<path
   d="m 1224.439,560.604 c 0,-4.316 0.01,-8.634 0.012,-12.949 1.313,4.316 1.332,8.632 -0.012,12.949 z"
   id="path64"
   inkscape:connector-curvature="0"
   style="fill:#777777" />
	<path
   d="m 1056.848,683.529 c 4.088,-0.97 8.244,-0.738 12.39,-0.729 -4.043,1.737 -8.259,0.497 -12.39,0.729 z"
   id="path66"
   inkscape:connector-curvature="0"
   style="fill:#777777" />
	<path
   d="m 944.094,353.649 c 0.006,3.652 0.01,7.305 0.017,10.957 -1.373,-3.65 -1.351,-7.302 -0.017,-10.957 z"
   id="path68"
   inkscape:connector-curvature="0"
   style="fill:#777777" />
	<path
   d="m 421.427,691.607 c 0,-3.654 0,-7.308 0,-10.959 1.329,3.653 1.329,7.305 0,10.959 z"
   id="path70"
   inkscape:connector-curvature="0"
   style="fill:#777777" />
	<path
   d="m 1017.281,682.799 c 3.817,-0.057 7.647,-0.311 11.399,0.728 -3.801,-0.189 -7.69,0.961 -11.399,-0.728 z"
   id="path72"
   inkscape:connector-curvature="0"
   style="fill:#777777" />
	<path
   d="m 259.441,560.604 c -0.032,-3.154 -0.089,-6.312 0.722,-9.402 -0.184,3.136 0.898,6.372 -0.722,9.402 z"
   id="path74"
   inkscape:connector-curvature="0"
   style="fill:#777777" />
	<path
   d="m 1119.234,232.438 c -3.15,0.09 -6.304,0.176 -9.384,-0.713 3.132,0.178 6.361,-0.89 9.384,0.713 z"
   id="path76"
   inkscape:connector-curvature="0"
   style="fill:#777777" />
	<path
   d="m 59.259,628.545 c -1.137,-0.381 -2.329,-0.666 -3.048,-1.766 0.181,-0.754 0.147,-1.898 1.246,-1.709 1.943,0.336 1.737,2.03 1.802,3.475 z"
   id="path78"
   inkscape:connector-curvature="0"
   style="fill:#777777" />
	<path
   d="m 26.398,594.609 c -0.664,-1.326 -1.328,-2.654 -1.991,-3.982 3.262,0.027 4.495,1.07 1.991,3.982 z"
   id="path80"
   inkscape:connector-curvature="0"
   style="fill:#777777" />
	<path
   d="m 1573.414,561.604 c -0.092,-3.157 -0.053,-6.307 0.748,-9.397 -0.191,3.137 0.92,6.379 -0.748,9.397 z"
   id="path82"
   inkscape:connector-curvature="0"
   style="fill:#777777" />
	<path
   d="m 878.766,284.536 c 2.994,-0.768 5.988,-0.766 8.984,0 -2.992,0 -5.988,0 -8.984,0 z"
   id="path84"
   inkscape:connector-curvature="0"
   style="fill:#777777" />
	<path
   d="m 111.911,683.531 c 2.718,-0.89 5.524,-0.804 8.327,-0.744 -2.647,1.684 -5.546,0.559 -8.327,0.744 z"
   id="path86"
   inkscape:connector-curvature="0"
   style="fill:#777777" />
	<path
   d="m 1425.885,683.527 c 2.728,-0.9 5.543,-0.802 8.354,-0.744 -2.657,1.694 -5.563,0.561 -8.354,0.744 z"
   id="path88"
   inkscape:connector-curvature="0"
   style="fill:#777777" />
	<path
   d="m -24.57,637.184 c 1.297,0.857 2.484,1.812 2.938,3.396 -3.513,1.061 -4.003,-0.494 -2.938,-3.396 z"
   id="path90"
   inkscape:connector-curvature="0"
   style="fill:#777777" />
	<path
   d="m 1087.674,231.728 c -2.736,0.953 -5.566,0.801 -8.393,0.725 2.676,-1.659 5.59,-0.548 8.393,-0.725 z"
   id="path92"
   inkscape:connector-curvature="0"
   style="fill:#777777" />
	<path
   d="m 19.426,577.627 c -0.333,-1.334 -0.667,-2.666 -1,-4 3.378,1.506 3.524,2.088 1,4 z"
   id="path94"
   inkscape:connector-curvature="0"
   style="fill:#777777" />
	<path
   d="m -68.557,256.552 c 1.163,0.666 2.128,1.469 2.064,2.984 -1.597,-0.365 -4.243,-0.006 -2.064,-2.984 z"
   id="path96"
   inkscape:connector-curvature="0"
   style="fill:#777777" />
	<path
   d="m 318.298,243.509 c 1.449,-0.02 2.814,0.236 3.949,1.232 -2.459,3.252 -2.879,-0.037 -3.949,-1.232 z"
   id="path98"
   inkscape:connector-curvature="0"
   style="fill:#777777" />
	<path
   d="m -60.907,274.644 c 0.884,1.184 1.69,2.389 1.155,3.982 -1.077,-1.127 -4.304,-1.629 -1.155,-3.982 z"
   id="path100"
   inkscape:connector-curvature="0"
   style="fill:#777777" />
	<path
   d="m 1090.873,277.522 c 2.383,-0.984 4.871,-0.852 7.361,-0.707 -2.324,1.575 -4.898,0.561 -7.361,0.707 z"
   id="path102"
   inkscape:connector-curvature="0"
   style="fill:#777777" />
	<path
   d="m -145.624,474.581 c 1.163,0.656 2.275,1.348 2.186,2.936 -1.604,-0.327 -4.209,0.093 -2.186,-2.936 z"
   id="path104"
   inkscape:connector-curvature="0"
   style="fill:#777777" />
	<path
   d="m -59.64,555.242 c 0.915,2.387 0.87,4.871 0.742,7.365 -1.632,-2.316 -0.579,-4.902 -0.742,-7.365 z"
   id="path106"
   inkscape:connector-curvature="0"
   style="fill:#777777" />
	<path
   d="m 178.378,582.666 c -0.033,1.414 0.038,2.859 -1.11,3.963 -3.485,-2.402 -0.059,-2.867 1.11,-3.963 z"
   id="path108"
   inkscape:connector-curvature="0"
   style="fill:#777777" />
	<path
   d="m -50.719,597.625 c 1.135,1.098 1.078,2.541 1.14,3.949 -1.362,-1.033 -4.592,-1.527 -1.14,-3.949 z"
   id="path110"
   inkscape:connector-curvature="0"
   style="fill:#777777" />
	<path
   d="m 39.217,612.742 c -1.215,-0.556 -1.527,-1.777 -2.084,-2.818 0.419,-0.805 1.039,-1.371 1.902,-0.752 1.475,1.057 -0.002,2.379 0.182,3.57 z"
   id="path112"
   inkscape:connector-curvature="0"
   style="fill:#777777" />
	<path
   d="m 48.182,620.832 c -0.972,-0.76 -1.943,-1.521 -2.914,-2.277 0.392,-0.756 0.966,-1.68 1.824,-1.262 1.439,0.701 1.144,2.219 1.09,3.539 z"
   id="path114"
   inkscape:connector-curvature="0"
   style="fill:#777777" />
	<path
   d="m -352.583,638.604 c 0.16,1.472 0.087,2.894 -0.837,4.146 -2.357,-1.914 -1.044,-3.088 0.837,-4.146 z"
   id="path116"
   inkscape:connector-curvature="0"
   style="fill:#777777" />
	<path
   d="m 81.282,682.799 c 2.507,-0.041 5.029,-0.229 7.441,0.73 -2.484,-0.175 -5.095,0.891 -7.441,-0.73 z"
   id="path118"
   inkscape:connector-curvature="0"
   style="fill:#777777" />
	<path
   d="m 1056.756,638.725 c -2.414,1.039 -4.951,0.81 -7.473,0.724 2.36,-1.607 4.977,-0.543 7.473,-0.724 z"
   id="path120"
   inkscape:connector-curvature="0"
   style="fill:#777777" />
	<path
   d="m 169.528,600.729 c 0.081,1.526 -0.939,2.291 -2.066,2.979 -2.267,-3.042 0.559,-2.554 2.066,-2.979 z"
   id="path122"
   inkscape:connector-curvature="0"
   style="fill:#777777" />
	<path
   d="m 1004.279,681.783 c 2.467,-0.109 4.932,-0.197 7.291,0.752 -2.437,-0.172 -5.002,0.879 -7.291,-0.752 z"
   id="path124"
   inkscape:connector-curvature="0"
   style="fill:#777777" />
	<path
   d="m 1395.281,682.803 c 2.498,-0.037 5.012,-0.223 7.418,0.724 -2.478,-0.166 -5.078,0.883 -7.418,-0.724 z"
   id="path126"
   inkscape:connector-curvature="0"
   style="fill:#777777" />
	<path
   d="m 345.091,719.648 c 0.146,2.479 0.308,4.961 -0.729,7.321 0.155,-2.446 -0.877,-5.014 0.729,-7.321 z"
   id="path128"
   inkscape:connector-curvature="0"
   style="fill:#777777" />
	<path
   d="m 1254.361,555.199 c 0.875,2.063 0.83,4.229 0.707,6.401 -1.507,-1.993 -0.586,-4.254 -0.707,-6.401 z"
   id="path130"
   inkscape:connector-curvature="0"
   style="fill:#777777" />
	<path
   d="m 150.381,241.294 c 0.954,0.5 1.908,1 2.861,1.5 -0.405,0.656 -0.861,1.504 -1.717,1.207 -1.221,-0.426 -1.229,-1.602 -1.144,-2.707 z"
   id="path132"
   inkscape:connector-curvature="0"
   style="fill:#777777" />
	<path
   d="m 1075.926,682.529 c 2.029,-0.886 4.168,-0.836 6.313,-0.738 -1.954,1.543 -4.196,0.615 -6.313,0.738 z"
   id="path134"
   inkscape:connector-curvature="0"
   style="fill:#777777" />
	<path
   d="m 343.272,734.625 c 0.573,1.582 -0.369,2.756 -1.072,3.992 -1.846,-1.922 -0.562,-3.004 1.072,-3.992 z"
   id="path136"
   inkscape:connector-curvature="0"
   style="fill:#777777" />
	<path
   d="m 340.153,748.639 c 0.897,1.636 -0.287,2.746 -1.002,3.974 -1.748,-1.851 -0.541,-2.955 1.002,-3.974 z"
   id="path138"
   inkscape:connector-curvature="0"
   style="fill:#777777" />
	<path
   d="m 160.259,244.78 c 1.73,-0.615 2.411,0.656 3.18,1.77 -1.975,1.054 -3.007,0.416 -3.18,-1.77 z"
   id="path140"
   inkscape:connector-curvature="0"
   style="fill:#777777" />
	<path
   d="m 1133.236,233.444 c -2.148,0.115 -4.293,0.207 -6.324,-0.717 2.121,0.118 4.359,-0.792 6.324,0.717 z"
   id="path142"
   inkscape:connector-curvature="0"
   style="fill:#777777" />
	<path
   d="m 1020.445,339.603 c -0.189,-1.789 -0.152,-3.547 0.746,-5.18 -0.103,1.748 0.651,3.619 -0.746,5.18 z"
   id="path144"
   inkscape:connector-curvature="0"
   style="fill:#777777" />
	<path
   d="m 1048.236,639.449 c -1.812,0.147 -3.611,0.221 -5.271,-0.728 1.779,0.074 3.676,-0.682 5.271,0.728 z"
   id="path146"
   inkscape:connector-curvature="0"
   style="fill:#777777" />
	<path
   d="m 1409.236,639.455 c -1.853,0.123 -3.711,0.307 -5.414,-0.713 1.826,0.065 3.768,-0.724 5.414,0.713 z"
   id="path148"
   inkscape:connector-curvature="0"
   style="fill:#777777" />
	<path
   d="m 1424.617,638.736 c -1.676,1.004 -3.508,0.836 -5.334,0.713 1.619,-1.418 3.531,-0.652 5.334,-0.713 z"
   id="path150"
   inkscape:connector-curvature="0"
   style="fill:#777777" />
	<path
   d="m 1223.395,573.607 c -0.092,-1.812 -0.116,-3.611 0.771,-5.281 -0.082,1.785 0.709,3.699 -0.771,5.281 z"
   id="path152"
   inkscape:connector-curvature="0"
   style="fill:#777777" />
	<path
   d="m -104.685,308.618 c 0.591,0.916 1.396,1.768 0.924,3.01 -2.147,-0.44 -2.629,-1.389 -0.924,-3.01 z"
   id="path154"
   inkscape:connector-curvature="0"
   style="fill:#777777" />
	<path
   d="m 945.115,340.647 c 0.096,1.842 0.186,3.682 -0.746,5.383 0.07,-1.816 -0.732,-3.758 0.746,-5.383 z"
   id="path156"
   inkscape:connector-curvature="0"
   style="fill:#777777" />
	<path
   d="m 1144.236,234.45 c -1.814,0.131 -3.611,0.152 -5.287,-0.727 1.785,0.071 3.686,-0.689 5.287,0.727 z"
   id="path158"
   inkscape:connector-curvature="0"
   style="fill:#777777" />
	<path
   d="m 1119.283,276.806 c 1.826,-0.105 3.658,-0.256 5.344,0.713 -1.805,-0.061 -3.721,0.705 -5.344,-0.713 z"
   id="path160"
   inkscape:connector-curvature="0"
   style="fill:#777777" />
	<path
   d="m 420.458,711.602 c -0.09,-1.831 -0.176,-3.661 0.693,-5.37 -0.062,1.809 0.702,3.729 -0.693,5.37 z"
   id="path162"
   inkscape:connector-curvature="0"
   style="fill:#777777" />
	<path
   d="m -120.694,290.499 c 1.629,-0.201 2.406,0.875 3.101,2.072 -1.542,0.071 -3.074,0.125 -3.101,-2.072 z"
   id="path164"
   inkscape:connector-curvature="0"
   style="fill:#777777" />
	<path
   d="m 421.425,279.606 c -0.19,-1.797 -0.242,-3.57 0.762,-5.191 -0.102,1.752 0.663,3.633 -0.762,5.191 z"
   id="path166"
   inkscape:connector-curvature="0"
   style="fill:#777777" />
	<path
   d="m 1066.549,637.721 c -1.658,0.938 -3.459,0.871 -5.27,0.75 1.588,-1.444 3.489,-0.672 5.27,-0.75 z"
   id="path168"
   inkscape:connector-curvature="0"
   style="fill:#777777" />
	<path
   d="m 95.236,639.451 c -1.84,0.129 -3.686,0.297 -5.377,-0.711 1.815,0.061 3.742,-0.715 5.377,0.711 z"
   id="path170"
   inkscape:connector-curvature="0"
   style="fill:#777777" />
	<path
   d="m 110.64,638.738 c -1.683,1.008 -3.524,0.836 -5.358,0.715 1.628,-1.426 3.549,-0.654 5.358,-0.715 z"
   id="path172"
   inkscape:connector-curvature="0"
   style="fill:#777777" />
</g>
</svg>