<?xml version="1.0" encoding="UTF-8" standalone="no"?>
<!-- Generator: Adobe Illustrator 16.0.0, SVG Export Plug-In . SVG Version: 6.00 Build 0)  -->

<svg
   xmlns:dc="http://purl.org/dc/elements/1.1/"
   xmlns:cc="http://creativecommons.org/ns#"
   xmlns:rdf="http://www.w3.org/1999/02/22-rdf-syntax-ns#"
   xmlns:svg="http://www.w3.org/2000/svg"
   xmlns="http://www.w3.org/2000/svg"
   xmlns:sodipodi="http://sodipodi.sourceforge.net/DTD/sodipodi-0.dtd"
   xmlns:inkscape="http://www.inkscape.org/namespaces/inkscape"
   version="1.1"
   id="Layer_1"
   x="0px"
   y="0px"
   width="1954.469"
   height="1510.2904"
   viewBox="0 0 1954.469 1510.2904"
   xml:space="preserve"
   sodipodi:docname="harley 2.svg"
   inkscape:version="0.92.3 (2405546, 2018-03-11)"><metadata
   id="metadata101"><rdf:RDF><cc:Work
       rdf:about=""><dc:format>image/svg+xml</dc:format><dc:type
         rdf:resource="http://purl.org/dc/dcmitype/StillImage" /><dc:title></dc:title></cc:Work></rdf:RDF></metadata><defs
   id="defs99" /><sodipodi:namedview
   pagecolor="#ffffff"
   bordercolor="#666666"
   borderopacity="1"
   objecttolerance="10"
   gridtolerance="10"
   guidetolerance="10"
   inkscape:pageopacity="0"
   inkscape:pageshadow="2"
   inkscape:window-width="1012"
   inkscape:window-height="609"
   id="namedview97"
   showgrid="false"
   fit-margin-top="0"
   fit-margin-left="0"
   fit-margin-right="0"
   fit-margin-bottom="0"
   inkscape:zoom="0.221875"
   inkscape:cx="976.40301"
   inkscape:cy="760.62419"
   inkscape:window-x="0"
   inkscape:window-y="0"
   inkscape:window-maximized="0"
   inkscape:current-layer="Layer_1" />
<g
   id="g94"
   transform="translate(336.40301,349.6662)">
	<path
   d="m -68.503,735.872 c 20.477,0.023 40.328,-1.71 59.502,-8.011 26.536,-8.721 47.784,-23.861 59.514,-50.166 5.856,-13.134 5.774,-13.18 -8.309,-13.169 -124.313,0.084 -248.625,0.144 -372.937,0.364 -4.581,0.01 -5.656,-1.159 -5.653,-5.677 0.121,-173.807 0.126,-347.613 -0.017,-521.419 -0.004,-4.852 1.175,-5.908 5.953,-5.903 132.646,0.146 265.292,0.099 397.938,0.204 4.244,0.004 5.537,-0.477 4.826,-5.302 C 67.378,93.25 39.581,63.381 4.928,54.915 3.797,54.639 2.677,54.309 1.536,54.078 c -9.237,-1.87 -9.238,-1.864 -9.238,-11.525 0,-57.491 0.042,-114.98 -0.093,-172.473 -0.009,-3.935 0.714,-5.381 4.986,-5.578 29.789,-1.373 59.527,-3.564 89.187,-6.663 54,-5.644 107.557,-14.071 160.497,-26.212 99.869,-22.903 194.896,-58.521 284.469,-108.455 38.691,-21.569 75.921,-45.423 111.775,-71.419 2.644,-1.917 4.251,-1.887 6.792,0.06 77.006,58.999 162.604,101.789 253.698,134.146 68.438,24.31 138.605,42.037 210.003,55.131 46.196,8.473 92.688,14.777 139.384,19.641 12.753,1.329 25.538,2.391 38.332,3.231 3.692,0.243 4.611,1.36 4.604,5.02 -0.125,59.823 -0.082,119.648 -0.115,179.472 -10e-4,1.907 1.036,4.401 -2.797,4.347 -21.515,-0.299 -39.376,8.639 -54.854,22.744 -14.813,13.502 -25.83,29.496 -29.813,49.601 -1.368,6.904 -1.323,6.915 5.438,6.914 132.813,-0.016 265.625,0.001 398.438,-0.177 4.978,-0.007 5.827,1.37 5.822,6.019 -0.127,173.64 -0.131,347.279 0.015,520.919 0,4.91 -1.281,5.905 -6.019,5.9 -122.813,-0.143 -245.628,-0.112 -368.44,-0.111 -6.378,0 -6.418,0.013 -4.577,6.084 4.733,15.616 14.504,27.552 27.53,36.939 19.645,14.158 42.021,21.066 65.746,24.258 8.593,1.155 17.23,1.294 25.916,1.108 0.549,1.912 -1.146,2.304 -1.989,3.051 -105.131,92.959 -213.784,181.464 -330.22,260.058 -65.257,44.046 -132.539,84.621 -204.464,117.031 -41.761,18.816 -84.695,33.934 -129.739,43.166 -36.104,7.4 -71.447,4.756 -106.802,-3.865 -54.247,-13.23 -105.189,-34.979 -154.835,-60.017 C 354.423,1054.221 283.09,1008.754 213.723,960.104 127.756,899.811 45.632,834.59 -34.106,766.326 c -11.389,-9.75 -22.668,-19.627 -33.992,-29.453 -0.096,-0.083 -0.111,-0.26 -0.405,-1.001 z"
   id="path2"
   inkscape:connector-curvature="0" />
	<path
   d="m 641.88,612.795 c -307.277,0 -614.554,0.003 -921.831,-0.015 -7.304,-10e-4 -6.666,1.193 -6.667,-6.622 -0.016,-139.309 0.014,-278.616 -0.116,-417.923 -0.005,-4.864 0.932,-6.37 6.184,-6.369 615.054,0.141 1230.108,0.139 1845.164,0.02 4.834,-0.001 6,1.179 5.995,6.001 -0.143,139.641 -0.152,279.283 0.028,418.923 0.01,5.389 -1.693,6.083 -6.429,6.081 -307.441,-0.106 -614.885,-0.096 -922.328,-0.096 z"
   id="path4"
   inkscape:connector-curvature="0"
   style="fill:#999999" />
	<path
   d="m 1248.59,-35.553 c 0,17.83 -0.097,35.66 0.079,53.486 0.036,3.688 -0.729,5.327 -4.694,6.482 -21.896,6.375 -38.686,20.405 -53.231,37.292 -15.063,17.487 -26.754,36.857 -31.456,59.882 -0.69,3.386 0.942,8.293 -1.803,9.826 -2.953,1.649 -7.444,0.597 -11.267,0.623 -6.664,0.045 -13.338,-0.189 -19.991,0.092 -3.666,0.155 -4.839,-0.711 -4.57,-4.638 3.098,-45.504 22.059,-82.394 59.012,-109.646 8.724,-6.434 17.806,-12.316 27.427,-17.296 2.745,-1.42 3.754,-3.03 3.735,-6.109 -0.104,-16.828 -0.031,-33.658 0.099,-50.485 0.021,-2.698 -0.212,-4.128 -3.604,-4.252 -120.555,-4.416 -235.867,-33.043 -347.938,-76.11 -73.35,-28.187 -143.586,-62.669 -209.114,-106.318 -2.131,-1.419 -3.684,-1.931 -6.172,-0.306 -83.163,54.339 -173.481,93.433 -267.301,124.972 -60.636,20.384 -122.457,36.192 -185.585,46.685 -35.84,5.958 -71.926,9.766 -108.249,11.005 -3.953,0.135 -5.369,0.911 -5.295,5.22 0.282,16.491 0.197,32.991 0.04,49.485 -0.029,3.064 0.932,4.655 3.62,6.181 47.949,27.219 74.065,68.832 80.74,123.132 1.025,8.339 0.888,8.355 -7.457,8.355 -8.498,0 -17.016,-0.348 -25.485,0.141 -4.5,0.26 -5.51,-1.583 -6.135,-5.388 C 119.19,97.465 106.581,72.092 85.395,51.151 73.832,39.721 60.748,30.269 46.595,22.355 c -3.41,-1.907 -4.439,-4.036 -4.428,-7.835 0.097,-33.991 0.06,-67.982 -0.201,-101.972 -0.031,-4.035 1.336,-5.095 4.931,-5.278 19.63,-0.994 39.184,-2.899 58.714,-5.104 53.473,-6.034 106.312,-15.642 158.592,-28.299 84.427,-20.439 166.474,-47.835 245.214,-84.734 46.823,-21.941 91.845,-46.986 133.143,-78.331 1.957,-1.485 3.262,-1.985 5.506,-0.188 43.607,34.916 92.47,60.864 143.319,83.297 70.953,31.303 144.602,54.582 219.841,73.012 51.424,12.596 103.374,22.474 155.811,29.739 25.56,3.541 51.198,6.508 76.953,8.249 3.708,0.25 4.72,1.402 4.684,5.052 -0.183,18.159 -0.084,36.323 -0.084,54.484 z"
   id="path6"
   inkscape:connector-curvature="0"
   style="fill:#999999" />
	<path
   d="m 1253.99,758.502 c -17.232,14.055 -33.814,27.695 -50.52,41.187 -68.945,55.681 -138.895,110.039 -212.384,159.672 -57.036,38.521 -115.863,73.924 -178.937,101.854 -48.884,21.646 -99.481,37.508 -152.282,46.457 -15.181,2.573 -29.448,-0.723 -43.898,-3.484 -76.921,-14.7 -148.241,-44.342 -216.583,-81.793 C 329.575,984.138 264.323,938.965 200.784,891.212 146.442,850.367 93.72,807.499 41.618,763.854 c -1.246,-1.044 -2.801,-1.85 -3.478,-3.694 18.641,-8.772 34.792,-20.829 48.014,-36.681 13.458,-16.136 22.231,-34.291 23.485,-55.567 0.15,-2.555 0.876,-3.433 3.488,-3.403 11.329,0.121 22.661,0.126 33.989,-0.002 2.931,-0.032 3.565,0.972 3.449,3.8 -1.535,37.438 -16.361,68.519 -44.507,93.182 -2.845,2.492 -3.025,3.566 -0.072,6.185 60.934,54.002 125.516,103.241 193.42,148.12 70.361,46.503 143.187,88.586 221.077,121.376 33.771,14.217 68.342,25.841 104.391,33.182 23.875,4.861 46.671,1.028 69.496,-4.937 43.345,-11.328 84.163,-29.135 124.094,-49.083 77.923,-38.929 151.123,-85.613 222.103,-135.898 50.174,-35.548 98.734,-73.188 145.785,-112.778 4.909,-4.132 4.893,-4.148 0.338,-8.386 -15.918,-14.805 -29.323,-31.333 -36.367,-52.331 -4.231,-12.613 -5.594,-25.638 -6.161,-38.818 -0.107,-2.479 0.437,-3.646 3.219,-3.604 9.996,0.146 19.993,0.123 29.99,0.094 1.96,-0.005 3.037,0.484 3.293,2.693 3.166,27.42 18.581,47.941 37.739,66.219 10.404,9.922 21.952,18.363 35.587,24.979 z"
   id="path8"
   inkscape:connector-curvature="0"
   style="fill:#999999" />
	<path
   d="m 518.483,927.374 c -4.534,-13.506 -9.118,-26.993 -13.592,-40.518 -9.448,-28.571 -18.526,-57.262 -27.124,-86.103 -0.284,-0.956 -0.641,-1.891 -0.94,-2.843 -0.391,-1.232 -1.396,-1.241 -2.408,-1.238 -1.377,0.004 -1.551,0.946 -1.555,2.014 -0.005,1.334 -0.011,2.668 -0.011,4 -0.001,54.152 -0.001,108.307 -0.001,162.459 0,1.784 0,3.567 0,5.762 -13.31,-3.788 -24.487,-10.54 -35.282,-18.064 -1.493,-1.04 -1.44,-2.479 -1.435,-3.989 0.014,-2.833 0.004,-5.665 0.004,-8.497 0,-89.978 0.043,-179.954 -0.116,-269.932 -0.01,-4.909 1.308,-6.256 6.089,-5.976 7.141,0.419 14.322,0.102 21.487,0.109 9.584,0.013 13.489,2.925 16.104,12.21 3.11,11.041 6.098,22.118 9.192,33.164 8.747,31.22 17.502,62.437 26.342,93.631 0.471,1.662 0.271,3.74 2.432,5.176 5.757,-20.952 11.611,-41.695 17.14,-62.524 6.826,-25.712 13.439,-51.481 19.982,-77.268 0.832,-3.279 2.025,-4.592 5.628,-4.488 9.989,0.285 19.999,0.313 29.986,-0.004 4.152,-0.131 4.874,1.384 4.855,5.116 -0.136,29.324 -0.074,58.65 -0.074,87.977 0,86.646 0,173.29 0,259.936 0,1.977 0,3.952 0,6.625 -12.679,-4.853 -24.741,-9.482 -36.82,-14.072 -1.118,-0.425 -1.535,-1.117 -1.52,-2.233 0.02,-1.333 -0.007,-2.665 -0.007,-3.998 -0.013,-59.984 -0.023,-119.97 -0.036,-179.954 0,-1.167 -0.027,-2.334 0.005,-3.5 0.048,-1.593 -0.014,-3.011 -2.151,-3.198 -2.058,-0.182 -2.432,1.155 -2.881,2.689 -2.957,10.048 -5.975,20.078 -8.959,30.118 -7.674,25.81 -15.342,51.623 -23.012,77.435 -0.438,-0.009 -0.88,-0.015 -1.322,-0.022 z"
   id="path10"
   inkscape:connector-curvature="0"
   style="fill:#999999" />
	<path
   d="m 615.762,845.957 c 0,-58.65 0.047,-117.303 -0.096,-175.953 -0.01,-4.247 0.801,-5.616 5.38,-5.569 24.991,0.26 49.986,0.079 74.979,0.137 23.798,0.055 37.628,13.613 37.735,37.481 0.198,43.488 0.126,86.978 0.141,130.466 0.002,6.356 -0.968,12.609 -2.471,18.772 -3.384,13.885 -13.048,21.077 -26.229,24.499 -12.772,3.317 -25.843,4.744 -38.916,6.118 -7.449,0.783 -7.455,0.714 -7.457,7.94 -0.012,45.488 -0.069,90.978 0.052,136.465 0.01,3.681 -1.106,5.814 -4.359,7.416 -5.107,2.517 -10.228,3.638 -15.917,2.351 -7.026,-1.59 -13.555,-4.47 -20.229,-7.015 -2.793,-1.063 -2.625,-2.964 -2.623,-5.154 0.019,-20.661 0.01,-41.323 0.01,-61.984 0,-38.656 0,-77.313 0,-115.97 z"
   id="path12"
   inkscape:connector-curvature="0"
   style="fill:#999999" />
	<path
   d="m 738.047,3.308 c -10e-4,-27.82 -0.002,-55.64 0,-83.46 0,-5.837 0.313,-11.657 1.525,-17.379 3.953,-18.653 15.3,-26.222 34.188,-23.019 7.577,1.285 14.955,3.294 22.097,6.039 21.875,8.409 43.71,16.925 65.509,25.533 6.975,2.754 13.587,6.259 19.542,10.918 9.126,7.141 13.875,16.514 13.893,28.036 0.071,48.144 0.036,96.287 -0.06,144.43 -0.009,4.141 -0.448,8.339 -1.212,12.412 -2.783,14.818 -9.883,21.779 -28.444,23.57 -30.69,2.96 -61.623,3.462 -92.249,-0.294 C 746.577,126.872 738.161,115.903 738.069,89.266 737.97,60.614 738.047,31.96 738.047,3.308 Z"
   id="path14"
   inkscape:connector-curvature="0"
   style="fill:#999999" />
	<path
   d="m 713.476,1018.469 c 2.044,-12.403 3.883,-23.703 5.771,-34.994 8.205,-49.061 16.429,-98.118 24.637,-147.18 7.797,-46.601 15.584,-93.202 23.373,-139.804 1.563,-9.354 3.2,-18.693 4.628,-28.066 0.424,-2.777 1.38,-3.974 4.428,-3.934 12.494,0.163 24.992,0.125 37.488,0.021 2.649,-0.021 3.667,0.766 4.172,3.528 9.621,52.693 19.371,105.365 27.918,158.247 6.345,39.255 12.422,78.552 18.704,117.814 0.584,3.646 0.09,6.009 -3.519,8.113 -9.498,5.544 -19.031,10.924 -29.292,14.969 -2.722,1.072 -3.826,1.251 -4.321,-2.296 -2.715,-19.444 -5.734,-38.846 -8.613,-58.268 -0.896,-6.04 -0.855,-6.104 -6.938,-4.7 -11.831,2.729 -23.532,5.919 -35.056,9.787 -3.208,1.076 -4.667,2.503 -5.183,6.1 -3.84,26.848 -7.992,53.649 -12.037,80.467 -0.309,2.044 -0.891,3.634 -3.088,4.652 -13.609,6.314 -27.866,10.743 -43.072,15.544 z"
   id="path16"
   inkscape:connector-curvature="0"
   style="fill:#999999" />
	<path
   d="m 554.725,11.655 c 0,26.485 0.002,52.97 -0.002,79.454 -10e-4,6.334 -0.473,12.612 -1.601,18.869 -1.918,10.642 -8.438,16.549 -18.65,18.976 -8.148,1.938 -16.467,2.616 -24.771,2.72 -21.482,0.269 -42.971,0.238 -64.455,0.172 -4.143,-0.013 -8.327,-0.467 -12.414,-1.169 -18.248,-3.137 -26.698,-12.39 -28.9,-31.63 -0.624,-5.45 -1.141,-10.949 -1.151,-16.427 -0.077,-40.976 -0.054,-81.95 0.056,-122.925 0.012,-4.473 0.556,-8.974 1.2,-13.411 1.511,-10.4 6.04,-19.418 15.397,-24.494 30.247,-16.402 60.684,-32.488 93.958,-42.178 4.164,-1.213 8.45,-1.771 12.81,-1.828 12.791,-0.168 19.792,4.639 23.9,16.904 3.803,11.349 4.449,23.207 4.548,35.016 0.233,27.316 0.075,54.634 0.075,81.951 z"
   id="path18"
   inkscape:connector-curvature="0"
   style="fill:#999999" />
	<path
   d="m 289.202,35.758 c 10.137,-24.779 19.885,-48.604 29.633,-72.43 0.945,-2.308 2.282,-4.534 2.779,-6.935 1.898,-9.184 7.68,-13.23 16.7,-14.575 9.687,-1.444 19.271,-3.718 28.786,-6.091 4.263,-1.063 5.309,-0.293 5.285,4.172 -0.179,33.159 -0.097,66.319 -0.097,99.48 0,29.328 -0.064,58.655 0.081,87.981 0.018,3.645 -0.784,4.875 -4.646,4.787 -11.658,-0.268 -23.332,-0.306 -34.987,0.015 -4.208,0.115 -4.827,-1.415 -4.812,-5.11 0.071,-17.821 0.71,-35.66 -1.01,-53.447 -0.446,-4.624 -0.891,-9.263 -3.536,-14.42 -12.751,22.678 -21.441,46.518 -33.089,69.961 -5.383,-10.812 -10.387,-21.131 -15.636,-31.324 -5.258,-10.208 -10.813,-20.259 -17.899,-29.482 -1.682,1.111 -0.875,2.744 -0.906,4.038 -0.443,18.322 -0.893,36.646 -1.096,54.971 -0.04,3.603 -0.86,4.889 -4.729,4.8 -12.158,-0.279 -24.327,-0.227 -36.489,-0.072 -3.066,0.039 -3.941,-0.821 -3.935,-3.91 0.09,-52.156 0.084,-104.312 0.009,-156.469 -0.004,-2.711 0.87,-3.656 3.506,-4.14 12.595,-2.316 25.173,-4.749 37.702,-7.401 3.364,-0.712 3.965,1.366 4.938,3.472 10.047,21.741 20.094,43.481 30.148,65.218 0.899,1.942 1.843,3.862 3.3,6.911 z"
   id="path20"
   inkscape:connector-curvature="0"
   style="fill:#999999" />
	<path
   d="m 909.933,794.688 c 0,40.789 -0.054,82.101 0.095,123.408 0.014,3.639 -1.001,5.633 -4.192,7.432 -11.836,6.663 -23.485,13.655 -35.269,20.563 -1.28,-1.929 -0.77,-3.614 -0.771,-5.183 -0.029,-90.295 0.002,-180.59 -0.117,-270.885 -0.006,-4.189 0.689,-5.802 5.348,-5.593 9.478,0.425 18.992,0.353 28.479,0.021 3.99,-0.142 5.354,1.385 6.309,4.974 9.188,34.555 17.262,69.373 25.188,104.23 0.482,2.121 -0.622,6.544 3.33,5.896 2.955,-0.484 1.345,-4.225 1.352,-6.416 0.112,-34.483 0.155,-68.971 -0.02,-103.454 -0.021,-4.146 0.995,-5.365 5.194,-5.228 9.818,0.325 19.656,0.238 29.481,0.03 3.34,-0.07 4.226,1.012 4.222,4.256 -0.078,68.47 -0.074,136.938 -0.002,205.41 0.003,2.669 -0.965,4.208 -3.044,5.72 -9.03,6.571 -18.596,12.291 -28.055,18.196 -3.596,2.244 -4.452,1.397 -5.538,-2.226 -9.634,-32.166 -18.916,-64.444 -30.081,-96.133 -0.696,-1.967 -1.485,-3.903 -1.909,-5.018 z"
   id="path22"
   inkscape:connector-curvature="0"
   style="fill:#999999" />
	<path
   d="m 620.716,-125.233 c -20.837,10.301 -40.898,20.22 -61.371,30.341 0,-13.998 0.352,-27.414 -0.153,-40.796 -0.237,-6.275 2.177,-9.21 7.559,-11.995 25.556,-13.226 51.212,-26.308 75.47,-41.879 1.702,-1.094 2.801,-0.854 4.397,0.131 26.536,16.338 54.731,29.522 82.641,43.243 3.32,1.633 4.537,3.426 4.431,7.132 -0.387,13.318 -0.568,26.65 -0.473,39.973 0.035,4.662 -1.371,4.39 -4.766,2.694 -17.556,-8.771 -35.196,-17.374 -52.811,-26.03 -1.625,-0.798 -3.269,-1.561 -5.717,-2.728 0,2.378 0,4.251 0,6.124 0,81.807 -0.035,163.613 0.097,245.42 0.008,4.418 -0.906,5.915 -5.62,5.777 -12.485,-0.364 -24.994,-0.352 -37.481,-0.009 -4.828,0.132 -6.355,-0.843 -6.344,-6.111 0.202,-81.472 0.142,-162.946 0.142,-244.419 -10e-4,-1.994 -10e-4,-3.989 -10e-4,-6.868 z"
   id="path24"
   inkscape:connector-curvature="0"
   style="fill:#999999" />
	<path
   d="m 418.742,797.234 c 0,32.991 0.008,65.984 -0.007,98.978 -0.003,7.042 -0.688,13.979 -3.859,20.418 -4.821,9.788 -12.228,13.085 -22.608,10.014 -6.281,-1.858 -11.957,-5.041 -17.371,-8.634 -16.784,-11.139 -33.433,-22.485 -50.276,-33.533 -15.257,-10.007 -21.995,-23.81 -21.833,-42.141 0.441,-50.151 0.171,-100.309 0.184,-150.464 0.004,-13.507 4.924,-20.097 17.928,-24.025 8.869,-2.681 18,-3.219 27.179,-3.187 14.813,0.051 29.672,-0.982 44.421,1.023 18.316,2.493 25.809,10.53 26.121,29.077 0.41,24.32 0.146,48.652 0.168,72.979 0.009,9.832 0.001,19.663 0.001,29.493 -0.018,0.002 -0.034,0.002 -0.048,0.002 z"
   id="path26"
   inkscape:connector-curvature="0"
   style="fill:#999999" />
	<path
   d="m 931.212,-62.692 c 17.615,3.592 35.047,7.06 52.439,10.716 23.743,4.994 47.502,9.838 70.807,16.821 15.428,4.623 23.921,14.671 27.8,29.646 4.783,18.462 4.988,36.864 -0.718,55.148 -1.846,5.917 -4.402,11.559 -9.927,15.118 -1.291,0.832 -1.555,1.348 -0.354,2.591 10.04,10.403 11.912,23.859 13.371,37.291 0.86,7.921 1.159,15.929 0.571,23.946 -0.211,2.873 -1.227,3.546 -3.903,3.517 -11.491,-0.123 -22.987,-0.159 -34.477,0.018 -3.2,0.049 -4.229,-0.793 -4.256,-4.122 -0.085,-9.815 -0.486,-19.637 -2.738,-29.264 -3.049,-13.038 -9.308,-18.39 -22.726,-18.679 -13.152,-0.284 -26.315,-0.029 -39.472,-0.219 -3.079,-0.045 -3.92,0.837 -3.885,3.919 0.165,14.655 -0.043,29.315 0.158,43.971 0.048,3.515 -0.918,4.476 -4.419,4.408 -11.489,-0.224 -22.986,-0.206 -34.478,-0.008 -3.336,0.059 -4.148,-0.999 -4.146,-4.22 0.088,-62.461 0.063,-124.923 0.076,-187.385 0.005,-0.976 0.167,-1.951 0.277,-3.213 z"
   id="path28"
   inkscape:connector-curvature="0"
   style="fill:#999999" />
	<path
   d="m 284.673,855.212 c -8.252,-4.148 -15.416,-8.904 -22.585,-13.609 -17.69,-11.611 -35.076,-23.617 -50.425,-38.353 -7.475,-7.172 -11.306,-15.002 -11.026,-25.932 0.722,-28.142 0.206,-56.313 0.176,-84.472 -0.019,-16.733 11.364,-28.231 28.104,-28.278 15.996,-0.044 31.992,-0.054 47.988,0.01 8.021,0.031 9.956,2.056 9.995,10.108 0.037,7.831 0.086,15.663 0.013,23.493 -0.057,5.978 -1.833,7.688 -7.789,7.704 -10.997,0.028 -21.994,0.008 -32.992,0.009 -6.472,0 -6.484,10e-4 -6.47,6.721 0.043,19.494 0.32,38.991 0.021,58.48 -0.1,6.558 2.472,11.143 7.202,15.052 5.672,4.688 12.019,8.355 18.252,12.202 5.523,3.408 11.006,6.881 16.515,10.314 1.572,0.979 3.056,1.884 3.047,4.145 -0.052,13.923 -0.026,27.843 -0.026,42.406 z"
   id="path30"
   inkscape:connector-curvature="0"
   style="fill:#999999" />
	<path
   d="m 1046.313,742.212 c 5.822,-21.302 11.614,-42.612 17.493,-63.898 1.229,-4.455 0.956,-10.332 4.282,-12.934 3.356,-2.624 8.989,-0.679 13.619,-0.79 5.495,-0.134 11.007,0.188 16.488,-0.104 3.951,-0.212 4.796,0.66 3.42,4.6 -7.357,21.054 -16.025,41.563 -25.16,61.889 -1.567,3.487 -2.803,7.177 -4.763,10.427 -8.031,13.314 -10.277,27.686 -9.33,43.02 0.677,10.953 0.19,21.981 0.174,32.978 0,1.758 0.563,3.702 -1.251,5.065 -11.402,8.574 -22.479,17.595 -34.407,25.546 -1.538,-1.705 -0.878,-3.436 -0.878,-4.978 -0.02,-20.99 -0.01,-41.98 0.104,-62.972 0.02,-3.553 -0.52,-6.896 -1.685,-10.25 -11.613,-33.445 -23.1,-66.938 -34.807,-100.351 -1.357,-3.875 -1.198,-5.125 3.353,-4.993 10.319,0.297 20.659,0.273 30.98,-0.005 3.554,-0.096 5,1.049 5.659,4.422 3.632,18.604 7.355,37.191 11.175,55.759 1.222,5.947 2.824,11.816 4.253,17.723 0.427,-0.053 0.854,-0.104 1.281,-0.154 z"
   id="path32"
   inkscape:connector-curvature="0"
   style="fill:#999999" />
	<path
   d="m 644.168,578.839 c -294.45,0 -588.901,0.003 -883.353,-0.016 -7.63,0 -6.628,1.051 -6.629,-6.579 -0.023,-115.98 0.015,-231.961 -0.125,-347.941 -0.005,-4.75 1.094,-6.103 5.971,-6.102 589.4,0.113 1178.804,0.113 1768.205,-0.004 4.872,-0.001 6.021,1.272 6.015,6.071 -0.141,116.147 -0.145,232.295 0.01,348.441 0.01,5.01 -1.154,6.257 -6.236,6.255 -294.62,-0.14 -589.237,-0.125 -883.856,-0.125 z"
   id="path34"
   inkscape:connector-curvature="0" />
	<path
   d="m 658.83,772.725 c 0,-21.467 0.096,-42.935 -0.092,-64.399 -0.032,-3.729 0.893,-4.926 4.668,-4.671 5.136,0.347 10.313,0.006 15.47,0.129 6.485,0.153 10.08,3.369 11.028,9.878 0.406,2.788 0.6,5.631 0.604,8.45 0.082,32.948 0.117,65.896 0.146,98.847 0.01,11.264 -3.239,15.651 -14.189,18.423 -4.49,1.137 -9.192,1.407 -13.749,2.319 -3.716,0.744 -3.945,-1.148 -3.934,-4.073 0.087,-21.635 0.048,-43.269 0.048,-64.903 z"
   id="path36"
   inkscape:connector-curvature="0" />
	<path
   d="m 783.525,8.833 c 0,-17.318 -0.066,-34.636 0.019,-51.955 0.084,-17.155 5.64,-21.6 22.278,-17.693 8.568,2.012 17.063,4.358 25.547,6.719 14.738,4.101 20.06,10.882 20.174,26.163 0.137,18.316 -0.012,36.634 -0.025,54.951 -0.01,14.154 0.069,28.31 -0.022,42.463 -0.091,14.027 -5.238,19.217 -19.328,19.49 -7.989,0.155 -15.984,0.094 -23.977,0.013 -16.419,-0.167 -23.89,-7.093 -24.273,-23.705 -0.436,-18.806 -0.102,-37.63 -0.102,-56.446 -0.097,0 -0.194,0 -0.291,0 z"
   id="path38"
   inkscape:connector-curvature="0" />
	<path
   d="m 796.112,758.722 c 3.028,6.511 3.568,12.809 4.54,18.933 4.085,25.781 6.815,51.743 10.025,77.642 0.349,2.807 -0.007,4.495 -3.154,5.512 -8.229,2.658 -16.53,4.986 -24.959,6.889 -2.158,0.486 -3.778,0.805 -3.317,-2.662 4.223,-31.796 7.973,-63.658 13.672,-95.241 0.636,-3.526 1.251,-7.117 3.193,-11.073 z"
   id="path40"
   inkscape:connector-curvature="0" />
	<path
   d="m 511.813,12.933 c 0,20.982 0.01,41.965 -0.004,62.947 -0.007,10.753 -2.147,13.02 -12.688,13.082 -13.987,0.083 -27.976,0.079 -41.962,0.032 -7.735,-0.025 -12.375,-4.146 -13.318,-11.887 -0.422,-3.462 -0.552,-6.975 -0.597,-10.466 -0.322,-24.974 -0.941,-49.953 0.667,-74.908 0.6,-9.3 1.492,-18.566 3.933,-27.622 1.277,-4.736 3.737,-8.338 8.103,-10.82 13.046,-7.418 26.196,-14.541 41.334,-16.727 9.996,-1.444 14.511,2.446 14.524,12.421 0.029,21.317 0.008,42.632 0.008,63.948 z"
   id="path42"
   inkscape:connector-curvature="0" />
	<path
   d="m 379.959,784.991 c 0,21.642 0.008,43.282 -0.008,64.925 -0.002,3.155 0.039,6.303 -0.888,9.402 -1.809,6.046 -5.562,8.452 -11.303,5.957 -7.917,-3.442 -15.532,-7.676 -22.02,-13.468 -4.87,-4.347 -6.556,-10.333 -6.563,-16.705 -0.045,-38.955 -0.063,-77.909 0.005,-116.862 0.017,-8.827 4.882,-13.608 14.494,-14.314 4.804,-0.353 9.653,-0.278 14.475,-0.135 7.902,0.235 11.507,3.719 11.712,11.783 0.259,10.147 0.12,20.308 0.13,30.462 0.014,12.983 0.004,25.97 0.004,38.955 -0.011,0 -0.024,0 -0.038,0 z"
   id="path44"
   inkscape:connector-curvature="0" />
	<path
   d="m 974.074,13.726 c 0,-6.162 0.105,-12.326 -0.048,-18.483 -0.07,-2.819 0.714,-3.821 3.7,-3.463 17.176,2.057 34.336,4.095 51.242,7.966 6.245,1.43 9.395,4.815 10.282,11.023 0.978,6.815 1.586,13.591 -0.494,20.268 -1.914,6.144 -5.059,8.341 -11.465,8.06 -16.301,-0.718 -32.594,-1.608 -48.896,-2.267 -3,-0.121 -4.055,-1.084 -3.957,-4.125 0.199,-6.32 0.06,-12.65 0.06,-18.976 -0.141,-0.002 -0.281,-0.003 -0.424,-0.003 z"
   id="path46"
   inkscape:connector-curvature="0" />
	<path
   d="m 1442.719,381.283 c -0.579,-38.144 -1.074,-76.289 -1.845,-114.43 -0.093,-4.596 1.067,-5.886 5.663,-5.718 9.982,0.363 19.997,0.342 29.982,0.005 4.315,-0.146 5.521,0.873 5.508,5.395 -0.171,64.98 -0.117,129.96 -0.117,194.938 0,21.827 -0.059,43.654 0.067,65.48 0.018,3.117 -0.599,4.251 -4.018,4.195 -13.326,-0.217 -26.66,-0.246 -39.983,0.018 -3.549,0.07 -4.396,-1.408 -4.932,-4.354 -5.049,-27.816 -10.144,-55.628 -15.313,-83.423 -3.313,-17.819 -6.769,-35.613 -10.183,-53.415 -0.212,-1.102 -0.64,-2.162 -1.327,-4.429 0,14.014 -0.071,26.789 0.015,39.563 0.229,33.984 0.479,67.97 0.88,101.953 0.04,3.322 -0.889,4.123 -4.1,4.071 -11.659,-0.188 -23.327,-0.221 -34.985,0.017 -3.495,0.069 -4.05,-1.186 -4.047,-4.282 0.071,-87.141 0.083,-174.278 -0.028,-261.417 0,-3.767 1.385,-4.303 4.63,-4.268 13.994,0.148 27.998,0.328 41.981,-0.086 4.68,-0.138 6.193,1.387 7.081,5.675 7.572,36.631 15.339,73.221 23.059,109.821 0.331,1.571 0.771,3.119 1.159,4.677 0.285,0.006 0.57,0.01 0.853,0.014 z"
   id="path48"
   inkscape:connector-curvature="0"
   style="fill:#fefefe" />
	<path
   d="m 62.662,399.719 c 0,-43.821 0.047,-87.643 -0.086,-131.464 -0.011,-3.645 0.747,-4.726 4.581,-4.694 19.826,0.161 39.655,-0.049 59.483,-0.075 23.665,-0.03 36.251,8.65 43.137,31.337 6.976,22.985 7.71,46.559 3.329,70.159 -2.11,11.365 -7.769,21.152 -15.541,29.678 -1.437,1.576 -2.743,2.685 -0.315,4.68 14.05,11.544 18.334,27.34 18.476,44.563 0.244,29.49 0.036,58.984 0.152,88.479 0.011,2.964 -0.999,3.583 -3.71,3.521 -7.161,-0.167 -14.329,-0.07 -21.494,-0.052 -4.105,0.013 -7.867,-1.24 -11.426,-3.132 -4.312,-2.288 -6.472,-5.643 -6.434,-10.841 0.171,-23.16 0.062,-46.322 0.036,-69.484 -0.002,-2.164 0.055,-4.352 -0.227,-6.486 -1.216,-9.188 -5.165,-13.084 -14.377,-14.389 -12.251,-1.732 -12.251,-1.732 -12.251,10.429 0,29.493 -0.128,58.987 0.13,88.479 0.042,4.771 -1.442,5.632 -5.764,5.519 -11.157,-0.295 -22.329,-0.235 -33.489,-0.021 -3.652,0.07 -5.025,-0.548 -5.007,-4.732 0.185,-43.822 0.114,-87.646 0.114,-131.471 0.229,-0.003 0.456,-0.003 0.683,-0.003 z"
   id="path50"
   inkscape:connector-curvature="0"
   style="fill:#fefefe" />
	<path
   d="m 992.026,397.382 c 0,-43.659 0.056,-87.317 -0.091,-130.976 -0.015,-4.075 0.956,-5.313 5.166,-5.262 19.328,0.232 38.659,0.039 57.989,0.117 27.632,0.112 44.943,16.962 45.582,44.652 0.338,14.656 0.124,29.326 0.127,43.989 0.01,45.659 -0.011,91.317 0.024,136.975 0,5.186 -0.219,10.335 -1.406,15.386 -4.139,17.586 -16.314,26.245 -33.153,29.643 -6.558,1.322 -13.212,1.688 -19.88,1.712 -16.496,0.062 -32.995,-0.07 -49.488,0.175 -3.922,0.059 -4.979,-0.957 -4.966,-4.934 0.152,-43.826 0.096,-87.651 0.096,-131.477 z"
   id="path52"
   inkscape:connector-curvature="0"
   style="fill:#fefefe" />
	<path
   d="m -191.242,399.127 c 0,-43.653 0.045,-87.306 -0.081,-130.958 -0.011,-3.784 0.753,-5.162 4.854,-5.028 9.986,0.324 19.997,0.316 29.983,0.008 4.373,-0.136 5.883,0.794 5.845,5.595 -0.246,31.154 -0.042,62.312 -0.226,93.467 -0.024,4.176 1.067,5.44 5.234,5.219 6.646,-0.351 13.335,-0.326 19.984,-0.002 3.718,0.182 4.695,-0.803 4.674,-4.609 -0.176,-31.156 0.035,-62.313 -0.236,-93.468 -0.043,-4.963 1.317,-5.995 5.996,-5.807 9.814,0.393 19.663,0.345 29.481,0.015 4.298,-0.146 5.543,0.849 5.532,5.395 -0.171,66.31 -0.118,132.622 -0.118,198.934 0,20.993 -0.139,41.987 0.114,62.979 0.052,4.333 -1.263,5.188 -5.29,5.077 -10.488,-0.292 -20.994,-0.258 -31.485,-0.011 -3.527,0.083 -4.367,-0.914 -4.354,-4.39 0.136,-34.821 0.005,-69.644 0.184,-104.464 0.021,-4.199 -1.119,-5.399 -5.236,-5.152 -5.977,0.358 -12.013,0.414 -17.981,-0.012 -4.666,-0.333 -6.118,0.8 -6.08,5.818 0.258,34.152 0.055,68.311 0.236,102.465 0.022,4.284 -0.816,5.738 -5.41,5.557 -10.147,-0.402 -20.329,-0.341 -30.481,-0.02 -4.137,0.131 -5.252,-0.972 -5.237,-5.151 0.158,-43.819 0.098,-87.638 0.098,-131.457 z"
   id="path54"
   inkscape:connector-curvature="0"
   style="fill:#fefefe" />
	<path
   d="m 581.762,399.346 c 0,-43.639 0.058,-87.279 -0.095,-130.918 -0.014,-3.93 1.005,-4.888 4.885,-4.86 20.651,0.143 41.306,-0.06 61.957,-0.081 23.896,-0.025 37.191,12.271 39.419,36.307 1.588,17.125 0.673,34.289 0.76,51.431 0.228,45.138 0.232,90.277 0.166,135.415 -0.035,24.306 -14.976,43.034 -37.916,47.797 -7.714,1.601 -15.604,0.994 -23.418,1.078 -13.654,0.146 -27.317,-0.075 -40.97,0.219 -4.017,0.087 -4.885,-1.119 -4.874,-4.967 0.137,-43.808 0.086,-87.614 0.086,-131.421 z"
   id="path56"
   inkscape:connector-curvature="0"
   style="fill:#fefefe" />
	<path
   d="m 1239.704,397.963 c 0,-31.646 -0.026,-63.294 0.026,-94.94 0.01,-5.017 1.094,-9.927 2.461,-14.729 4.839,-17.008 15.756,-27.639 33.143,-31.597 10.367,-2.359 20.866,-2.887 31.268,-1.403 22.456,3.205 36.369,17.52 40.178,40.231 1.078,6.438 1.41,12.914 1.415,19.403 0.038,56.804 0.123,113.607 -0.024,170.41 -0.063,24.426 -12.926,41.034 -34.483,50.276 -20.949,8.98 -41.152,5.557 -58.821,-9.12 -9.569,-7.949 -13.815,-18.957 -15.021,-31.103 -0.525,-5.287 -0.471,-10.646 -0.479,-15.973 -0.043,-27.151 -0.021,-54.304 -0.021,-81.457 0.118,0.002 0.238,0.002 0.358,0.002 z"
   id="path58"
   inkscape:connector-curvature="0"
   style="fill:#fefefe" />
	<path
   d="m 1223.636,326.829 c 0,8.664 -0.121,17.33 0.065,25.99 0.063,3.003 -0.681,4.052 -3.859,3.974 -11.157,-0.272 -22.32,-0.329 -33.479,-0.269 -2.872,0.015 -3.622,-0.938 -3.6,-3.727 0.104,-11.986 0.29,-23.989 -1.878,-35.863 -0.634,-3.464 -1.624,-6.807 -3.604,-9.749 -2.957,-4.392 -7.274,-5.479 -12.255,-4.811 -4.675,0.627 -7.317,3.408 -8.695,7.8 -7.182,22.912 2.04,51.602 21.239,65.729 5.896,4.338 11.837,8.621 17.829,12.822 17.105,11.994 26.666,28.285 28.722,49.14 1.981,20.114 3.485,40.218 -1.343,60.111 -6.407,26.408 -23.212,39.57 -50.427,40.032 -7.008,0.118 -13.98,-0.175 -20.896,-1.425 -19.67,-3.554 -28.761,-16.945 -32.579,-35.143 -4.132,-19.687 -4.231,-39.689 -4.404,-59.674 -0.093,-10.715 -0.019,-10.729 10.914,-10.691 8.662,0.028 17.327,0.258 25.985,0.065 3.383,-0.073 4.207,1.039 4.146,4.268 -0.235,12.657 -0.256,25.318 -0.245,37.979 0,3.656 0.121,7.35 0.629,10.963 1.093,7.77 6.131,12.201 13.784,12.517 7.148,0.293 11.395,-2.881 13.079,-10.95 3.069,-14.678 3.078,-29.405 -0.66,-44.031 -2.302,-9.007 -7.858,-15.655 -15.274,-20.888 -8.562,-6.042 -17.414,-11.685 -25.772,-17.987 -17.619,-13.287 -26.725,-30.872 -26.297,-53.257 0.341,-17.793 -0.967,-35.652 2.974,-53.249 5.673,-25.341 21.288,-38.552 47.232,-39.77 7.507,-0.352 14.995,-0.151 22.382,1.401 22.403,4.708 35.218,19.891 36.147,43.204 0.338,8.482 0.054,16.99 0.054,25.486 0.027,0.003 0.055,0.003 0.086,0.003 z"
   id="path60"
   inkscape:connector-curvature="0"
   style="fill:#fefefe" />
	<path
   d="m -9.99,263.664 c 9.328,0 18.657,0.088 27.983,-0.055 2.724,-0.042 3.667,0.749 3.978,3.564 6.861,61.865 13.893,123.709 20.757,185.572 2.845,25.642 5.269,51.33 8.146,76.968 0.54,4.808 -0.472,6.29 -5.516,6.045 -9.306,-0.451 -18.651,-0.223 -27.977,-0.072 -2.833,0.047 -4.081,-0.616 -4.448,-3.715 -2.253,-19 -4.813,-37.966 -7.064,-56.967 -0.441,-3.723 -1.78,-4.991 -5.589,-4.775 -6.143,0.35 -12.327,0.253 -18.482,0.031 -3.337,-0.12 -4.815,0.425 -5.218,4.374 -1.943,19.036 -4.426,38.019 -6.511,57.041 -0.327,2.986 -0.853,4.336 -4.286,4.257 -10.489,-0.243 -20.988,-0.205 -31.479,-0.017 -3.07,0.056 -3.485,-0.973 -3.189,-3.717 4.915,-45.506 9.868,-91.008 14.548,-136.538 4.29,-41.727 8.281,-83.484 12.357,-125.231 0.66,-6.755 0.55,-6.766 7.501,-6.766 8.165,10e-4 16.327,10e-4 24.489,10e-4 z"
   id="path62"
   inkscape:connector-curvature="0"
   style="fill:#fefefe" />
	<path
   d="m 800.328,533.212 c -5.164,10e-4 -10.331,-0.12 -15.489,0.051 -2.668,0.088 -3.628,-0.746 -4.151,-3.502 -3.61,-18.965 -6.013,-38.111 -8.79,-57.199 -0.568,-3.905 -1.784,-5.33 -5.858,-5.104 -6.642,0.369 -13.323,0.242 -19.979,0.035 -3.002,-0.093 -4.247,0.546 -4.618,3.885 -2.04,18.354 -4.438,36.669 -6.602,55.011 -0.803,6.811 -0.663,6.826 -7.544,6.826 -9.494,0 -18.989,-0.114 -28.479,0.063 -3.185,0.061 -3.708,-0.798 -3.416,-3.97 5.165,-56.19 12.913,-112.065 20.217,-167.998 4.158,-31.842 8.293,-63.693 11.318,-95.669 0.307,-3.229 1.222,-4.529 4.789,-4.484 16.652,0.205 33.312,0.203 49.965,-10e-4 3.474,-0.043 4.514,1.214 4.893,4.361 3.024,25.109 6.156,50.206 9.262,75.305 4.105,33.19 8.2,66.382 12.33,99.569 3.722,29.885 7.455,59.767 11.283,89.638 0.309,2.403 -0.043,3.305 -2.643,3.23 -5.493,-0.155 -10.992,-0.047 -16.488,-0.047 z"
   id="path64"
   inkscape:connector-curvature="0"
   style="fill:#fefefe" />
	<path
   d="m 866.143,416.65 c 1.231,-10.34 2.428,-20.685 3.701,-31.02 4.988,-40.472 10.024,-80.936 14.947,-121.416 0.295,-2.422 1.262,-3.015 3.474,-3.001 11.329,0.07 22.659,0.097 33.988,-0.015 2.69,-0.026 3.307,0.63 2.906,3.426 -3.354,23.391 -6.494,46.812 -9.742,70.217 -4.851,34.942 -9.742,69.878 -14.603,104.818 -4.128,29.667 -8.305,59.329 -12.268,89.018 -0.512,3.831 -2.026,4.694 -5.646,4.621 -11.658,-0.233 -23.323,-0.144 -34.986,-0.044 -2.575,0.022 -3.746,-0.515 -4.128,-3.438 -7.627,-58.417 -15.363,-116.818 -23.123,-175.217 -3.837,-28.869 -7.771,-57.726 -11.65,-86.59 -0.907,-6.761 -0.888,-6.764 5.729,-6.764 9.996,0 19.999,0.203 29.985,-0.101 3.976,-0.121 4.862,1.188 5.229,4.97 4.835,49.879 9.877,99.738 14.879,149.601 0.031,0.312 0.237,0.606 0.362,0.909 0.315,0.011 0.63,0.021 0.946,0.026 z"
   id="path66"
   inkscape:connector-curvature="0"
   style="fill:#fefefe" />
	<path
   d="m 284.699,399.679 c 0,-43.658 0.064,-87.316 -0.104,-130.975 -0.016,-4.154 0.972,-5.185 5.14,-5.147 24.828,0.217 49.657,0.212 74.484,0.002 4.038,-0.035 4.883,1.157 4.798,4.94 -0.25,11.159 -0.29,22.332 0.021,33.488 0.107,3.936 -1.17,4.649 -4.759,4.569 -10.493,-0.236 -20.997,0.052 -31.49,-0.159 -3.615,-0.072 -5.096,0.51 -5.034,4.71 0.273,18.159 0.209,36.326 0.035,54.487 -0.032,3.379 0.626,4.528 4.265,4.438 10.825,-0.271 21.661,0.003 32.49,-0.159 3.06,-0.046 4.349,0.47 4.29,3.991 -0.226,13.328 -0.195,26.662 -0.014,39.99 0.043,3.196 -1.016,3.897 -3.997,3.854 -10.996,-0.16 -21.995,0.012 -32.992,-0.116 -2.751,-0.03 -4.079,0.23 -4.051,3.635 0.179,21.662 0.175,43.326 0.003,64.987 -0.027,3.325 1.145,3.736 3.996,3.697 10.996,-0.15 21.996,0.024 32.992,-0.121 2.756,-0.037 3.677,0.629 3.64,3.541 -0.163,12.663 -0.2,25.33 0.013,37.99 0.062,3.597 -1.131,4.397 -4.528,4.381 -24.828,-0.134 -49.658,-0.188 -74.485,0.039 -4.205,0.039 -4.791,-1.419 -4.782,-5.087 0.108,-43.658 0.069,-87.316 0.069,-130.975 z"
   id="path68"
   inkscape:connector-curvature="0"
   style="fill:#fefefe" />
	<path
   d="m 434.915,349.866 c 3.352,-8.197 5.06,-16.754 6.904,-25.26 4.118,-18.999 7.299,-38.198 12.541,-56.96 0.902,-3.234 2.23,-4.117 5.425,-4.055 10.158,0.198 20.334,0.369 30.479,-0.056 4.834,-0.202 5.281,1.253 4.409,5.475 -7.638,36.958 -17.167,73.438 -27.321,109.765 -3.8,13.598 -7.544,27.209 -11.346,40.808 -0.813,2.903 -1.16,5.816 -1.153,8.847 0.076,33.316 0.019,66.636 0.186,99.951 0.02,3.771 -0.743,5.063 -4.792,4.94 -10.652,-0.319 -21.324,-0.266 -31.979,-0.021 -3.592,0.083 -4.354,-1.065 -4.343,-4.474 0.113,-32.983 -0.07,-65.969 0.103,-98.952 0.058,-11.241 -4.052,-21.485 -6.749,-32.046 -11.021,-43.134 -23.33,-85.941 -32.514,-129.542 -0.752,-3.574 -0.694,-4.833 3.558,-4.733 11.318,0.265 22.652,0.087 33.976,-0.14 3.137,-0.063 4.17,0.919 4.741,4.064 4.994,27.604 9.893,55.237 17.875,82.389 z"
   id="path70"
   inkscape:connector-curvature="0"
   style="fill:#fefefe" />
	<path
   d="m 191.476,398.838 c 0,-43.468 0.059,-86.937 -0.099,-130.405 -0.015,-4 1.108,-4.946 4.95,-4.86 11.32,0.254 22.655,0.316 33.969,-0.026 4.187,-0.127 4.725,1.368 4.72,5.01 -0.098,71.947 -0.033,143.896 -0.168,215.842 -0.008,4.35 0.792,5.928 5.538,5.739 10.476,-0.413 20.98,-0.013 31.469,-0.198 3.089,-0.056 3.958,0.825 3.916,3.915 -0.171,12.654 -0.178,25.314 0.003,37.97 0.046,3.183 -1.004,3.88 -3.994,3.867 -25.481,-0.107 -50.964,-0.179 -76.443,0.049 -4.397,0.039 -3.875,-2.279 -3.874,-4.998 0.018,-43.969 0.013,-87.936 0.013,-131.905 z"
   id="path72"
   inkscape:connector-curvature="0"
   style="fill:#fefefe" />
	<path
   d="m 974.264,397.958 c 0,43.471 -0.076,86.943 0.113,130.415 0.02,4.479 -1.146,5.582 -5.514,5.437 -10.315,-0.344 -20.656,-0.325 -30.975,-0.004 -4.107,0.129 -4.877,-1.234 -4.872,-5.036 0.104,-81.947 0.08,-163.896 0.08,-245.845 0,-6.163 0.08,-12.327 -0.04,-18.488 -0.046,-2.33 0.656,-3.248 3.1,-3.229 11.658,0.091 23.317,0.079 34.977,0.006 2.117,-0.014 3.037,0.629 2.926,2.833 -0.117,2.325 0.031,4.662 0.031,6.994 0.004,42.306 0.003,84.612 0.003,126.918 0.055,-10e-4 0.114,-10e-4 0.171,-10e-4 z"
   id="path74"
   inkscape:connector-curvature="0"
   style="fill:#fefefe" />
	<path
   d="m 526.483,383.822 c 11.14,0 22.28,0.097 33.418,-0.065 2.941,-0.042 4.036,0.561 3.947,3.787 -0.243,8.805 -0.179,17.623 -0.027,26.433 0.047,2.734 -0.634,3.744 -3.563,3.73 -22.611,-0.111 -45.224,-0.109 -67.836,0 -2.846,0.016 -3.656,-0.811 -3.603,-3.628 0.168,-8.976 0.207,-17.959 -0.018,-26.932 -0.078,-3.119 1.185,-3.405 3.764,-3.377 11.306,0.121 22.612,0.052 33.918,0.052 z"
   id="path76"
   inkscape:connector-curvature="0"
   style="fill:#fefefe" />
	<path
   d="m 105.822,342.904 c 0,-10.827 0.073,-21.653 -0.053,-32.479 -0.031,-2.635 0.396,-4.037 3.455,-3.667 3.459,0.419 7.006,0.223 10.43,0.799 7.742,1.302 11.046,4.911 11.133,12.862 0.17,15.32 0.189,30.65 -0.185,45.965 -0.237,9.727 -3.593,12.515 -13.28,12.516 -11.501,0.002 -11.501,0.002 -11.501,-11.51 0.001,-8.163 0.001,-16.324 0.001,-24.486 z"
   id="path78"
   inkscape:connector-curvature="0" />
	<path
   d="m 1035.54,397.426 c 0,-29.308 0.056,-58.617 -0.072,-87.924 -0.016,-3.613 0.505,-5.091 4.714,-5.046 18.372,0.199 22.427,4.106 22.419,22.649 -0.018,48.625 -0.04,97.25 -0.063,145.875 -0.01,14.15 -1.93,16.164 -15.923,16.736 -11.073,0.452 -11.073,0.452 -11.073,-10.358 0,-27.311 0,-54.622 0,-81.932 z"
   id="path80"
   inkscape:connector-curvature="0" />
	<path
   d="m 622.864,397.404 c 0,-29.322 0.103,-58.646 -0.113,-87.967 -0.031,-4.286 1.514,-5.57 5.308,-5.416 2.161,0.088 4.359,-0.125 6.48,0.196 8.759,1.327 12.458,5.605 12.517,14.474 0.122,18.659 0.178,37.318 0.246,55.977 0.123,32.984 0.227,65.971 0.368,98.958 0.013,2.849 -0.072,5.679 -0.904,8.409 -1.517,4.978 -5.087,7.646 -10.293,7.848 -13.577,0.523 -13.577,0.523 -13.577,-13.007 0,-26.49 0,-52.98 0,-79.471 -0.011,-10e-4 -0.021,-10e-4 -0.032,-10e-4 z"
   id="path82"
   inkscape:connector-curvature="0" />
	<path
   d="m 1306.748,397.339 c 0,26.639 -0.018,53.279 0.021,79.917 0,3.354 -0.156,6.67 -1.174,9.868 -2.677,8.422 -10.835,11.427 -18.324,6.582 -7.153,-4.627 -9.267,-11.792 -9.28,-19.852 -0.047,-24.975 -0.119,-49.947 -0.135,-74.92 -0.019,-28.136 -0.06,-56.274 0.063,-84.411 0.049,-11.253 10.137,-17.834 20.425,-13.512 6.11,2.567 8.457,7.43 8.438,13.914 -0.081,27.472 -0.034,54.943 -0.034,82.414 z"
   id="path84"
   inkscape:connector-curvature="0" />
	<path
   d="m -10.234,327.943 c 4.444,28.107 6.752,56.444 9.281,84.761 0.317,3.556 -0.568,4.407 -4.099,4.36 -11.314,-0.15 -11.422,0 -10.875,-11.343 1.282,-26.584 2.675,-53.163 4.023,-79.744 1.917,-0.499 0.984,1.421 1.67,1.966 z"
   id="path86"
   inkscape:connector-curvature="0" />
	<path
   d="m -10.234,327.943 c -0.557,-0.655 -1.113,-1.31 -1.67,-1.964 -0.194,-1.224 -0.487,-2.457 0.393,-3.756 0.902,1.902 1.531,3.706 1.277,5.72 z"
   id="path88"
   inkscape:connector-curvature="0"
   style="fill:#3c3c3c" />
	<path
   d="m 756.759,324.992 c 4.642,28.816 6.132,57.923 8.138,86.988 0.296,4.279 -0.868,5.59 -5.009,5.055 -2.622,-0.339 -5.376,-0.398 -7.978,0.01 -4.836,0.758 -5.237,-1.363 -4.83,-5.493 2.775,-28.167 5.313,-56.358 7.929,-84.541 0.707,-0.566 -0.26,-2.582 1.75,-2.019 z"
   id="path90"
   inkscape:connector-curvature="0" />
	<path
   d="m 756.759,324.992 c -1.247,0.097 -0.96,1.524 -1.75,2.019 -0.046,-0.958 -0.211,-1.929 -0.101,-2.869 0.094,-0.801 -0.097,-2.33 1.366,-1.778 0.927,0.349 0.727,1.657 0.485,2.628 z"
   id="path92"
   inkscape:connector-curvature="0"
   style="fill:#828282" />
</g>
</svg>