<?xml version="1.0" encoding="utf-8"?>
<!-- Generator: Adobe Illustrator 16.0.3, SVG Export Plug-In . SVG Version: 6.00 Build 0)  -->
<!DOCTYPE svg PUBLIC "-//W3C//DTD SVG 1.1//EN" "http://www.w3.org/Graphics/SVG/1.1/DTD/svg11.dtd">
<svg version="1.1"
	 id="Layer_1" xmlns:dc="http://purl.org/dc/elements/1.1/" xmlns:cc="http://creativecommons.org/ns#" xmlns:rdf="http://www.w3.org/1999/02/22-rdf-syntax-ns#" xmlns:svg="http://www.w3.org/2000/svg" xmlns:sodipodi="http://sodipodi.sourceforge.net/DTD/sodipodi-0.dtd" xmlns:inkscape="http://www.inkscape.org/namespaces/inkscape" inkscape:version="0.92.3 (2405546, 2018-03-11)" sodipodi:docname="Premium Care.svg"
	 xmlns="http://www.w3.org/2000/svg" xmlns:xlink="http://www.w3.org/1999/xlink" x="0px" y="0px" width="1623.482px"
	 height="777.343px" viewBox="0 0 1623.482 777.343" enable-background="new 0 0 1623.482 777.343" xml:space="preserve">
<sodipodi:namedview  inkscape:cy="389.34309" inkscape:cx="811.002" inkscape:zoom="0.221875" fit-margin-left="0" fit-margin-top="0" showgrid="false" guidetolerance="10" gridtolerance="10" objecttolerance="10" borderopacity="1" pagecolor="#ffffff" bordercolor="#666666" id="namedview61" inkscape:current-layer="Layer_1" inkscape:window-maximized="0" inkscape:window-y="0" inkscape:window-x="0" fit-margin-bottom="0" fit-margin-right="0" inkscape:window-height="480" inkscape:window-width="640" inkscape:pageshadow="2" inkscape:pageopacity="0">
	</sodipodi:namedview>
<g>
	<path id="path2" inkscape:connector-curvature="0" fill="#969696" d="M0.002,302.069c11.14,0.015,11.14,0.015,11.14,11.12
		c0,13.28,0,26.562,0,41.448c22.594-40.287,56.624-58.21,100.676-57.468c31.449,0.529,58.262,12.042,79.655,35.656
		c41.323,45.611,34.679,122.573-13.439,160.743C128.6,532.779,40.534,521.128,11.141,458.423c0,2.436,0,4.002,0,5.57
		c0,41.508,0.019,83.016-0.017,124.521c-0.006,7.643,0.962,6.488-6.623,6.611c-1.5,0.023-3,0.006-4.501,0.008
		C0.002,497.447,0.002,399.757,0.002,302.069z"/>
	<path id="path4" inkscape:connector-curvature="0" fill="#929292" d="M946.218,0c-11.713,10.618-12.173,29.556-0.443,42.03
		c-8.592,0.045-16.689,0.88-24.646-0.419c-8.38-1.368-15.16-9.137-16.01-17.071c-1.126-10.523,3.103-18.622,11.753-22.664
		c1.146-0.535,2.68-0.455,3.34-1.876C928.881,0,937.549,0,946.218,0z"/>
	<path id="path6" inkscape:connector-curvature="0" fill="#929292" d="M1056.241,0c12.786,5.877,17.187,12.334,16.145,23.696
		c-0.888,9.66-8.941,17.739-18.639,18.293c-5.633,0.321-11.295,0.111-16.942,0.137c-1.482,0.007-2.967,0.001-5.343,0.001
		c6.652-6.167,8.773-13.381,8.662-21.429c-0.11-8.132-2.197-15.399-8.889-20.698C1039.571,0,1047.906,0,1056.241,0z"/>
	<path id="path8" inkscape:connector-curvature="0" fill="#969696" d="M766.935,347.347c4.063-10.564,9.364-19.292,16.813-26.646
		c18.973-18.729,42.16-25.285,68.118-23.241c19.732,1.554,37.312,8.261,50.8,23.495c12.075,13.636,17.146,30.195,19.549,47.787
		c1.626,11.901,1.893,23.886,1.875,35.886c-0.052,33.668-0.118,67.338,0.097,101.006c0.03,4.688-1.354,5.672-5.813,5.809
		c-4.959,0.146-5.606-1.795-5.592-6.037c0.139-36.17,0.233-72.34-0.001-108.51c-0.087-13.461-0.903-26.895-4.374-40.082
		c-7.913-30.066-27.601-46.496-58.619-48.946c-14.849-1.173-29.004,1.115-42.019,8.173c-22.304,12.096-32.639,31.854-34.573,56.573
		c-0.769,9.808-0.678,19.638-0.674,29.466c0.018,34.836-0.115,69.672,0.133,104.506c0.039,5.537-3.039,4.547-6.313,4.721
		c-3.463,0.186-5.294-0.213-5.273-4.646c0.188-42.5,0.196-85.002,0.059-127.501c-0.038-11.911-2.055-23.587-7.258-34.425
		c-10.972-22.847-30-33.858-54.537-36.647c-21.084-2.396-39.682,2.993-54.915,18.021c-13.75,13.567-20.229,30.583-22.311,49.537
		c-0.984,8.972-0.967,17.956-0.966,26.951c0.003,34.668-0.106,69.338,0.124,104.006c0.033,4.914-2.301,4.688-5.723,4.734
		c-3.571,0.053-5.665-0.059-5.651-4.844c0.173-66.504,0.193-133.01-0.029-199.513c-0.019-5.313,2.51-4.788,5.99-4.994
		c3.899-0.231,5.571,0.528,5.41,5.022c-0.375,10.418-0.119,20.858-0.119,32.918c17.064-30.75,42.549-43.891,75.656-42.74
		C730.15,298.341,755.225,316.155,766.935,347.347L766.935,347.347z"/>
	<path id="path10" inkscape:connector-curvature="0" fill="#969696" d="M1320.299,338.227
		c17.919-30.351,44.637-43.461,78.889-40.746c31.921,2.53,54.998,18.264,66.718,48.946c1.479-0.553,1.362-2.126,1.885-3.281
		c11.848-26.238,32.771-40.493,60.573-44.972c18.654-3.004,36.914-0.835,53.977,7.787c21.096,10.661,31.799,28.974,37.005,51.228
		c2.824,12.075,3.714,24.38,3.797,36.678c0.25,37.334,0.109,74.67,0.03,112.008c0,1.758,1.306,4.539-1.421,5.137
		c-2.855,0.625-6.112,0.973-8.827-0.262c-1.813-0.824-0.867-3.342-0.869-5.084c-0.045-36.002,0.146-72.008-0.108-108.008
		c-0.127-17.998-1.103-35.983-8.521-52.857c-10.012-22.768-27.778-34.456-52.242-36.786c-18.73-1.785-36.363,1.45-51.683,12.612
		c-17.521,12.77-26.097,30.794-27.096,52.237c-1.659,35.637-0.368,71.309-0.704,106.963c-0.086,9.168-0.231,18.342,0.068,27.5
		c0.176,5.279-3.34,3.813-6.018,3.885c-2.625,0.07-5.536,1.066-5.512-3.799c0.199-38.336,0.08-76.67,0.208-115.006
		c0.04-12.188-0.162-24.324-3.248-36.204c-7.088-27.297-30.323-45.338-58.962-48.316c-40.741-4.236-69.593,23.811-75.869,60.118
		c-1.448,8.387-2.094,16.835-2.086,25.352c0.034,37.671-0.075,75.339,0.132,113.009c0.025,4.568-1.692,5.092-5.484,4.988
		c-3.688-0.1-5.924-0.006-5.907-5.125c0.211-66.338,0.132-132.676,0.187-199.015c0-1.667-1.086-4.327,1.11-4.846
		c2.99-0.706,6.331-0.904,9.316,0.196c1.291,0.476,0.635,2.423,0.64,3.698C1320.316,316.917,1320.299,327.572,1320.299,338.227
		L1320.299,338.227z"/>
	<path id="path12" inkscape:connector-curvature="0" fill="#969696" d="M559.221,450.966c-5.206,12.449-12.042,23.17-21.021,32.426
		c-26.364,27.174-58.999,36.301-95.753,31.934c-36.098-4.291-64.075-21.975-81.463-54.162
		c-31.668-58.629-7.536-140.7,67.735-160.424c49.237-12.902,99.908,7.55,124.612,50.119c9.115,15.707,13.534,32.807,14.183,50.938
		c0.162,4.531-0.751,6.475-6.211,6.453c-65.497-0.248-130.995-0.09-196.493-0.295c-5.129-0.016-5.954,1.563-5.645,6.129
		c3.283,48.275,39.475,85.869,87.961,91.162c41.758,4.561,78.17-14.402,98.057-51.176c1.165-2.154,2.345-3.355,4.938-3.152
		C552.919,451.134,555.746,450.966,559.221,450.966L559.221,450.966z"/>
	<path id="path14" inkscape:connector-curvature="0" fill="#929292" d="M1348.606,711.167c-12.416,27.635-31.2,47.813-58.885,57.814
		c-40.234,14.537-78.736,10.646-113.314-15.842c-20.637-15.807-32.887-37.381-37.598-62.896
		c-6.022-32.629-0.492-63.127,19.809-89.82c20.435-26.871,48.136-40.785,81.843-42.5c33.345-1.695,62.492,8.484,86.065,32.361
		c19.287,19.531,28.828,43.604,29.904,71c0.28,7.143,0.129,7.15-6.793,7.15c-65.154,0-130.31,0.053-195.463-0.104
		c-4.774-0.012-6.147,1.033-5.919,6.031c2.001,43.566,33.136,80.209,77.888,89.623c33.934,7.139,64.433-0.863,90.146-24.672
		c6.99-6.473,12.726-14.17,16.896-22.762c2.151-4.434,4.896-6.23,9.655-5.432C1344.44,711.394,1346.129,711.167,1348.606,711.167
		L1348.606,711.167z"/>
	<path id="path16" inkscape:connector-curvature="0" fill="#929292" d="M983.231,614.914c0-15.629,0.146-31.262-0.097-46.887
		c-0.063-4.158,1.101-5.535,5.271-5.287c3.563,0.215,6.079-0.131,6.063,5.057c-0.188,66.168-0.185,132.336-0.004,198.504
		c0.013,4.887-1.953,5.236-5.856,5.279c-3.873,0.041-5.573-0.623-5.488-5.094c0.287-15.146,0.109-30.299-0.285-45.814
		c-15.18,27.102-37.287,45.301-67.51,52.588c-29.727,7.17-58.634,4.686-85.6-10.426c-39.1-21.912-60.901-66.813-52.208-116.646
		c8.321-47.701,44.238-81.723,93.136-87.701C922.503,552.148,966.337,578.455,983.231,614.914L983.231,614.914z"/>
	<path id="path18" inkscape:connector-curvature="0" fill="#969696" d="M968.364,250.947c3.136-11.681-2.731-18.63-11.642-25.29
		c-14.123-10.556-27.36-22.295-40.996-33.508c-4.408-3.625-7.064-8.093-6.016-13.907c2.105-11.659,14.301-15.834,23.845-8.134
		c10.107,8.155,20.037,16.534,30.057,24.802c6.678,5.513,13.497,10.863,20.013,16.561c3.488,3.05,6.179,3.359,9.93,0.204
		c16.439-13.824,33.108-27.376,49.672-41.057c4.685-3.869,9.817-5.654,15.738-3.423c5.344,2.014,8.196,6.152,8.843,11.708
		c0.657,5.649-1.96,9.852-6.229,13.352c-16.1,13.196-32.071,26.549-48.252,39.646c-2.979,2.412-4.515,4.748-4.333,8.729
		c0.341,7.483,0.169,14.993,0.081,22.49c-0.139,11.842-9.016,20.844-20.394,20.803c-11.293-0.041-20.161-9.183-20.31-20.979
		C968.322,258.946,968.364,254.946,968.364,250.947L968.364,250.947z"/>
	<path id="path20" inkscape:connector-curvature="0" fill="#929292" d="M642.292,557.609c45.553,2.055,80.219,21.285,100.041,63.848
		c4.314,9.264,3.797,9.84-6.391,9.027c-2.259-0.182-3.124-1.223-3.851-3.127c-14.955-39.242-55.252-62.305-98.743-59.07
		c-42.762,3.18-82.858,34.211-89.28,83.938c-4.416,34.195,4.338,64.303,29.962,88.057c22.833,21.164,50.373,28.938,81.203,25.098
		c22.578-2.811,42.075-12.121,58.156-28.248c7.828-7.852,14.03-16.885,18.063-27.311c1.273-3.289,9.991-5.85,12.736-3.646
		c1.806,1.447,0.052,3.104-0.476,4.428c-5.873,14.791-14.682,27.568-26.53,38.24c-17.563,15.816-38.421,24.359-61.611,27.119
		c-27.902,3.32-54.187-1.938-77.548-17.949c-30.188-20.689-44.905-50.051-46.163-86.352c-1.036-29.91,7.65-56.494,27.825-78.928
		c16.794-18.678,37.932-29.396,62.538-33.615C628.823,557.986,635.469,557.761,642.292,557.609L642.292,557.609z"/>
	<path id="path22" inkscape:connector-curvature="0" fill="#969696" d="M1237.147,468.896
		c-17.691,34.26-46.514,46.547-81.899,47.373c-15.125,0.355-29.916-1.377-44.146-6.738c-30.221-11.393-45.914-34.398-51.835-65.125
		c-2.053-10.654-2.855-21.445-2.868-32.283c-0.04-34.501,0.025-69.002-0.065-103.503c-0.013-4.2-0.188-6.991,5.789-6.81
		c5.475,0.165,5.558,2.452,5.543,6.589c-0.118,35.001-0.188,70.003-0.007,105.004c0.068,13.502,1.47,26.896,5.521,39.902
		c7.976,25.588,24.758,42.08,50.688,48.992c21.673,5.777,43.311,5.256,64.341-2.52c27.15-10.041,41.945-30.531,47.036-58.518
		c1.521-8.369,1.939-16.848,1.928-25.361c-0.06-36.167-0.038-72.336,0.016-108.504c0-1.716-0.995-4.507,0.946-4.961
		c2.979-0.696,6.355-0.594,9.36,0.079c1.576,0.354,0.755,2.983,0.757,4.57c0.047,24.167,0.032,48.335,0.031,72.501
		c0,42.168-0.099,84.336,0.135,126.504c0.026,4.84-1.757,5.242-5.721,5.299c-4.137,0.063-5.824-0.688-5.678-5.387
		C1237.398,494.052,1237.147,482.083,1237.147,468.896L1237.147,468.896z"/>
	<path id="path24" inkscape:connector-curvature="0" fill="#979797" d="M278.062,338.941c14.062-26.226,36.105-38.794,64.766-41.07
		c0.498-0.039,0.996-0.088,1.492-0.148c6.889-0.834,8.829,1.585,7.108,8.498c-0.635,2.552-2.463,1.76-3.939,1.821
		c-11.836,0.49-23.06,3.223-33.309,9.281c-19.526,11.542-29.809,29.34-34.049,51.072c-1.5,7.688-2.089,15.485-2.083,23.333
		c0.032,38.148-0.104,76.301,0.157,114.447c0.033,5.012-2.018,5.127-5.813,5.188c-3.976,0.063-5.813-0.455-5.801-5.285
		c0.179-66.303,0.202-132.607-0.026-198.91c-0.019-5.599,2.685-4.971,6.348-5.206c4.13-0.264,5.38,0.958,5.254,5.177
		C277.852,317.732,278.062,328.34,278.062,338.941L278.062,338.941z"/>
	<path id="path26" inkscape:connector-curvature="0" fill="#939393" d="M1067.124,600.71c4.683-8.029,8.752-14.59,14.153-20.254
		c11.924-12.5,26.839-18.729,43.558-21.299c3.771-0.578,7.609-0.73,11.406-1.178c2.728-0.32,4.852,0.115,4.254,3.51
		c-0.459,2.604,2.142,6.65-3.521,6.994c-7.802,0.469-15.549,1.494-22.954,4.301c-25.854,9.785-39.243,29.588-44.729,55.688
		c-1.961,9.328-2.181,18.822-2.175,28.324c0.022,36.496-0.061,72.99,0.104,109.484c0.02,4.215-1.202,5.486-5.337,5.287
		c-3.653-0.18-6.06-0.025-6.045-5.133c0.183-66.156,0.179-132.314,0.003-198.475c-0.014-4.959,2.134-5.143,5.948-5.234
		c3.984-0.098,5.571,0.84,5.438,5.201C1066.908,578.335,1067.124,588.757,1067.124,600.71L1067.124,600.71z"/>
	<path id="path28" inkscape:connector-curvature="0" fill="#969696" d="M915.991,162.488c-5.329,2.693-8.726,6.671-11.023,12.161
		c-8.471-6.864-15.963-14.27-22.94-22.22c-15.729-17.917-28.012-37.71-32.284-61.561c-4.51-25.173-0.771-48.159,19.284-66.242
		c7.957-7.175,17.479-11.467,27.712-14.27c2.993-0.818,5.464-1.161,3.852,3.579c-1.887,5.534-1.452,11.213,0.844,16.591
		c1.083,2.537,1.061,3.734-2.021,4.573c-24.063,6.554-31.896,27.243-29.727,48.356c2.38,23.138,13.556,42.143,27.982,59.646
		C903.277,149.906,909.692,155.952,915.991,162.488L915.991,162.488z"/>
	<path id="path30" inkscape:connector-curvature="0" fill="#969696" d="M1072.482,174.749c-2.229-5.379-5.643-9.518-11.021-12.305
		c8.238-8.214,16.213-16.227,23.041-25.276c13.817-18.317,23.714-38.167,23.571-61.744c-0.122-20.373-10.655-34.372-30.091-40.298
		c-2.708-0.826-3.467-1.408-2.155-4.295c3.045-6.71,2.602-13.597-0.232-20.396c2.045-1.085,3.916-0.364,5.8,0.154
		c30.808,8.478,48.604,32.408,47.914,64.591c-0.57,26.619-11.44,49.229-27.572,69.687
		C1093.165,155.733,1083.491,165.559,1072.482,174.749z"/>
	<path id="path32" inkscape:connector-curvature="0" fill="#969696" d="M995.225,406.541c0,32.973-0.065,65.943,0.082,98.914
		c0.02,4.219-0.588,6.145-5.531,5.986c-4.444-0.143-5.809-1.115-5.798-5.783c0.163-66.109,0.169-132.219-0.011-198.327
		c-0.014-4.651,1.424-5.532,5.612-5.381c3.771,0.136,5.833,0.16,5.79,5.18C995.088,340.264,995.225,373.403,995.225,406.541
		L995.225,406.541z"/>
	<path id="path34" inkscape:connector-curvature="0" fill="#939393" d="M958.221,21.165c0.134,4.584-0.641,8.998-3.063,12.927
		c-2.646,4.288-7.117,4.367-9.479-0.066c-4.517-8.481-4.548-17.279-0.111-25.795c2.463-4.725,6.962-4.597,9.705-0.013
		C957.648,12.188,958.363,16.592,958.221,21.165z"/>
	<path id="path36" inkscape:connector-curvature="0" fill="#939393" d="M1019.236,20.831c-0.164-4.586,0.643-8.979,3.089-12.899
		c2.587-4.144,6.286-4.174,9.229-0.239c4.588,6.129,4.463,20.995-0.226,27.066c-2.574,3.335-6.255,3.379-8.672-0.134
		C1019.822,30.501,1019.066,25.755,1019.236,20.831z"/>
	<path id="path38" inkscape:connector-curvature="0" fill="#D8D0BC" d="M108.292,307.716c57.536,0.042,99.225,42.151,99.112,100.112
		c-0.108,56.115-42.872,98.207-99.713,98.145c-55.885-0.061-97.788-43.297-97.687-100.797
		C10.102,350.235,53.023,307.675,108.292,307.716L108.292,307.716z"/>
	<path id="path40" inkscape:connector-curvature="0" fill="#D8D0BC" d="M457.566,397.445c-30.32,0-60.639,0.002-90.958-0.002
		c-7.461,0-7.617-0.082-6.306-7.563c7.035-40.104,30.271-66.377,68.953-78.14c51.333-15.609,104.246,11.628,122.013,61.902
		c2.169,6.139,3.193,12.522,4.315,18.921c0.78,4.438-0.78,4.956-4.563,4.942C519.87,397.396,488.718,397.445,457.566,397.445
		L457.566,397.445z"/>
	<path id="path42" inkscape:connector-curvature="0" fill="#D8D0BC" d="M1246.945,658.15c-30.656,0-61.313,0.002-91.971-0.002
		c-6.201,0-6.508-0.051-5.666-6.33c3.87-28.898,17.82-51.859,42.395-67.479c50.016-31.787,116.162-17.438,144.721,40.15
		c4.548,9.168,6.983,18.943,8.226,29.129c0.496,4.063-0.599,4.617-4.234,4.602C1309.258,658.095,1278.102,658.15,1246.945,658.15
		L1246.945,658.15z"/>
	<path id="path44" inkscape:connector-curvature="0" fill="#D8D0BC" d="M886.301,766.292c-61.83,0.563-99.874-47.438-99.329-101.412
		c0.543-53.857,42.869-97.395,100.521-96.854c54.582,0.512,96.831,43.307,96.853,99.084
		C984.364,723.576,942.118,766.314,886.301,766.292z"/>
	<path id="path46" inkscape:connector-curvature="0" fill="#FDFDFD" d="M883.333,141.983c-13.091-15.891-23.309-33.25-26.547-53.93
		c-2.712-17.316,0.908-33.08,12.756-46.47c1.021-1.155,1.809-2.775,3.582-2.956c0.62,0.458,0.625,0.928,0.286,1.374
		c-7.546,9.928-11.851,21.006-12.649,33.547c-0.85,13.281,2.359,25.676,7.247,37.803c4.373,10.852,10.613,20.689,16.616,30.657
		C884.187,142.428,883.756,142.42,883.333,141.983z"/>
	<path id="path48" inkscape:connector-curvature="0" fill="#E5E5E5" d="M883.333,141.983c0.429,0.008,0.855,0.016,1.288,0.024
		c0.582,0.726,1.161,1.452,2.363,2.959C884.496,144.383,883.93,143.166,883.333,141.983z"/>
	<path id="path50" inkscape:connector-curvature="0" fill="#B9B9B9" d="M889.954,148.642c-0.21,0.86-0.653,0.836-1.001,0.515
		c-0.439-0.407-0.765-0.939-1.14-1.418c0.354-0.116,0.852-0.438,1.032-0.308C889.321,147.764,889.656,148.295,889.954,148.642z"/>
	<path id="path52" inkscape:connector-curvature="0" fill="#FDFDFD" d="M1096.141,136.883c6.225-10.976,12.526-21.899,16.396-34.027
		c7.129-22.337,6.1-43.511-8.52-62.88c-0.166-0.221-0.109-0.608-0.213-1.273c2.213-0.075,3.074,1.697,4.109,2.899
		c14.947,17.336,16.396,37.096,10.056,58.077c-4.28,14.164-11.555,26.788-20.755,38.329
		C1096.292,138.171,1095.817,137.91,1096.141,136.883L1096.141,136.883z"/>
	<path id="path54" inkscape:connector-curvature="0" fill="#E8E8E8" d="M1096.141,136.883c0.356,0.375,0.717,0.749,1.075,1.125
		c-1.529,2.465-3.178,4.831-6.521,7.715C1092.308,141.527,1094.102,139.134,1096.141,136.883z"/>
	<path id="path56" inkscape:connector-curvature="0" fill="#B6B6B6" d="M1088.093,149.495c-0.728-0.488-0.564-0.975-0.249-1.35
		c0.298-0.354,0.707-0.771,1.117-0.834c0.606-0.093,0.816,0.429,0.471,0.893C1089.057,148.707,1088.523,149.092,1088.093,149.495z"
		/>
</g>
</svg>
